M48
;Layer_Color=9474304
;FILE_FORMAT=2:5
INCH,LZ
;TYPE=PLATED
T1F00S00C0.01200
T3F00S00C0.01968
T4F00S00C0.03937
%
T01
X00088Y00245
X0008Y00325
X00118Y00357
X0021Y003285
X00255Y0042
X00256Y00456
X00242Y0049247
X0027Y006
X00315Y0063
X0013053Y0062518
X00146Y00655
X00181Y00692
X00083Y00775
X0010975Y0055834
X0041Y00487
X00403Y00448
X00313Y00373
X004905Y00325
X00535Y00314
X0054722Y0047678
X0045167Y0070167
X00419Y00726
X00347Y00828
X00304Y00831
X0062Y00782
X0057Y00872
X00395Y008735
X00445Y00932
X00345Y01141
X00328Y01249
X00239Y01266
X00249Y01363
Y01416
X0036
Y01363
X00471
Y01416
X00138
Y01363
X00054Y0114
Y00881
X0018Y00989
T03
X005Y0109
Y0128094
T04
X0025079Y0012551
X003Y0022
X0037874
X0047717
X0042795Y0012551
X0020157Y0022
M30
