G04 Layer_Color=255*
%FSLAX25Y25*%
%MOIN*%
G70*
G01*
G75*
%ADD10R,0.03150X0.03150*%
G04:AMPARAMS|DCode=11|XSize=59.05mil|YSize=11.81mil|CornerRadius=0mil|HoleSize=0mil|Usage=FLASHONLY|Rotation=45.000|XOffset=0mil|YOffset=0mil|HoleType=Round|Shape=Round|*
%AMOVALD11*
21,1,0.04724,0.01181,0.00000,0.00000,45.0*
1,1,0.01181,-0.01670,-0.01670*
1,1,0.01181,0.01670,0.01670*
%
%ADD11OVALD11*%

G04:AMPARAMS|DCode=12|XSize=59.05mil|YSize=11.81mil|CornerRadius=0mil|HoleSize=0mil|Usage=FLASHONLY|Rotation=135.000|XOffset=0mil|YOffset=0mil|HoleType=Round|Shape=Round|*
%AMOVALD12*
21,1,0.04724,0.01181,0.00000,0.00000,135.0*
1,1,0.01181,0.01670,-0.01670*
1,1,0.01181,-0.01670,0.01670*
%
%ADD12OVALD12*%

%ADD13R,0.03201X0.03937*%
%ADD14R,0.02362X0.03150*%
%ADD18O,0.07874X0.04724*%
%ADD19R,0.05905X0.03150*%
%ADD20O,0.05905X0.11811*%
%ADD21O,0.07874X0.11811*%
%ADD22O,0.07874X0.15748*%
D10*
X6400Y71950D02*
D03*
Y65650D02*
D03*
Y50001D02*
D03*
Y56300D02*
D03*
X61000Y55150D02*
D03*
Y48850D02*
D03*
Y73150D02*
D03*
Y66850D02*
D03*
D11*
X37822Y71340D02*
D03*
X39215Y69949D02*
D03*
X40606Y68557D02*
D03*
X41998Y67165D02*
D03*
X43390Y65773D02*
D03*
X44782Y64381D02*
D03*
X46174Y62989D02*
D03*
X47566Y61597D02*
D03*
X48958Y60205D02*
D03*
X50350Y58813D02*
D03*
X51742Y57421D02*
D03*
X53134Y56029D02*
D03*
X29471Y32367D02*
D03*
X28078Y33758D02*
D03*
X26686Y35151D02*
D03*
X25294Y36542D02*
D03*
X23903Y37935D02*
D03*
X22510Y39326D02*
D03*
X21119Y40718D02*
D03*
X19727Y42110D02*
D03*
X18335Y43502D02*
D03*
X16943Y44894D02*
D03*
X15551Y46286D02*
D03*
X14159Y47678D02*
D03*
D12*
X53133Y47678D02*
D03*
X51742Y46285D02*
D03*
X50349Y44894D02*
D03*
X48958Y43502D02*
D03*
X47565Y42110D02*
D03*
X46174Y40718D02*
D03*
X44781Y39326D02*
D03*
X43390Y37934D02*
D03*
X41998Y36542D02*
D03*
X40606Y35150D02*
D03*
X39214Y33758D02*
D03*
X37822Y32366D02*
D03*
X14160Y56029D02*
D03*
X15551Y57422D02*
D03*
X16943Y58813D02*
D03*
X18335Y60206D02*
D03*
X19727Y61597D02*
D03*
X21119Y62990D02*
D03*
X22511Y64381D02*
D03*
X23903Y65773D02*
D03*
X25295Y67165D02*
D03*
X26687Y68557D02*
D03*
X28079Y69949D02*
D03*
X29471Y71341D02*
D03*
D13*
X52000Y79000D02*
D03*
X47000D02*
D03*
X42000D02*
D03*
X37000D02*
D03*
X32000D02*
D03*
X27000D02*
D03*
X22000D02*
D03*
X17000D02*
D03*
D14*
X61953Y24232D02*
D03*
X56047D02*
D03*
X61953Y40768D02*
D03*
X56047D02*
D03*
D18*
X60433Y104276D02*
D03*
Y132819D02*
D03*
D19*
X50000Y109000D02*
D03*
Y128094D02*
D03*
D20*
X30000Y22000D02*
D03*
X37874D02*
D03*
D21*
X47717D02*
D03*
X20157D02*
D03*
D22*
X57559Y12748D02*
D03*
X10315D02*
D03*
M02*
