G04 Layer_Color=16711935*
%FSLAX25Y25*%
%MOIN*%
G70*
G01*
G75*
%ADD16C,0.01000*%
D16*
X2000Y7200D02*
X2091Y6158D01*
X2362Y5148D01*
X2804Y4200D01*
X3404Y3343D01*
X4143Y2604D01*
X5000Y2004D01*
X5948Y1562D01*
X6958Y1291D01*
X8000Y1200D01*
X10000Y152000D02*
X9036Y151942D01*
X8085Y151768D01*
X7163Y151480D01*
X6282Y151084D01*
X5455Y150584D01*
X4695Y149988D01*
X4012Y149305D01*
X3416Y148545D01*
X2916Y147718D01*
X2520Y146837D01*
X2232Y145914D01*
X2058Y144964D01*
X2000Y144000D01*
X66000Y143000D02*
X65943Y144008D01*
X65774Y145003D01*
X65495Y145973D01*
X65109Y146905D01*
X64621Y147788D01*
X64037Y148611D01*
X63364Y149364D01*
X62611Y150037D01*
X61788Y150620D01*
X60905Y151109D01*
X59973Y151495D01*
X59003Y151774D01*
X58008Y151943D01*
X57000Y152000D01*
X60000Y1200D02*
X61042Y1291D01*
X62052Y1562D01*
X63000Y2004D01*
X63857Y2604D01*
X64596Y3343D01*
X65196Y4200D01*
X65638Y5148D01*
X65909Y6158D01*
X66000Y7200D01*
X2000D02*
Y144000D01*
X10000Y152000D02*
X57000D01*
X66000Y7200D02*
Y143000D01*
X8000Y1200D02*
X60000D01*
M02*
