G04 Layer_Physical_Order=2*
G04 Layer_Color=16711680*
%FSLAX25Y25*%
%MOIN*%
G70*
G01*
G75*
%ADD10R,0.03150X0.03150*%
%ADD15C,0.00600*%
%ADD16C,0.01000*%
%ADD17C,0.02000*%
%ADD18O,0.07874X0.04724*%
%ADD19R,0.05905X0.03150*%
%ADD20O,0.05905X0.11811*%
%ADD21O,0.07874X0.11811*%
%ADD22O,0.07874X0.15748*%
%ADD23C,0.02400*%
%ADD24C,0.03937*%
%ADD25R,0.03150X0.03150*%
%ADD26R,0.05905X0.01575*%
%ADD27R,0.03937X0.05512*%
%ADD28O,0.08000X0.02400*%
G04:AMPARAMS|DCode=29|XSize=86.61mil|YSize=165.35mil|CornerRadius=4.33mil|HoleSize=0mil|Usage=FLASHONLY|Rotation=0.000|XOffset=0mil|YOffset=0mil|HoleType=Round|Shape=RoundedRectangle|*
%AMROUNDEDRECTD29*
21,1,0.08661,0.15669,0,0,0.0*
21,1,0.07795,0.16535,0,0,0.0*
1,1,0.00866,0.03898,-0.07835*
1,1,0.00866,-0.03898,-0.07835*
1,1,0.00866,-0.03898,0.07835*
1,1,0.00866,0.03898,0.07835*
%
%ADD29ROUNDEDRECTD29*%
%ADD30C,0.05905*%
%ADD31R,0.07000X0.04000*%
%ADD32R,0.11024X0.08661*%
%ADD33R,0.01968X0.00984*%
%ADD34R,0.03543X0.06299*%
%ADD35C,0.00800*%
G36*
X18450Y94900D02*
X18444Y94957D01*
X18426Y95008D01*
X18395Y95053D01*
X18352Y95092D01*
X18297Y95125D01*
X18230Y95152D01*
X18150Y95173D01*
X18058Y95188D01*
X17955Y95197D01*
X17838Y95200D01*
Y95800D01*
X17955Y95803D01*
X18058Y95812D01*
X18150Y95827D01*
X18230Y95848D01*
X18297Y95875D01*
X18352Y95908D01*
X18395Y95947D01*
X18426Y95992D01*
X18444Y96043D01*
X18450Y96100D01*
Y94900D01*
D02*
G37*
G36*
X13705Y96043D02*
X13724Y95992D01*
X13755Y95947D01*
X13797Y95908D01*
X13852Y95875D01*
X13920Y95848D01*
X13999Y95827D01*
X14091Y95812D01*
X14195Y95803D01*
X14311Y95800D01*
Y95200D01*
X14195Y95197D01*
X14091Y95188D01*
X13999Y95173D01*
X13920Y95152D01*
X13852Y95125D01*
X13797Y95092D01*
X13755Y95053D01*
X13724Y95008D01*
X13705Y94957D01*
X13699Y94900D01*
Y96100D01*
X13705Y96043D01*
D02*
G37*
G36*
X37287Y93588D02*
X37240Y93622D01*
X37185Y93639D01*
X37121D01*
X37049Y93622D01*
X36968Y93588D01*
X36879Y93537D01*
X36782Y93469D01*
X36676Y93384D01*
X36438Y93164D01*
X36014Y93588D01*
X36133Y93711D01*
X36319Y93931D01*
X36387Y94029D01*
X36438Y94118D01*
X36472Y94199D01*
X36489Y94271D01*
Y94335D01*
X36472Y94390D01*
X36438Y94436D01*
X37287Y93588D01*
D02*
G37*
G36*
X4413Y97366D02*
X4635Y97177D01*
X4733Y97108D01*
X4822Y97056D01*
X4902Y97021D01*
X4974Y97003D01*
X5037Y97001D01*
X5091Y97017D01*
X5137Y97050D01*
X4301Y96213D01*
X4333Y96259D01*
X4349Y96313D01*
X4348Y96376D01*
X4330Y96448D01*
X4295Y96529D01*
X4242Y96618D01*
X4173Y96716D01*
X4087Y96822D01*
X3864Y97062D01*
X4289Y97486D01*
X4413Y97366D01*
D02*
G37*
G36*
X9605Y102804D02*
X9520Y102773D01*
X9445Y102723D01*
X9380Y102652D01*
X9325Y102561D01*
X9280Y102449D01*
X9245Y102318D01*
X9220Y102166D01*
X9205Y101994D01*
X9200Y101802D01*
X8200D01*
X8195Y101994D01*
X8180Y102166D01*
X8155Y102318D01*
X8120Y102449D01*
X8075Y102561D01*
X8020Y102652D01*
X7955Y102723D01*
X7880Y102773D01*
X7795Y102804D01*
X7700Y102814D01*
X9700D01*
X9605Y102804D01*
D02*
G37*
G36*
X17143Y98060D02*
X17074Y98125D01*
X16998Y98182D01*
X16917Y98233D01*
X16830Y98278D01*
X16738Y98315D01*
X16640Y98346D01*
X16536Y98369D01*
X16426Y98386D01*
X16310Y98397D01*
X16189Y98400D01*
Y99400D01*
X16310Y99403D01*
X16426Y99414D01*
X16536Y99431D01*
X16640Y99454D01*
X16738Y99485D01*
X16830Y99522D01*
X16917Y99567D01*
X16998Y99618D01*
X17074Y99675D01*
X17143Y99740D01*
Y98060D01*
D02*
G37*
G36*
X28285Y97062D02*
X28165Y96938D01*
X27976Y96716D01*
X27907Y96618D01*
X27855Y96529D01*
X27820Y96448D01*
X27802Y96376D01*
X27801Y96313D01*
X27816Y96259D01*
X27849Y96213D01*
X27013Y97050D01*
X27058Y97017D01*
X27112Y97001D01*
X27175Y97003D01*
X27247Y97021D01*
X27328Y97056D01*
X27417Y97108D01*
X27515Y97177D01*
X27621Y97263D01*
X27861Y97486D01*
X28285Y97062D01*
D02*
G37*
G36*
X43562Y90716D02*
X43784Y90527D01*
X43882Y90458D01*
X43971Y90406D01*
X44052Y90371D01*
X44124Y90353D01*
X44187Y90352D01*
X44241Y90368D01*
X44287Y90400D01*
X43450Y89564D01*
X43483Y89609D01*
X43499Y89664D01*
X43497Y89727D01*
X43479Y89798D01*
X43444Y89879D01*
X43392Y89968D01*
X43323Y90066D01*
X43237Y90173D01*
X43014Y90412D01*
X43438Y90837D01*
X43562Y90716D01*
D02*
G37*
G36*
X10854Y52490D02*
X10898Y52423D01*
X10954Y52363D01*
X11024Y52311D01*
X11107Y52268D01*
X11203Y52232D01*
X11311Y52204D01*
X11433Y52184D01*
X11568Y52172D01*
X11688Y52169D01*
X11700Y52169D01*
X12276Y52207D01*
X12316Y52219D01*
X12340Y52232D01*
X12348Y52248D01*
Y51289D01*
X12340Y51304D01*
X12316Y51318D01*
X12276Y51330D01*
X12220Y51340D01*
X12148Y51349D01*
X11956Y51361D01*
X11662Y51366D01*
X11587Y51364D01*
X11452Y51352D01*
X11332Y51332D01*
X11224Y51304D01*
X11130Y51268D01*
X11050Y51224D01*
X10982Y51171D01*
X10928Y51111D01*
X10887Y51042D01*
X10860Y50966D01*
X10823Y52566D01*
X10854Y52490D01*
D02*
G37*
G36*
X26602Y88561D02*
X26611Y88457D01*
X26626Y88366D01*
X26647Y88286D01*
X26674Y88219D01*
X26707Y88164D01*
X26746Y88121D01*
X26791Y88090D01*
X26842Y88072D01*
X26899Y88066D01*
X25699D01*
X25756Y88072D01*
X25807Y88090D01*
X25852Y88121D01*
X25891Y88164D01*
X25924Y88219D01*
X25951Y88286D01*
X25972Y88366D01*
X25987Y88457D01*
X25996Y88561D01*
X25999Y88678D01*
X26599D01*
X26602Y88561D01*
D02*
G37*
G36*
X23052Y48896D02*
X23012Y49011D01*
X22964Y49114D01*
X22908Y49204D01*
X22845Y49283D01*
X22774Y49349D01*
X22695Y49403D01*
X22610Y49446D01*
X22516Y49476D01*
X22415Y49494D01*
X22321Y49499D01*
X22257Y49498D01*
X22065Y49484D01*
X21987Y49471D01*
X21921Y49455D01*
X21867Y49435D01*
X21825Y49412D01*
X21795Y49385D01*
X21777Y49355D01*
X21771Y49321D01*
Y50279D01*
X21777Y50245D01*
X21795Y50215D01*
X21825Y50188D01*
X21867Y50165D01*
X21921Y50145D01*
X21987Y50129D01*
X22065Y50116D01*
X22155Y50107D01*
X22371Y50100D01*
Y49617D01*
X22636Y50100D01*
X22717Y50103D01*
X22807Y50111D01*
X23008Y50144D01*
X23120Y50169D01*
X23502Y50277D01*
X23794Y50376D01*
X23052Y48896D01*
D02*
G37*
G36*
X39555Y95054D02*
X39568Y94970D01*
X39590Y94886D01*
X39621Y94802D01*
X39661Y94717D01*
X39708Y94632D01*
X39765Y94547D01*
X39830Y94461D01*
X39904Y94375D01*
X39986Y94289D01*
Y93440D01*
X39955Y93468D01*
X39922Y93493D01*
X39886Y93515D01*
X39847Y93535D01*
X39806Y93551D01*
X39762Y93564D01*
X39716Y93575D01*
X39667Y93582D01*
X39616Y93586D01*
X39562Y93588D01*
X39550Y95137D01*
X39555Y95054D01*
D02*
G37*
G36*
X41782Y106634D02*
Y102800D01*
X41852Y102449D01*
X42051Y102151D01*
X42982Y101220D01*
Y100672D01*
X43052Y100321D01*
X43251Y100023D01*
X45068Y98206D01*
X44877Y97744D01*
X43425D01*
X43035Y97666D01*
X42704Y97445D01*
X42483Y97115D01*
X42406Y96724D01*
Y95650D01*
X45000D01*
Y94650D01*
X42406D01*
Y93948D01*
X42323Y93532D01*
X41780Y93368D01*
X40484Y94664D01*
X40456Y94736D01*
X40386Y94810D01*
X40336Y94869D01*
X40295Y94923D01*
X40263Y94971D01*
X40239Y95014D01*
X40224Y95045D01*
Y96724D01*
X40034Y97184D01*
X39575Y97374D01*
X36425D01*
X35966Y97184D01*
X35776Y96724D01*
Y94294D01*
X35651Y94147D01*
X35547Y94039D01*
X35518Y93965D01*
X29551Y87998D01*
X29352Y87701D01*
X29282Y87350D01*
Y86434D01*
X28997Y86204D01*
X28523Y86412D01*
Y88091D01*
X28333Y88550D01*
X27874Y88740D01*
X27228D01*
X27217Y88765D01*
Y93250D01*
X27228Y93276D01*
X27874D01*
X28333Y93466D01*
X28523Y93925D01*
Y96357D01*
X28646Y96501D01*
X28752Y96610D01*
X28781Y96684D01*
X31249Y99152D01*
X31448Y99450D01*
X31518Y99801D01*
Y102114D01*
X31540Y102165D01*
X33500D01*
X34202Y102304D01*
X34798Y102702D01*
X34953Y102935D01*
X34988Y102950D01*
X35023Y103035D01*
X35159Y103048D01*
X35272Y103051D01*
X35344Y103082D01*
X37197D01*
X37549Y103152D01*
X37846Y103351D01*
X41320Y106825D01*
X41782Y106634D01*
D02*
G37*
G36*
X26842Y93932D02*
X26791Y93914D01*
X26746Y93884D01*
X26707Y93842D01*
X26674Y93788D01*
X26647Y93722D01*
X26626Y93644D01*
X26611Y93554D01*
X26602Y93452D01*
X26599Y93338D01*
X25999D01*
X25996Y93452D01*
X25987Y93554D01*
X25972Y93644D01*
X25951Y93722D01*
X25924Y93788D01*
X25891Y93842D01*
X25852Y93884D01*
X25807Y93914D01*
X25756Y93932D01*
X25699Y93938D01*
X26899D01*
X26842Y93932D01*
D02*
G37*
G36*
X13863Y47346D02*
X13812Y47328D01*
X13767Y47298D01*
X13728Y47256D01*
X13695Y47202D01*
X13668Y47136D01*
X13647Y47058D01*
X13632Y46968D01*
X13623Y46866D01*
X13620Y46752D01*
X13020D01*
X13017Y46866D01*
X13008Y46968D01*
X12993Y47058D01*
X12972Y47136D01*
X12945Y47202D01*
X12912Y47256D01*
X12873Y47298D01*
X12828Y47328D01*
X12777Y47346D01*
X12720Y47352D01*
X13920D01*
X13863Y47346D01*
D02*
G37*
G36*
X21343D02*
X21292Y47328D01*
X21247Y47298D01*
X21208Y47256D01*
X21175Y47202D01*
X21148Y47136D01*
X21127Y47058D01*
X21112Y46968D01*
X21103Y46866D01*
X21100Y46752D01*
X20500D01*
X20497Y46866D01*
X20488Y46968D01*
X20473Y47058D01*
X20452Y47136D01*
X20425Y47202D01*
X20392Y47256D01*
X20353Y47298D01*
X20308Y47328D01*
X20257Y47346D01*
X20200Y47352D01*
X21400D01*
X21343Y47346D01*
D02*
G37*
G36*
X13114Y104490D02*
X13036Y104409D01*
X12903Y104248D01*
X12847Y104168D01*
X12798Y104087D01*
X12755Y104008D01*
X12720Y103928D01*
X12692Y103848D01*
X12671Y103769D01*
X12657Y103690D01*
X12256Y104902D01*
X12281Y104847D01*
X12315Y104809D01*
X12357Y104788D01*
X12408Y104784D01*
X12467Y104797D01*
X12535Y104827D01*
X12611Y104874D01*
X12696Y104937D01*
X12789Y105018D01*
X12891Y105115D01*
X13114Y104490D01*
D02*
G37*
G36*
X43762Y46525D02*
X43734Y46575D01*
X43693Y46605D01*
X43640Y46614D01*
X43574Y46601D01*
X43496Y46568D01*
X43404Y46514D01*
X43301Y46439D01*
X43184Y46343D01*
X42913Y46089D01*
X42889Y46913D01*
X42991Y47019D01*
X43156Y47218D01*
X43220Y47310D01*
X43270Y47397D01*
X43307Y47480D01*
X43331Y47557D01*
X43342Y47630D01*
X43340Y47698D01*
X43325Y47761D01*
X43762Y46525D01*
D02*
G37*
G36*
X35287Y47576D02*
X35647Y47272D01*
X35808Y47160D01*
X35956Y47074D01*
X36091Y47016D01*
X36213Y46984D01*
X36322Y46979D01*
X36419Y47001D01*
X36502Y47050D01*
X34950Y45797D01*
X35012Y45867D01*
X35045Y45953D01*
X35047Y46055D01*
X35020Y46172D01*
X34963Y46306D01*
X34876Y46455D01*
X34759Y46621D01*
X34613Y46802D01*
X34231Y47211D01*
X35088Y47769D01*
X35287Y47576D01*
D02*
G37*
G36*
X26600Y46983D02*
X26602Y46889D01*
X26626Y46589D01*
X26640Y46482D01*
X26731Y46025D01*
X26761Y45902D01*
X25418Y46786D01*
X25528Y46809D01*
X25627Y46841D01*
X25715Y46884D01*
X25790Y46935D01*
X25854Y46997D01*
X25907Y47069D01*
X25948Y47150D01*
X25977Y47240D01*
X25994Y47341D01*
X26000Y47451D01*
X26600Y46983D01*
D02*
G37*
G36*
X4792Y108603D02*
X4787Y108621D01*
X4772Y108638D01*
X4747Y108652D01*
X4713Y108665D01*
X4669Y108676D01*
X4615Y108684D01*
X4551Y108691D01*
X4393Y108699D01*
X4300Y108700D01*
Y109300D01*
X4393Y109301D01*
X4615Y109316D01*
X4669Y109324D01*
X4713Y109335D01*
X4747Y109348D01*
X4772Y109362D01*
X4787Y109379D01*
X4792Y109397D01*
Y108603D01*
D02*
G37*
G36*
X41900Y50214D02*
X41902Y50129D01*
X41922Y49940D01*
X41938Y49836D01*
X42018Y49484D01*
X42095Y49217D01*
X42140Y49074D01*
X40701Y49862D01*
X40815Y49897D01*
X40917Y49940D01*
X41006Y49992D01*
X41084Y50051D01*
X41150Y50119D01*
X41204Y50195D01*
X41246Y50280D01*
X41276Y50372D01*
X41294Y50473D01*
X41300Y50582D01*
X41900Y50214D01*
D02*
G37*
G36*
X31143Y102808D02*
X31092Y102789D01*
X31047Y102759D01*
X31008Y102716D01*
X30975Y102661D01*
X30948Y102593D01*
X30927Y102514D01*
X30912Y102422D01*
X30903Y102318D01*
X30900Y102202D01*
X30300D01*
X30297Y102318D01*
X30288Y102422D01*
X30273Y102514D01*
X30252Y102593D01*
X30225Y102661D01*
X30192Y102716D01*
X30153Y102759D01*
X30108Y102789D01*
X30057Y102808D01*
X30000Y102814D01*
X31200D01*
X31143Y102808D01*
D02*
G37*
G36*
X12456Y103419D02*
X12392Y103364D01*
X12358Y103293D01*
X12353Y103206D01*
X12378Y103104D01*
X12432Y102987D01*
X12516Y102854D01*
X12630Y102705D01*
X12773Y102541D01*
X12945Y102362D01*
X11798Y102095D01*
X11626Y102260D01*
X11302Y102528D01*
X11150Y102631D01*
X11005Y102714D01*
X10867Y102775D01*
X10736Y102816D01*
X10612Y102836D01*
X10495Y102835D01*
X10384Y102814D01*
X12549Y103459D01*
X12456Y103419D01*
D02*
G37*
G36*
X34534Y104539D02*
X34556Y104489D01*
X34593Y104444D01*
X34644Y104406D01*
X34710Y104374D01*
X34790Y104347D01*
X34885Y104326D01*
X34995Y104312D01*
X35120Y104303D01*
X35259Y104300D01*
Y103700D01*
X35120Y103697D01*
X34886Y103674D01*
X34791Y103653D01*
X34711Y103627D01*
X34645Y103595D01*
X34594Y103557D01*
X34557Y103513D01*
X34535Y103464D01*
X34528Y103408D01*
X34527Y104595D01*
X34534Y104539D01*
D02*
G37*
G36*
X58309Y48435D02*
X58339Y48093D01*
X58389Y47792D01*
X58459Y47530D01*
X58549Y47309D01*
X58659Y47128D01*
X58789Y46987D01*
X58939Y46886D01*
X59109Y46826D01*
X59299Y46806D01*
X56087D01*
X56099Y46786D01*
X56347Y46569D01*
X56542Y46426D01*
X56723Y46309D01*
X56889Y46218D01*
X57040Y46153D01*
X57177Y46114D01*
X57300Y46101D01*
X56299Y45100D01*
X56286Y45223D01*
X56247Y45360D01*
X56182Y45511D01*
X56091Y45677D01*
X55974Y45858D01*
X55831Y46053D01*
X55629Y46293D01*
X55594Y46313D01*
X55496Y46358D01*
X55389Y46396D01*
X55274Y46427D01*
X55151Y46450D01*
X55020Y46467D01*
X54881Y46476D01*
X54734Y46478D01*
X55062Y46806D01*
X54734D01*
X54812Y46810D01*
X54873Y46823D01*
X54917Y46845D01*
X54943Y46876D01*
X54952Y46915D01*
X54943Y46963D01*
X54917Y47019D01*
X54873Y47085D01*
X54812Y47159D01*
X54734Y47242D01*
X55263D01*
X55423Y47402D01*
X55542Y47285D01*
X55922Y47666D01*
X55924Y47519D01*
X55950Y47249D01*
X55965Y47170D01*
X56049Y47309D01*
X56139Y47530D01*
X56209Y47792D01*
X56259Y48093D01*
X56289Y48435D01*
X56299Y48818D01*
X58299D01*
X58309Y48435D01*
D02*
G37*
G36*
X10295Y104236D02*
X10327Y104244D01*
X10347Y104254D01*
X10688Y103900D01*
X10347Y103546D01*
X9300Y103600D01*
Y104200D01*
X9600Y104205D01*
Y104300D01*
X9710Y104301D01*
X10059Y104324D01*
X10124Y104335D01*
X10180Y104347D01*
X10227Y104362D01*
X10266Y104378D01*
X10295Y104396D01*
Y104236D01*
D02*
G37*
G36*
X11065Y104253D02*
X11106Y104242D01*
X11166Y104232D01*
X11244Y104224D01*
X11590Y104206D01*
X12100Y104200D01*
Y103600D01*
X11912Y103599D01*
X11065Y103547D01*
X11041Y103535D01*
X10688Y103900D01*
X11041Y104265D01*
X11065Y104253D01*
D02*
G37*
G36*
X38456Y88827D02*
X38538Y88767D01*
X38628Y88715D01*
X38727Y88670D01*
X38833Y88632D01*
X38948Y88602D01*
X39071Y88578D01*
X39202Y88562D01*
X39341Y88552D01*
X39488Y88550D01*
X38300Y87362D01*
X38298Y87510D01*
X38272Y87780D01*
X38249Y87902D01*
X38218Y88017D01*
X38180Y88124D01*
X38135Y88222D01*
X38083Y88313D01*
X38024Y88395D01*
X37957Y88469D01*
X38381Y88893D01*
X38456Y88827D01*
D02*
G37*
G36*
X51543Y70432D02*
X51492Y70414D01*
X51447Y70384D01*
X51408Y70342D01*
X51375Y70288D01*
X51348Y70222D01*
X51327Y70144D01*
X51312Y70054D01*
X51303Y69952D01*
X51300Y69838D01*
X50700D01*
X50697Y69952D01*
X50688Y70054D01*
X50673Y70144D01*
X50652Y70222D01*
X50625Y70288D01*
X50592Y70342D01*
X50553Y70384D01*
X50508Y70414D01*
X50457Y70432D01*
X50400Y70438D01*
X51600D01*
X51543Y70432D01*
D02*
G37*
G36*
X6273Y67853D02*
X6197Y67912D01*
X6114Y67950D01*
X6025Y67968D01*
X5930Y67966D01*
X5829Y67943D01*
X5721Y67900D01*
X5608Y67836D01*
X5488Y67752D01*
X5362Y67648D01*
X5230Y67523D01*
X4758Y68466D01*
X4886Y68598D01*
X5096Y68854D01*
X5179Y68976D01*
X5248Y69095D01*
X5302Y69210D01*
X5341Y69322D01*
X5365Y69431D01*
X5375Y69535D01*
X5370Y69637D01*
X6273Y67853D01*
D02*
G37*
G36*
X18229Y68007D02*
X18077Y67988D01*
X17800Y67934D01*
X17675Y67899D01*
X17559Y67860D01*
X17452Y67816D01*
X17354Y67767D01*
X17265Y67713D01*
X17185Y67654D01*
X17114Y67590D01*
X16638Y67962D01*
X16706Y68038D01*
X16765Y68122D01*
X16815Y68213D01*
X16856Y68311D01*
X16888Y68416D01*
X16911Y68528D01*
X16924Y68647D01*
X16929Y68773D01*
X16924Y68906D01*
X16910Y69047D01*
X18229Y68007D01*
D02*
G37*
G36*
X28201Y60160D02*
X28288Y59900D01*
X28335Y59783D01*
X28440Y59571D01*
X28496Y59477D01*
X28556Y59390D01*
X28618Y59312D01*
X28683Y59241D01*
X28484Y58949D01*
X28851D01*
X28857Y58631D01*
X28245D01*
X28246Y58634D01*
X28247Y58644D01*
X28249Y58682D01*
X28250Y58812D01*
X28191Y58852D01*
X28110Y58894D01*
X28024Y58924D01*
X27933Y58943D01*
X27837Y58951D01*
X27737Y58947D01*
X27631Y58933D01*
X27521Y58907D01*
X27405Y58871D01*
X28162Y60301D01*
X28201Y60160D01*
D02*
G37*
G36*
X51303Y74045D02*
X51312Y73941D01*
X51327Y73850D01*
X51348Y73770D01*
X51375Y73703D01*
X51408Y73648D01*
X51447Y73605D01*
X51492Y73574D01*
X51543Y73556D01*
X51600Y73550D01*
X50400D01*
X50457Y73556D01*
X50508Y73574D01*
X50553Y73605D01*
X50592Y73648D01*
X50625Y73703D01*
X50652Y73770D01*
X50673Y73850D01*
X50688Y73941D01*
X50697Y74045D01*
X50700Y74162D01*
X51300D01*
X51303Y74045D01*
D02*
G37*
G36*
X11818Y71611D02*
X11691Y71478D01*
X11482Y71223D01*
X11400Y71100D01*
X11332Y70981D01*
X11280Y70865D01*
X11243Y70753D01*
X11220Y70644D01*
X11213Y70539D01*
X11220Y70437D01*
X10272Y72198D01*
X10351Y72140D01*
X10435Y72102D01*
X10526Y72085D01*
X10623Y72088D01*
X10725Y72112D01*
X10834Y72156D01*
X10948Y72220D01*
X11068Y72304D01*
X11195Y72409D01*
X11327Y72534D01*
X11818Y71611D01*
D02*
G37*
G36*
X45472Y71949D02*
X45488Y71849D01*
X45515Y71748D01*
X45553Y71647D01*
X45602Y71545D01*
X45661Y71442D01*
X45731Y71338D01*
X45812Y71234D01*
X45904Y71129D01*
X46007Y71024D01*
X44327D01*
X44429Y71129D01*
X44602Y71338D01*
X44672Y71442D01*
X44732Y71545D01*
X44780Y71647D01*
X44818Y71748D01*
X44845Y71849D01*
X44861Y71949D01*
X44867Y72049D01*
X45467D01*
X45472Y71949D01*
D02*
G37*
G36*
X16143Y66619D02*
X16076Y66544D01*
X16017Y66462D01*
X15965Y66372D01*
X15920Y66273D01*
X15882Y66167D01*
X15851Y66052D01*
X15828Y65929D01*
X15811Y65798D01*
X15802Y65659D01*
X15800Y65512D01*
X14612Y66700D01*
X14759Y66702D01*
X15029Y66728D01*
X15152Y66751D01*
X15267Y66782D01*
X15373Y66820D01*
X15472Y66865D01*
X15562Y66917D01*
X15644Y66976D01*
X15719Y67043D01*
X16143Y66619D01*
D02*
G37*
G36*
X51543Y63932D02*
X51492Y63914D01*
X51447Y63884D01*
X51408Y63842D01*
X51375Y63788D01*
X51348Y63722D01*
X51327Y63644D01*
X51312Y63554D01*
X51303Y63452D01*
X51300Y63338D01*
X50700D01*
X50697Y63452D01*
X50688Y63554D01*
X50673Y63644D01*
X50652Y63722D01*
X50625Y63788D01*
X50592Y63842D01*
X50553Y63884D01*
X50508Y63914D01*
X50457Y63932D01*
X50400Y63938D01*
X51600D01*
X51543Y63932D01*
D02*
G37*
G36*
X12806Y64302D02*
X12824Y64201D01*
X12854Y64108D01*
X12897Y64022D01*
X12951Y63944D01*
X13017Y63873D01*
X13096Y63810D01*
X13186Y63754D01*
X13289Y63706D01*
X13404Y63665D01*
X11923Y62923D01*
X11976Y63073D01*
X12156Y63710D01*
X12175Y63814D01*
X12197Y64000D01*
X12200Y64082D01*
X12800Y64411D01*
X12806Y64302D01*
D02*
G37*
G36*
X51303Y67545D02*
X51312Y67441D01*
X51327Y67350D01*
X51348Y67270D01*
X51375Y67203D01*
X51408Y67148D01*
X51447Y67105D01*
X51492Y67074D01*
X51543Y67056D01*
X51600Y67050D01*
X50400D01*
X50457Y67056D01*
X50508Y67074D01*
X50553Y67105D01*
X50592Y67148D01*
X50625Y67203D01*
X50652Y67270D01*
X50673Y67350D01*
X50688Y67441D01*
X50697Y67545D01*
X50700Y67662D01*
X51300D01*
X51303Y67545D01*
D02*
G37*
G36*
Y61045D02*
X51312Y60941D01*
X51327Y60850D01*
X51348Y60770D01*
X51375Y60703D01*
X51408Y60648D01*
X51447Y60605D01*
X51492Y60574D01*
X51543Y60556D01*
X51600Y60550D01*
X50400D01*
X50457Y60556D01*
X50508Y60574D01*
X50553Y60605D01*
X50592Y60648D01*
X50625Y60703D01*
X50652Y60770D01*
X50673Y60850D01*
X50688Y60941D01*
X50697Y61045D01*
X50700Y61162D01*
X51300D01*
X51303Y61045D01*
D02*
G37*
G36*
X58754Y63918D02*
X58659Y63858D01*
X58574Y63758D01*
X58501Y63618D01*
X58440Y63438D01*
X58389Y63218D01*
X58350Y62958D01*
X58322Y62658D01*
X58306Y62162D01*
X58350Y61542D01*
X58389Y61282D01*
X58440Y61062D01*
X58501Y60882D01*
X58574Y60742D01*
X58659Y60642D01*
X58754Y60582D01*
X58861Y60562D01*
X55737D01*
X55844Y60582D01*
X55940Y60642D01*
X56024Y60742D01*
X56097Y60882D01*
X56159Y61062D01*
X56209Y61282D01*
X56249Y61542D01*
X56277Y61842D01*
X56292Y62338D01*
X56249Y62958D01*
X56209Y63218D01*
X56159Y63438D01*
X56097Y63618D01*
X56024Y63758D01*
X55940Y63858D01*
X55844Y63918D01*
X55737Y63938D01*
X58861D01*
X58754Y63918D01*
D02*
G37*
G36*
Y70418D02*
X58659Y70358D01*
X58574Y70258D01*
X58501Y70118D01*
X58440Y69938D01*
X58389Y69718D01*
X58350Y69458D01*
X58322Y69158D01*
X58306Y68662D01*
X58350Y68042D01*
X58389Y67782D01*
X58440Y67562D01*
X58501Y67382D01*
X58574Y67242D01*
X58659Y67142D01*
X58754Y67082D01*
X58861Y67062D01*
X55737D01*
X55844Y67082D01*
X55940Y67142D01*
X56024Y67242D01*
X56097Y67382D01*
X56159Y67562D01*
X56209Y67782D01*
X56249Y68042D01*
X56277Y68342D01*
X56292Y68838D01*
X56249Y69458D01*
X56209Y69718D01*
X56159Y69938D01*
X56097Y70118D01*
X56024Y70258D01*
X55940Y70358D01*
X55844Y70418D01*
X55737Y70438D01*
X58861D01*
X58754Y70418D01*
D02*
G37*
G36*
X3626Y87312D02*
Y84941D01*
X3816Y84482D01*
X4276Y84292D01*
X7425D01*
X7643Y84175D01*
X7664Y84071D01*
X7907Y83707D01*
X9247Y82366D01*
X9014Y81893D01*
X8800Y81921D01*
Y78000D01*
X8300D01*
Y77500D01*
X4379D01*
X4449Y76968D01*
X4847Y76007D01*
X5481Y75181D01*
X6307Y74547D01*
X7268Y74149D01*
X8017Y74050D01*
Y73546D01*
X7373Y73461D01*
X6508Y73103D01*
X5766Y72534D01*
X5197Y71792D01*
X4839Y70927D01*
X4717Y70000D01*
X4756Y69702D01*
X4721Y69605D01*
X4724Y69549D01*
X4722Y69532D01*
X4715Y69501D01*
X4699Y69455D01*
X4671Y69395D01*
X4629Y69321D01*
X4576Y69244D01*
X4400Y69030D01*
X4289Y68915D01*
X4264Y68850D01*
X3584Y68170D01*
X3122Y68361D01*
Y87095D01*
X3621Y87317D01*
X3626Y87312D01*
D02*
G37*
G36*
X30279Y53150D02*
X30180Y53129D01*
X30110Y53093D01*
X30067Y53044D01*
X30053Y52980D01*
X30067Y52903D01*
X30110Y52811D01*
X30180Y52705D01*
X30279Y52584D01*
X30407Y52450D01*
X28993D01*
X28851Y52584D01*
X28710Y52705D01*
X28568Y52811D01*
X28427Y52903D01*
X28285Y52980D01*
X28144Y53044D01*
X28003Y53093D01*
X27861Y53129D01*
X27720Y53150D01*
X27578Y53157D01*
X30407D01*
X30279Y53150D01*
D02*
G37*
G36*
X44249Y81453D02*
Y73944D01*
X43749Y73792D01*
X43486Y74186D01*
X42758Y74672D01*
X42400Y74744D01*
Y72600D01*
Y70456D01*
X42758Y70528D01*
X42914Y70632D01*
X43364Y70331D01*
X43332Y70167D01*
X43471Y69464D01*
X43869Y68869D01*
X44464Y68471D01*
X44619Y68441D01*
X44764Y67962D01*
X41351Y64549D01*
X41152Y64251D01*
X41082Y63900D01*
Y59083D01*
X40582Y58983D01*
X40528Y59115D01*
X40069Y59305D01*
X36132D01*
X35672Y59115D01*
X35482Y58656D01*
Y53144D01*
X35672Y52685D01*
X36132Y52495D01*
X39590D01*
X39797Y51995D01*
X38251Y50449D01*
X38052Y50151D01*
X37982Y49800D01*
Y47830D01*
X37895Y47724D01*
X36134D01*
X36044Y47787D01*
X35723Y48059D01*
X35539Y48236D01*
X35474Y48262D01*
X31074Y52662D01*
X31079Y52685D01*
X31269Y53144D01*
Y58656D01*
X31079Y59115D01*
X30620Y59305D01*
X29395D01*
X29200Y59598D01*
X29186Y59612D01*
X29160Y59682D01*
X29111Y59735D01*
X29078Y59777D01*
X29043Y59828D01*
X29010Y59882D01*
X28928Y60048D01*
X28897Y60126D01*
X28822Y60350D01*
X28788Y60474D01*
X28781Y60482D01*
X28782Y60492D01*
X28723Y60564D01*
X28696Y60702D01*
X28298Y61298D01*
X27702Y61696D01*
X27000Y61835D01*
X26298Y61696D01*
X25702Y61298D01*
X25304Y60702D01*
X25165Y60000D01*
X25304Y59298D01*
X25702Y58702D01*
X26033Y58481D01*
Y54118D01*
X25571Y53926D01*
X25112Y54386D01*
X24814Y54585D01*
X24463Y54655D01*
X22462D01*
X22393Y54686D01*
X22236Y54691D01*
X22160Y54723D01*
X22144Y54748D01*
X22048Y54769D01*
X21784Y54879D01*
X19816D01*
X19356Y54688D01*
X19242Y54413D01*
X18832Y54583D01*
X15288D01*
X15249Y54604D01*
X15246Y54619D01*
X15025Y54950D01*
X14694Y55171D01*
X14304Y55249D01*
X13820D01*
Y53737D01*
X12820D01*
Y55576D01*
X12771Y55635D01*
X12810Y55834D01*
X12670Y56536D01*
X12273Y57131D01*
X11677Y57529D01*
X11030Y57658D01*
X10972Y57683D01*
X10842Y57685D01*
X10739Y57692D01*
X10647Y57703D01*
X10568Y57718D01*
X10501Y57736D01*
X10446Y57756D01*
X10401Y57776D01*
X10366Y57796D01*
X10338Y57816D01*
X10290Y57860D01*
X10222Y57884D01*
X10167Y57939D01*
X10275Y58538D01*
X10834Y58966D01*
X11403Y59708D01*
X11761Y60573D01*
X11777Y60694D01*
X12233Y60901D01*
X12350Y60822D01*
X13053Y60682D01*
X13755Y60822D01*
X14351Y61220D01*
X14748Y61815D01*
X14888Y62518D01*
X14748Y63220D01*
X14999Y63744D01*
X15302Y63804D01*
X15898Y64202D01*
X16296Y64798D01*
X16424Y65445D01*
X16449Y65503D01*
X16451Y65633D01*
X16458Y65736D01*
X16469Y65828D01*
X16485Y65907D01*
X16502Y65974D01*
X16522Y66029D01*
X16543Y66074D01*
X16563Y66109D01*
X16583Y66136D01*
X16626Y66185D01*
X16650Y66252D01*
X17481Y67083D01*
X17549Y67107D01*
X17596Y67150D01*
X17627Y67173D01*
X17669Y67198D01*
X17722Y67225D01*
X17787Y67252D01*
X17865Y67278D01*
X17948Y67301D01*
X18181Y67346D01*
X18312Y67363D01*
X18430Y67430D01*
X18802Y67504D01*
X19398Y67902D01*
X19796Y68498D01*
X19935Y69200D01*
X19796Y69902D01*
X19398Y70498D01*
X18802Y70896D01*
X18100Y71035D01*
X17398Y70896D01*
X16802Y70498D01*
X16404Y69902D01*
X16265Y69200D01*
X16290Y69071D01*
X16264Y68982D01*
X16275Y68862D01*
X16279Y68772D01*
X16276Y68695D01*
X16269Y68629D01*
X16258Y68574D01*
X16244Y68531D01*
X16230Y68496D01*
X16214Y68468D01*
X16197Y68444D01*
X16153Y68395D01*
X16146Y68373D01*
X16126Y68362D01*
X16111Y68309D01*
X15352Y67550D01*
X15285Y67526D01*
X15236Y67483D01*
X15209Y67463D01*
X15174Y67443D01*
X15129Y67422D01*
X15074Y67402D01*
X15007Y67385D01*
X14937Y67371D01*
X14724Y67351D01*
X14603Y67349D01*
X14545Y67324D01*
X13918Y67199D01*
X13829Y67191D01*
X13457Y67429D01*
X13425Y67922D01*
X28196Y82693D01*
X28675Y82547D01*
X28704Y82398D01*
X29102Y81802D01*
X29698Y81404D01*
X30400Y81265D01*
X31102Y81404D01*
X31698Y81802D01*
X32043Y82319D01*
X32366Y82322D01*
X32563Y82266D01*
X32628Y81942D01*
X33114Y81214D01*
X33842Y80728D01*
X34200Y80656D01*
Y82800D01*
X34700D01*
Y83300D01*
X36844D01*
X36807Y83482D01*
X37111Y83982D01*
X41720D01*
X44249Y81453D01*
D02*
G37*
G36*
X31943Y84219D02*
X31876Y84144D01*
X31817Y84062D01*
X31765Y83972D01*
X31720Y83873D01*
X31682Y83767D01*
X31651Y83652D01*
X31628Y83529D01*
X31611Y83398D01*
X31602Y83259D01*
X31600Y83112D01*
X30412Y84300D01*
X30559Y84302D01*
X30829Y84328D01*
X30952Y84351D01*
X31067Y84382D01*
X31173Y84420D01*
X31272Y84465D01*
X31362Y84517D01*
X31444Y84576D01*
X31519Y84643D01*
X31943Y84219D01*
D02*
G37*
G36*
X21777Y52214D02*
X21795Y52183D01*
X21825Y52156D01*
X21867Y52133D01*
X21921Y52113D01*
X21987Y52097D01*
X22065Y52084D01*
X22155Y52076D01*
X22371Y52068D01*
Y51468D01*
X22257Y51467D01*
X22065Y51452D01*
X21987Y51440D01*
X21921Y51424D01*
X21867Y51404D01*
X21825Y51381D01*
X21795Y51354D01*
X21777Y51323D01*
X21771Y51289D01*
Y52248D01*
X21777Y52214D01*
D02*
G37*
G36*
X13705Y87143D02*
X13724Y87092D01*
X13755Y87047D01*
X13797Y87008D01*
X13852Y86975D01*
X13920Y86948D01*
X13999Y86927D01*
X14091Y86912D01*
X14195Y86903D01*
X14311Y86900D01*
Y86300D01*
X14195Y86297D01*
X14091Y86288D01*
X13999Y86273D01*
X13920Y86252D01*
X13852Y86225D01*
X13797Y86192D01*
X13755Y86153D01*
X13724Y86108D01*
X13705Y86057D01*
X13699Y86000D01*
Y87200D01*
X13705Y87143D01*
D02*
G37*
G36*
X18450Y85916D02*
X18444Y85973D01*
X18426Y86024D01*
X18395Y86069D01*
X18352Y86108D01*
X18297Y86141D01*
X18230Y86168D01*
X18150Y86189D01*
X18058Y86204D01*
X17955Y86213D01*
X17838Y86216D01*
Y86816D01*
X17955Y86819D01*
X18058Y86828D01*
X18150Y86843D01*
X18230Y86864D01*
X18297Y86891D01*
X18352Y86924D01*
X18395Y86963D01*
X18426Y87008D01*
X18444Y87059D01*
X18450Y87116D01*
Y85916D01*
D02*
G37*
G36*
X9930Y57310D02*
X10013Y57250D01*
X10103Y57198D01*
X10202Y57153D01*
X10308Y57115D01*
X10423Y57085D01*
X10546Y57061D01*
X10677Y57045D01*
X10816Y57035D01*
X10963Y57033D01*
X9775Y55845D01*
X9773Y55993D01*
X9747Y56263D01*
X9724Y56385D01*
X9693Y56500D01*
X9655Y56607D01*
X9610Y56705D01*
X9558Y56796D01*
X9499Y56878D01*
X9432Y56952D01*
X9856Y57376D01*
X9930Y57310D01*
D02*
G37*
G36*
X51543Y76932D02*
X51492Y76914D01*
X51447Y76884D01*
X51408Y76842D01*
X51375Y76788D01*
X51348Y76722D01*
X51327Y76644D01*
X51312Y76554D01*
X51303Y76452D01*
X51300Y76338D01*
X50700D01*
X50697Y76452D01*
X50688Y76554D01*
X50673Y76644D01*
X50652Y76722D01*
X50625Y76788D01*
X50592Y76842D01*
X50553Y76884D01*
X50508Y76914D01*
X50457Y76932D01*
X50400Y76938D01*
X51600D01*
X51543Y76932D01*
D02*
G37*
G36*
X58754Y76918D02*
X58659Y76858D01*
X58574Y76758D01*
X58501Y76618D01*
X58440Y76438D01*
X58389Y76218D01*
X58350Y75958D01*
X58322Y75658D01*
X58306Y75162D01*
X58350Y74542D01*
X58389Y74282D01*
X58440Y74062D01*
X58501Y73882D01*
X58574Y73742D01*
X58659Y73642D01*
X58754Y73582D01*
X58861Y73562D01*
X55737D01*
X55844Y73582D01*
X55940Y73642D01*
X56024Y73742D01*
X56097Y73882D01*
X56159Y74062D01*
X56209Y74282D01*
X56249Y74542D01*
X56277Y74842D01*
X56292Y75338D01*
X56249Y75958D01*
X56209Y76218D01*
X56159Y76438D01*
X56097Y76618D01*
X56024Y76758D01*
X55940Y76858D01*
X55844Y76918D01*
X55737Y76938D01*
X58861D01*
X58754Y76918D01*
D02*
G37*
G36*
Y57418D02*
X58659Y57358D01*
X58574Y57258D01*
X58501Y57118D01*
X58440Y56938D01*
X58389Y56718D01*
X58350Y56458D01*
X58322Y56158D01*
X58299Y55438D01*
X56299D01*
X56294Y55818D01*
X56249Y56458D01*
X56209Y56718D01*
X56159Y56938D01*
X56097Y57118D01*
X56024Y57258D01*
X55940Y57358D01*
X55844Y57418D01*
X55737Y57438D01*
X58861D01*
X58754Y57418D01*
D02*
G37*
G36*
X21777Y54182D02*
X21795Y54152D01*
X21825Y54125D01*
X21867Y54102D01*
X21921Y54082D01*
X21987Y54066D01*
X22065Y54053D01*
X22155Y54044D01*
X22371Y54037D01*
Y53437D01*
X22257Y53435D01*
X22065Y53421D01*
X21987Y53408D01*
X21921Y53392D01*
X21867Y53373D01*
X21825Y53349D01*
X21795Y53322D01*
X21777Y53292D01*
X21771Y53258D01*
Y54216D01*
X21777Y54182D01*
D02*
G37*
G36*
X28905Y54893D02*
X28197D01*
X28208Y54913D01*
X28217Y54952D01*
X28225Y55010D01*
X28238Y55181D01*
X28251Y55939D01*
X28851D01*
X28905Y54893D01*
D02*
G37*
G36*
X63002Y78865D02*
X63190Y78654D01*
X63912Y77912D01*
X63488Y77488D01*
X63435Y77534D01*
X63379Y77567D01*
X63322Y77588D01*
X63264Y77596D01*
X63203Y77591D01*
X63140Y77573D01*
X63076Y77543D01*
X63010Y77499D01*
X62941Y77444D01*
X62871Y77375D01*
X62966Y78913D01*
X63002Y78865D01*
D02*
G37*
G36*
X39528Y46403D02*
X39604Y46345D01*
X39691Y46289D01*
X39787Y46236D01*
X39893Y46185D01*
X40135Y46092D01*
X40270Y46048D01*
X40571Y45969D01*
X39137Y45094D01*
X39165Y45226D01*
X39183Y45352D01*
X39190Y45472D01*
X39186Y45586D01*
X39170Y45694D01*
X39144Y45796D01*
X39107Y45893D01*
X39059Y45983D01*
X39000Y46067D01*
X38930Y46145D01*
X39461Y46463D01*
X39528Y46403D01*
D02*
G37*
G36*
X7161Y34051D02*
X7250Y33976D01*
X7340Y33911D01*
X7430Y33854D01*
X7521Y33806D01*
X7613Y33767D01*
X7706Y33737D01*
X7799Y33716D01*
X7893Y33703D01*
X7988Y33700D01*
X6800Y32512D01*
X6797Y32607D01*
X6784Y32701D01*
X6763Y32794D01*
X6733Y32887D01*
X6694Y32979D01*
X6646Y33070D01*
X6589Y33160D01*
X6524Y33250D01*
X6449Y33339D01*
X6366Y33427D01*
X7073Y34134D01*
X7161Y34051D01*
D02*
G37*
G36*
X9543Y33619D02*
X9476Y33544D01*
X9417Y33462D01*
X9365Y33372D01*
X9320Y33273D01*
X9282Y33167D01*
X9251Y33052D01*
X9228Y32929D01*
X9211Y32798D01*
X9202Y32659D01*
X9200Y32512D01*
X8838Y32874D01*
X8500Y32500D01*
X8507Y32479D01*
X8528Y32445D01*
X8563Y32398D01*
X8676Y32268D01*
X8825Y32113D01*
X9200Y32488D01*
X9202Y32341D01*
X9228Y32071D01*
X9251Y31948D01*
X9282Y31833D01*
X9320Y31727D01*
X9365Y31628D01*
X9417Y31538D01*
X9476Y31456D01*
X9543Y31381D01*
X9119Y30957D01*
X9044Y31024D01*
X8962Y31083D01*
X8872Y31135D01*
X8773Y31180D01*
X8667Y31218D01*
X8552Y31249D01*
X8429Y31272D01*
X8298Y31289D01*
X8159Y31298D01*
X8012Y31300D01*
X8374Y31662D01*
X8000Y32000D01*
X8500Y32500D01*
X8000Y33000D01*
X8021Y33007D01*
X8055Y33028D01*
X8102Y33063D01*
X8232Y33176D01*
X8387Y33325D01*
X8012Y33700D01*
X8159Y33702D01*
X8429Y33728D01*
X8552Y33751D01*
X8667Y33782D01*
X8773Y33820D01*
X8872Y33865D01*
X8962Y33917D01*
X9044Y33976D01*
X9119Y34043D01*
X9543Y33619D01*
D02*
G37*
G36*
X30237Y32238D02*
X30190Y32272D01*
X30135Y32289D01*
X30072D01*
X30000Y32272D01*
X29919Y32238D01*
X29830Y32187D01*
X29732Y32119D01*
X29626Y32035D01*
X29389Y31814D01*
X28964Y32238D01*
X29083Y32361D01*
X29270Y32582D01*
X29338Y32679D01*
X29389Y32768D01*
X29423Y32849D01*
X29439Y32921D01*
Y32985D01*
X29423Y33040D01*
X29389Y33087D01*
X30237Y32238D01*
D02*
G37*
G36*
X20177Y31977D02*
X20066Y32077D01*
X19848Y32245D01*
X19742Y32314D01*
X19636Y32372D01*
X19533Y32419D01*
X19430Y32456D01*
X19329Y32482D01*
X19230Y32498D01*
X19131Y32503D01*
X19107Y33103D01*
X19207Y33109D01*
X19308Y33125D01*
X19409Y33153D01*
X19509Y33192D01*
X19609Y33241D01*
X19710Y33302D01*
X19810Y33374D01*
X19910Y33457D01*
X20010Y33551D01*
X20111Y33656D01*
X20177Y31977D01*
D02*
G37*
G36*
X16296Y33346D02*
X16315Y33295D01*
X16345Y33250D01*
X16388Y33211D01*
X16443Y33178D01*
X16510Y33151D01*
X16590Y33130D01*
X16682Y33115D01*
X16786Y33106D01*
X16902Y33103D01*
Y32503D01*
X16786Y32500D01*
X16682Y32491D01*
X16590Y32476D01*
X16510Y32455D01*
X16443Y32428D01*
X16388Y32395D01*
X16345Y32356D01*
X16315Y32311D01*
X16296Y32260D01*
X16290Y32203D01*
Y33403D01*
X16296Y33346D01*
D02*
G37*
G36*
X20787Y37588D02*
X20740Y37622D01*
X20685Y37639D01*
X20621D01*
X20549Y37622D01*
X20469Y37588D01*
X20379Y37537D01*
X20282Y37469D01*
X20176Y37384D01*
X19938Y37163D01*
X19514Y37588D01*
X19633Y37711D01*
X19819Y37931D01*
X19887Y38029D01*
X19938Y38118D01*
X19972Y38199D01*
X19989Y38271D01*
Y38335D01*
X19972Y38390D01*
X19938Y38436D01*
X20787Y37588D01*
D02*
G37*
G36*
X13190Y38502D02*
X13184Y38559D01*
X13166Y38610D01*
X13135Y38655D01*
X13092Y38694D01*
X13037Y38727D01*
X12970Y38754D01*
X12890Y38775D01*
X12799Y38790D01*
X12695Y38799D01*
X12578Y38802D01*
Y39402D01*
X12695Y39405D01*
X12799Y39414D01*
X12890Y39429D01*
X12970Y39450D01*
X13037Y39477D01*
X13092Y39510D01*
X13135Y39549D01*
X13166Y39594D01*
X13184Y39645D01*
X13190Y39702D01*
Y38502D01*
D02*
G37*
G36*
X37553Y35846D02*
X37562Y35741D01*
X37577Y35650D01*
X37598Y35570D01*
X37625Y35503D01*
X37658Y35448D01*
X37697Y35405D01*
X37742Y35374D01*
X37793Y35356D01*
X37850Y35350D01*
X36650D01*
X36707Y35356D01*
X36758Y35374D01*
X36803Y35405D01*
X36842Y35448D01*
X36875Y35503D01*
X36902Y35570D01*
X36923Y35650D01*
X36938Y35741D01*
X36947Y35846D01*
X36950Y35962D01*
X37550D01*
X37553Y35846D01*
D02*
G37*
G36*
X12763Y36437D02*
X12971Y36265D01*
X13075Y36194D01*
X13178Y36135D01*
X13280Y36086D01*
X13382Y36049D01*
X13482Y36022D01*
X13582Y36005D01*
X13682Y36000D01*
Y35400D01*
X13582Y35395D01*
X13482Y35378D01*
X13382Y35351D01*
X13280Y35314D01*
X13178Y35265D01*
X13075Y35206D01*
X12971Y35135D01*
X12867Y35054D01*
X12763Y34963D01*
X12657Y34860D01*
Y36540D01*
X12763Y36437D01*
D02*
G37*
G36*
X32037Y36338D02*
X31865Y36129D01*
X31794Y36025D01*
X31735Y35922D01*
X31686Y35820D01*
X31649Y35719D01*
X31629Y35644D01*
X31648Y35570D01*
X31675Y35503D01*
X31708Y35448D01*
X31747Y35405D01*
X31792Y35374D01*
X31843Y35356D01*
X31900Y35350D01*
X30700D01*
X30757Y35356D01*
X30808Y35374D01*
X30853Y35405D01*
X30892Y35448D01*
X30925Y35503D01*
X30952Y35570D01*
X30971Y35644D01*
X30951Y35719D01*
X30914Y35820D01*
X30865Y35922D01*
X30806Y36025D01*
X30735Y36129D01*
X30654Y36233D01*
X30563Y36338D01*
X30460Y36443D01*
X32140D01*
X32037Y36338D01*
D02*
G37*
G36*
X50713Y8789D02*
X50637Y8708D01*
X50572Y8630D01*
X50518Y8556D01*
X50476Y8484D01*
X50446Y8416D01*
X50427Y8350D01*
X50420Y8288D01*
X50425Y8229D01*
X50441Y8173D01*
X50469Y8120D01*
X49620Y8969D01*
X49673Y8941D01*
X49729Y8925D01*
X49788Y8920D01*
X49850Y8927D01*
X49916Y8946D01*
X49984Y8976D01*
X50056Y9018D01*
X50130Y9072D01*
X50208Y9137D01*
X50289Y9213D01*
X50713Y8789D01*
D02*
G37*
G36*
X20803Y9926D02*
X20812Y9825D01*
X20827Y9734D01*
X20848Y9654D01*
X20875Y9584D01*
X20908Y9525D01*
X20947Y9476D01*
X20992Y9437D01*
X21043Y9409D01*
X21100Y9391D01*
X19900D01*
X19957Y9409D01*
X20008Y9437D01*
X20053Y9476D01*
X20092Y9525D01*
X20125Y9584D01*
X20152Y9654D01*
X20173Y9734D01*
X20188Y9825D01*
X20197Y9926D01*
X20200Y10037D01*
X20800D01*
X20803Y9926D01*
D02*
G37*
G36*
X31653Y9046D02*
X31662Y8941D01*
X31677Y8850D01*
X31698Y8770D01*
X31725Y8703D01*
X31758Y8648D01*
X31797Y8605D01*
X31842Y8574D01*
X31893Y8556D01*
X31950Y8550D01*
X30750D01*
X30807Y8556D01*
X30858Y8574D01*
X30903Y8605D01*
X30942Y8648D01*
X30975Y8703D01*
X31002Y8770D01*
X31023Y8850D01*
X31038Y8941D01*
X31047Y9046D01*
X31050Y9162D01*
X31650D01*
X31653Y9046D01*
D02*
G37*
G36*
X58539Y150736D02*
X60019Y150287D01*
X61382Y149559D01*
X62578Y148578D01*
X63559Y147382D01*
X64288Y146019D01*
X64736Y144539D01*
X64885Y143032D01*
X64878Y143000D01*
Y135377D01*
X64555Y135267D01*
X64378Y135238D01*
X63703Y135756D01*
X62885Y136094D01*
X62008Y136210D01*
X60933D01*
Y132819D01*
Y129428D01*
X62008D01*
X62885Y129543D01*
X63703Y129882D01*
X64378Y130400D01*
X64555Y130370D01*
X64878Y130260D01*
Y106834D01*
X64555Y106724D01*
X64378Y106694D01*
X63703Y107212D01*
X62885Y107551D01*
X62008Y107667D01*
X60933D01*
Y104276D01*
X60433D01*
Y103776D01*
X55533D01*
X55582Y103398D01*
X55921Y102580D01*
X56460Y101878D01*
X57163Y101339D01*
X57981Y101000D01*
X58858Y100884D01*
X59689D01*
X59722Y100384D01*
X59468Y100351D01*
X58507Y99953D01*
X57681Y99319D01*
X57047Y98493D01*
X56649Y97532D01*
X56579Y97000D01*
X60500D01*
Y96500D01*
X61000D01*
Y92579D01*
X61532Y92649D01*
X62493Y93047D01*
X63319Y93681D01*
X63953Y94507D01*
X64351Y95468D01*
X64378Y95676D01*
X64878Y95644D01*
Y78459D01*
X64378Y78363D01*
X64377Y78365D01*
X63666Y79096D01*
X63502Y79281D01*
X63477Y79313D01*
X63459Y79323D01*
X63452Y79343D01*
X63377Y79380D01*
X63298Y79498D01*
X62702Y79896D01*
X62000Y80035D01*
X61298Y79896D01*
X60702Y79498D01*
X60304Y78902D01*
X60165Y78200D01*
X60304Y77498D01*
X60702Y76902D01*
X61298Y76504D01*
X62000Y76365D01*
X62282Y76421D01*
X62782Y76011D01*
Y48127D01*
X62812Y47980D01*
X62494Y47480D01*
X59220D01*
X59215Y47484D01*
X59180Y47520D01*
X59131Y47602D01*
X59076Y47737D01*
X59025Y47929D01*
X58984Y48175D01*
X58958Y48472D01*
X58948Y48835D01*
X58931Y48875D01*
Y55379D01*
X58948Y55418D01*
X58970Y56118D01*
X58995Y56379D01*
X59027Y56597D01*
X59065Y56760D01*
X59100Y56861D01*
X59105Y56872D01*
X59333Y56966D01*
X59369Y57054D01*
X59397Y57071D01*
X59418Y57170D01*
X59523Y57425D01*
Y60575D01*
X59418Y60830D01*
X59397Y60929D01*
X59369Y60947D01*
X59333Y61034D01*
X59105Y61128D01*
X59100Y61139D01*
X59065Y61241D01*
X59027Y61403D01*
X58996Y61613D01*
X58956Y62175D01*
X58970Y62618D01*
X58995Y62879D01*
X59027Y63097D01*
X59065Y63260D01*
X59100Y63361D01*
X59105Y63372D01*
X59333Y63466D01*
X59369Y63554D01*
X59397Y63571D01*
X59418Y63670D01*
X59523Y63925D01*
Y67075D01*
X59418Y67330D01*
X59397Y67429D01*
X59369Y67447D01*
X59333Y67534D01*
X59105Y67628D01*
X59100Y67639D01*
X59065Y67740D01*
X59027Y67903D01*
X58996Y68113D01*
X58956Y68675D01*
X58970Y69118D01*
X58995Y69379D01*
X59027Y69597D01*
X59065Y69760D01*
X59100Y69861D01*
X59105Y69872D01*
X59333Y69966D01*
X59369Y70053D01*
X59397Y70071D01*
X59418Y70170D01*
X59523Y70425D01*
Y73575D01*
X59418Y73830D01*
X59397Y73929D01*
X59369Y73946D01*
X59333Y74034D01*
X59105Y74128D01*
X59100Y74139D01*
X59065Y74240D01*
X59027Y74403D01*
X58996Y74613D01*
X58956Y75175D01*
X58970Y75618D01*
X58995Y75879D01*
X59027Y76097D01*
X59065Y76259D01*
X59100Y76361D01*
X59105Y76372D01*
X59333Y76466D01*
X59369Y76553D01*
X59397Y76571D01*
X59418Y76670D01*
X59523Y76925D01*
Y80075D01*
X59333Y80534D01*
X58874Y80724D01*
X55724D01*
X55265Y80534D01*
X55075Y80075D01*
Y76925D01*
X55181Y76670D01*
X55201Y76571D01*
X55229Y76553D01*
X55265Y76466D01*
X55493Y76372D01*
X55499Y76361D01*
X55533Y76259D01*
X55571Y76097D01*
X55603Y75887D01*
X55642Y75325D01*
X55628Y74882D01*
X55604Y74621D01*
X55571Y74403D01*
X55533Y74240D01*
X55499Y74139D01*
X55493Y74128D01*
X55265Y74034D01*
X55229Y73946D01*
X55201Y73929D01*
X55181Y73830D01*
X55075Y73575D01*
Y70425D01*
X55181Y70170D01*
X55201Y70071D01*
X55229Y70053D01*
X55265Y69966D01*
X55493Y69872D01*
X55499Y69861D01*
X55533Y69760D01*
X55571Y69597D01*
X55603Y69387D01*
X55642Y68825D01*
X55628Y68382D01*
X55604Y68121D01*
X55571Y67903D01*
X55533Y67740D01*
X55499Y67639D01*
X55493Y67628D01*
X55265Y67534D01*
X55229Y67447D01*
X55201Y67429D01*
X55181Y67330D01*
X55075Y67075D01*
Y63925D01*
X55181Y63670D01*
X55201Y63571D01*
X55229Y63554D01*
X55265Y63466D01*
X55493Y63372D01*
X55499Y63361D01*
X55533Y63260D01*
X55571Y63097D01*
X55603Y62887D01*
X55642Y62325D01*
X55628Y61882D01*
X55604Y61621D01*
X55571Y61403D01*
X55533Y61241D01*
X55499Y61139D01*
X55493Y61128D01*
X55265Y61034D01*
X55229Y60947D01*
X55201Y60929D01*
X55181Y60830D01*
X55075Y60575D01*
Y57425D01*
X55181Y57170D01*
X55201Y57071D01*
X55229Y57054D01*
X55265Y56966D01*
X55493Y56872D01*
X55499Y56861D01*
X55533Y56760D01*
X55571Y56597D01*
X55603Y56387D01*
X55645Y55791D01*
X55650Y55429D01*
X55668Y55387D01*
Y49766D01*
X55168Y49424D01*
X54722Y49513D01*
X54020Y49373D01*
X53425Y48976D01*
X53027Y48380D01*
X52887Y47678D01*
X52725Y47480D01*
X52288D01*
X51829Y47290D01*
X51639Y46831D01*
Y43429D01*
X51613Y43418D01*
X50975D01*
X50949Y43429D01*
Y44500D01*
X50759Y44959D01*
X50300Y45149D01*
X43843D01*
X43587Y45576D01*
X43585Y45649D01*
X43810Y45851D01*
X50300D01*
X50759Y46041D01*
X50949Y46500D01*
Y50500D01*
X50759Y50959D01*
X50300Y51149D01*
X43951D01*
X43744Y51649D01*
X43849Y51754D01*
X44048Y52052D01*
X44118Y52403D01*
Y62120D01*
X47944Y65946D01*
X48406Y65755D01*
Y63925D01*
X48483Y63535D01*
X48704Y63204D01*
X49035Y62983D01*
X49425Y62906D01*
X50082D01*
Y61594D01*
X49425D01*
X49035Y61517D01*
X48704Y61296D01*
X48483Y60965D01*
X48406Y60575D01*
Y59500D01*
X53594D01*
Y60575D01*
X53517Y60965D01*
X53296Y61296D01*
X52965Y61517D01*
X52575Y61594D01*
X51918D01*
Y62906D01*
X52575D01*
X52965Y62983D01*
X53296Y63204D01*
X53517Y63535D01*
X53594Y63925D01*
Y65000D01*
X51000D01*
Y66000D01*
X53594D01*
Y67075D01*
X53517Y67465D01*
X53296Y67796D01*
X52965Y68017D01*
X52575Y68094D01*
X51918D01*
Y69406D01*
X52575D01*
X52965Y69483D01*
X53296Y69704D01*
X53517Y70035D01*
X53594Y70425D01*
Y71500D01*
X51000D01*
Y72500D01*
X53594D01*
Y73575D01*
X53517Y73965D01*
X53296Y74296D01*
X52965Y74517D01*
X52575Y74594D01*
X51918D01*
Y75906D01*
X52575D01*
X52965Y75983D01*
X53296Y76204D01*
X53517Y76535D01*
X53594Y76925D01*
Y78000D01*
X51000D01*
Y78500D01*
X50500D01*
Y81094D01*
X49425D01*
X49384Y81128D01*
Y83487D01*
X50649Y84751D01*
X50848Y85049D01*
X50918Y85400D01*
Y96700D01*
X50848Y97051D01*
X50649Y97349D01*
X46018Y101980D01*
Y106335D01*
X46518Y106576D01*
X46657Y106483D01*
X47047Y106406D01*
X49500D01*
Y109000D01*
X50000D01*
Y109500D01*
X53972D01*
Y110575D01*
X53895Y110965D01*
X53674Y111296D01*
X53343Y111517D01*
X53018Y111581D01*
X53010Y111590D01*
X52895Y111792D01*
X52805Y112094D01*
X52910Y112251D01*
X52988Y112642D01*
Y112929D01*
X49016D01*
Y113929D01*
X52988D01*
Y114216D01*
X52910Y114607D01*
X52689Y114937D01*
X52548Y115032D01*
X52618Y115201D01*
Y116776D01*
X52428Y117235D01*
X52428Y117301D01*
X52618Y117760D01*
Y119335D01*
X52428Y119794D01*
X52428Y119860D01*
X52618Y120319D01*
Y121894D01*
X52428Y122353D01*
X52428Y122419D01*
X52618Y122878D01*
Y124453D01*
X52428Y124912D01*
X52215Y125000D01*
X52314Y125500D01*
X52953D01*
X53343Y125578D01*
X53674Y125799D01*
X53895Y126129D01*
X53972Y126520D01*
Y127594D01*
X50000D01*
X46028D01*
Y126520D01*
X46105Y126129D01*
X46326Y125799D01*
X46621Y125602D01*
X46625Y125566D01*
X46367Y125172D01*
X45852Y125111D01*
X41514Y129449D01*
X41216Y129648D01*
X40865Y129718D01*
X7100D01*
X6749Y129648D01*
X6451Y129449D01*
X4751Y127749D01*
X4552Y127451D01*
X4482Y127100D01*
Y122300D01*
X4552Y121949D01*
X4751Y121651D01*
X5229Y121173D01*
X5079Y120616D01*
X4602Y120298D01*
X4204Y119702D01*
X4065Y119000D01*
X4204Y118298D01*
X4602Y117702D01*
X5198Y117304D01*
X5900Y117165D01*
X11500D01*
X12202Y117304D01*
X12582Y117558D01*
X13082Y117297D01*
Y115703D01*
X12582Y115442D01*
X12202Y115696D01*
X11500Y115835D01*
X5900D01*
X5650Y115786D01*
X5400Y115835D01*
X4698Y115696D01*
X4102Y115298D01*
X3704Y114702D01*
X3621Y114286D01*
X3122Y114335D01*
Y144000D01*
X3118Y144016D01*
X3249Y145343D01*
X3641Y146634D01*
X4277Y147824D01*
X5133Y148867D01*
X6176Y149723D01*
X7366Y150359D01*
X8657Y150751D01*
X9984Y150882D01*
X10000Y150878D01*
X57000D01*
X57032Y150885D01*
X58539Y150736D01*
D02*
G37*
G36*
X39209Y7905D02*
X39240Y7820D01*
X39290Y7745D01*
X39361Y7680D01*
X39452Y7625D01*
X39564Y7580D01*
X39695Y7545D01*
X39847Y7520D01*
X40019Y7505D01*
X40211Y7500D01*
Y6500D01*
X40019Y6495D01*
X39847Y6480D01*
X39695Y6455D01*
X39564Y6420D01*
X39452Y6375D01*
X39361Y6320D01*
X39290Y6255D01*
X39240Y6180D01*
X39209Y6095D01*
X39199Y6000D01*
Y8000D01*
X39209Y7905D01*
D02*
G37*
G36*
X48791Y31328D02*
X48657Y31353D01*
X48529Y31368D01*
X48407Y31372D01*
X48292Y31366D01*
X48182Y31349D01*
X48080Y31321D01*
X47983Y31283D01*
X47892Y31235D01*
X47808Y31176D01*
X47730Y31106D01*
X47399Y31623D01*
X47460Y31691D01*
X47518Y31768D01*
X47574Y31855D01*
X47626Y31952D01*
X47675Y32059D01*
X47721Y32175D01*
X47803Y32436D01*
X47840Y32581D01*
X47873Y32736D01*
X48791Y31328D01*
D02*
G37*
G36*
X42651Y41530D02*
Y40500D01*
X42841Y40041D01*
X43008Y39971D01*
X42957Y39451D01*
X42910Y39442D01*
X42579Y39221D01*
X42358Y38890D01*
X42280Y38500D01*
Y37000D01*
X46800D01*
X51320D01*
Y37633D01*
X51820Y37733D01*
X51829Y37710D01*
X52288Y37520D01*
X62715D01*
X62922Y37020D01*
X55630Y29727D01*
X55241Y30046D01*
X55572Y30542D01*
X55644Y30900D01*
X54000D01*
Y29256D01*
X54358Y29328D01*
X54854Y29659D01*
X55173Y29270D01*
X52203Y26300D01*
X52026Y26286D01*
X51581Y26386D01*
X50952Y27204D01*
X50005Y27932D01*
X48901Y28389D01*
X47717Y28545D01*
X46603Y28398D01*
X46470Y28544D01*
X46348Y28851D01*
X48052Y30554D01*
X48081Y30559D01*
X48112Y30604D01*
X48163Y30621D01*
X48212Y30666D01*
X48234Y30681D01*
X48256Y30693D01*
X48283Y30703D01*
X48317Y30712D01*
X48360Y30719D01*
X48414Y30722D01*
X48481Y30720D01*
X48560Y30711D01*
X48671Y30690D01*
X48794Y30716D01*
X49050Y30665D01*
X49752Y30804D01*
X50348Y31202D01*
X50746Y31798D01*
X50885Y32500D01*
X50773Y33065D01*
X50749Y33209D01*
X50980Y33752D01*
X51021Y33779D01*
X51242Y34110D01*
X51320Y34500D01*
Y36000D01*
X47300D01*
Y32996D01*
X47310Y32980D01*
X47309Y32975D01*
X47239Y32873D01*
X47207Y32729D01*
X47178Y32613D01*
X47108Y32392D01*
X47077Y32314D01*
X47044Y32242D01*
X47013Y32184D01*
X46984Y32138D01*
X46959Y32105D01*
X46917Y32059D01*
X46893Y31991D01*
X44725Y29823D01*
X28978D01*
X28771Y30323D01*
X29654Y31206D01*
X30450D01*
Y33800D01*
X30950D01*
Y34300D01*
X33545D01*
Y35375D01*
X33467Y35765D01*
X33246Y36096D01*
X33174Y36144D01*
X33372Y36442D01*
X33444Y36800D01*
X31300D01*
Y37800D01*
X32012D01*
X31312Y38500D01*
X31459Y38502D01*
X31729Y38528D01*
X31852Y38551D01*
X31967Y38582D01*
X32073Y38620D01*
X32172Y38665D01*
X32262Y38717D01*
X32344Y38776D01*
X32419Y38843D01*
X32843Y38419D01*
X32776Y38344D01*
X32717Y38262D01*
X32665Y38172D01*
X32620Y38073D01*
X32582Y37967D01*
X32551Y37852D01*
X32541Y37800D01*
X33444D01*
X33386Y38089D01*
X33930Y38632D01*
X34416Y38766D01*
X34875Y38576D01*
X36321D01*
X36332Y38550D01*
Y36050D01*
X36321Y36024D01*
X35675D01*
X35216Y35834D01*
X35025Y35375D01*
Y32225D01*
X35216Y31766D01*
X35675Y31576D01*
X38824D01*
X39284Y31766D01*
X39474Y32225D01*
Y35375D01*
X39284Y35834D01*
X38824Y36024D01*
X38179D01*
X38167Y36050D01*
Y38550D01*
X38199Y38621D01*
X38199Y38648D01*
X38484Y38766D01*
X38674Y39225D01*
Y39871D01*
X38699Y39882D01*
X39970D01*
X40321Y39952D01*
X40619Y40151D01*
X42189Y41721D01*
X42651Y41530D01*
D02*
G37*
G36*
X23965Y26390D02*
X23879Y26300D01*
X23807Y26215D01*
X23746Y26134D01*
X23699Y26057D01*
X23664Y25984D01*
X23642Y25916D01*
X23632Y25852D01*
X23634Y25791D01*
X23650Y25735D01*
X23678Y25684D01*
X22988Y26688D01*
X23025Y26644D01*
X23068Y26615D01*
X23117Y26599D01*
X23171Y26598D01*
X23231Y26611D01*
X23296Y26638D01*
X23367Y26679D01*
X23443Y26734D01*
X23525Y26803D01*
X23613Y26886D01*
X23965Y26390D01*
D02*
G37*
G36*
X64878Y35727D02*
Y7200D01*
X64886Y7159D01*
X64725Y5934D01*
X64236Y4754D01*
X63459Y3741D01*
X62446Y2963D01*
X61266Y2475D01*
X60040Y2314D01*
X60000Y2321D01*
X8000D01*
X7959Y2314D01*
X6734Y2475D01*
X5554Y2963D01*
X4541Y3741D01*
X3763Y4754D01*
X3275Y5934D01*
X3114Y7159D01*
X3122Y7200D01*
Y35139D01*
X3584Y35330D01*
X5870Y33044D01*
X5894Y32981D01*
X5964Y32907D01*
X6012Y32849D01*
X6052Y32795D01*
X6083Y32746D01*
X6106Y32700D01*
X6124Y32659D01*
X6136Y32621D01*
X6144Y32586D01*
X6149Y32552D01*
X6151Y32488D01*
X6179Y32426D01*
X6304Y31798D01*
X6702Y31202D01*
X7298Y30804D01*
X7945Y30676D01*
X8003Y30651D01*
X8133Y30649D01*
X8236Y30642D01*
X8328Y30631D01*
X8407Y30615D01*
X8474Y30597D01*
X8529Y30578D01*
X8574Y30557D01*
X8609Y30537D01*
X8636Y30517D01*
X8685Y30474D01*
X8752Y30450D01*
X10751Y28451D01*
X11049Y28252D01*
X11400Y28182D01*
X16761D01*
X16922Y27709D01*
X16636Y27490D01*
X15845Y26458D01*
X15348Y25257D01*
X15178Y23968D01*
Y22500D01*
X20157D01*
Y22000D01*
X20657D01*
Y15118D01*
X20781Y15134D01*
X21014Y14660D01*
X19851Y13497D01*
X19652Y13200D01*
X19582Y12848D01*
Y10126D01*
X19551Y10055D01*
X19548Y9963D01*
X19547Y9951D01*
X18708Y9603D01*
X17966Y9034D01*
X17397Y8292D01*
X17039Y7428D01*
X16917Y6500D01*
X17039Y5573D01*
X17397Y4708D01*
X17966Y3966D01*
X18708Y3397D01*
X19573Y3039D01*
X20500Y2917D01*
X21427Y3039D01*
X22292Y3397D01*
X23034Y3966D01*
X23603Y4708D01*
X23961Y5573D01*
X24083Y6500D01*
X23961Y7428D01*
X23603Y8292D01*
X23034Y9034D01*
X22292Y9603D01*
X21453Y9951D01*
X21452Y9963D01*
X21449Y10055D01*
X21418Y10126D01*
Y12468D01*
X22057Y13108D01*
X22531Y12874D01*
X22488Y12551D01*
X22576Y11881D01*
X22835Y11256D01*
X23247Y10719D01*
X23784Y10308D01*
X24408Y10049D01*
X25079Y9961D01*
X25749Y10049D01*
X26374Y10308D01*
X26911Y10719D01*
X27322Y11256D01*
X27581Y11881D01*
X27670Y12551D01*
X27581Y13222D01*
X27322Y13847D01*
X26911Y14383D01*
X26374Y14795D01*
X25749Y15054D01*
X25079Y15142D01*
X24756Y15099D01*
X24522Y15573D01*
X25749Y16800D01*
X25948Y17097D01*
X26018Y17448D01*
Y18247D01*
X26518Y18280D01*
X26539Y18120D01*
X26897Y17255D01*
X27466Y16513D01*
X28208Y15944D01*
X29073Y15586D01*
X29126Y15579D01*
X29152Y15449D01*
X29351Y15151D01*
X30433Y14070D01*
Y9250D01*
X30422Y9224D01*
X29776D01*
X29316Y9034D01*
X29126Y8575D01*
Y5425D01*
X29316Y4966D01*
X29776Y4776D01*
X32925D01*
X33384Y4966D01*
X33575Y5425D01*
Y8575D01*
X33384Y9034D01*
X32925Y9224D01*
X32279D01*
X32268Y9250D01*
Y14450D01*
X32198Y14801D01*
X31999Y15099D01*
X31659Y15439D01*
X31738Y15838D01*
X31831Y15974D01*
X32534Y16513D01*
X33103Y17255D01*
X33461Y18120D01*
X33583Y19047D01*
Y24953D01*
X33461Y25880D01*
X33103Y26744D01*
X32534Y27487D01*
X32498Y27514D01*
X32658Y27988D01*
X35216D01*
X35377Y27514D01*
X35340Y27487D01*
X34771Y26744D01*
X34413Y25880D01*
X34291Y24953D01*
Y19047D01*
X34413Y18120D01*
X34771Y17255D01*
X35340Y16513D01*
X36082Y15944D01*
X36947Y15586D01*
X37874Y15464D01*
X38801Y15586D01*
X39666Y15944D01*
X40408Y16513D01*
X40977Y17255D01*
X41335Y18120D01*
X41457Y19047D01*
Y24953D01*
X41335Y25880D01*
X40977Y26744D01*
X40408Y27487D01*
X40372Y27514D01*
X40532Y27988D01*
X44681D01*
X44850Y27488D01*
X44481Y27204D01*
X43753Y26257D01*
X43296Y25153D01*
X43140Y23968D01*
Y20031D01*
X43296Y18847D01*
X43753Y17743D01*
X44481Y16796D01*
X45428Y16068D01*
X46525Y15614D01*
X46534Y15577D01*
X46551Y15462D01*
X46563Y15314D01*
X46567Y15121D01*
X46595Y15059D01*
Y13281D01*
X45864Y12550D01*
X45359Y12753D01*
X45298Y13222D01*
X45039Y13847D01*
X44627Y14383D01*
X44091Y14795D01*
X43466Y15054D01*
X42795Y15142D01*
X42125Y15054D01*
X41500Y14795D01*
X40963Y14383D01*
X40552Y13847D01*
X40293Y13222D01*
X40205Y12551D01*
X40293Y11881D01*
X40552Y11256D01*
X40963Y10719D01*
X41500Y10308D01*
X42125Y10049D01*
X42594Y9987D01*
X42796Y9483D01*
X41435Y8122D01*
X40290D01*
X40228Y8149D01*
X40056Y8154D01*
X39928Y8165D01*
X39874Y8174D01*
Y8575D01*
X39684Y9034D01*
X39224Y9224D01*
X36075D01*
X35616Y9034D01*
X35425Y8575D01*
Y5425D01*
X35616Y4966D01*
X36075Y4776D01*
X39224D01*
X39684Y4966D01*
X39874Y5425D01*
Y5826D01*
X39928Y5835D01*
X40056Y5846D01*
X40228Y5851D01*
X40290Y5878D01*
X41900D01*
X41900Y5878D01*
X42329Y5964D01*
X42693Y6207D01*
X44077Y7591D01*
X44298Y7512D01*
X44526Y7333D01*
X44417Y6500D01*
X44539Y5573D01*
X44897Y4708D01*
X45466Y3966D01*
X46208Y3397D01*
X47073Y3039D01*
X48000Y2917D01*
X48927Y3039D01*
X49792Y3397D01*
X50534Y3966D01*
X51103Y4708D01*
X51461Y5573D01*
X51583Y6500D01*
X51461Y7428D01*
X51114Y8266D01*
X51122Y8276D01*
X51185Y8343D01*
X51213Y8415D01*
X52117Y9320D01*
X52579Y9128D01*
Y8811D01*
X52749Y7522D01*
X53246Y6321D01*
X54038Y5290D01*
X55069Y4499D01*
X56270Y4001D01*
X57059Y3897D01*
Y12748D01*
Y21599D01*
X56270Y21495D01*
X55069Y20998D01*
X54038Y20206D01*
X53945Y20085D01*
X53471Y20245D01*
Y24973D01*
X64416Y35919D01*
X64878Y35727D01*
D02*
G37*
G36*
X48619Y16234D02*
X48534Y16200D01*
X48460Y16145D01*
X48395Y16067D01*
X48341Y15968D01*
X48296Y15846D01*
X48261Y15702D01*
X48237Y15536D01*
X48222Y15347D01*
X48217Y15137D01*
X47217D01*
X47212Y15347D01*
X47197Y15536D01*
X47172Y15702D01*
X47137Y15846D01*
X47093Y15968D01*
X47038Y16067D01*
X46973Y16145D01*
X46899Y16200D01*
X46814Y16234D01*
X46720Y16245D01*
X48713D01*
X48619Y16234D01*
D02*
G37*
G36*
X37793Y39232D02*
X37742Y39214D01*
X37697Y39184D01*
X37658Y39142D01*
X37625Y39088D01*
X37598Y39022D01*
X37577Y38944D01*
X37562Y38854D01*
X37553Y38752D01*
X37550Y38638D01*
X36950D01*
X36947Y38752D01*
X36938Y38854D01*
X36923Y38944D01*
X36902Y39022D01*
X36875Y39088D01*
X36842Y39142D01*
X36803Y39184D01*
X36758Y39214D01*
X36707Y39232D01*
X36650Y39238D01*
X37850D01*
X37793Y39232D01*
D02*
G37*
G36*
X40986Y119211D02*
X40866Y119087D01*
X40677Y118865D01*
X40608Y118767D01*
X40556Y118678D01*
X40521Y118598D01*
X40503Y118526D01*
X40501Y118463D01*
X40517Y118409D01*
X40550Y118363D01*
X39713Y119199D01*
X39759Y119167D01*
X39813Y119151D01*
X39876Y119152D01*
X39948Y119170D01*
X40029Y119205D01*
X40118Y119257D01*
X40216Y119327D01*
X40322Y119413D01*
X40562Y119636D01*
X40986Y119211D01*
D02*
G37*
G36*
X46088Y117947D02*
X46082Y118004D01*
X46063Y118055D01*
X46033Y118100D01*
X45990Y118139D01*
X45935Y118172D01*
X45867Y118199D01*
X45788Y118220D01*
X45696Y118235D01*
X45592Y118244D01*
X45476Y118247D01*
Y118847D01*
X45592Y118850D01*
X45696Y118859D01*
X45788Y118874D01*
X45867Y118895D01*
X45935Y118922D01*
X45990Y118955D01*
X46033Y118994D01*
X46063Y119039D01*
X46082Y119090D01*
X46088Y119147D01*
Y117947D01*
D02*
G37*
G36*
X50281Y43043D02*
X50300Y42992D01*
X50330Y42947D01*
X50373Y42908D01*
X50428Y42875D01*
X50495Y42848D01*
X50575Y42827D01*
X50667Y42812D01*
X50771Y42803D01*
X50887Y42800D01*
Y42200D01*
X50771Y42197D01*
X50667Y42188D01*
X50575Y42173D01*
X50495Y42152D01*
X50428Y42125D01*
X50373Y42092D01*
X50330Y42053D01*
X50300Y42008D01*
X50281Y41957D01*
X50275Y41900D01*
Y43100D01*
X50281Y43043D01*
D02*
G37*
G36*
X7589Y120540D02*
X7675Y120466D01*
X7761Y120400D01*
X7847Y120343D01*
X7932Y120295D01*
X8017Y120256D01*
X8101Y120226D01*
X8184Y120204D01*
X8268Y120191D01*
X8350Y120186D01*
X6653D01*
X6732Y120191D01*
X6793Y120204D01*
X6837Y120226D01*
X6863Y120256D01*
X6871Y120295D01*
X6863Y120343D01*
X6837Y120400D01*
X6793Y120466D01*
X6732Y120540D01*
X6653Y120623D01*
X7502D01*
X7589Y120540D01*
D02*
G37*
G36*
X58105Y44430D02*
X58119Y44265D01*
X58144Y44105D01*
X58178Y43950D01*
X58222Y43799D01*
X58276Y43653D01*
X58339Y43512D01*
X58412Y43375D01*
X58495Y43243D01*
X58588Y43116D01*
X57093D01*
Y41793D01*
X56997Y41870D01*
X56873Y41939D01*
X56720Y42000D01*
X56538Y42053D01*
X56327Y42098D01*
X56089Y42135D01*
X55524Y42184D01*
X54846Y42200D01*
Y42800D01*
X55200Y42804D01*
X56089Y42865D01*
X56327Y42902D01*
X56538Y42947D01*
X56720Y43000D01*
X56873Y43061D01*
X56997Y43130D01*
X57059Y43180D01*
X57105Y43243D01*
X57188Y43375D01*
X57261Y43512D01*
X57324Y43653D01*
X57378Y43799D01*
X57422Y43950D01*
X57456Y44105D01*
X57481Y44265D01*
X57495Y44430D01*
X57500Y44600D01*
X58100D01*
X58105Y44430D01*
D02*
G37*
G36*
X52313Y41900D02*
X52307Y41957D01*
X52289Y42008D01*
X52258Y42053D01*
X52215Y42092D01*
X52160Y42125D01*
X52093Y42152D01*
X52013Y42173D01*
X51921Y42188D01*
X51818Y42197D01*
X51701Y42200D01*
Y42800D01*
X51818Y42803D01*
X51921Y42812D01*
X52013Y42827D01*
X52093Y42848D01*
X52160Y42875D01*
X52215Y42908D01*
X52258Y42947D01*
X52289Y42992D01*
X52307Y43043D01*
X52313Y43100D01*
Y41900D01*
D02*
G37*
G36*
X6363Y114737D02*
X6572Y114565D01*
X6675Y114494D01*
X6778Y114435D01*
X6880Y114386D01*
X6982Y114349D01*
X7082Y114322D01*
X7182Y114305D01*
X7282Y114300D01*
Y113700D01*
X7182Y113695D01*
X7082Y113678D01*
X6982Y113651D01*
X6880Y113614D01*
X6778Y113565D01*
X6675Y113506D01*
X6572Y113435D01*
X6467Y113354D01*
X6363Y113263D01*
X6257Y113160D01*
Y114840D01*
X6363Y114737D01*
D02*
G37*
G36*
X31757Y46043D02*
X31775Y45992D01*
X31806Y45947D01*
X31848Y45908D01*
X31904Y45875D01*
X31971Y45848D01*
X32050Y45827D01*
X32142Y45812D01*
X32246Y45803D01*
X32363Y45800D01*
Y45200D01*
X32246Y45197D01*
X32142Y45188D01*
X32050Y45173D01*
X31971Y45152D01*
X31904Y45125D01*
X31848Y45092D01*
X31806Y45053D01*
X31775Y45008D01*
X31757Y44957D01*
X31751Y44900D01*
Y46100D01*
X31757Y46043D01*
D02*
G37*
G36*
X40528Y116890D02*
X40511Y116834D01*
Y116771D01*
X40528Y116699D01*
X40562Y116618D01*
X40613Y116529D01*
X40681Y116431D01*
X40766Y116325D01*
X40986Y116088D01*
X40562Y115664D01*
X40439Y115782D01*
X40218Y115969D01*
X40121Y116037D01*
X40031Y116088D01*
X39951Y116122D01*
X39879Y116139D01*
X39815D01*
X39760Y116122D01*
X39713Y116088D01*
X40562Y116936D01*
X40528Y116890D01*
D02*
G37*
G36*
X27004Y43180D02*
X26937Y43104D01*
X26877Y43021D01*
X26826Y42931D01*
X26783Y42832D01*
X26748Y42727D01*
X26722Y42613D01*
X26703Y42492D01*
X26693Y42363D01*
X26691Y42227D01*
X26697Y42083D01*
X25441Y43199D01*
X25591Y43209D01*
X25865Y43249D01*
X25989Y43277D01*
X26105Y43312D01*
X26212Y43353D01*
X26310Y43400D01*
X26400Y43454D01*
X26481Y43513D01*
X26554Y43578D01*
X27004Y43180D01*
D02*
G37*
G36*
X8505Y44328D02*
X8520Y44160D01*
X8545Y44008D01*
X8580Y43872D01*
X8625Y43751D01*
X8680Y43646D01*
X8745Y43556D01*
X8820Y43481D01*
X8905Y43422D01*
X9000Y43378D01*
X7000D01*
X7095Y43422D01*
X7180Y43481D01*
X7255Y43556D01*
X7320Y43646D01*
X7375Y43751D01*
X7420Y43872D01*
X7455Y44008D01*
X7480Y44160D01*
X7495Y44328D01*
X7500Y44510D01*
X8500D01*
X8505Y44328D01*
D02*
G37*
G36*
X29437Y39238D02*
X29390Y39272D01*
X29335Y39289D01*
X29272D01*
X29199Y39272D01*
X29119Y39238D01*
X29030Y39187D01*
X28932Y39119D01*
X28826Y39035D01*
X28589Y38814D01*
X28164Y39238D01*
X28283Y39361D01*
X28470Y39582D01*
X28538Y39679D01*
X28589Y39768D01*
X28622Y39849D01*
X28640Y39921D01*
Y39985D01*
X28622Y40040D01*
X28589Y40087D01*
X29437Y39238D01*
D02*
G37*
G36*
X38006Y41343D02*
X38024Y41292D01*
X38054Y41247D01*
X38097Y41208D01*
X38152Y41175D01*
X38220Y41148D01*
X38299Y41127D01*
X38391Y41112D01*
X38495Y41103D01*
X38611Y41100D01*
Y40500D01*
X38495Y40497D01*
X38391Y40488D01*
X38299Y40473D01*
X38220Y40452D01*
X38152Y40425D01*
X38097Y40392D01*
X38054Y40353D01*
X38024Y40308D01*
X38006Y40257D01*
X37999Y40200D01*
Y41400D01*
X38006Y41343D01*
D02*
G37*
G36*
X45787Y124309D02*
X45877Y124237D01*
X45970Y124173D01*
X46045Y124131D01*
X46063Y124157D01*
X46082Y124208D01*
X46088Y124265D01*
Y124109D01*
X46168Y124071D01*
X46272Y124033D01*
X46380Y124003D01*
X46491Y123982D01*
X46606Y123969D01*
X46724Y123965D01*
X46088Y123438D01*
Y123065D01*
X46082Y123122D01*
X46063Y123173D01*
X46033Y123218D01*
X45990Y123257D01*
X45935Y123290D01*
X45867Y123317D01*
X45788Y123338D01*
X45696Y123353D01*
X45592Y123362D01*
X45476Y123365D01*
Y123685D01*
X45016Y123965D01*
X45061Y123969D01*
X45092Y123982D01*
X45110Y124003D01*
X45114Y124033D01*
X45105Y124071D01*
X45081Y124118D01*
X45044Y124173D01*
X44930Y124309D01*
X44851Y124390D01*
X45700D01*
X45787Y124309D01*
D02*
G37*
G36*
X10678Y124240D02*
X10661Y124185D01*
Y124121D01*
X10678Y124049D01*
X10712Y123969D01*
X10763Y123879D01*
X10831Y123782D01*
X10916Y123676D01*
X11136Y123438D01*
X10712Y123014D01*
X10589Y123133D01*
X10369Y123319D01*
X10271Y123387D01*
X10182Y123438D01*
X10101Y123472D01*
X10029Y123489D01*
X9966D01*
X9910Y123472D01*
X9864Y123438D01*
X10712Y124287D01*
X10678Y124240D01*
D02*
G37*
G36*
X27672Y42475D02*
X27892Y42315D01*
X27926Y42249D01*
Y39945D01*
X27801Y39797D01*
X27697Y39689D01*
X27668Y39615D01*
X26351Y38298D01*
X26152Y38001D01*
X26082Y37650D01*
Y32580D01*
X24561Y31059D01*
X24147Y31251D01*
X24094Y31299D01*
Y32350D01*
X21500D01*
Y32850D01*
X21000D01*
Y35445D01*
X19925D01*
X19777Y35415D01*
X19761Y35429D01*
X19523Y35875D01*
X20310Y36661D01*
X20380Y36688D01*
X20600Y36892D01*
X20642Y36925D01*
X23075D01*
X23534Y37116D01*
X23724Y37575D01*
Y40518D01*
X24098Y40662D01*
X24224Y40688D01*
X24798Y40304D01*
X25500Y40165D01*
X26202Y40304D01*
X26798Y40702D01*
X27196Y41298D01*
X27335Y42000D01*
X27325Y42052D01*
X27346Y42110D01*
X27341Y42235D01*
X27342Y42333D01*
X27349Y42417D01*
X27353Y42442D01*
X27516Y42536D01*
X27672Y42475D01*
D02*
G37*
G36*
X21103Y41195D02*
X21112Y41091D01*
X21127Y40999D01*
X21148Y40920D01*
X21175Y40852D01*
X21208Y40797D01*
X21247Y40755D01*
X21292Y40724D01*
X21343Y40705D01*
X21400Y40699D01*
X20200D01*
X20257Y40705D01*
X20308Y40724D01*
X20353Y40755D01*
X20392Y40797D01*
X20425Y40852D01*
X20452Y40920D01*
X20473Y40999D01*
X20488Y41091D01*
X20497Y41195D01*
X20500Y41311D01*
X21100D01*
X21103Y41195D01*
D02*
G37*
G36*
X44210Y124157D02*
X40190Y120137D01*
X40119Y120111D01*
X39897Y119904D01*
X39860Y119874D01*
X39220D01*
X39000Y119918D01*
X38780Y119874D01*
X37425D01*
X36966Y119684D01*
X36776Y119224D01*
Y116075D01*
X36966Y115616D01*
X37425Y115425D01*
X39855D01*
X40003Y115300D01*
X40111Y115196D01*
X40185Y115167D01*
X40582Y114769D01*
Y113951D01*
X40575Y113945D01*
X39500D01*
Y111350D01*
Y108756D01*
X39949D01*
X40156Y108256D01*
X36817Y104918D01*
X35345D01*
X35272Y104949D01*
X35150Y104952D01*
X35061Y104958D01*
X35023Y104963D01*
X34985Y105054D01*
X34951Y105069D01*
X34798Y105298D01*
X34202Y105696D01*
X33500Y105835D01*
X27900D01*
X27198Y105696D01*
X26602Y105298D01*
X26204Y104702D01*
X26065Y104000D01*
X26204Y103298D01*
X26602Y102702D01*
X27198Y102304D01*
X27900Y102165D01*
X29660D01*
X29682Y102114D01*
Y100181D01*
X27489Y97988D01*
X27419Y97961D01*
X27196Y97754D01*
X27159Y97724D01*
X24724D01*
X24265Y97534D01*
X24075Y97075D01*
Y93925D01*
X24265Y93466D01*
X24724Y93276D01*
X25370D01*
X25382Y93250D01*
Y88765D01*
X25370Y88740D01*
X24724D01*
X24265Y88550D01*
X24075Y88091D01*
Y84941D01*
X24265Y84482D01*
X24724Y84292D01*
X26546D01*
X26738Y83830D01*
X12309Y69401D01*
X11835Y69634D01*
X11883Y70000D01*
X11833Y70380D01*
X11868Y70484D01*
X11864Y70540D01*
X11865Y70556D01*
X11871Y70584D01*
X11886Y70628D01*
X11912Y70687D01*
X11953Y70759D01*
X12004Y70835D01*
X12178Y71047D01*
X12287Y71162D01*
X12312Y71226D01*
X14293Y73207D01*
X14293Y73207D01*
X14536Y73571D01*
X14622Y74000D01*
Y79700D01*
X14622Y79700D01*
X14536Y80129D01*
X14293Y80493D01*
X14293Y80493D01*
X10995Y83792D01*
X11202Y84292D01*
X13724D01*
X14184Y84482D01*
X14374Y84941D01*
Y85671D01*
X14399Y85682D01*
X16327D01*
X16349Y85668D01*
X16700Y85598D01*
X17750D01*
X17776Y85587D01*
Y84941D01*
X17966Y84482D01*
X18425Y84292D01*
X21575D01*
X22034Y84482D01*
X22224Y84941D01*
Y88091D01*
X22034Y88550D01*
X21575Y88740D01*
X18425D01*
X17966Y88550D01*
X17776Y88091D01*
Y87445D01*
X17750Y87433D01*
X16988D01*
X16967Y87448D01*
X16616Y87518D01*
X14399D01*
X14374Y87529D01*
Y88091D01*
X14184Y88550D01*
X13724Y88740D01*
X10575D01*
X10322Y88635D01*
X9822Y88909D01*
Y93107D01*
X10322Y93381D01*
X10575Y93276D01*
X13724D01*
X14184Y93466D01*
X14374Y93925D01*
Y94571D01*
X14399Y94582D01*
X17750D01*
X17776Y94571D01*
Y93925D01*
X17966Y93466D01*
X18425Y93276D01*
X21575D01*
X22034Y93466D01*
X22224Y93925D01*
Y97075D01*
X22034Y97534D01*
X21575Y97724D01*
X19954D01*
X19698Y98137D01*
X19701Y98224D01*
X19835Y98900D01*
X19696Y99602D01*
X19298Y100198D01*
X18702Y100596D01*
X18000Y100735D01*
X17298Y100596D01*
X16765Y100240D01*
X16701Y100216D01*
X16654Y100172D01*
X16627Y100151D01*
X16596Y100132D01*
X16561Y100114D01*
X16519Y100097D01*
X16470Y100082D01*
X16413Y100069D01*
X16348Y100059D01*
X16273Y100052D01*
X16171Y100049D01*
X16148Y100039D01*
X13439Y102747D01*
X13413Y102812D01*
X13307Y102935D01*
X13238Y103398D01*
X13245Y103495D01*
X13297Y103577D01*
X13306Y103629D01*
X13314Y103657D01*
X13325Y103689D01*
X13341Y103725D01*
X13362Y103766D01*
X13390Y103811D01*
X13420Y103853D01*
X13522Y103976D01*
X13583Y104040D01*
X13841Y104180D01*
X14341Y103905D01*
Y103765D01*
X14452Y103206D01*
X14769Y102732D01*
X15243Y102415D01*
X15802Y102304D01*
X19200D01*
Y111600D01*
Y120896D01*
X15802D01*
X15243Y120785D01*
X14839Y120515D01*
X14649Y120799D01*
X13472Y121976D01*
X13719Y122437D01*
X13875Y122406D01*
X14950D01*
Y125000D01*
X15450D01*
Y125500D01*
X18044D01*
Y126575D01*
X17966Y126965D01*
X17745Y127296D01*
X17616Y127382D01*
X17767Y127882D01*
X21433D01*
X21584Y127382D01*
X21455Y127296D01*
X21234Y126965D01*
X21156Y126575D01*
Y125500D01*
X26345D01*
Y126575D01*
X26267Y126965D01*
X26046Y127296D01*
X25998Y127328D01*
X25987Y127382D01*
X26209Y127882D01*
X40485D01*
X44210Y124157D01*
D02*
G37*
G36*
X46088Y120506D02*
X46082Y120563D01*
X46063Y120614D01*
X46033Y120659D01*
X45990Y120698D01*
X45935Y120731D01*
X45867Y120758D01*
X45788Y120779D01*
X45696Y120794D01*
X45592Y120803D01*
X45476Y120806D01*
Y121406D01*
X45592Y121409D01*
X45696Y121418D01*
X45788Y121433D01*
X45867Y121454D01*
X45935Y121481D01*
X45990Y121514D01*
X46033Y121553D01*
X46063Y121598D01*
X46082Y121649D01*
X46088Y121706D01*
Y120506D01*
D02*
G37*
G36*
X13623Y41149D02*
X13632Y41045D01*
X13647Y40954D01*
X13668Y40875D01*
X13695Y40808D01*
X13728Y40753D01*
X13767Y40709D01*
X13812Y40678D01*
X13863Y40659D01*
X13920Y40652D01*
X13178Y40664D01*
X13020Y41264D01*
X13620D01*
X13623Y41149D01*
D02*
G37*
%LPC*%
G36*
X7800Y81921D02*
X7268Y81851D01*
X6307Y81453D01*
X5481Y80819D01*
X4847Y79993D01*
X4449Y79032D01*
X4379Y78500D01*
X7800D01*
Y81921D01*
D02*
G37*
G36*
X30350Y79094D02*
X29276D01*
X28885Y79017D01*
X28555Y78796D01*
X28334Y78465D01*
X28256Y78075D01*
Y77000D01*
X30350D01*
Y79094D01*
D02*
G37*
G36*
X38724Y78724D02*
X35575D01*
X35116Y78534D01*
X34925Y78075D01*
Y74925D01*
X35116Y74466D01*
X35323Y74380D01*
X35570Y74165D01*
X35552Y73785D01*
X35482Y73616D01*
Y68105D01*
X35672Y67646D01*
X36132Y67455D01*
X37071D01*
X37082Y67430D01*
Y66380D01*
X34620Y63918D01*
X33481D01*
X33417Y63949D01*
X33352Y63952D01*
X33319Y63957D01*
X33279Y63968D01*
X33233Y63985D01*
X33180Y64010D01*
X33120Y64045D01*
X33062Y64085D01*
X32897Y64221D01*
X32810Y64306D01*
X32751Y64329D01*
X32202Y64696D01*
X31500Y64835D01*
X30798Y64696D01*
X30202Y64298D01*
X29804Y63702D01*
X29665Y63000D01*
X29804Y62298D01*
X30202Y61702D01*
X30798Y61304D01*
X31500Y61165D01*
X32202Y61304D01*
X32751Y61671D01*
X32810Y61694D01*
X32903Y61785D01*
X32981Y61853D01*
X33053Y61910D01*
X33120Y61955D01*
X33180Y61990D01*
X33233Y62015D01*
X33279Y62032D01*
X33319Y62043D01*
X33352Y62048D01*
X33417Y62051D01*
X33481Y62082D01*
X35000D01*
X35351Y62152D01*
X35649Y62351D01*
X38649Y65351D01*
X38848Y65649D01*
X38918Y66000D01*
Y67430D01*
X38929Y67455D01*
X40069D01*
X40528Y67646D01*
X40718Y68105D01*
Y70188D01*
X41218Y70493D01*
X41400Y70456D01*
Y72600D01*
Y74744D01*
X41042Y74672D01*
X40314Y74186D01*
X40303Y74169D01*
X40069Y74266D01*
X39637D01*
X39308Y74766D01*
X39374Y74925D01*
Y78075D01*
X39184Y78534D01*
X38724Y78724D01*
D02*
G37*
G36*
X33445Y76000D02*
X28256D01*
Y74925D01*
X28288Y74766D01*
X27958Y74266D01*
X26683D01*
X26223Y74076D01*
X26033Y73616D01*
Y68105D01*
X26223Y67646D01*
X26683Y67455D01*
X30620D01*
X31079Y67646D01*
X31269Y68105D01*
Y73616D01*
X31462Y73906D01*
X32425D01*
X32815Y73983D01*
X33146Y74204D01*
X33367Y74535D01*
X33445Y74925D01*
Y76000D01*
D02*
G37*
G36*
X32425Y79094D02*
X31350D01*
Y77000D01*
X33445D01*
Y78075D01*
X33367Y78465D01*
X33146Y78796D01*
X32815Y79017D01*
X32425Y79094D01*
D02*
G37*
G36*
X36844Y82300D02*
X35200D01*
Y80656D01*
X35558Y80728D01*
X36286Y81214D01*
X36772Y81942D01*
X36844Y82300D01*
D02*
G37*
%LPD*%
G36*
X38543Y68112D02*
X38492Y68094D01*
X38447Y68064D01*
X38408Y68022D01*
X38375Y67968D01*
X38348Y67902D01*
X38327Y67824D01*
X38312Y67734D01*
X38303Y67632D01*
X38300Y67518D01*
X37700D01*
X37697Y67632D01*
X37688Y67734D01*
X37673Y67824D01*
X37652Y67902D01*
X37625Y67968D01*
X37592Y68022D01*
X37553Y68064D01*
X37508Y68094D01*
X37457Y68112D01*
X37400Y68118D01*
X38600D01*
X38543Y68112D01*
D02*
G37*
G36*
X32462Y63737D02*
X32671Y63565D01*
X32775Y63494D01*
X32878Y63435D01*
X32980Y63386D01*
X33081Y63349D01*
X33182Y63322D01*
X33282Y63305D01*
X33382Y63300D01*
Y62700D01*
X33282Y62695D01*
X33182Y62678D01*
X33081Y62651D01*
X32980Y62614D01*
X32878Y62565D01*
X32775Y62506D01*
X32671Y62435D01*
X32567Y62354D01*
X32462Y62263D01*
X32357Y62160D01*
Y63840D01*
X32462Y63737D01*
D02*
G37*
G36*
X38543Y74932D02*
X38492Y74914D01*
X38447Y74884D01*
X38408Y74842D01*
X38375Y74788D01*
X38348Y74722D01*
X38327Y74644D01*
X38312Y74554D01*
X38303Y74452D01*
X38300Y74338D01*
X37700D01*
X37697Y74452D01*
X37688Y74554D01*
X37673Y74644D01*
X37652Y74722D01*
X37625Y74788D01*
X37592Y74842D01*
X37553Y74884D01*
X37508Y74914D01*
X37457Y74932D01*
X37400Y74938D01*
X38600D01*
X38543Y74932D01*
D02*
G37*
G36*
X38303Y74087D02*
X38312Y73983D01*
X38327Y73891D01*
X38348Y73812D01*
X38375Y73744D01*
X38408Y73689D01*
X38447Y73647D01*
X38492Y73616D01*
X38543Y73598D01*
X38600Y73592D01*
X37400D01*
X37457Y73598D01*
X37508Y73616D01*
X37553Y73647D01*
X37592Y73689D01*
X37625Y73744D01*
X37652Y73812D01*
X37673Y73891D01*
X37688Y73983D01*
X37697Y74087D01*
X37700Y74203D01*
X38300D01*
X38303Y74087D01*
D02*
G37*
%LPC*%
G36*
X50500Y58500D02*
X48406D01*
Y57425D01*
X48483Y57035D01*
X48704Y56704D01*
X49035Y56483D01*
X49425Y56406D01*
X50500D01*
Y58500D01*
D02*
G37*
G36*
X53594D02*
X51500D01*
Y56406D01*
X52575D01*
X52965Y56483D01*
X53296Y56704D01*
X53517Y57035D01*
X53594Y57425D01*
Y58500D01*
D02*
G37*
G36*
X14300Y138444D02*
Y136800D01*
X15944D01*
X15872Y137158D01*
X15386Y137886D01*
X14658Y138372D01*
X14300Y138444D01*
D02*
G37*
G36*
X24400D02*
X24042Y138372D01*
X23314Y137886D01*
X22828Y137158D01*
X22756Y136800D01*
X24400D01*
Y138444D01*
D02*
G37*
G36*
X49244Y135800D02*
X47600D01*
Y134156D01*
X47958Y134228D01*
X48686Y134714D01*
X49172Y135442D01*
X49244Y135800D01*
D02*
G37*
G36*
X13300Y138444D02*
X12942Y138372D01*
X12214Y137886D01*
X11728Y137158D01*
X11656Y136800D01*
X13300D01*
Y138444D01*
D02*
G37*
G36*
X36500D02*
Y136800D01*
X38144D01*
X38072Y137158D01*
X37586Y137886D01*
X36858Y138372D01*
X36500Y138444D01*
D02*
G37*
G36*
X46600D02*
X46242Y138372D01*
X45514Y137886D01*
X45028Y137158D01*
X44956Y136800D01*
X46600D01*
Y138444D01*
D02*
G37*
G36*
X25400D02*
Y136800D01*
X27044D01*
X26972Y137158D01*
X26486Y137886D01*
X25758Y138372D01*
X25400Y138444D01*
D02*
G37*
G36*
X35500D02*
X35142Y138372D01*
X34414Y137886D01*
X33928Y137158D01*
X33856Y136800D01*
X35500D01*
Y138444D01*
D02*
G37*
G36*
X46600Y135800D02*
X44956D01*
X45028Y135442D01*
X45514Y134714D01*
X46242Y134228D01*
X46600Y134156D01*
Y135800D01*
D02*
G37*
G36*
X13300D02*
X11656D01*
X11728Y135442D01*
X12214Y134714D01*
X12942Y134228D01*
X13300Y134156D01*
Y135800D01*
D02*
G37*
G36*
X15944D02*
X14300D01*
Y134156D01*
X14658Y134228D01*
X15386Y134714D01*
X15872Y135442D01*
X15944Y135800D01*
D02*
G37*
G36*
X59933Y132319D02*
X55533D01*
X55582Y131941D01*
X55921Y131123D01*
X56460Y130421D01*
X57163Y129882D01*
X57981Y129543D01*
X58858Y129428D01*
X59933D01*
Y132319D01*
D02*
G37*
G36*
Y136210D02*
X58858D01*
X57981Y136094D01*
X57163Y135756D01*
X56460Y135217D01*
X55921Y134514D01*
X55582Y133696D01*
X55533Y133319D01*
X59933D01*
Y136210D01*
D02*
G37*
G36*
X35500Y135800D02*
X33856D01*
X33928Y135442D01*
X34414Y134714D01*
X35142Y134228D01*
X35500Y134156D01*
Y135800D01*
D02*
G37*
G36*
X38144D02*
X36500D01*
Y134156D01*
X36858Y134228D01*
X37586Y134714D01*
X38072Y135442D01*
X38144Y135800D01*
D02*
G37*
G36*
X24400D02*
X22756D01*
X22828Y135442D01*
X23314Y134714D01*
X24042Y134228D01*
X24400Y134156D01*
Y135800D01*
D02*
G37*
G36*
X27044D02*
X25400D01*
Y134156D01*
X25758Y134228D01*
X26486Y134714D01*
X26972Y135442D01*
X27044Y135800D01*
D02*
G37*
G36*
X24400Y143744D02*
X24042Y143672D01*
X23314Y143186D01*
X22828Y142458D01*
X22756Y142100D01*
X24400D01*
Y143744D01*
D02*
G37*
G36*
X25400D02*
Y142100D01*
X27044D01*
X26972Y142458D01*
X26486Y143186D01*
X25758Y143672D01*
X25400Y143744D01*
D02*
G37*
G36*
X13300D02*
X12942Y143672D01*
X12214Y143186D01*
X11728Y142458D01*
X11656Y142100D01*
X13300D01*
Y143744D01*
D02*
G37*
G36*
X14300D02*
Y142100D01*
X15944D01*
X15872Y142458D01*
X15386Y143186D01*
X14658Y143672D01*
X14300Y143744D01*
D02*
G37*
G36*
X46600D02*
X46242Y143672D01*
X45514Y143186D01*
X45028Y142458D01*
X44956Y142100D01*
X46600D01*
Y143744D01*
D02*
G37*
G36*
X47600D02*
Y142100D01*
X49244D01*
X49172Y142458D01*
X48686Y143186D01*
X47958Y143672D01*
X47600Y143744D01*
D02*
G37*
G36*
X35500D02*
X35142Y143672D01*
X34414Y143186D01*
X33928Y142458D01*
X33856Y142100D01*
X35500D01*
Y143744D01*
D02*
G37*
G36*
X36500D02*
Y142100D01*
X38144D01*
X38072Y142458D01*
X37586Y143186D01*
X36858Y143672D01*
X36500Y143744D01*
D02*
G37*
G36*
X49244Y141100D02*
X47600D01*
Y139456D01*
X47958Y139528D01*
X48686Y140014D01*
X49172Y140742D01*
X49244Y141100D01*
D02*
G37*
G36*
X15944D02*
X14300D01*
Y139456D01*
X14658Y139528D01*
X15386Y140014D01*
X15872Y140742D01*
X15944Y141100D01*
D02*
G37*
G36*
X24400D02*
X22756D01*
X22828Y140742D01*
X23314Y140014D01*
X24042Y139528D01*
X24400Y139456D01*
Y141100D01*
D02*
G37*
G36*
X47600Y138444D02*
Y136800D01*
X49244D01*
X49172Y137158D01*
X48686Y137886D01*
X47958Y138372D01*
X47600Y138444D01*
D02*
G37*
G36*
X13300Y141100D02*
X11656D01*
X11728Y140742D01*
X12214Y140014D01*
X12942Y139528D01*
X13300Y139456D01*
Y141100D01*
D02*
G37*
G36*
X38144D02*
X36500D01*
Y139456D01*
X36858Y139528D01*
X37586Y140014D01*
X38072Y140742D01*
X38144Y141100D01*
D02*
G37*
G36*
X46600D02*
X44956D01*
X45028Y140742D01*
X45514Y140014D01*
X46242Y139528D01*
X46600Y139456D01*
Y141100D01*
D02*
G37*
G36*
X27044D02*
X25400D01*
Y139456D01*
X25758Y139528D01*
X26486Y140014D01*
X26972Y140742D01*
X27044Y141100D01*
D02*
G37*
G36*
X35500D02*
X33856D01*
X33928Y140742D01*
X34414Y140014D01*
X35142Y139528D01*
X35500Y139456D01*
Y141100D01*
D02*
G37*
G36*
X52953Y130689D02*
X50500D01*
Y128594D01*
X53972D01*
Y129669D01*
X53895Y130059D01*
X53674Y130390D01*
X53343Y130611D01*
X52953Y130689D01*
D02*
G37*
G36*
X60000Y96000D02*
X56579D01*
X56649Y95468D01*
X57047Y94507D01*
X57681Y93681D01*
X58507Y93047D01*
X59468Y92649D01*
X60000Y92579D01*
Y96000D01*
D02*
G37*
G36*
X60500Y91583D02*
X59573Y91461D01*
X58708Y91103D01*
X57966Y90534D01*
X57397Y89792D01*
X57077Y89020D01*
X57000Y89035D01*
X56298Y88896D01*
X55702Y88498D01*
X55304Y87902D01*
X55165Y87200D01*
X55304Y86498D01*
X55702Y85902D01*
X56298Y85504D01*
X57000Y85365D01*
X57702Y85504D01*
X57857Y85608D01*
X57966Y85466D01*
X58708Y84897D01*
X59573Y84539D01*
X60500Y84417D01*
X61427Y84539D01*
X62292Y84897D01*
X63034Y85466D01*
X63603Y86208D01*
X63961Y87073D01*
X64083Y88000D01*
X63961Y88927D01*
X63603Y89792D01*
X63034Y90534D01*
X62292Y91103D01*
X61427Y91461D01*
X60500Y91583D01*
D02*
G37*
G36*
X59933Y107667D02*
X58858D01*
X57981Y107551D01*
X57163Y107212D01*
X56460Y106674D01*
X55921Y105971D01*
X55582Y105153D01*
X55533Y104776D01*
X59933D01*
Y107667D01*
D02*
G37*
G36*
X53972Y108500D02*
X50500D01*
Y106406D01*
X52953D01*
X53343Y106483D01*
X53674Y106704D01*
X53895Y107035D01*
X53972Y107425D01*
Y108500D01*
D02*
G37*
G36*
X52575Y81094D02*
X51500D01*
Y79000D01*
X53594D01*
Y80075D01*
X53517Y80465D01*
X53296Y80796D01*
X52965Y81017D01*
X52575Y81094D01*
D02*
G37*
G36*
X49500Y130689D02*
X47047D01*
X46657Y130611D01*
X46326Y130390D01*
X46105Y130059D01*
X46028Y129669D01*
Y128594D01*
X49500D01*
Y130689D01*
D02*
G37*
%LPD*%
G36*
X57963Y87937D02*
X58171Y87765D01*
X58275Y87694D01*
X58378Y87635D01*
X58480Y87586D01*
X58582Y87549D01*
X58682Y87522D01*
X58782Y87505D01*
X58882Y87500D01*
Y86900D01*
X58782Y86895D01*
X58682Y86878D01*
X58582Y86851D01*
X58480Y86814D01*
X58378Y86765D01*
X58275Y86706D01*
X58171Y86635D01*
X58067Y86554D01*
X57963Y86463D01*
X57857Y86360D01*
Y86675D01*
X57848Y86689D01*
X57807Y86733D01*
X57758Y86772D01*
X57699Y86806D01*
X57632Y86835D01*
X57555Y86858D01*
X57470Y86876D01*
X57376Y86890D01*
X57272Y86897D01*
X57160Y86900D01*
X57000Y87500D01*
X57109Y87503D01*
X57206Y87512D01*
X57291Y87527D01*
X57365Y87547D01*
X57426Y87574D01*
X57476Y87606D01*
X57513Y87644D01*
X57539Y87688D01*
X57553Y87738D01*
X57554Y87794D01*
X57857Y86719D01*
Y88040D01*
X57963Y87937D01*
D02*
G37*
%LPC*%
G36*
X46300Y36000D02*
X42280D01*
Y34500D01*
X42358Y34110D01*
X42579Y33779D01*
X42910Y33558D01*
X43300Y33480D01*
X46300D01*
Y36000D01*
D02*
G37*
G36*
X53000Y30900D02*
X51356D01*
X51428Y30542D01*
X51914Y29814D01*
X52642Y29328D01*
X53000Y29256D01*
Y30900D01*
D02*
G37*
G36*
X33545Y33300D02*
X31450D01*
Y31206D01*
X32525D01*
X32915Y31283D01*
X33246Y31504D01*
X33467Y31835D01*
X33545Y32225D01*
Y33300D01*
D02*
G37*
G36*
X54000Y33544D02*
Y31900D01*
X55644D01*
X55572Y32258D01*
X55086Y32986D01*
X54358Y33472D01*
X54000Y33544D01*
D02*
G37*
G36*
X53000D02*
X52642Y33472D01*
X51914Y32986D01*
X51428Y32258D01*
X51356Y31900D01*
X53000D01*
Y33544D01*
D02*
G37*
G36*
X58059Y21599D02*
Y13248D01*
X62539D01*
Y16685D01*
X62369Y17974D01*
X61871Y19175D01*
X61080Y20206D01*
X60049Y20998D01*
X58848Y21495D01*
X58059Y21599D01*
D02*
G37*
G36*
X9815D02*
X9026Y21495D01*
X7825Y20998D01*
X6794Y20206D01*
X6002Y19175D01*
X5505Y17974D01*
X5335Y16685D01*
Y13248D01*
X9815D01*
Y21599D01*
D02*
G37*
G36*
X15295Y12248D02*
X10815D01*
Y3897D01*
X11604Y4001D01*
X12805Y4499D01*
X13836Y5290D01*
X14627Y6321D01*
X15125Y7522D01*
X15295Y8811D01*
Y12248D01*
D02*
G37*
G36*
X62539D02*
X58059D01*
Y3897D01*
X58848Y4001D01*
X60049Y4499D01*
X61080Y5290D01*
X61871Y6321D01*
X62369Y7522D01*
X62539Y8811D01*
Y12248D01*
D02*
G37*
G36*
X9815D02*
X5335D01*
Y8811D01*
X5505Y7522D01*
X6002Y6321D01*
X6794Y5290D01*
X7825Y4499D01*
X9026Y4001D01*
X9815Y3897D01*
Y12248D01*
D02*
G37*
G36*
X10815Y21599D02*
Y13248D01*
X15295D01*
Y16685D01*
X15125Y17974D01*
X15587Y18165D01*
X15845Y17542D01*
X16636Y16510D01*
X17668Y15719D01*
X18869Y15222D01*
X19657Y15118D01*
Y21500D01*
X15178D01*
Y20031D01*
X15348Y18743D01*
X14886Y18552D01*
X14627Y19175D01*
X13836Y20206D01*
X12805Y20998D01*
X11604Y21495D01*
X10815Y21599D01*
D02*
G37*
G36*
X9300Y26644D02*
Y25000D01*
X10944D01*
X10872Y25358D01*
X10386Y26086D01*
X9658Y26572D01*
X9300Y26644D01*
D02*
G37*
G36*
X8300D02*
X7942Y26572D01*
X7214Y26086D01*
X6728Y25358D01*
X6656Y25000D01*
X8300D01*
Y26644D01*
D02*
G37*
G36*
Y24000D02*
X6656D01*
X6728Y23642D01*
X7214Y22914D01*
X7942Y22428D01*
X8300Y22356D01*
Y24000D01*
D02*
G37*
G36*
X10944D02*
X9300D01*
Y22356D01*
X9658Y22428D01*
X10386Y22914D01*
X10872Y23642D01*
X10944Y24000D01*
D02*
G37*
G36*
X23075Y35445D02*
X22000D01*
Y33350D01*
X24094D01*
Y34425D01*
X24017Y34815D01*
X23796Y35146D01*
X23465Y35367D01*
X23075Y35445D01*
D02*
G37*
G36*
X25059Y111100D02*
X20200D01*
Y102304D01*
X23598D01*
X24157Y102415D01*
X24631Y102732D01*
X24948Y103206D01*
X25059Y103765D01*
Y111100D01*
D02*
G37*
G36*
X35644Y108500D02*
X31200D01*
Y106757D01*
X33500D01*
X34358Y106928D01*
X35086Y107414D01*
X35572Y108142D01*
X35644Y108500D01*
D02*
G37*
G36*
X30200D02*
X25756D01*
X25828Y108142D01*
X26314Y107414D01*
X27042Y106928D01*
X27900Y106757D01*
X30200D01*
Y108500D01*
D02*
G37*
G36*
X38500Y110850D02*
X36406D01*
Y109776D01*
X36483Y109385D01*
X36704Y109055D01*
X37035Y108834D01*
X37425Y108756D01*
X38500D01*
Y110850D01*
D02*
G37*
G36*
X23250Y124500D02*
X21156D01*
Y123425D01*
X21234Y123035D01*
X21455Y122704D01*
X21785Y122483D01*
X22176Y122406D01*
X23250D01*
Y124500D01*
D02*
G37*
G36*
X18044D02*
X15950D01*
Y122406D01*
X17024D01*
X17415Y122483D01*
X17745Y122704D01*
X17966Y123035D01*
X18044Y123425D01*
Y124500D01*
D02*
G37*
G36*
X33500Y121243D02*
X31200D01*
Y119500D01*
X35644D01*
X35572Y119858D01*
X35086Y120586D01*
X34358Y121072D01*
X33500Y121243D01*
D02*
G37*
G36*
X31624Y127224D02*
X28475D01*
X28016Y127034D01*
X27825Y126575D01*
Y123425D01*
X28016Y122966D01*
X28475Y122776D01*
X31624D01*
X32084Y122966D01*
X32176Y123189D01*
X32800Y123065D01*
X33502Y123204D01*
X34098Y123602D01*
X34496Y124198D01*
X34635Y124900D01*
X34496Y125602D01*
X34098Y126198D01*
X33502Y126596D01*
X32800Y126735D01*
X32252Y126626D01*
X32084Y127034D01*
X31624Y127224D01*
D02*
G37*
G36*
X26345Y124500D02*
X24250D01*
Y122406D01*
X25325D01*
X25715Y122483D01*
X26046Y122704D01*
X26267Y123035D01*
X26345Y123425D01*
Y124500D01*
D02*
G37*
G36*
X30200Y121243D02*
X27900D01*
X27042Y121072D01*
X26314Y120586D01*
X25828Y119858D01*
X25756Y119500D01*
X30200D01*
Y121243D01*
D02*
G37*
G36*
X23598Y120896D02*
X20200D01*
Y112100D01*
X25059D01*
Y119435D01*
X24948Y119994D01*
X24631Y120468D01*
X24157Y120785D01*
X23598Y120896D01*
D02*
G37*
G36*
X33500Y111243D02*
X31200D01*
Y109500D01*
X35644D01*
X35572Y109858D01*
X35086Y110586D01*
X34358Y111072D01*
X33500Y111243D01*
D02*
G37*
G36*
X30200D02*
X27900D01*
X27042Y111072D01*
X26314Y110586D01*
X25828Y109858D01*
X25756Y109500D01*
X30200D01*
Y111243D01*
D02*
G37*
G36*
X34500Y115935D02*
X33798Y115796D01*
X33775Y115780D01*
X33500Y115835D01*
X27900D01*
X27198Y115696D01*
X26602Y115298D01*
X26204Y114702D01*
X26065Y114000D01*
X26204Y113298D01*
X26602Y112702D01*
X27198Y112304D01*
X27900Y112165D01*
X33500D01*
X34202Y112304D01*
X34225Y112320D01*
X34500Y112265D01*
X35202Y112404D01*
X35798Y112802D01*
X35922Y112988D01*
X36071Y112969D01*
X36406Y112812D01*
Y111850D01*
X38500D01*
Y113945D01*
X37425D01*
X37035Y113867D01*
X36762Y113685D01*
X36542Y113762D01*
X36302Y113933D01*
X36335Y114100D01*
X36196Y114802D01*
X35798Y115398D01*
X35202Y115796D01*
X34500Y115935D01*
D02*
G37*
G36*
X35644Y118500D02*
X31200D01*
Y116757D01*
X33500D01*
X34358Y116928D01*
X35086Y117414D01*
X35572Y118142D01*
X35644Y118500D01*
D02*
G37*
G36*
X30200D02*
X25756D01*
X25828Y118142D01*
X26314Y117414D01*
X27042Y116928D01*
X27900Y116757D01*
X30200D01*
Y118500D01*
D02*
G37*
%LPD*%
G36*
X31943Y125220D02*
X31991Y125212D01*
X32095Y125203D01*
X32211Y125200D01*
Y124600D01*
X32095Y124597D01*
X31991Y124588D01*
X31943Y124580D01*
Y124060D01*
X31837Y124163D01*
X31629Y124335D01*
X31605Y124351D01*
X31599Y124300D01*
Y124355D01*
X31525Y124406D01*
X31422Y124465D01*
X31320Y124514D01*
X31218Y124551D01*
X31118Y124578D01*
X31018Y124595D01*
X30918Y124600D01*
Y125200D01*
X31018Y125205D01*
X31118Y125222D01*
X31218Y125249D01*
X31320Y125286D01*
X31422Y125335D01*
X31525Y125394D01*
X31599Y125445D01*
Y125500D01*
X31605Y125449D01*
X31629Y125465D01*
X31733Y125546D01*
X31837Y125637D01*
X31943Y125740D01*
Y125220D01*
D02*
G37*
D10*
X39000Y111350D02*
D03*
Y117650D02*
D03*
X38000Y88850D02*
D03*
Y95150D02*
D03*
X21500Y32850D02*
D03*
Y39150D02*
D03*
X14740Y39102D02*
D03*
Y32803D02*
D03*
X45000Y88850D02*
D03*
Y95150D02*
D03*
D15*
X21000Y32350D02*
Y32850D01*
X14740Y32803D02*
X21453D01*
X21000Y32350D02*
X21453Y32803D01*
X12150Y86600D02*
X16616D01*
X38000Y69500D02*
Y75650D01*
X28551Y54539D02*
Y58949D01*
X7000Y61500D02*
X9700D01*
Y61000D02*
Y61500D01*
X54722Y47678D02*
X57800Y44600D01*
X18050Y35700D02*
X21500Y39150D01*
X57000Y87200D02*
X60500D01*
X8800Y103900D02*
X12100D01*
X40100Y45400D02*
X40700Y44800D01*
X7000Y49500D02*
X9268Y51768D01*
X45016Y123665D02*
X49016D01*
X30600Y99801D02*
Y104000D01*
X7500Y119000D02*
X11200D01*
X41600Y48700D02*
Y50803D01*
X25400Y42000D02*
X27726Y44326D01*
X20157Y22000D02*
Y23007D01*
X30950Y33800D01*
X31300Y37300D02*
X33500Y39500D01*
Y44825D01*
X32825Y45500D02*
X33500Y44825D01*
X30201Y45500D02*
X32825D01*
X23900Y29100D02*
X27000Y32200D01*
X11400Y29100D02*
X23900D01*
X8000Y32500D02*
X11400Y29100D01*
X27000Y32200D02*
Y37650D01*
X30150Y40800D01*
X39970D02*
X42400Y43230D01*
X36450Y40800D02*
X39970D01*
X36450D02*
X37250Y40000D01*
Y33800D02*
Y40000D01*
X30950Y33800D02*
X31300Y34150D01*
Y37300D01*
X28306Y28906D02*
X45106D01*
X25100Y25700D02*
X28306Y28906D01*
X45106D02*
X48700Y32500D01*
X25100Y17448D02*
Y25700D01*
X20500Y12848D02*
X25100Y17448D01*
X47267Y71400D02*
Y83767D01*
Y69167D02*
Y71400D01*
X45167Y70167D02*
Y81833D01*
X48467Y67767D02*
Y83867D01*
X47267Y84364D02*
X48600Y85697D01*
X47267Y83767D02*
Y84364D01*
X42000Y63900D02*
X47267Y69167D01*
X42100Y84900D02*
X45167Y81833D01*
X43200Y62500D02*
X48467Y67767D01*
X30400Y83100D02*
X32200Y84900D01*
X42100D01*
X41000Y48700D02*
X41600D01*
X38975Y46525D02*
Y47755D01*
X38900Y47830D02*
X38975Y47755D01*
Y46525D02*
X40100Y45400D01*
X38900Y47830D02*
Y49800D01*
X48700Y32500D02*
X49050D01*
X63700Y48127D02*
X64500Y47327D01*
X63700Y48127D02*
Y77700D01*
X63200Y78200D02*
X63700Y77700D01*
X62000Y78200D02*
X63200D01*
X8300Y58508D02*
Y61500D01*
Y58508D02*
X10975Y55834D01*
X8000Y32500D02*
X9700Y34200D01*
Y36570D01*
X12233Y39102D01*
X12233D01*
X14740D01*
X11800Y35700D02*
X18050D01*
X12500Y63070D02*
Y67894D01*
Y63070D02*
X13053Y62518D01*
X12300Y68094D02*
X12500Y67894D01*
X9600Y104000D02*
X10600D01*
X12100Y103900D02*
X14000Y105800D01*
X38000Y88850D02*
X39500Y87350D01*
X46800Y42500D02*
X57800D01*
X60500Y87200D02*
Y88000D01*
X18550Y36200D02*
X21500Y39150D01*
X18550Y36100D02*
Y36200D01*
X48467Y83867D02*
X50000Y85400D01*
X48600Y85697D02*
Y95972D01*
X57800Y42500D02*
Y44600D01*
X20800Y39850D02*
X21500Y39150D01*
X20800Y39850D02*
Y47831D01*
X18100Y69000D02*
Y69200D01*
X14600Y65500D02*
X18100Y69000D01*
X12300Y68094D02*
X30200Y85994D01*
X43200Y52403D02*
Y62500D01*
X41600Y50803D02*
X43200Y52403D01*
X42000Y52900D02*
Y63900D01*
X38900Y49800D02*
X42000Y52900D01*
X24463Y53737D02*
X27726Y50474D01*
Y44326D02*
Y50474D01*
X25600Y45600D02*
X25679D01*
X26300Y46221D01*
X40300Y44800D02*
X40700D01*
X42400Y43230D02*
Y46000D01*
X44900Y48500D02*
X46800D01*
X42400Y46000D02*
X44900Y48500D01*
X41100Y44800D02*
X41200Y44700D01*
X40700Y44800D02*
X41100D01*
X51000Y59000D02*
Y65500D01*
X24649Y51768D02*
X26300Y50117D01*
X21300Y51768D02*
X24649D01*
X21300Y53737D02*
X24463D01*
X30700Y104000D02*
X37197D01*
X13320Y40523D02*
X14740Y39102D01*
X13320Y40523D02*
Y47831D01*
X38701Y95150D02*
X45000Y88850D01*
X38000Y95150D02*
X38701D01*
X50000Y85400D02*
Y96700D01*
X43900Y100672D02*
X48600Y95972D01*
X45100Y101600D02*
X50000Y96700D01*
X43900Y100672D02*
Y101600D01*
X42700Y102800D02*
X43900Y101600D01*
X5400Y114000D02*
X8700D01*
X14000Y105800D02*
Y120150D01*
X9150Y125000D02*
X14000Y120150D01*
X3500Y107900D02*
X4300Y108700D01*
X3500Y97850D02*
Y107900D01*
X4300Y109000D02*
X8700D01*
X4300Y108700D02*
Y109000D01*
X5400Y127100D02*
X7100Y128800D01*
X5400Y122300D02*
Y127100D01*
Y122300D02*
X8700Y119000D01*
X7100Y128800D02*
X40865D01*
X46000Y123665D01*
X8700Y104000D02*
X8800Y103900D01*
X30150Y124900D02*
X32800D01*
X30050Y125000D02*
X30150Y124900D01*
X26299Y95500D02*
X30600Y99801D01*
X3500Y97850D02*
X5850Y95500D01*
X40700Y44800D02*
X41000Y44500D01*
X52554Y11054D02*
Y25354D01*
X64500Y37300D02*
Y47327D01*
X52554Y25354D02*
X64500Y37300D01*
X46800Y48500D02*
X47500D01*
X41000Y44500D02*
X41200Y44700D01*
X12150Y95500D02*
X20000D01*
X12150Y86516D02*
Y86600D01*
X16616D02*
X16700Y86516D01*
X20000D01*
X45100Y101600D02*
Y118447D01*
X45200Y118547D01*
X49016D01*
X42700Y102800D02*
Y118706D01*
X45100Y121106D01*
X49016D01*
X30200Y85994D02*
Y87350D01*
X38000Y95150D01*
X51000Y65500D02*
Y72000D01*
Y78500D01*
X27000Y60000D02*
X27500D01*
X28551Y58949D01*
X26300Y46221D02*
Y50117D01*
X24176Y49224D02*
X24200Y49247D01*
X23647Y49800D02*
X24200Y49247D01*
X20800Y49800D02*
X23647D01*
X25400Y42000D02*
X25500D01*
X48000Y6500D02*
X52554Y11054D01*
X20500Y6500D02*
Y12848D01*
X39000Y117650D02*
Y119000D01*
X31350Y7000D02*
Y14450D01*
X30000Y15800D02*
X31350Y14450D01*
X30000Y15800D02*
Y22000D01*
X37197Y104000D02*
X41500Y108303D01*
Y115150D01*
X39000Y117650D02*
X41500Y115150D01*
X26299Y86516D02*
Y95500D01*
X39000Y117650D02*
X45016Y123665D01*
X35000Y63000D02*
X38000Y66000D01*
X31500Y63000D02*
X35000D01*
X38000Y66000D02*
Y69500D01*
X37150Y76500D02*
X38000Y75650D01*
D16*
X28551Y53598D02*
X36650Y45500D01*
X10600Y104000D02*
X15700Y98900D01*
X8000Y40600D02*
Y45800D01*
X12000Y49800D01*
X13320D01*
X3600Y66600D02*
X7000Y70000D01*
X3600Y36900D02*
Y66600D01*
Y36900D02*
X8000Y32500D01*
X8300Y70000D02*
X9500D01*
X7000D02*
X8300D01*
X13500Y74000D02*
Y79700D01*
X9500Y70000D02*
X13500Y74000D01*
X8700Y84500D02*
X13500Y79700D01*
X8700Y84500D02*
Y104000D01*
X15700Y98900D02*
X18000D01*
X37650Y7000D02*
X41900D01*
X47717Y12817D01*
Y22000D01*
X36500Y45500D02*
X36650D01*
X28551Y53598D02*
Y54539D01*
D17*
X57299Y43001D02*
Y59000D01*
Y43001D02*
X57800Y42500D01*
X57299Y72000D02*
Y78500D01*
Y65500D02*
Y72000D01*
Y59000D02*
Y65500D01*
D18*
X60433Y104276D02*
D03*
Y132819D02*
D03*
D19*
X50000Y109000D02*
D03*
Y128094D02*
D03*
D20*
X30000Y22000D02*
D03*
X37874D02*
D03*
D21*
X47717D02*
D03*
X20157D02*
D03*
D22*
X57559Y12748D02*
D03*
X10315D02*
D03*
D23*
X31300Y37300D02*
D03*
X53500Y31400D02*
D03*
X21000Y32850D02*
D03*
X41900Y72600D02*
D03*
X45167Y70167D02*
D03*
X23900Y126600D02*
D03*
X8800Y24500D02*
D03*
X44500Y93200D02*
D03*
X34700Y82800D02*
D03*
X8300Y77500D02*
D03*
X13800Y136300D02*
D03*
X24900D02*
D03*
X36000D02*
D03*
X47100D02*
D03*
Y141600D02*
D03*
X36000D02*
D03*
X24900D02*
D03*
X13800D02*
D03*
X41000Y48700D02*
D03*
X49050Y32500D02*
D03*
X62000Y78200D02*
D03*
X10975Y55834D02*
D03*
X11800Y35700D02*
D03*
X13053Y62518D02*
D03*
X57000Y87200D02*
D03*
X39500Y87350D02*
D03*
X8000Y32500D02*
D03*
X18000Y98900D02*
D03*
X54722Y47678D02*
D03*
X18100Y69200D02*
D03*
X14600Y65500D02*
D03*
X25600Y45600D02*
D03*
X40300Y44800D02*
D03*
X5400Y88100D02*
D03*
Y114000D02*
D03*
X34500Y114100D02*
D03*
X32800Y124900D02*
D03*
X30400Y83100D02*
D03*
X27000Y60000D02*
D03*
X24200Y49247D02*
D03*
X25500Y42000D02*
D03*
X31500Y63000D02*
D03*
D24*
X25079Y12551D02*
D03*
X42795D02*
D03*
D25*
X30950Y33800D02*
D03*
X37250D02*
D03*
X37650Y7000D02*
D03*
X31350D02*
D03*
X30050Y125000D02*
D03*
X23750D02*
D03*
X15450D02*
D03*
X9150D02*
D03*
X30201Y45500D02*
D03*
X36500D02*
D03*
X30850Y76500D02*
D03*
X37150D02*
D03*
X12150Y95500D02*
D03*
X5850D02*
D03*
X12150Y86516D02*
D03*
X5850D02*
D03*
X26299Y95500D02*
D03*
X20000D02*
D03*
X26299Y86516D02*
D03*
X20000D02*
D03*
X51000Y59000D02*
D03*
X57299D02*
D03*
X51000Y65500D02*
D03*
X57299D02*
D03*
X51000Y72000D02*
D03*
X57299D02*
D03*
X30150Y40800D02*
D03*
X36450D02*
D03*
X51000Y78500D02*
D03*
X57299D02*
D03*
D26*
X49016Y123665D02*
D03*
Y121106D02*
D03*
Y118547D02*
D03*
Y115988D02*
D03*
Y113429D02*
D03*
D27*
X28651Y70861D02*
D03*
Y55900D02*
D03*
X38100D02*
D03*
Y70861D02*
D03*
D28*
X30700Y109000D02*
D03*
Y119000D02*
D03*
Y114000D02*
D03*
Y104000D02*
D03*
X8700Y119000D02*
D03*
Y114000D02*
D03*
Y109000D02*
D03*
Y104000D02*
D03*
D29*
X19700Y111600D02*
D03*
D30*
X8300Y61500D02*
D03*
X8000Y51700D02*
D03*
Y40600D02*
D03*
X60500Y96500D02*
D03*
X8300Y78000D02*
D03*
X20500Y6500D02*
D03*
X48000D02*
D03*
X60500Y88000D02*
D03*
X8300Y70000D02*
D03*
D31*
X46800Y36500D02*
D03*
Y42500D02*
D03*
Y48500D02*
D03*
D32*
X57800Y42500D02*
D03*
D33*
X13320Y47831D02*
D03*
Y49800D02*
D03*
Y51768D02*
D03*
Y53737D02*
D03*
X20800D02*
D03*
Y51768D02*
D03*
Y49800D02*
D03*
Y47831D02*
D03*
D34*
X17060Y50784D02*
D03*
D35*
X9268Y51768D02*
X13320D01*
M02*
