G04 Layer_Color=2752767*
%FSLAX25Y25*%
%MOIN*%
G70*
G01*
G75*
%ADD63C,0.00200*%
%ADD64C,0.00267*%
D63*
X59633Y103476D02*
Y105076D01*
X61233D01*
Y103476D01*
X59633D01*
Y132019D02*
Y133619D01*
X61233D01*
Y132019D01*
X59633D01*
X30000Y21200D02*
X29200Y22800D01*
X30800D01*
X30000Y21200D01*
X37874D02*
X37074Y22800D01*
X38674D01*
X37874Y21200D01*
X47717D02*
X46917Y22800D01*
X48517D01*
X47717Y21200D01*
X20157D02*
X19357Y22800D01*
X20957D01*
X20157Y21200D01*
X57559Y11948D02*
X57959Y12348D01*
X58359D01*
X57959Y12748D01*
X58359Y13148D01*
X57959D01*
X57559Y13548D01*
X57159Y13148D01*
X56759D01*
X57159Y12748D01*
X56759Y12348D01*
X57159D01*
X57559Y11948D01*
X10315D02*
X10715Y12348D01*
X11115D01*
X10715Y12748D01*
X11115Y13148D01*
X10715D01*
X10315Y13548D01*
X9915Y13148D01*
X9515D01*
X9915Y12748D01*
X9515Y12348D01*
X9915D01*
X10315Y11948D01*
X30500Y36500D02*
X30900Y37300D01*
X30500Y38100D01*
X31300Y37700D01*
X32100Y38100D01*
X31700Y37300D01*
X32100Y36500D01*
X31300Y36900D01*
X30500Y36500D01*
X52700Y30600D02*
X53100Y31400D01*
X52700Y32200D01*
X53500Y31800D01*
X54300Y32200D01*
X53900Y31400D01*
X54300Y30600D01*
X53500Y31000D01*
X52700Y30600D01*
X20200Y32050D02*
X20600Y32850D01*
X20200Y33650D01*
X21000Y33250D01*
X21800Y33650D01*
X21400Y32850D01*
X21800Y32050D01*
X21000Y32450D01*
X20200Y32050D01*
X41100Y71800D02*
X41500Y72600D01*
X41100Y73400D01*
X41900Y73000D01*
X42700Y73400D01*
X42300Y72600D01*
X42700Y71800D01*
X41900Y72200D01*
X41100Y71800D01*
X44367Y69367D02*
X44767Y70167D01*
X44367Y70967D01*
X45167Y70567D01*
X45967Y70967D01*
X45567Y70167D01*
X45967Y69367D01*
X45167Y69767D01*
X44367Y69367D01*
X23100Y125800D02*
X23500Y126600D01*
X23100Y127400D01*
X23900Y127000D01*
X24700Y127400D01*
X24300Y126600D01*
X24700Y125800D01*
X23900Y126200D01*
X23100Y125800D01*
X8000Y23700D02*
X8400Y24500D01*
X8000Y25300D01*
X8800Y24900D01*
X9600Y25300D01*
X9200Y24500D01*
X9600Y23700D01*
X8800Y24100D01*
X8000Y23700D01*
X43700Y92400D02*
X44100Y93200D01*
X43700Y94000D01*
X44500Y93600D01*
X45300Y94000D01*
X44900Y93200D01*
X45300Y92400D01*
X44500Y92800D01*
X43700Y92400D01*
X33900Y82000D02*
X34300Y82800D01*
X33900Y83600D01*
X34700Y83200D01*
X35500Y83600D01*
X35100Y82800D01*
X35500Y82000D01*
X34700Y82400D01*
X33900Y82000D01*
X7500Y76700D02*
X7900Y77500D01*
X7500Y78300D01*
X8300Y77900D01*
X9100Y78300D01*
X8700Y77500D01*
X9100Y76700D01*
X8300Y77100D01*
X7500Y76700D01*
X13000Y135500D02*
X13400Y136300D01*
X13000Y137100D01*
X13800Y136700D01*
X14600Y137100D01*
X14200Y136300D01*
X14600Y135500D01*
X13800Y135900D01*
X13000Y135500D01*
X24100D02*
X24500Y136300D01*
X24100Y137100D01*
X24900Y136700D01*
X25700Y137100D01*
X25300Y136300D01*
X25700Y135500D01*
X24900Y135900D01*
X24100Y135500D01*
X35200D02*
X35600Y136300D01*
X35200Y137100D01*
X36000Y136700D01*
X36800Y137100D01*
X36400Y136300D01*
X36800Y135500D01*
X36000Y135900D01*
X35200Y135500D01*
X46300D02*
X46700Y136300D01*
X46300Y137100D01*
X47100Y136700D01*
X47900Y137100D01*
X47500Y136300D01*
X47900Y135500D01*
X47100Y135900D01*
X46300Y135500D01*
Y140800D02*
X46700Y141600D01*
X46300Y142400D01*
X47100Y142000D01*
X47900Y142400D01*
X47500Y141600D01*
X47900Y140800D01*
X47100Y141200D01*
X46300Y140800D01*
X35200D02*
X35600Y141600D01*
X35200Y142400D01*
X36000Y142000D01*
X36800Y142400D01*
X36400Y141600D01*
X36800Y140800D01*
X36000Y141200D01*
X35200Y140800D01*
X24100D02*
X24500Y141600D01*
X24100Y142400D01*
X24900Y142000D01*
X25700Y142400D01*
X25300Y141600D01*
X25700Y140800D01*
X24900Y141200D01*
X24100Y140800D01*
X13000D02*
X13400Y141600D01*
X13000Y142400D01*
X13800Y142000D01*
X14600Y142400D01*
X14200Y141600D01*
X14600Y140800D01*
X13800Y141200D01*
X13000Y140800D01*
X40200Y47900D02*
X40600Y48700D01*
X40200Y49500D01*
X41000Y49100D01*
X41800Y49500D01*
X41400Y48700D01*
X41800Y47900D01*
X41000Y48300D01*
X40200Y47900D01*
X48250Y31700D02*
X48650Y32500D01*
X48250Y33300D01*
X49050Y32900D01*
X49850Y33300D01*
X49450Y32500D01*
X49850Y31700D01*
X49050Y32100D01*
X48250Y31700D01*
X61200Y77400D02*
X61600Y78200D01*
X61200Y79000D01*
X62000Y78600D01*
X62800Y79000D01*
X62400Y78200D01*
X62800Y77400D01*
X62000Y77800D01*
X61200Y77400D01*
X10175Y55033D02*
X10575Y55834D01*
X10175Y56634D01*
X10975Y56234D01*
X11775Y56634D01*
X11375Y55834D01*
X11775Y55033D01*
X10975Y55433D01*
X10175Y55033D01*
X11000Y34900D02*
X11400Y35700D01*
X11000Y36500D01*
X11800Y36100D01*
X12600Y36500D01*
X12200Y35700D01*
X12600Y34900D01*
X11800Y35300D01*
X11000Y34900D01*
X12253Y61718D02*
X12653Y62518D01*
X12253Y63318D01*
X13053Y62918D01*
X13853Y63318D01*
X13453Y62518D01*
X13853Y61718D01*
X13053Y62118D01*
X12253Y61718D01*
X56200Y86400D02*
X56600Y87200D01*
X56200Y88000D01*
X57000Y87600D01*
X57800Y88000D01*
X57400Y87200D01*
X57800Y86400D01*
X57000Y86800D01*
X56200Y86400D01*
X38700Y86550D02*
X39100Y87350D01*
X38700Y88150D01*
X39500Y87750D01*
X40300Y88150D01*
X39900Y87350D01*
X40300Y86550D01*
X39500Y86950D01*
X38700Y86550D01*
X7200Y31700D02*
X7600Y32500D01*
X7200Y33300D01*
X8000Y32900D01*
X8800Y33300D01*
X8400Y32500D01*
X8800Y31700D01*
X8000Y32100D01*
X7200Y31700D01*
X17200Y98100D02*
X17600Y98900D01*
X17200Y99700D01*
X18000Y99300D01*
X18800Y99700D01*
X18400Y98900D01*
X18800Y98100D01*
X18000Y98500D01*
X17200Y98100D01*
X53922Y46878D02*
X54322Y47678D01*
X53922Y48478D01*
X54722Y48078D01*
X55522Y48478D01*
X55122Y47678D01*
X55522Y46878D01*
X54722Y47278D01*
X53922Y46878D01*
X17300Y68400D02*
X17700Y69200D01*
X17300Y70000D01*
X18100Y69600D01*
X18900Y70000D01*
X18500Y69200D01*
X18900Y68400D01*
X18100Y68800D01*
X17300Y68400D01*
X13800Y64700D02*
X14200Y65500D01*
X13800Y66300D01*
X14600Y65900D01*
X15400Y66300D01*
X15000Y65500D01*
X15400Y64700D01*
X14600Y65100D01*
X13800Y64700D01*
X24800Y44800D02*
X25200Y45600D01*
X24800Y46400D01*
X25600Y46000D01*
X26400Y46400D01*
X26000Y45600D01*
X26400Y44800D01*
X25600Y45200D01*
X24800Y44800D01*
X39500Y44000D02*
X39900Y44800D01*
X39500Y45600D01*
X40300Y45200D01*
X41100Y45600D01*
X40700Y44800D01*
X41100Y44000D01*
X40300Y44400D01*
X39500Y44000D01*
X4600Y87300D02*
X5000Y88100D01*
X4600Y88900D01*
X5400Y88500D01*
X6200Y88900D01*
X5800Y88100D01*
X6200Y87300D01*
X5400Y87700D01*
X4600Y87300D01*
Y113200D02*
X5000Y114000D01*
X4600Y114800D01*
X5400Y114400D01*
X6200Y114800D01*
X5800Y114000D01*
X6200Y113200D01*
X5400Y113600D01*
X4600Y113200D01*
X33700Y113300D02*
X34100Y114100D01*
X33700Y114900D01*
X34500Y114500D01*
X35300Y114900D01*
X34900Y114100D01*
X35300Y113300D01*
X34500Y113700D01*
X33700Y113300D01*
X32000Y124100D02*
X32400Y124900D01*
X32000Y125700D01*
X32800Y125300D01*
X33600Y125700D01*
X33200Y124900D01*
X33600Y124100D01*
X32800Y124500D01*
X32000Y124100D01*
X29600Y82300D02*
X30000Y83100D01*
X29600Y83900D01*
X30400Y83500D01*
X31200Y83900D01*
X30800Y83100D01*
X31200Y82300D01*
X30400Y82700D01*
X29600Y82300D01*
X26200Y59200D02*
X26600Y60000D01*
X26200Y60800D01*
X27000Y60400D01*
X27800Y60800D01*
X27400Y60000D01*
X27800Y59200D01*
X27000Y59600D01*
X26200Y59200D01*
X23400Y48447D02*
X23800Y49247D01*
X23400Y50047D01*
X24200Y49647D01*
X25000Y50047D01*
X24600Y49247D01*
X25000Y48447D01*
X24200Y48847D01*
X23400Y48447D01*
X24700Y41200D02*
X25100Y42000D01*
X24700Y42800D01*
X25500Y42400D01*
X26300Y42800D01*
X25900Y42000D01*
X26300Y41200D01*
X25500Y41600D01*
X24700Y41200D01*
X30700Y62200D02*
X31100Y63000D01*
X30700Y63800D01*
X31500Y63400D01*
X32300Y63800D01*
X31900Y63000D01*
X32300Y62200D01*
X31500Y62600D01*
X30700Y62200D01*
X25079Y11751D02*
X24279Y13351D01*
X25879D01*
X25079Y11751D01*
X42795D02*
X41995Y13351D01*
X43595D01*
X42795Y11751D01*
D64*
X50800Y109000D02*
X50247Y109761D01*
X49353Y109470D01*
Y108530D01*
X50247Y108239D01*
X50800Y109000D01*
Y128094D02*
X50247Y128855D01*
X49353Y128565D01*
Y127624D01*
X50247Y127333D01*
X50800Y128094D01*
M02*
