G04 Layer_Color=7286632*
%FSLAX25Y25*%
%MOIN*%
G70*
G01*
G75*
%ADD40R,0.03950X0.03950*%
G04:AMPARAMS|DCode=41|XSize=67.06mil|YSize=19.81mil|CornerRadius=0mil|HoleSize=0mil|Usage=FLASHONLY|Rotation=45.000|XOffset=0mil|YOffset=0mil|HoleType=Round|Shape=Round|*
%AMOVALD41*
21,1,0.04724,0.01981,0.00000,0.00000,45.0*
1,1,0.01981,-0.01670,-0.01670*
1,1,0.01981,0.01670,0.01670*
%
%ADD41OVALD41*%

G04:AMPARAMS|DCode=42|XSize=67.06mil|YSize=19.81mil|CornerRadius=0mil|HoleSize=0mil|Usage=FLASHONLY|Rotation=135.000|XOffset=0mil|YOffset=0mil|HoleType=Round|Shape=Round|*
%AMOVALD42*
21,1,0.04724,0.01981,0.00000,0.00000,135.0*
1,1,0.01981,0.01670,-0.01670*
1,1,0.01981,-0.01670,0.01670*
%
%ADD42OVALD42*%

%ADD43R,0.04001X0.04737*%
%ADD44R,0.03162X0.03950*%
%ADD45O,0.08674X0.05524*%
%ADD46R,0.06706X0.03950*%
%ADD47O,0.06706X0.12611*%
%ADD48O,0.08674X0.12611*%
%ADD49O,0.08674X0.16548*%
%ADD50C,0.03200*%
%ADD51C,0.04737*%
D40*
X6400Y71950D02*
D03*
Y65650D02*
D03*
Y50001D02*
D03*
Y56300D02*
D03*
X61000Y55150D02*
D03*
Y48850D02*
D03*
Y73150D02*
D03*
Y66850D02*
D03*
D41*
X37822Y71340D02*
D03*
X39215Y69949D02*
D03*
X40606Y68557D02*
D03*
X41998Y67165D02*
D03*
X43390Y65773D02*
D03*
X44782Y64381D02*
D03*
X46174Y62989D02*
D03*
X47566Y61597D02*
D03*
X48958Y60205D02*
D03*
X50350Y58813D02*
D03*
X51742Y57421D02*
D03*
X53134Y56029D02*
D03*
X29471Y32367D02*
D03*
X28078Y33758D02*
D03*
X26686Y35151D02*
D03*
X25294Y36542D02*
D03*
X23903Y37935D02*
D03*
X22510Y39326D02*
D03*
X21119Y40718D02*
D03*
X19727Y42110D02*
D03*
X18335Y43502D02*
D03*
X16943Y44894D02*
D03*
X15551Y46286D02*
D03*
X14159Y47678D02*
D03*
D42*
X53133Y47678D02*
D03*
X51742Y46285D02*
D03*
X50349Y44894D02*
D03*
X48958Y43502D02*
D03*
X47565Y42110D02*
D03*
X46174Y40718D02*
D03*
X44781Y39326D02*
D03*
X43390Y37934D02*
D03*
X41998Y36542D02*
D03*
X40606Y35150D02*
D03*
X39214Y33758D02*
D03*
X37822Y32366D02*
D03*
X14160Y56029D02*
D03*
X15551Y57422D02*
D03*
X16943Y58813D02*
D03*
X18335Y60206D02*
D03*
X19727Y61597D02*
D03*
X21119Y62990D02*
D03*
X22511Y64381D02*
D03*
X23903Y65773D02*
D03*
X25295Y67165D02*
D03*
X26687Y68557D02*
D03*
X28079Y69949D02*
D03*
X29471Y71341D02*
D03*
D43*
X52000Y79000D02*
D03*
X47000D02*
D03*
X42000D02*
D03*
X37000D02*
D03*
X32000D02*
D03*
X27000D02*
D03*
X22000D02*
D03*
X17000D02*
D03*
D44*
X61953Y24232D02*
D03*
X56047D02*
D03*
X61953Y40768D02*
D03*
X56047D02*
D03*
D45*
X60433Y104276D02*
D03*
Y132819D02*
D03*
D46*
X50000Y109000D02*
D03*
Y128094D02*
D03*
D47*
X30000Y22000D02*
D03*
X37874D02*
D03*
D48*
X47717D02*
D03*
X20157D02*
D03*
D49*
X57559Y12748D02*
D03*
X10315D02*
D03*
D50*
X41000Y48700D02*
D03*
X18000Y98900D02*
D03*
X40300Y44800D02*
D03*
D51*
X25079Y12551D02*
D03*
X42795D02*
D03*
M02*
