G04 Layer_Color=32896*
%FSLAX25Y25*%
%MOIN*%
G70*
G01*
G75*
%ADD15C,0.00600*%
%ADD16C,0.01000*%
%ADD37C,0.00787*%
G36*
X29150Y89916D02*
X28896D01*
Y90766D01*
X28569D01*
X28540Y90764D01*
X28515Y90762D01*
X28496Y90761D01*
X28481Y90759D01*
X28471Y90757D01*
X28464Y90756D01*
X28462D01*
X28441Y90749D01*
X28419Y90741D01*
X28401Y90733D01*
X28383Y90724D01*
X28369Y90716D01*
X28358Y90711D01*
X28350Y90706D01*
X28348Y90704D01*
X28326Y90689D01*
X28303Y90669D01*
X28281Y90648D01*
X28262Y90628D01*
X28243Y90608D01*
X28230Y90591D01*
X28225Y90585D01*
X28222Y90580D01*
X28218Y90578D01*
Y90576D01*
X28205Y90558D01*
X28190Y90538D01*
X28160Y90497D01*
X28129Y90454D01*
X28100Y90410D01*
X28087Y90392D01*
X28074Y90374D01*
X28064Y90357D01*
X28054Y90342D01*
X28046Y90331D01*
X28041Y90323D01*
X28037Y90316D01*
X28036Y90314D01*
X27783Y89916D01*
X27466D01*
X27798Y90437D01*
X27835Y90492D01*
X27873Y90542D01*
X27908Y90585D01*
X27924Y90603D01*
X27940Y90621D01*
X27954Y90638D01*
X27968Y90651D01*
X27979Y90663D01*
X27989Y90673D01*
X27996Y90681D01*
X28003Y90686D01*
X28006Y90689D01*
X28008Y90691D01*
X28029Y90709D01*
X28052Y90726D01*
X28079Y90742D01*
X28104Y90757D01*
X28125Y90769D01*
X28144Y90779D01*
X28150Y90782D01*
X28155Y90786D01*
X28159Y90787D01*
X28160D01*
X28110Y90796D01*
X28064Y90806D01*
X28021Y90817D01*
X27981Y90830D01*
X27944Y90844D01*
X27910Y90859D01*
X27880Y90874D01*
X27853Y90889D01*
X27830Y90903D01*
X27810Y90917D01*
X27792Y90930D01*
X27778Y90942D01*
X27767Y90950D01*
X27760Y90957D01*
X27755Y90961D01*
X27753Y90963D01*
X27730Y90990D01*
X27710Y91018D01*
X27692Y91048D01*
X27677Y91076D01*
X27664Y91106D01*
X27652Y91134D01*
X27644Y91162D01*
X27637Y91187D01*
X27632Y91212D01*
X27627Y91236D01*
X27624Y91255D01*
X27622Y91274D01*
X27621Y91287D01*
Y91299D01*
Y91305D01*
Y91307D01*
X27622Y91337D01*
X27624Y91365D01*
X27632Y91418D01*
X27646Y91468D01*
X27652Y91489D01*
X27661Y91509D01*
X27667Y91528D01*
X27676Y91544D01*
X27682Y91559D01*
X27687Y91571D01*
X27694Y91581D01*
X27697Y91587D01*
X27699Y91592D01*
X27700Y91594D01*
X27715Y91617D01*
X27732Y91639D01*
X27750Y91660D01*
X27767Y91679D01*
X27785Y91695D01*
X27803Y91710D01*
X27836Y91735D01*
X27866Y91753D01*
X27880Y91760D01*
X27891Y91767D01*
X27900Y91772D01*
X27906Y91775D01*
X27911Y91777D01*
X27913D01*
X27940Y91787D01*
X27968Y91795D01*
X27998Y91802D01*
X28029Y91808D01*
X28094Y91816D01*
X28157Y91823D01*
X28187Y91825D01*
X28213Y91826D01*
X28238Y91828D01*
X28260Y91830D01*
X29150D01*
Y89916D01*
D02*
G37*
G36*
X55604Y98998D02*
X55655Y98995D01*
X55705Y98990D01*
X55751Y98982D01*
X55796Y98973D01*
X55838Y98963D01*
X55878Y98952D01*
X55914Y98942D01*
X55947Y98930D01*
X55975Y98920D01*
X56002Y98910D01*
X56024Y98902D01*
X56040Y98894D01*
X56054Y98889D01*
X56060Y98886D01*
X56063Y98884D01*
X56105Y98861D01*
X56143Y98836D01*
X56180Y98807D01*
X56214Y98779D01*
X56244Y98751D01*
X56274Y98721D01*
X56299Y98693D01*
X56322Y98665D01*
X56344Y98638D01*
X56362Y98615D01*
X56377Y98592D01*
X56389Y98573D01*
X56399Y98557D01*
X56407Y98545D01*
X56410Y98539D01*
X56412Y98535D01*
X56434Y98492D01*
X56452Y98447D01*
X56467Y98402D01*
X56482Y98358D01*
X56493Y98314D01*
X56502Y98271D01*
X56510Y98231D01*
X56517Y98193D01*
X56522Y98157D01*
X56525Y98125D01*
X56528Y98095D01*
X56530Y98072D01*
Y98050D01*
X56532Y98037D01*
Y98027D01*
Y98024D01*
X56530Y97984D01*
X56528Y97946D01*
X56520Y97873D01*
X56515Y97836D01*
X56508Y97803D01*
X56502Y97772D01*
X56493Y97742D01*
X56487Y97715D01*
X56480Y97690D01*
X56473Y97669D01*
X56468Y97652D01*
X56463Y97637D01*
X56460Y97625D01*
X56457Y97619D01*
Y97617D01*
X56442Y97581D01*
X56425Y97544D01*
X56390Y97473D01*
X56372Y97440D01*
X56354Y97408D01*
X56336Y97377D01*
X56317Y97348D01*
X56301Y97323D01*
X56286Y97300D01*
X56271Y97280D01*
X56259Y97262D01*
X56248Y97249D01*
X56241Y97239D01*
X56236Y97232D01*
X56234Y97230D01*
X55524D01*
Y98040D01*
X55750D01*
Y97478D01*
X56105D01*
X56118Y97494D01*
X56132Y97511D01*
X56156Y97549D01*
X56178Y97589D01*
X56200Y97627D01*
X56216Y97662D01*
X56223Y97677D01*
X56228Y97690D01*
X56233Y97702D01*
X56236Y97710D01*
X56239Y97715D01*
Y97717D01*
X56261Y97775D01*
X56276Y97833D01*
X56287Y97886D01*
X56291Y97913D01*
X56294Y97936D01*
X56297Y97957D01*
X56299Y97977D01*
X56301Y97994D01*
Y98009D01*
X56302Y98021D01*
Y98031D01*
Y98036D01*
Y98037D01*
X56301Y98072D01*
X56299Y98107D01*
X56289Y98173D01*
X56283Y98205D01*
X56276Y98233D01*
X56269Y98261D01*
X56261Y98288D01*
X56253Y98311D01*
X56246Y98333D01*
X56239Y98351D01*
X56233Y98366D01*
X56228Y98379D01*
X56223Y98387D01*
X56221Y98394D01*
X56220Y98396D01*
X56203Y98426D01*
X56185Y98456D01*
X56165Y98482D01*
X56145Y98507D01*
X56123Y98529D01*
X56103Y98550D01*
X56082Y98570D01*
X56062Y98587D01*
X56042Y98602D01*
X56024Y98615D01*
X56007Y98627D01*
X55994Y98635D01*
X55982Y98641D01*
X55972Y98646D01*
X55967Y98650D01*
X55966Y98651D01*
X55932Y98666D01*
X55897Y98680D01*
X55863Y98693D01*
X55826Y98703D01*
X55755Y98718D01*
X55720Y98724D01*
X55687Y98728D01*
X55655Y98733D01*
X55627Y98734D01*
X55602Y98736D01*
X55580Y98738D01*
X55562Y98739D01*
X55537D01*
X55499Y98738D01*
X55461Y98736D01*
X55389Y98728D01*
X55356Y98723D01*
X55325Y98716D01*
X55295Y98709D01*
X55267Y98703D01*
X55242Y98696D01*
X55218Y98690D01*
X55200Y98683D01*
X55184Y98678D01*
X55170Y98673D01*
X55160Y98670D01*
X55154Y98666D01*
X55152D01*
X55114Y98648D01*
X55079Y98630D01*
X55048Y98610D01*
X55019Y98590D01*
X54996Y98573D01*
X54978Y98560D01*
X54971Y98554D01*
X54966Y98550D01*
X54965Y98547D01*
X54963D01*
X54931Y98515D01*
X54905Y98482D01*
X54882Y98447D01*
X54860Y98416D01*
X54845Y98386D01*
X54838Y98374D01*
X54833Y98364D01*
X54828Y98354D01*
X54825Y98348D01*
X54823Y98344D01*
Y98343D01*
X54805Y98293D01*
X54792Y98241D01*
X54784Y98192D01*
X54777Y98145D01*
X54775Y98124D01*
X54774Y98104D01*
X54772Y98085D01*
X54770Y98070D01*
Y98059D01*
Y98050D01*
Y98044D01*
Y98042D01*
X54772Y97989D01*
X54779Y97939D01*
X54787Y97894D01*
X54792Y97874D01*
X54795Y97855D01*
X54800Y97838D01*
X54805Y97823D01*
X54810Y97810D01*
X54813Y97798D01*
X54817Y97790D01*
X54820Y97783D01*
X54822Y97780D01*
Y97778D01*
X54842Y97737D01*
X54863Y97699D01*
X54887Y97669D01*
X54908Y97642D01*
X54926Y97622D01*
X54943Y97607D01*
X54953Y97599D01*
X54954Y97596D01*
X54956D01*
X54989Y97572D01*
X55028Y97551D01*
X55066Y97533D01*
X55102Y97518D01*
X55134Y97504D01*
X55149Y97499D01*
X55160Y97496D01*
X55172Y97493D01*
X55179Y97489D01*
X55184Y97488D01*
X55185D01*
X55122Y97260D01*
X55087Y97270D01*
X55054Y97280D01*
X55023Y97292D01*
X54993Y97303D01*
X54965Y97315D01*
X54940Y97328D01*
X54915Y97340D01*
X54893Y97352D01*
X54875Y97362D01*
X54858Y97372D01*
X54843Y97382D01*
X54832Y97390D01*
X54822Y97396D01*
X54815Y97400D01*
X54812Y97403D01*
X54810Y97405D01*
X54789Y97423D01*
X54767Y97443D01*
X54729Y97486D01*
X54697Y97529D01*
X54671Y97571D01*
X54659Y97591D01*
X54649Y97609D01*
X54641Y97625D01*
X54634Y97639D01*
X54628Y97650D01*
X54624Y97660D01*
X54621Y97665D01*
Y97667D01*
X54598Y97732D01*
X54581Y97796D01*
X54569Y97860D01*
X54564Y97890D01*
X54561Y97918D01*
X54558Y97944D01*
X54556Y97967D01*
X54554Y97989D01*
Y98007D01*
X54553Y98022D01*
Y98032D01*
Y98040D01*
Y98042D01*
X54554Y98095D01*
X54558Y98147D01*
X54564Y98195D01*
X54571Y98243D01*
X54579Y98286D01*
X54589Y98328D01*
X54601Y98368D01*
X54611Y98402D01*
X54623Y98436D01*
X54634Y98464D01*
X54644Y98489D01*
X54652Y98510D01*
X54659Y98527D01*
X54666Y98539D01*
X54669Y98545D01*
X54671Y98549D01*
X54694Y98588D01*
X54720Y98627D01*
X54747Y98661D01*
X54777Y98693D01*
X54807Y98723D01*
X54837Y98751D01*
X54867Y98776D01*
X54895Y98798D01*
X54923Y98817D01*
X54948Y98836D01*
X54971Y98851D01*
X54991Y98862D01*
X55008Y98872D01*
X55021Y98879D01*
X55028Y98882D01*
X55031Y98884D01*
X55077Y98904D01*
X55122Y98922D01*
X55169Y98937D01*
X55215Y98950D01*
X55258Y98962D01*
X55301Y98972D01*
X55343Y98980D01*
X55383Y98985D01*
X55418Y98990D01*
X55451Y98993D01*
X55481Y98997D01*
X55504Y98998D01*
X55526Y99000D01*
X55552D01*
X55604Y98998D01*
D02*
G37*
G36*
X26696Y91835D02*
X26749Y91826D01*
X26799Y91816D01*
X26845Y91802D01*
X26889Y91785D01*
X26927Y91767D01*
X26963Y91747D01*
X26997Y91727D01*
X27027Y91707D01*
X27051Y91687D01*
X27073Y91669D01*
X27091Y91652D01*
X27106Y91637D01*
X27116Y91627D01*
X27123Y91621D01*
X27124Y91617D01*
X27143Y91592D01*
X27161Y91567D01*
X27193Y91511D01*
X27219Y91450D01*
X27242Y91385D01*
X27262Y91318D01*
X27279Y91250D01*
X27292Y91184D01*
X27304Y91119D01*
X27312Y91058D01*
X27317Y91000D01*
X27320Y90971D01*
X27322Y90947D01*
X27324Y90923D01*
X27325Y90902D01*
X27327Y90882D01*
Y90864D01*
Y90849D01*
X27329Y90835D01*
Y90824D01*
Y90817D01*
Y90812D01*
Y90811D01*
X27327Y90721D01*
X27320Y90638D01*
X27312Y90561D01*
X27300Y90490D01*
X27285Y90427D01*
X27270Y90369D01*
X27254Y90316D01*
X27236Y90269D01*
X27219Y90229D01*
X27202Y90195D01*
X27187Y90165D01*
X27172Y90141D01*
X27161Y90123D01*
X27153Y90110D01*
X27146Y90103D01*
X27144Y90100D01*
X27108Y90062D01*
X27070Y90029D01*
X27031Y90000D01*
X26992Y89976D01*
X26950Y89954D01*
X26910Y89937D01*
X26872Y89922D01*
X26834Y89911D01*
X26799Y89903D01*
X26768Y89896D01*
X26738Y89891D01*
X26713Y89887D01*
X26693Y89886D01*
X26678Y89884D01*
X26665D01*
X26633Y89886D01*
X26601Y89887D01*
X26543Y89898D01*
X26517Y89903D01*
X26490Y89911D01*
X26467Y89917D01*
X26445Y89926D01*
X26425Y89932D01*
X26407Y89941D01*
X26392Y89947D01*
X26379Y89952D01*
X26369Y89959D01*
X26362Y89962D01*
X26357Y89964D01*
X26356Y89965D01*
X26331Y89982D01*
X26308Y90000D01*
X26265Y90037D01*
X26228Y90077D01*
X26198Y90115D01*
X26173Y90150D01*
X26163Y90165D01*
X26157Y90178D01*
X26150Y90188D01*
X26145Y90196D01*
X26143Y90201D01*
X26142Y90203D01*
X26128Y90233D01*
X26115Y90261D01*
X26097Y90321D01*
X26082Y90376D01*
X26077Y90402D01*
X26074Y90427D01*
X26070Y90450D01*
X26067Y90472D01*
X26065Y90490D01*
Y90507D01*
X26064Y90518D01*
Y90528D01*
Y90535D01*
Y90537D01*
X26065Y90586D01*
X26070Y90635D01*
X26079Y90679D01*
X26090Y90723D01*
X26102Y90762D01*
X26117Y90799D01*
X26132Y90832D01*
X26147Y90862D01*
X26162Y90890D01*
X26177Y90913D01*
X26191Y90935D01*
X26203Y90952D01*
X26215Y90965D01*
X26223Y90975D01*
X26228Y90982D01*
X26230Y90983D01*
X26261Y91015D01*
X26294Y91041D01*
X26328Y91065D01*
X26362Y91084D01*
X26396Y91101D01*
X26429Y91114D01*
X26462Y91126D01*
X26492Y91136D01*
X26520Y91142D01*
X26547Y91148D01*
X26570Y91152D01*
X26590Y91154D01*
X26607Y91156D01*
X26620Y91157D01*
X26630D01*
X26680Y91154D01*
X26726Y91148D01*
X26771Y91137D01*
X26809Y91126D01*
X26826Y91119D01*
X26840Y91114D01*
X26854Y91109D01*
X26865Y91104D01*
X26875Y91101D01*
X26882Y91098D01*
X26885Y91094D01*
X26887D01*
X26932Y91068D01*
X26972Y91038D01*
X27007Y91006D01*
X27036Y90975D01*
X27061Y90947D01*
X27071Y90933D01*
X27080Y90923D01*
X27086Y90913D01*
X27091Y90907D01*
X27093Y90903D01*
X27095Y90902D01*
X27093Y90955D01*
X27091Y91003D01*
X27088Y91049D01*
X27083Y91093D01*
X27078Y91131D01*
X27073Y91167D01*
X27068Y91201D01*
X27061Y91230D01*
X27056Y91257D01*
X27050Y91279D01*
X27045Y91299D01*
X27040Y91315D01*
X27035Y91327D01*
X27033Y91337D01*
X27030Y91342D01*
Y91343D01*
X27016Y91372D01*
X27003Y91398D01*
X26990Y91423D01*
X26975Y91446D01*
X26960Y91468D01*
X26945Y91488D01*
X26932Y91504D01*
X26917Y91521D01*
X26904Y91534D01*
X26892Y91548D01*
X26882Y91558D01*
X26872Y91566D01*
X26864Y91572D01*
X26859Y91577D01*
X26855Y91579D01*
X26854Y91581D01*
X26821Y91602D01*
X26787Y91617D01*
X26754Y91629D01*
X26723Y91636D01*
X26696Y91641D01*
X26684Y91642D01*
X26675D01*
X26668Y91644D01*
X26656D01*
X26631Y91642D01*
X26607Y91639D01*
X26583Y91634D01*
X26560Y91629D01*
X26520Y91612D01*
X26485Y91594D01*
X26472Y91584D01*
X26459Y91574D01*
X26447Y91566D01*
X26437Y91559D01*
X26430Y91553D01*
X26425Y91548D01*
X26422Y91544D01*
X26421Y91543D01*
X26411Y91529D01*
X26401Y91516D01*
X26382Y91484D01*
X26367Y91451D01*
X26354Y91418D01*
X26344Y91388D01*
X26339Y91375D01*
X26336Y91365D01*
X26334Y91355D01*
X26333Y91348D01*
X26331Y91343D01*
Y91342D01*
X26097Y91360D01*
X26103Y91400D01*
X26114Y91440D01*
X26123Y91474D01*
X26137Y91508D01*
X26150Y91539D01*
X26165Y91567D01*
X26180Y91594D01*
X26195Y91617D01*
X26210Y91639D01*
X26223Y91657D01*
X26236Y91672D01*
X26248Y91685D01*
X26258Y91695D01*
X26265Y91704D01*
X26270Y91707D01*
X26271Y91709D01*
X26299Y91732D01*
X26329Y91750D01*
X26359Y91768D01*
X26391Y91783D01*
X26421Y91795D01*
X26452Y91805D01*
X26482Y91813D01*
X26510Y91820D01*
X26537Y91826D01*
X26562Y91830D01*
X26585Y91833D01*
X26603Y91835D01*
X26620Y91836D01*
X26641D01*
X26696Y91835D01*
D02*
G37*
G36*
X13276Y75959D02*
X13050D01*
Y76522D01*
X12695D01*
X12682Y76506D01*
X12668Y76489D01*
X12644Y76451D01*
X12622Y76411D01*
X12600Y76373D01*
X12584Y76338D01*
X12577Y76323D01*
X12572Y76310D01*
X12567Y76298D01*
X12564Y76290D01*
X12561Y76285D01*
Y76283D01*
X12539Y76225D01*
X12524Y76167D01*
X12513Y76114D01*
X12509Y76087D01*
X12506Y76064D01*
X12503Y76042D01*
X12501Y76023D01*
X12499Y76006D01*
Y75991D01*
X12498Y75979D01*
Y75969D01*
Y75964D01*
Y75963D01*
X12499Y75928D01*
X12501Y75893D01*
X12511Y75827D01*
X12517Y75795D01*
X12524Y75767D01*
X12531Y75739D01*
X12539Y75712D01*
X12547Y75689D01*
X12554Y75667D01*
X12561Y75649D01*
X12567Y75634D01*
X12572Y75621D01*
X12577Y75612D01*
X12579Y75606D01*
X12581Y75604D01*
X12597Y75574D01*
X12615Y75545D01*
X12635Y75518D01*
X12655Y75493D01*
X12677Y75471D01*
X12697Y75450D01*
X12718Y75430D01*
X12738Y75413D01*
X12758Y75398D01*
X12776Y75385D01*
X12793Y75374D01*
X12806Y75365D01*
X12818Y75359D01*
X12828Y75354D01*
X12833Y75350D01*
X12834Y75349D01*
X12868Y75334D01*
X12903Y75320D01*
X12937Y75307D01*
X12974Y75297D01*
X13045Y75282D01*
X13080Y75276D01*
X13113Y75272D01*
X13145Y75267D01*
X13173Y75266D01*
X13198Y75264D01*
X13220Y75262D01*
X13238Y75261D01*
X13263D01*
X13301Y75262D01*
X13339Y75264D01*
X13410Y75272D01*
X13444Y75277D01*
X13475Y75284D01*
X13505Y75291D01*
X13533Y75297D01*
X13558Y75304D01*
X13581Y75310D01*
X13600Y75317D01*
X13616Y75322D01*
X13630Y75327D01*
X13640Y75330D01*
X13646Y75334D01*
X13648D01*
X13686Y75352D01*
X13721Y75370D01*
X13753Y75390D01*
X13781Y75410D01*
X13804Y75427D01*
X13822Y75440D01*
X13829Y75446D01*
X13834Y75450D01*
X13836Y75453D01*
X13837D01*
X13869Y75485D01*
X13895Y75518D01*
X13918Y75553D01*
X13940Y75584D01*
X13955Y75614D01*
X13962Y75626D01*
X13967Y75636D01*
X13972Y75646D01*
X13975Y75652D01*
X13977Y75656D01*
Y75657D01*
X13995Y75707D01*
X14008Y75759D01*
X14016Y75808D01*
X14023Y75855D01*
X14025Y75876D01*
X14026Y75896D01*
X14028Y75915D01*
X14030Y75930D01*
Y75941D01*
Y75950D01*
Y75956D01*
Y75958D01*
X14028Y76011D01*
X14021Y76061D01*
X14013Y76106D01*
X14008Y76126D01*
X14005Y76145D01*
X14000Y76162D01*
X13995Y76177D01*
X13990Y76190D01*
X13987Y76202D01*
X13983Y76210D01*
X13980Y76217D01*
X13978Y76220D01*
Y76222D01*
X13958Y76263D01*
X13937Y76301D01*
X13914Y76331D01*
X13892Y76358D01*
X13874Y76378D01*
X13857Y76393D01*
X13847Y76401D01*
X13846Y76404D01*
X13844D01*
X13811Y76428D01*
X13772Y76449D01*
X13734Y76467D01*
X13698Y76482D01*
X13666Y76496D01*
X13651Y76501D01*
X13640Y76504D01*
X13628Y76507D01*
X13621Y76511D01*
X13616Y76512D01*
X13615D01*
X13678Y76740D01*
X13713Y76730D01*
X13746Y76720D01*
X13777Y76708D01*
X13807Y76696D01*
X13836Y76685D01*
X13860Y76672D01*
X13885Y76660D01*
X13907Y76648D01*
X13925Y76638D01*
X13942Y76629D01*
X13957Y76618D01*
X13968Y76610D01*
X13978Y76604D01*
X13985Y76600D01*
X13988Y76597D01*
X13990Y76595D01*
X14011Y76577D01*
X14033Y76557D01*
X14071Y76514D01*
X14103Y76471D01*
X14129Y76429D01*
X14141Y76409D01*
X14151Y76391D01*
X14159Y76375D01*
X14166Y76361D01*
X14173Y76350D01*
X14176Y76340D01*
X14179Y76335D01*
Y76333D01*
X14202Y76268D01*
X14219Y76204D01*
X14231Y76140D01*
X14236Y76111D01*
X14239Y76082D01*
X14242Y76056D01*
X14244Y76033D01*
X14245Y76011D01*
Y75993D01*
X14247Y75978D01*
Y75968D01*
Y75959D01*
Y75958D01*
X14245Y75905D01*
X14242Y75853D01*
X14236Y75805D01*
X14229Y75757D01*
X14221Y75714D01*
X14211Y75672D01*
X14199Y75633D01*
X14189Y75598D01*
X14177Y75564D01*
X14166Y75536D01*
X14156Y75511D01*
X14148Y75490D01*
X14141Y75473D01*
X14134Y75462D01*
X14131Y75455D01*
X14129Y75451D01*
X14106Y75412D01*
X14080Y75374D01*
X14053Y75339D01*
X14023Y75307D01*
X13993Y75277D01*
X13963Y75249D01*
X13933Y75224D01*
X13905Y75203D01*
X13877Y75183D01*
X13852Y75164D01*
X13829Y75149D01*
X13809Y75138D01*
X13792Y75128D01*
X13779Y75121D01*
X13772Y75118D01*
X13769Y75116D01*
X13723Y75096D01*
X13678Y75078D01*
X13631Y75063D01*
X13585Y75050D01*
X13542Y75038D01*
X13498Y75028D01*
X13457Y75020D01*
X13417Y75015D01*
X13382Y75010D01*
X13349Y75007D01*
X13319Y75003D01*
X13296Y75002D01*
X13274Y75000D01*
X13248D01*
X13196Y75002D01*
X13145Y75005D01*
X13095Y75010D01*
X13049Y75018D01*
X13004Y75027D01*
X12962Y75037D01*
X12923Y75048D01*
X12886Y75058D01*
X12853Y75070D01*
X12825Y75080D01*
X12798Y75090D01*
X12776Y75098D01*
X12760Y75106D01*
X12746Y75111D01*
X12740Y75115D01*
X12737Y75116D01*
X12695Y75139D01*
X12657Y75164D01*
X12620Y75193D01*
X12585Y75221D01*
X12556Y75249D01*
X12526Y75279D01*
X12501Y75307D01*
X12478Y75335D01*
X12456Y75362D01*
X12438Y75385D01*
X12423Y75408D01*
X12411Y75427D01*
X12401Y75443D01*
X12393Y75455D01*
X12390Y75462D01*
X12388Y75465D01*
X12366Y75508D01*
X12348Y75553D01*
X12333Y75598D01*
X12318Y75642D01*
X12307Y75686D01*
X12298Y75729D01*
X12290Y75769D01*
X12283Y75807D01*
X12278Y75843D01*
X12275Y75875D01*
X12272Y75905D01*
X12270Y75928D01*
Y75950D01*
X12269Y75963D01*
Y75973D01*
Y75976D01*
X12270Y76016D01*
X12272Y76054D01*
X12280Y76127D01*
X12285Y76164D01*
X12292Y76197D01*
X12298Y76228D01*
X12307Y76258D01*
X12313Y76285D01*
X12320Y76310D01*
X12327Y76331D01*
X12331Y76348D01*
X12336Y76363D01*
X12340Y76375D01*
X12343Y76381D01*
Y76383D01*
X12358Y76419D01*
X12375Y76456D01*
X12410Y76527D01*
X12428Y76560D01*
X12446Y76592D01*
X12464Y76623D01*
X12483Y76652D01*
X12499Y76677D01*
X12514Y76700D01*
X12529Y76720D01*
X12541Y76738D01*
X12552Y76751D01*
X12559Y76761D01*
X12564Y76768D01*
X12566Y76770D01*
X13276D01*
Y75959D01*
D02*
G37*
G36*
X14214Y78406D02*
X12710D01*
X14214Y77400D01*
Y77141D01*
X12300D01*
Y77384D01*
X13802D01*
X12300Y78388D01*
Y78649D01*
X14214D01*
Y78406D01*
D02*
G37*
G36*
X26654Y100663D02*
X25716D01*
X25749Y100624D01*
X25783Y100584D01*
X25844Y100499D01*
X25874Y100456D01*
X25902Y100414D01*
X25929Y100374D01*
X25952Y100336D01*
X25975Y100300D01*
X25995Y100267D01*
X26012Y100237D01*
X26027Y100212D01*
X26038Y100190D01*
X26048Y100175D01*
X26053Y100165D01*
X26055Y100164D01*
Y100162D01*
X26083Y100106D01*
X26111Y100051D01*
X26136Y99994D01*
X26159Y99940D01*
X26183Y99886D01*
X26203Y99837D01*
X26221Y99787D01*
X26236Y99742D01*
X26251Y99700D01*
X26264Y99662D01*
X26274Y99628D01*
X26282Y99599D01*
X26291Y99576D01*
X26296Y99559D01*
X26297Y99553D01*
Y99548D01*
X26299Y99546D01*
Y99545D01*
X26314Y99486D01*
X26327Y99430D01*
X26339Y99375D01*
X26349Y99325D01*
X26357Y99277D01*
X26364Y99232D01*
X26370Y99191D01*
X26375Y99153D01*
X26379Y99118D01*
X26382Y99088D01*
X26384Y99061D01*
X26385Y99040D01*
Y99023D01*
X26387Y99010D01*
Y99003D01*
Y99000D01*
X26144D01*
X26134Y99105D01*
X26129Y99154D01*
X26123Y99203D01*
X26116Y99249D01*
X26108Y99292D01*
X26100Y99332D01*
X26093Y99370D01*
X26085Y99403D01*
X26078Y99433D01*
X26071Y99460D01*
X26066Y99483D01*
X26061Y99501D01*
X26058Y99515D01*
X26055Y99521D01*
Y99525D01*
X26035Y99588D01*
X26015Y99651D01*
X25993Y99712D01*
X25970Y99772D01*
X25947Y99830D01*
X25924Y99885D01*
X25902Y99936D01*
X25879Y99984D01*
X25859Y100029D01*
X25839Y100069D01*
X25822Y100104D01*
X25807Y100134D01*
X25794Y100157D01*
X25789Y100167D01*
X25786Y100174D01*
X25783Y100180D01*
X25779Y100185D01*
X25778Y100187D01*
Y100189D01*
X25744Y100247D01*
X25711Y100303D01*
X25678Y100356D01*
X25645Y100404D01*
X25613Y100451D01*
X25583Y100494D01*
X25555Y100532D01*
X25529Y100567D01*
X25504Y100599D01*
X25482Y100627D01*
X25462Y100650D01*
X25446Y100670D01*
X25432Y100685D01*
X25422Y100697D01*
X25416Y100703D01*
X25414Y100705D01*
Y100889D01*
X26654D01*
Y100663D01*
D02*
G37*
G36*
X28500Y99000D02*
X28246D01*
Y99850D01*
X27919D01*
X27891Y99848D01*
X27866Y99847D01*
X27846Y99845D01*
X27831Y99843D01*
X27821Y99842D01*
X27814Y99840D01*
X27813D01*
X27791Y99833D01*
X27770Y99825D01*
X27751Y99817D01*
X27733Y99808D01*
X27720Y99800D01*
X27708Y99795D01*
X27700Y99790D01*
X27698Y99788D01*
X27677Y99774D01*
X27653Y99754D01*
X27632Y99732D01*
X27612Y99712D01*
X27594Y99692D01*
X27580Y99676D01*
X27575Y99669D01*
X27572Y99664D01*
X27569Y99662D01*
Y99661D01*
X27556Y99642D01*
X27540Y99622D01*
X27511Y99581D01*
X27479Y99538D01*
X27451Y99495D01*
X27438Y99476D01*
X27424Y99458D01*
X27414Y99442D01*
X27404Y99427D01*
X27396Y99415D01*
X27391Y99407D01*
X27388Y99400D01*
X27386Y99398D01*
X27134Y99000D01*
X26817D01*
X27149Y99521D01*
X27185Y99576D01*
X27224Y99626D01*
X27258Y99669D01*
X27275Y99687D01*
X27290Y99705D01*
X27305Y99722D01*
X27318Y99735D01*
X27330Y99747D01*
X27340Y99757D01*
X27346Y99765D01*
X27353Y99770D01*
X27356Y99774D01*
X27358Y99775D01*
X27380Y99793D01*
X27403Y99810D01*
X27429Y99827D01*
X27454Y99842D01*
X27476Y99853D01*
X27494Y99863D01*
X27501Y99866D01*
X27506Y99870D01*
X27509Y99871D01*
X27511D01*
X27461Y99880D01*
X27414Y99890D01*
X27371Y99901D01*
X27331Y99915D01*
X27295Y99928D01*
X27260Y99943D01*
X27230Y99958D01*
X27204Y99973D01*
X27180Y99988D01*
X27160Y100001D01*
X27142Y100014D01*
X27129Y100026D01*
X27117Y100034D01*
X27111Y100041D01*
X27106Y100046D01*
X27104Y100048D01*
X27081Y100074D01*
X27061Y100102D01*
X27042Y100132D01*
X27028Y100160D01*
X27014Y100190D01*
X27003Y100218D01*
X26994Y100247D01*
X26988Y100272D01*
X26983Y100296D01*
X26978Y100320D01*
X26974Y100340D01*
X26973Y100358D01*
X26971Y100371D01*
Y100383D01*
Y100389D01*
Y100391D01*
X26973Y100421D01*
X26974Y100449D01*
X26983Y100502D01*
X26996Y100552D01*
X27003Y100574D01*
X27011Y100594D01*
X27018Y100612D01*
X27026Y100628D01*
X27033Y100643D01*
X27038Y100655D01*
X27044Y100665D01*
X27048Y100672D01*
X27049Y100677D01*
X27051Y100678D01*
X27066Y100701D01*
X27082Y100723D01*
X27101Y100745D01*
X27117Y100763D01*
X27136Y100779D01*
X27154Y100794D01*
X27187Y100819D01*
X27217Y100838D01*
X27230Y100844D01*
X27242Y100851D01*
X27250Y100856D01*
X27257Y100859D01*
X27262Y100861D01*
X27263D01*
X27290Y100871D01*
X27318Y100879D01*
X27348Y100886D01*
X27380Y100892D01*
X27444Y100901D01*
X27507Y100907D01*
X27537Y100909D01*
X27564Y100911D01*
X27589Y100912D01*
X27610Y100914D01*
X28500D01*
Y99000D01*
D02*
G37*
G36*
X56500Y94238D02*
X56498Y94174D01*
X56495Y94116D01*
X56493Y94090D01*
X56490Y94063D01*
X56487Y94040D01*
X56483Y94018D01*
X56482Y93998D01*
X56478Y93982D01*
X56475Y93967D01*
X56473Y93954D01*
X56472Y93944D01*
X56470Y93937D01*
X56468Y93932D01*
Y93930D01*
X56455Y93882D01*
X56439Y93837D01*
X56424Y93799D01*
X56407Y93766D01*
X56400Y93751D01*
X56394Y93738D01*
X56387Y93728D01*
X56382Y93718D01*
X56379Y93711D01*
X56375Y93706D01*
X56372Y93703D01*
Y93701D01*
X56347Y93666D01*
X56319Y93635D01*
X56289Y93605D01*
X56263Y93578D01*
X56238Y93557D01*
X56218Y93540D01*
X56209Y93535D01*
X56204Y93530D01*
X56201Y93529D01*
X56200Y93527D01*
X56156Y93499D01*
X56108Y93472D01*
X56062Y93451D01*
X56019Y93431D01*
X55999Y93424D01*
X55979Y93416D01*
X55962Y93411D01*
X55949Y93406D01*
X55937Y93401D01*
X55927Y93397D01*
X55922Y93396D01*
X55921D01*
X55856Y93379D01*
X55790Y93366D01*
X55723Y93358D01*
X55693Y93353D01*
X55663Y93351D01*
X55637Y93349D01*
X55612Y93348D01*
X55589Y93346D01*
X55570Y93344D01*
X55487D01*
X55441Y93348D01*
X55396Y93351D01*
X55355Y93356D01*
X55315Y93363D01*
X55278Y93369D01*
X55243Y93376D01*
X55210Y93383D01*
X55182Y93389D01*
X55155Y93396D01*
X55134Y93402D01*
X55114Y93409D01*
X55099Y93414D01*
X55087Y93417D01*
X55081Y93419D01*
X55079Y93421D01*
X55042Y93436D01*
X55008Y93452D01*
X54975Y93469D01*
X54945Y93487D01*
X54915Y93505D01*
X54888Y93525D01*
X54863Y93544D01*
X54840Y93562D01*
X54820Y93578D01*
X54804Y93595D01*
X54787Y93608D01*
X54775Y93622D01*
X54765Y93632D01*
X54759Y93640D01*
X54754Y93645D01*
X54752Y93647D01*
X54717Y93691D01*
X54689Y93739D01*
X54664Y93786D01*
X54646Y93831D01*
X54637Y93851D01*
X54631Y93869D01*
X54626Y93885D01*
X54621Y93899D01*
X54618Y93910D01*
X54616Y93920D01*
X54614Y93925D01*
Y93927D01*
X54609Y93950D01*
X54604Y93975D01*
X54598Y94030D01*
X54593Y94086D01*
X54589Y94141D01*
X54588Y94168D01*
Y94191D01*
X54586Y94213D01*
Y94231D01*
Y94246D01*
Y94257D01*
Y94264D01*
Y94267D01*
Y94926D01*
X56500D01*
Y94238D01*
D02*
G37*
G36*
X12629Y91835D02*
X12676Y91830D01*
X12721Y91823D01*
X12762Y91815D01*
X12800Y91803D01*
X12837Y91791D01*
X12870Y91778D01*
X12898Y91765D01*
X12925Y91752D01*
X12948Y91738D01*
X12968Y91727D01*
X12985Y91715D01*
X12998Y91707D01*
X13006Y91700D01*
X13013Y91695D01*
X13014Y91694D01*
X13043Y91665D01*
X13069Y91636D01*
X13091Y91604D01*
X13111Y91569D01*
X13129Y91536D01*
X13144Y91501D01*
X13156Y91468D01*
X13167Y91435D01*
X13175Y91403D01*
X13182Y91375D01*
X13189Y91348D01*
X13192Y91327D01*
X13195Y91308D01*
X13197Y91294D01*
X13199Y91285D01*
Y91282D01*
X12956Y91257D01*
X12955Y91290D01*
X12951Y91320D01*
X12946Y91350D01*
X12940Y91377D01*
X12933Y91401D01*
X12925Y91425D01*
X12915Y91446D01*
X12905Y91466D01*
X12897Y91483D01*
X12887Y91498D01*
X12878Y91509D01*
X12870Y91521D01*
X12865Y91529D01*
X12860Y91534D01*
X12857Y91538D01*
X12855Y91539D01*
X12835Y91558D01*
X12814Y91572D01*
X12792Y91587D01*
X12770Y91599D01*
X12747Y91609D01*
X12726Y91617D01*
X12682Y91629D01*
X12663Y91634D01*
X12643Y91637D01*
X12626Y91639D01*
X12613Y91641D01*
X12601Y91642D01*
X12585D01*
X12555Y91641D01*
X12526Y91639D01*
X12500Y91634D01*
X12477Y91627D01*
X12453Y91621D01*
X12432Y91612D01*
X12412Y91602D01*
X12394Y91594D01*
X12377Y91586D01*
X12364Y91576D01*
X12352Y91567D01*
X12342Y91561D01*
X12334Y91554D01*
X12329Y91551D01*
X12325Y91548D01*
X12324Y91546D01*
X12306Y91528D01*
X12291Y91508D01*
X12277Y91488D01*
X12266Y91468D01*
X12256Y91448D01*
X12249Y91430D01*
X12236Y91391D01*
X12233Y91375D01*
X12229Y91360D01*
X12228Y91345D01*
X12226Y91333D01*
X12224Y91323D01*
Y91317D01*
Y91312D01*
Y91310D01*
X12226Y91285D01*
X12229Y91260D01*
X12234Y91236D01*
X12241Y91211D01*
X12259Y91162D01*
X12279Y91119D01*
X12289Y91099D01*
X12299Y91083D01*
X12309Y91066D01*
X12317Y91053D01*
X12324Y91043D01*
X12329Y91035D01*
X12332Y91030D01*
X12334Y91028D01*
X12357Y90998D01*
X12384Y90968D01*
X12414Y90935D01*
X12445Y90902D01*
X12480Y90867D01*
X12515Y90834D01*
X12551Y90800D01*
X12586Y90769D01*
X12619Y90739D01*
X12651Y90711D01*
X12679Y90686D01*
X12706Y90664D01*
X12726Y90646D01*
X12742Y90633D01*
X12752Y90625D01*
X12754Y90621D01*
X12755D01*
X12792Y90591D01*
X12827Y90561D01*
X12858Y90533D01*
X12888Y90507D01*
X12915Y90482D01*
X12941Y90457D01*
X12963Y90435D01*
X12985Y90415D01*
X13003Y90397D01*
X13018Y90381D01*
X13031Y90366D01*
X13043Y90354D01*
X13051Y90346D01*
X13058Y90337D01*
X13061Y90334D01*
X13063Y90332D01*
X13099Y90286D01*
X13131Y90239D01*
X13159Y90198D01*
X13179Y90158D01*
X13189Y90141D01*
X13195Y90127D01*
X13202Y90112D01*
X13207Y90100D01*
X13212Y90092D01*
X13215Y90085D01*
X13217Y90080D01*
Y90078D01*
X13227Y90049D01*
X13234Y90020D01*
X13239Y89992D01*
X13242Y89967D01*
X13243Y89947D01*
Y89931D01*
Y89924D01*
Y89919D01*
Y89917D01*
Y89916D01*
X11979D01*
Y90141D01*
X12916D01*
X12902Y90165D01*
X12885Y90188D01*
X12868Y90210D01*
X12853Y90228D01*
X12840Y90244D01*
X12829Y90258D01*
X12822Y90264D01*
X12819Y90268D01*
X12805Y90281D01*
X12790Y90296D01*
X12770Y90314D01*
X12751Y90332D01*
X12706Y90372D01*
X12659Y90412D01*
X12638Y90430D01*
X12616Y90449D01*
X12598Y90465D01*
X12581Y90480D01*
X12566Y90492D01*
X12556Y90500D01*
X12548Y90507D01*
X12546Y90508D01*
X12500Y90548D01*
X12458Y90585D01*
X12419Y90620D01*
X12384Y90651D01*
X12350Y90681D01*
X12322Y90709D01*
X12296Y90734D01*
X12271Y90757D01*
X12251Y90777D01*
X12234Y90796D01*
X12219Y90811D01*
X12206Y90822D01*
X12198Y90832D01*
X12191Y90840D01*
X12188Y90844D01*
X12186Y90845D01*
X12148Y90890D01*
X12115Y90933D01*
X12088Y90973D01*
X12067Y91008D01*
X12058Y91023D01*
X12050Y91036D01*
X12043Y91048D01*
X12038Y91059D01*
X12035Y91066D01*
X12032Y91073D01*
X12030Y91076D01*
Y91078D01*
X12014Y91119D01*
X12002Y91161D01*
X11993Y91199D01*
X11989Y91234D01*
X11984Y91262D01*
Y91275D01*
X11982Y91285D01*
Y91294D01*
Y91300D01*
Y91303D01*
Y91305D01*
X11984Y91347D01*
X11989Y91386D01*
X11997Y91425D01*
X12007Y91460D01*
X12018Y91493D01*
X12033Y91524D01*
X12047Y91553D01*
X12062Y91579D01*
X12078Y91602D01*
X12092Y91624D01*
X12105Y91642D01*
X12118Y91657D01*
X12128Y91669D01*
X12136Y91677D01*
X12141Y91682D01*
X12143Y91684D01*
X12174Y91710D01*
X12208Y91733D01*
X12242Y91755D01*
X12279Y91772D01*
X12316Y91787D01*
X12352Y91800D01*
X12387Y91810D01*
X12422Y91818D01*
X12453Y91823D01*
X12483Y91828D01*
X12512Y91831D01*
X12535Y91835D01*
X12553D01*
X12568Y91836D01*
X12580D01*
X12629Y91835D01*
D02*
G37*
G36*
X37995Y50445D02*
X38042Y50442D01*
X38085Y50437D01*
X38128Y50429D01*
X38168Y50421D01*
X38206Y50411D01*
X38243Y50401D01*
X38274Y50389D01*
X38306Y50379D01*
X38333Y50367D01*
X38356Y50358D01*
X38376Y50349D01*
X38391Y50341D01*
X38402Y50336D01*
X38410Y50333D01*
X38412Y50331D01*
X38450Y50308D01*
X38487Y50283D01*
X38520Y50256D01*
X38552Y50230D01*
X38581Y50201D01*
X38608Y50173D01*
X38631Y50145D01*
X38655Y50118D01*
X38673Y50092D01*
X38689Y50069D01*
X38704Y50047D01*
X38716Y50029D01*
X38726Y50014D01*
X38732Y50002D01*
X38736Y49996D01*
X38737Y49992D01*
X38757Y49949D01*
X38774Y49906D01*
X38789Y49861D01*
X38802Y49816D01*
X38814Y49773D01*
X38822Y49730D01*
X38831Y49689D01*
X38835Y49649D01*
X38840Y49610D01*
X38844Y49577D01*
X38847Y49547D01*
X38849Y49521D01*
X38850Y49501D01*
Y49484D01*
Y49474D01*
Y49473D01*
Y49471D01*
X38849Y49420D01*
X38845Y49370D01*
X38840Y49322D01*
X38835Y49275D01*
X38827Y49230D01*
X38819Y49189D01*
X38811Y49149D01*
X38801Y49112D01*
X38791Y49078D01*
X38782Y49048D01*
X38774Y49021D01*
X38766Y49000D01*
X38761Y48981D01*
X38756Y48970D01*
X38752Y48961D01*
X38751Y48958D01*
X38731Y48915D01*
X38709Y48873D01*
X38686Y48835D01*
X38661Y48801D01*
X38638Y48767D01*
X38613Y48737D01*
X38588Y48711D01*
X38565Y48686D01*
X38543Y48664D01*
X38522Y48646D01*
X38504Y48630D01*
X38487Y48616D01*
X38474Y48606D01*
X38464Y48600D01*
X38457Y48595D01*
X38455Y48593D01*
X38417Y48571D01*
X38377Y48551D01*
X38337Y48535D01*
X38294Y48522D01*
X38253Y48508D01*
X38211Y48498D01*
X38170Y48490D01*
X38132Y48483D01*
X38093Y48478D01*
X38060Y48475D01*
X38030Y48472D01*
X38004Y48470D01*
X37982D01*
X37966Y48469D01*
X37952D01*
X37898Y48470D01*
X37844Y48475D01*
X37795Y48483D01*
X37747Y48493D01*
X37702Y48507D01*
X37660Y48520D01*
X37622Y48535D01*
X37587Y48550D01*
X37556Y48565D01*
X37527Y48580D01*
X37503Y48593D01*
X37483Y48606D01*
X37468Y48616D01*
X37456Y48625D01*
X37448Y48630D01*
X37446Y48631D01*
X37408Y48664D01*
X37375Y48699D01*
X37343Y48736D01*
X37313Y48776D01*
X37287Y48814D01*
X37263Y48854D01*
X37244Y48893D01*
X37225Y48932D01*
X37209Y48967D01*
X37195Y49000D01*
X37184Y49029D01*
X37174Y49056D01*
X37167Y49078D01*
X37162Y49094D01*
X37161Y49099D01*
Y49104D01*
X37159Y49106D01*
Y49108D01*
X37413Y49171D01*
X37424Y49128D01*
X37436Y49086D01*
X37451Y49048D01*
X37466Y49013D01*
X37483Y48980D01*
X37499Y48950D01*
X37516Y48923D01*
X37532Y48898D01*
X37549Y48877D01*
X37564Y48859D01*
X37577Y48844D01*
X37591Y48830D01*
X37600Y48820D01*
X37607Y48812D01*
X37612Y48809D01*
X37614Y48807D01*
X37642Y48785D01*
X37672Y48767D01*
X37702Y48751D01*
X37732Y48737D01*
X37763Y48726D01*
X37793Y48716D01*
X37821Y48708D01*
X37849Y48701D01*
X37874Y48696D01*
X37899Y48693D01*
X37921Y48689D01*
X37939Y48688D01*
X37954D01*
X37964Y48686D01*
X37974D01*
X38006Y48688D01*
X38039Y48689D01*
X38098Y48699D01*
X38127Y48708D01*
X38153Y48714D01*
X38178Y48722D01*
X38201Y48731D01*
X38223Y48739D01*
X38243Y48747D01*
X38259Y48756D01*
X38273Y48762D01*
X38284Y48767D01*
X38293Y48772D01*
X38298Y48774D01*
X38299Y48776D01*
X38326Y48794D01*
X38352Y48814D01*
X38376Y48834D01*
X38397Y48855D01*
X38417Y48878D01*
X38435Y48900D01*
X38450Y48923D01*
X38465Y48945D01*
X38479Y48965D01*
X38490Y48985D01*
X38498Y49001D01*
X38507Y49016D01*
X38512Y49029D01*
X38517Y49038D01*
X38518Y49044D01*
X38520Y49046D01*
X38543Y49117D01*
X38560Y49191D01*
X38573Y49262D01*
X38576Y49295D01*
X38581Y49328D01*
X38583Y49358D01*
X38587Y49386D01*
X38588Y49411D01*
Y49431D01*
X38590Y49450D01*
Y49463D01*
Y49469D01*
Y49473D01*
X38587Y49542D01*
X38580Y49610D01*
X38576Y49642D01*
X38572Y49672D01*
X38565Y49700D01*
X38560Y49727D01*
X38555Y49752D01*
X38548Y49773D01*
X38543Y49793D01*
X38540Y49810D01*
X38535Y49821D01*
X38533Y49831D01*
X38530Y49838D01*
Y49840D01*
X38518Y49873D01*
X38504Y49903D01*
X38489Y49933D01*
X38472Y49959D01*
X38455Y49984D01*
X38439Y50007D01*
X38421Y50029D01*
X38404Y50049D01*
X38387Y50065D01*
X38372Y50080D01*
X38359Y50094D01*
X38346Y50104D01*
X38336Y50112D01*
X38329Y50118D01*
X38324Y50122D01*
X38322Y50124D01*
X38294Y50142D01*
X38264Y50158D01*
X38233Y50173D01*
X38203Y50185D01*
X38171Y50195D01*
X38142Y50203D01*
X38112Y50212D01*
X38083Y50216D01*
X38057Y50221D01*
X38032Y50225D01*
X38010Y50226D01*
X37990Y50228D01*
X37976Y50230D01*
X37954D01*
X37919Y50228D01*
X37884Y50226D01*
X37853Y50221D01*
X37823Y50215D01*
X37795Y50208D01*
X37768Y50200D01*
X37745Y50190D01*
X37722Y50182D01*
X37703Y50173D01*
X37685Y50163D01*
X37670Y50155D01*
X37659Y50148D01*
X37649Y50142D01*
X37640Y50138D01*
X37637Y50135D01*
X37635Y50133D01*
X37612Y50115D01*
X37591Y50094D01*
X37571Y50070D01*
X37552Y50046D01*
X37519Y49996D01*
X37491Y49946D01*
X37479Y49923D01*
X37469Y49901D01*
X37461Y49881D01*
X37454Y49865D01*
X37448Y49850D01*
X37444Y49840D01*
X37441Y49831D01*
Y49830D01*
X37192Y49888D01*
X37209Y49936D01*
X37227Y49982D01*
X37247Y50024D01*
X37268Y50064D01*
X37290Y50100D01*
X37313Y50135D01*
X37337Y50165D01*
X37358Y50193D01*
X37380Y50218D01*
X37400Y50240D01*
X37418Y50258D01*
X37434Y50273D01*
X37448Y50284D01*
X37458Y50293D01*
X37464Y50298D01*
X37466Y50299D01*
X37504Y50326D01*
X37542Y50348D01*
X37584Y50367D01*
X37624Y50384D01*
X37665Y50399D01*
X37705Y50411D01*
X37743Y50421D01*
X37781Y50429D01*
X37816Y50436D01*
X37848Y50439D01*
X37876Y50442D01*
X37901Y50445D01*
X37921D01*
X37936Y50447D01*
X37949D01*
X37995Y50445D01*
D02*
G37*
G36*
X15050Y89916D02*
X14361D01*
X14298Y89917D01*
X14240Y89921D01*
X14213Y89922D01*
X14186Y89926D01*
X14163Y89929D01*
X14142Y89932D01*
X14122Y89934D01*
X14105Y89937D01*
X14090Y89941D01*
X14077Y89942D01*
X14067Y89944D01*
X14060Y89946D01*
X14055Y89947D01*
X14054D01*
X14006Y89961D01*
X13961Y89977D01*
X13923Y89992D01*
X13889Y90009D01*
X13874Y90015D01*
X13861Y90022D01*
X13851Y90029D01*
X13841Y90034D01*
X13835Y90037D01*
X13829Y90040D01*
X13826Y90044D01*
X13825D01*
X13790Y90069D01*
X13758Y90097D01*
X13728Y90127D01*
X13702Y90153D01*
X13680Y90178D01*
X13664Y90198D01*
X13658Y90206D01*
X13654Y90211D01*
X13652Y90215D01*
X13650Y90216D01*
X13622Y90259D01*
X13595Y90307D01*
X13574Y90354D01*
X13554Y90397D01*
X13547Y90417D01*
X13539Y90437D01*
X13534Y90454D01*
X13529Y90467D01*
X13524Y90478D01*
X13521Y90488D01*
X13519Y90493D01*
Y90495D01*
X13502Y90560D01*
X13489Y90626D01*
X13481Y90693D01*
X13476Y90723D01*
X13474Y90752D01*
X13473Y90779D01*
X13471Y90804D01*
X13469Y90827D01*
X13468Y90845D01*
Y90860D01*
Y90872D01*
Y90880D01*
Y90882D01*
Y90928D01*
X13471Y90975D01*
X13474Y91020D01*
X13479Y91061D01*
X13486Y91101D01*
X13492Y91137D01*
X13499Y91172D01*
X13506Y91206D01*
X13512Y91234D01*
X13519Y91260D01*
X13526Y91282D01*
X13532Y91302D01*
X13537Y91317D01*
X13541Y91328D01*
X13542Y91335D01*
X13544Y91337D01*
X13559Y91373D01*
X13576Y91408D01*
X13592Y91441D01*
X13610Y91471D01*
X13629Y91501D01*
X13649Y91528D01*
X13667Y91553D01*
X13685Y91576D01*
X13702Y91596D01*
X13718Y91612D01*
X13732Y91629D01*
X13745Y91641D01*
X13755Y91650D01*
X13763Y91657D01*
X13768Y91662D01*
X13770Y91664D01*
X13815Y91699D01*
X13863Y91727D01*
X13909Y91752D01*
X13954Y91770D01*
X13974Y91778D01*
X13992Y91785D01*
X14009Y91790D01*
X14022Y91795D01*
X14034Y91798D01*
X14044Y91800D01*
X14049Y91802D01*
X14050D01*
X14074Y91807D01*
X14098Y91812D01*
X14153Y91818D01*
X14210Y91823D01*
X14264Y91826D01*
X14291Y91828D01*
X14314D01*
X14336Y91830D01*
X15050D01*
Y89916D01*
D02*
G37*
G36*
X56500Y96616D02*
X54998D01*
X56500Y95612D01*
Y95351D01*
X54586D01*
Y95594D01*
X56090D01*
X54586Y96600D01*
Y96859D01*
X56500D01*
Y96616D01*
D02*
G37*
G36*
X15050Y98900D02*
X14361D01*
X14298Y98902D01*
X14240Y98905D01*
X14213Y98907D01*
X14186Y98910D01*
X14163Y98913D01*
X14142Y98917D01*
X14122Y98918D01*
X14105Y98922D01*
X14090Y98925D01*
X14077Y98927D01*
X14067Y98928D01*
X14060Y98930D01*
X14055Y98931D01*
X14054D01*
X14006Y98945D01*
X13961Y98961D01*
X13923Y98976D01*
X13889Y98993D01*
X13874Y99000D01*
X13861Y99006D01*
X13851Y99013D01*
X13841Y99018D01*
X13835Y99021D01*
X13829Y99024D01*
X13826Y99028D01*
X13825D01*
X13790Y99053D01*
X13758Y99081D01*
X13728Y99111D01*
X13702Y99137D01*
X13680Y99162D01*
X13664Y99182D01*
X13658Y99190D01*
X13654Y99195D01*
X13652Y99199D01*
X13650Y99200D01*
X13622Y99244D01*
X13595Y99292D01*
X13574Y99338D01*
X13554Y99381D01*
X13547Y99401D01*
X13539Y99421D01*
X13534Y99438D01*
X13529Y99451D01*
X13524Y99463D01*
X13521Y99473D01*
X13519Y99478D01*
Y99479D01*
X13502Y99544D01*
X13489Y99611D01*
X13481Y99677D01*
X13476Y99707D01*
X13474Y99737D01*
X13473Y99763D01*
X13471Y99788D01*
X13469Y99811D01*
X13468Y99830D01*
Y99844D01*
Y99856D01*
Y99865D01*
Y99866D01*
Y99913D01*
X13471Y99959D01*
X13474Y100004D01*
X13479Y100045D01*
X13486Y100085D01*
X13492Y100122D01*
X13499Y100157D01*
X13506Y100190D01*
X13512Y100218D01*
X13519Y100245D01*
X13526Y100266D01*
X13532Y100286D01*
X13537Y100301D01*
X13541Y100313D01*
X13542Y100319D01*
X13544Y100321D01*
X13559Y100357D01*
X13576Y100392D01*
X13592Y100426D01*
X13610Y100455D01*
X13629Y100485D01*
X13649Y100512D01*
X13667Y100537D01*
X13685Y100560D01*
X13702Y100580D01*
X13718Y100596D01*
X13732Y100613D01*
X13745Y100625D01*
X13755Y100635D01*
X13763Y100641D01*
X13768Y100646D01*
X13770Y100648D01*
X13815Y100683D01*
X13863Y100711D01*
X13909Y100736D01*
X13954Y100754D01*
X13974Y100762D01*
X13992Y100769D01*
X14009Y100774D01*
X14022Y100779D01*
X14034Y100782D01*
X14044Y100784D01*
X14049Y100786D01*
X14050D01*
X14074Y100791D01*
X14098Y100796D01*
X14153Y100802D01*
X14210Y100807D01*
X14264Y100811D01*
X14291Y100812D01*
X14314D01*
X14336Y100814D01*
X15050D01*
Y98900D01*
D02*
G37*
G36*
X12656Y100819D02*
X12696Y100816D01*
X12734Y100809D01*
X12770Y100801D01*
X12804Y100791D01*
X12835Y100779D01*
X12863Y100768D01*
X12890Y100756D01*
X12913Y100743D01*
X12935Y100731D01*
X12951Y100719D01*
X12966Y100709D01*
X12980Y100701D01*
X12988Y100695D01*
X12993Y100691D01*
X12994Y100689D01*
X13021Y100665D01*
X13046Y100636D01*
X13069Y100608D01*
X13089Y100578D01*
X13107Y100547D01*
X13122Y100517D01*
X13137Y100487D01*
X13149Y100459D01*
X13159Y100431D01*
X13167Y100406D01*
X13174Y100382D01*
X13180Y100363D01*
X13184Y100347D01*
X13187Y100334D01*
X13189Y100328D01*
Y100324D01*
X12953Y100283D01*
X12948Y100314D01*
X12941Y100344D01*
X12933Y100371D01*
X12925Y100396D01*
X12915Y100419D01*
X12905Y100441D01*
X12895Y100460D01*
X12885Y100477D01*
X12877Y100492D01*
X12867Y100505D01*
X12858Y100517D01*
X12852Y100525D01*
X12845Y100533D01*
X12840Y100538D01*
X12839Y100540D01*
X12837Y100542D01*
X12819Y100557D01*
X12800Y100570D01*
X12782Y100582D01*
X12762Y100592D01*
X12724Y100607D01*
X12689Y100618D01*
X12657Y100623D01*
X12644Y100625D01*
X12633Y100626D01*
X12623Y100628D01*
X12609D01*
X12585Y100626D01*
X12560Y100625D01*
X12516Y100615D01*
X12477Y100601D01*
X12445Y100585D01*
X12430Y100577D01*
X12419Y100568D01*
X12409Y100562D01*
X12400Y100555D01*
X12392Y100550D01*
X12387Y100545D01*
X12385Y100543D01*
X12384Y100542D01*
X12369Y100525D01*
X12354Y100508D01*
X12342Y100490D01*
X12332Y100474D01*
X12317Y100437D01*
X12307Y100404D01*
X12301Y100374D01*
X12299Y100361D01*
X12297Y100351D01*
X12296Y100341D01*
Y100334D01*
Y100331D01*
Y100329D01*
X12297Y100299D01*
X12301Y100271D01*
X12307Y100246D01*
X12314Y100221D01*
X12324Y100200D01*
X12334Y100180D01*
X12344Y100163D01*
X12355Y100147D01*
X12367Y100132D01*
X12377Y100120D01*
X12387Y100110D01*
X12397Y100102D01*
X12404Y100095D01*
X12410Y100090D01*
X12414Y100089D01*
X12415Y100087D01*
X12438Y100074D01*
X12462Y100062D01*
X12508Y100042D01*
X12553Y100029D01*
X12595Y100019D01*
X12613Y100015D01*
X12631Y100014D01*
X12646Y100011D01*
X12659D01*
X12669Y100009D01*
X12696D01*
X12709Y100011D01*
X12719Y100012D01*
X12722D01*
X12749Y99806D01*
X12712Y99815D01*
X12681Y99821D01*
X12653Y99825D01*
X12628Y99828D01*
X12609Y99830D01*
X12595Y99831D01*
X12583D01*
X12553Y99830D01*
X12525Y99826D01*
X12498Y99821D01*
X12472Y99815D01*
X12448Y99806D01*
X12427Y99798D01*
X12405Y99788D01*
X12387Y99780D01*
X12370Y99770D01*
X12355Y99760D01*
X12344Y99752D01*
X12332Y99743D01*
X12325Y99737D01*
X12319Y99732D01*
X12316Y99728D01*
X12314Y99727D01*
X12296Y99707D01*
X12279Y99685D01*
X12264Y99664D01*
X12252Y99640D01*
X12242Y99619D01*
X12234Y99595D01*
X12221Y99554D01*
X12216Y99534D01*
X12213Y99516D01*
X12211Y99501D01*
X12209Y99486D01*
X12208Y99474D01*
Y99466D01*
Y99461D01*
Y99459D01*
X12209Y99428D01*
X12213Y99398D01*
X12218Y99370D01*
X12226Y99343D01*
X12234Y99318D01*
X12244Y99295D01*
X12254Y99274D01*
X12264Y99254D01*
X12276Y99237D01*
X12286Y99220D01*
X12296Y99207D01*
X12304Y99195D01*
X12312Y99187D01*
X12317Y99181D01*
X12321Y99177D01*
X12322Y99176D01*
X12344Y99156D01*
X12367Y99137D01*
X12390Y99122D01*
X12414Y99109D01*
X12438Y99098D01*
X12462Y99089D01*
X12483Y99081D01*
X12505Y99076D01*
X12526Y99071D01*
X12545Y99068D01*
X12561Y99064D01*
X12574Y99063D01*
X12586Y99061D01*
X12603D01*
X12628Y99063D01*
X12653Y99064D01*
X12699Y99074D01*
X12739Y99089D01*
X12774Y99106D01*
X12789Y99112D01*
X12802Y99121D01*
X12814Y99129D01*
X12822Y99136D01*
X12830Y99141D01*
X12835Y99146D01*
X12839Y99147D01*
X12840Y99149D01*
X12857Y99167D01*
X12873Y99187D01*
X12888Y99209D01*
X12902Y99232D01*
X12925Y99278D01*
X12945Y99327D01*
X12951Y99348D01*
X12958Y99370D01*
X12965Y99388D01*
X12968Y99405D01*
X12971Y99420D01*
X12975Y99430D01*
X12976Y99436D01*
Y99438D01*
X13212Y99406D01*
X13205Y99363D01*
X13197Y99322D01*
X13185Y99282D01*
X13172Y99245D01*
X13157Y99210D01*
X13142Y99177D01*
X13126Y99149D01*
X13109Y99122D01*
X13092Y99098D01*
X13076Y99076D01*
X13063Y99059D01*
X13049Y99044D01*
X13038Y99031D01*
X13029Y99023D01*
X13024Y99018D01*
X13023Y99016D01*
X12991Y98990D01*
X12956Y98966D01*
X12923Y98946D01*
X12887Y98930D01*
X12852Y98915D01*
X12817Y98903D01*
X12784Y98893D01*
X12751Y98885D01*
X12721Y98880D01*
X12692Y98875D01*
X12667Y98872D01*
X12646Y98869D01*
X12629D01*
X12616Y98867D01*
X12604D01*
X12553Y98869D01*
X12505Y98875D01*
X12458Y98883D01*
X12415Y98893D01*
X12374Y98907D01*
X12336Y98922D01*
X12301Y98936D01*
X12269Y98953D01*
X12241Y98970D01*
X12216Y98985D01*
X12194Y99000D01*
X12176Y99013D01*
X12161Y99023D01*
X12151Y99033D01*
X12145Y99038D01*
X12143Y99039D01*
X12110Y99073D01*
X12082Y99107D01*
X12058Y99144D01*
X12037Y99179D01*
X12018Y99215D01*
X12004Y99250D01*
X11992Y99285D01*
X11982Y99317D01*
X11974Y99348D01*
X11969Y99376D01*
X11964Y99401D01*
X11962Y99423D01*
X11960Y99440D01*
X11959Y99453D01*
Y99461D01*
Y99464D01*
X11960Y99499D01*
X11962Y99531D01*
X11967Y99562D01*
X11974Y99591D01*
X11980Y99619D01*
X11989Y99644D01*
X11997Y99667D01*
X12005Y99689D01*
X12015Y99708D01*
X12023Y99725D01*
X12032Y99738D01*
X12038Y99752D01*
X12045Y99760D01*
X12050Y99768D01*
X12052Y99771D01*
X12053Y99773D01*
X12072Y99795D01*
X12092Y99815D01*
X12113Y99835D01*
X12135Y99851D01*
X12156Y99866D01*
X12178Y99879D01*
X12221Y99901D01*
X12241Y99909D01*
X12259Y99918D01*
X12276Y99923D01*
X12289Y99928D01*
X12301Y99931D01*
X12309Y99934D01*
X12316Y99936D01*
X12317D01*
X12272Y99961D01*
X12233Y99986D01*
X12198Y100014D01*
X12171Y100039D01*
X12150Y100062D01*
X12133Y100080D01*
X12128Y100087D01*
X12125Y100092D01*
X12121Y100095D01*
Y100097D01*
X12098Y100137D01*
X12082Y100175D01*
X12070Y100213D01*
X12062Y100248D01*
X12057Y100278D01*
X12055Y100291D01*
Y100303D01*
X12053Y100311D01*
Y100318D01*
Y100321D01*
Y100323D01*
Y100347D01*
X12057Y100371D01*
X12065Y100417D01*
X12077Y100459D01*
X12088Y100495D01*
X12095Y100512D01*
X12101Y100527D01*
X12108Y100538D01*
X12113Y100550D01*
X12118Y100558D01*
X12121Y100565D01*
X12123Y100568D01*
X12125Y100570D01*
X12153Y100611D01*
X12186Y100648D01*
X12219Y100680D01*
X12251Y100704D01*
X12281Y100726D01*
X12292Y100734D01*
X12304Y100741D01*
X12312Y100746D01*
X12319Y100749D01*
X12324Y100753D01*
X12325D01*
X12375Y100776D01*
X12425Y100792D01*
X12475Y100804D01*
X12520Y100812D01*
X12540Y100816D01*
X12558Y100817D01*
X12574Y100819D01*
X12588D01*
X12599Y100821D01*
X12614D01*
X12656Y100819D01*
D02*
G37*
G36*
X24060Y57093D02*
X24058Y57038D01*
X24057Y56985D01*
X24053Y56935D01*
X24048Y56890D01*
X24043Y56847D01*
X24037Y56807D01*
X24030Y56771D01*
X24023Y56739D01*
X24017Y56709D01*
X24010Y56684D01*
X24003Y56663D01*
X23998Y56644D01*
X23993Y56631D01*
X23990Y56621D01*
X23987Y56615D01*
Y56613D01*
X23972Y56581D01*
X23955Y56551D01*
X23937Y56523D01*
X23919Y56497D01*
X23899Y56472D01*
X23877Y56450D01*
X23857Y56430D01*
X23837Y56412D01*
X23819Y56397D01*
X23802Y56382D01*
X23786Y56371D01*
X23773Y56361D01*
X23761Y56354D01*
X23751Y56349D01*
X23746Y56346D01*
X23744Y56344D01*
X23711Y56327D01*
X23676Y56314D01*
X23640Y56302D01*
X23603Y56291D01*
X23530Y56274D01*
X23494Y56269D01*
X23460Y56264D01*
X23427Y56261D01*
X23399Y56258D01*
X23373Y56256D01*
X23349Y56254D01*
X23331Y56253D01*
X23304D01*
X23253Y56254D01*
X23205Y56258D01*
X23160Y56263D01*
X23117Y56269D01*
X23079Y56278D01*
X23041Y56286D01*
X23007Y56296D01*
X22977Y56306D01*
X22949Y56316D01*
X22926Y56326D01*
X22906Y56334D01*
X22889Y56342D01*
X22875Y56349D01*
X22866Y56354D01*
X22860Y56357D01*
X22858Y56359D01*
X22826Y56379D01*
X22798Y56402D01*
X22773Y56424D01*
X22748Y56447D01*
X22727Y56470D01*
X22709Y56493D01*
X22690Y56515D01*
X22675Y56537D01*
X22662Y56556D01*
X22652Y56575D01*
X22642Y56591D01*
X22636Y56606D01*
X22629Y56618D01*
X22626Y56628D01*
X22622Y56633D01*
Y56634D01*
X22611Y56668D01*
X22601Y56703D01*
X22584Y56777D01*
X22572Y56854D01*
X22568Y56892D01*
X22564Y56927D01*
X22561Y56962D01*
X22559Y56993D01*
X22558Y57021D01*
Y57045D01*
X22556Y57064D01*
Y57079D01*
Y57089D01*
Y57093D01*
Y58198D01*
X22810D01*
Y57094D01*
X22812Y57029D01*
X22815Y56970D01*
X22821Y56915D01*
X22828Y56867D01*
X22838Y56822D01*
X22848Y56782D01*
X22858Y56747D01*
X22870Y56716D01*
X22881Y56689D01*
X22891Y56668D01*
X22901Y56648D01*
X22911Y56633D01*
X22918Y56621D01*
X22924Y56615D01*
X22928Y56610D01*
X22929Y56608D01*
X22953Y56586D01*
X22981Y56566D01*
X23009Y56550D01*
X23041Y56535D01*
X23074Y56523D01*
X23107Y56513D01*
X23140Y56505D01*
X23172Y56498D01*
X23203Y56492D01*
X23232Y56488D01*
X23258Y56485D01*
X23281Y56483D01*
X23300D01*
X23314Y56482D01*
X23326D01*
X23384Y56485D01*
X23437Y56492D01*
X23462Y56497D01*
X23485Y56502D01*
X23505Y56507D01*
X23525Y56513D01*
X23542Y56520D01*
X23557Y56525D01*
X23570Y56530D01*
X23582Y56535D01*
X23590Y56540D01*
X23597Y56542D01*
X23600Y56545D01*
X23602D01*
X23641Y56571D01*
X23675Y56601D01*
X23701Y56631D01*
X23723Y56661D01*
X23741Y56688D01*
X23746Y56697D01*
X23753Y56708D01*
X23756Y56716D01*
X23759Y56722D01*
X23761Y56726D01*
Y56727D01*
X23769Y56751D01*
X23776Y56777D01*
X23781Y56805D01*
X23788Y56835D01*
X23794Y56895D01*
X23801Y56955D01*
X23802Y56983D01*
X23804Y57010D01*
Y57033D01*
X23806Y57053D01*
Y57071D01*
Y57083D01*
Y57091D01*
Y57094D01*
Y58198D01*
X24060D01*
Y57093D01*
D02*
G37*
G36*
X49645Y12546D02*
X49692Y12542D01*
X49735Y12537D01*
X49778Y12529D01*
X49818Y12521D01*
X49856Y12511D01*
X49892Y12501D01*
X49924Y12489D01*
X49955Y12479D01*
X49982Y12467D01*
X50005Y12457D01*
X50025Y12449D01*
X50040Y12441D01*
X50052Y12436D01*
X50060Y12433D01*
X50062Y12431D01*
X50100Y12408D01*
X50137Y12383D01*
X50170Y12356D01*
X50201Y12330D01*
X50231Y12302D01*
X50258Y12273D01*
X50281Y12245D01*
X50304Y12218D01*
X50322Y12192D01*
X50339Y12169D01*
X50354Y12147D01*
X50366Y12129D01*
X50375Y12114D01*
X50382Y12102D01*
X50385Y12096D01*
X50387Y12092D01*
X50407Y12049D01*
X50424Y12006D01*
X50439Y11961D01*
X50452Y11916D01*
X50463Y11873D01*
X50472Y11830D01*
X50480Y11789D01*
X50485Y11749D01*
X50490Y11710D01*
X50493Y11677D01*
X50497Y11648D01*
X50498Y11621D01*
X50500Y11601D01*
Y11584D01*
Y11574D01*
Y11573D01*
Y11571D01*
X50498Y11520D01*
X50495Y11470D01*
X50490Y11422D01*
X50485Y11375D01*
X50477Y11330D01*
X50468Y11289D01*
X50460Y11249D01*
X50450Y11213D01*
X50440Y11178D01*
X50432Y11148D01*
X50424Y11121D01*
X50415Y11100D01*
X50410Y11081D01*
X50405Y11070D01*
X50402Y11062D01*
X50400Y11058D01*
X50380Y11015D01*
X50359Y10973D01*
X50336Y10935D01*
X50311Y10900D01*
X50287Y10867D01*
X50263Y10837D01*
X50238Y10811D01*
X50214Y10786D01*
X50193Y10764D01*
X50171Y10746D01*
X50153Y10729D01*
X50137Y10716D01*
X50123Y10706D01*
X50113Y10700D01*
X50107Y10695D01*
X50105Y10693D01*
X50067Y10671D01*
X50027Y10651D01*
X49987Y10635D01*
X49944Y10622D01*
X49902Y10608D01*
X49861Y10598D01*
X49819Y10590D01*
X49781Y10583D01*
X49743Y10578D01*
X49710Y10575D01*
X49680Y10572D01*
X49653Y10570D01*
X49632D01*
X49615Y10569D01*
X49602D01*
X49547Y10570D01*
X49494Y10575D01*
X49444Y10583D01*
X49396Y10593D01*
X49351Y10607D01*
X49310Y10620D01*
X49272Y10635D01*
X49237Y10650D01*
X49205Y10665D01*
X49177Y10680D01*
X49152Y10693D01*
X49132Y10706D01*
X49117Y10716D01*
X49106Y10724D01*
X49097Y10729D01*
X49096Y10731D01*
X49057Y10764D01*
X49024Y10799D01*
X48993Y10836D01*
X48963Y10876D01*
X48936Y10914D01*
X48913Y10954D01*
X48893Y10993D01*
X48875Y11032D01*
X48858Y11067D01*
X48845Y11100D01*
X48833Y11129D01*
X48823Y11156D01*
X48817Y11178D01*
X48812Y11194D01*
X48810Y11199D01*
Y11204D01*
X48809Y11206D01*
Y11208D01*
X49062Y11271D01*
X49074Y11227D01*
X49086Y11186D01*
X49101Y11148D01*
X49116Y11113D01*
X49132Y11080D01*
X49149Y11050D01*
X49165Y11023D01*
X49182Y10998D01*
X49199Y10977D01*
X49213Y10959D01*
X49227Y10944D01*
X49240Y10930D01*
X49250Y10920D01*
X49257Y10912D01*
X49262Y10909D01*
X49263Y10907D01*
X49292Y10886D01*
X49321Y10867D01*
X49351Y10851D01*
X49381Y10837D01*
X49413Y10826D01*
X49443Y10816D01*
X49471Y10808D01*
X49499Y10801D01*
X49524Y10796D01*
X49549Y10793D01*
X49570Y10789D01*
X49589Y10788D01*
X49604D01*
X49614Y10786D01*
X49624D01*
X49655Y10788D01*
X49688Y10789D01*
X49748Y10799D01*
X49776Y10808D01*
X49803Y10814D01*
X49828Y10822D01*
X49851Y10831D01*
X49872Y10839D01*
X49892Y10847D01*
X49909Y10856D01*
X49922Y10862D01*
X49934Y10867D01*
X49942Y10872D01*
X49947Y10874D01*
X49949Y10876D01*
X49975Y10894D01*
X50002Y10914D01*
X50025Y10934D01*
X50047Y10955D01*
X50067Y10978D01*
X50085Y11000D01*
X50100Y11023D01*
X50115Y11045D01*
X50128Y11065D01*
X50140Y11085D01*
X50148Y11101D01*
X50156Y11116D01*
X50161Y11129D01*
X50166Y11138D01*
X50168Y11145D01*
X50170Y11146D01*
X50193Y11218D01*
X50209Y11291D01*
X50223Y11362D01*
X50226Y11395D01*
X50231Y11428D01*
X50233Y11458D01*
X50236Y11486D01*
X50238Y11511D01*
Y11531D01*
X50239Y11549D01*
Y11563D01*
Y11569D01*
Y11573D01*
X50236Y11643D01*
X50229Y11710D01*
X50226Y11742D01*
X50221Y11772D01*
X50214Y11800D01*
X50209Y11827D01*
X50204Y11852D01*
X50198Y11873D01*
X50193Y11893D01*
X50190Y11910D01*
X50185Y11921D01*
X50183Y11931D01*
X50180Y11938D01*
Y11940D01*
X50168Y11973D01*
X50153Y12003D01*
X50138Y12033D01*
X50121Y12059D01*
X50105Y12084D01*
X50088Y12107D01*
X50070Y12129D01*
X50054Y12149D01*
X50037Y12165D01*
X50022Y12180D01*
X50009Y12194D01*
X49995Y12204D01*
X49985Y12212D01*
X49979Y12218D01*
X49974Y12222D01*
X49972Y12224D01*
X49944Y12242D01*
X49914Y12258D01*
X49883Y12273D01*
X49853Y12285D01*
X49821Y12295D01*
X49791Y12303D01*
X49761Y12312D01*
X49733Y12316D01*
X49707Y12321D01*
X49682Y12325D01*
X49660Y12326D01*
X49640Y12328D01*
X49625Y12330D01*
X49604D01*
X49569Y12328D01*
X49534Y12326D01*
X49502Y12321D01*
X49472Y12315D01*
X49444Y12308D01*
X49418Y12300D01*
X49394Y12290D01*
X49371Y12282D01*
X49353Y12273D01*
X49335Y12263D01*
X49320Y12255D01*
X49308Y12248D01*
X49298Y12242D01*
X49290Y12238D01*
X49286Y12235D01*
X49285Y12233D01*
X49262Y12215D01*
X49240Y12194D01*
X49220Y12170D01*
X49202Y12145D01*
X49169Y12096D01*
X49141Y12046D01*
X49129Y12023D01*
X49119Y12001D01*
X49111Y11981D01*
X49104Y11964D01*
X49097Y11950D01*
X49094Y11940D01*
X49091Y11931D01*
Y11930D01*
X48842Y11988D01*
X48858Y12036D01*
X48877Y12082D01*
X48896Y12124D01*
X48918Y12164D01*
X48940Y12200D01*
X48963Y12235D01*
X48986Y12265D01*
X49008Y12293D01*
X49029Y12318D01*
X49049Y12340D01*
X49067Y12358D01*
X49084Y12373D01*
X49097Y12385D01*
X49107Y12393D01*
X49114Y12398D01*
X49116Y12399D01*
X49154Y12426D01*
X49192Y12448D01*
X49233Y12467D01*
X49273Y12484D01*
X49315Y12499D01*
X49355Y12511D01*
X49393Y12521D01*
X49431Y12529D01*
X49466Y12536D01*
X49497Y12539D01*
X49526Y12542D01*
X49551Y12546D01*
X49570D01*
X49585Y12547D01*
X49599D01*
X49645Y12546D01*
D02*
G37*
G36*
X47019Y10600D02*
X46765D01*
Y11264D01*
X46453Y11566D01*
X45772Y10600D01*
X45437D01*
X46275Y11737D01*
X45472Y12514D01*
X45816D01*
X46765Y11564D01*
Y12514D01*
X47019D01*
Y10600D01*
D02*
G37*
G36*
X54779Y85933D02*
X56467D01*
Y85679D01*
X54779D01*
Y85045D01*
X54553D01*
Y86564D01*
X54779D01*
Y85933D01*
D02*
G37*
G36*
X48506Y10600D02*
X47309D01*
Y10826D01*
X48252D01*
Y12514D01*
X48506D01*
Y10600D01*
D02*
G37*
G36*
X21700Y10500D02*
X21011D01*
X20948Y10502D01*
X20890Y10505D01*
X20863Y10507D01*
X20837Y10510D01*
X20814Y10513D01*
X20792Y10517D01*
X20772Y10518D01*
X20755Y10522D01*
X20741Y10525D01*
X20727Y10527D01*
X20717Y10528D01*
X20711Y10530D01*
X20706Y10531D01*
X20704D01*
X20656Y10545D01*
X20611Y10561D01*
X20573Y10576D01*
X20540Y10593D01*
X20525Y10600D01*
X20511Y10606D01*
X20502Y10613D01*
X20492Y10618D01*
X20485Y10621D01*
X20480Y10625D01*
X20477Y10628D01*
X20475D01*
X20440Y10653D01*
X20409Y10681D01*
X20379Y10711D01*
X20352Y10737D01*
X20331Y10762D01*
X20314Y10782D01*
X20309Y10791D01*
X20304Y10796D01*
X20302Y10799D01*
X20301Y10801D01*
X20272Y10844D01*
X20246Y10892D01*
X20224Y10938D01*
X20204Y10981D01*
X20198Y11001D01*
X20189Y11021D01*
X20184Y11038D01*
X20179Y11051D01*
X20175Y11063D01*
X20171Y11073D01*
X20169Y11078D01*
Y11079D01*
X20153Y11144D01*
X20140Y11210D01*
X20131Y11277D01*
X20126Y11307D01*
X20125Y11337D01*
X20123Y11363D01*
X20121Y11388D01*
X20120Y11411D01*
X20118Y11430D01*
Y11445D01*
Y11456D01*
Y11464D01*
Y11466D01*
Y11513D01*
X20121Y11559D01*
X20125Y11604D01*
X20130Y11645D01*
X20136Y11685D01*
X20143Y11722D01*
X20150Y11757D01*
X20156Y11790D01*
X20163Y11818D01*
X20169Y11845D01*
X20176Y11866D01*
X20183Y11886D01*
X20188Y11901D01*
X20191Y11913D01*
X20193Y11919D01*
X20194Y11921D01*
X20209Y11958D01*
X20226Y11992D01*
X20243Y12026D01*
X20261Y12055D01*
X20279Y12085D01*
X20299Y12112D01*
X20317Y12137D01*
X20335Y12160D01*
X20352Y12180D01*
X20369Y12196D01*
X20382Y12213D01*
X20395Y12225D01*
X20405Y12235D01*
X20414Y12241D01*
X20418Y12246D01*
X20420Y12248D01*
X20465Y12283D01*
X20513Y12311D01*
X20560Y12336D01*
X20604Y12354D01*
X20624Y12363D01*
X20643Y12369D01*
X20659Y12374D01*
X20673Y12379D01*
X20684Y12382D01*
X20694Y12384D01*
X20699Y12386D01*
X20701D01*
X20724Y12391D01*
X20749Y12396D01*
X20804Y12402D01*
X20860Y12407D01*
X20915Y12411D01*
X20941Y12412D01*
X20965D01*
X20986Y12414D01*
X21700D01*
Y10500D01*
D02*
G37*
G36*
X19726D02*
X19472D01*
Y12414D01*
X19726D01*
Y10500D01*
D02*
G37*
G36*
X18260Y12444D02*
X18330Y12436D01*
X18397Y12422D01*
X18460Y12406D01*
X18518Y12384D01*
X18573Y12361D01*
X18622Y12338D01*
X18667Y12313D01*
X18709Y12286D01*
X18744Y12263D01*
X18775Y12240D01*
X18800Y12220D01*
X18820Y12201D01*
X18835Y12188D01*
X18843Y12180D01*
X18846Y12177D01*
X18891Y12123D01*
X18931Y12067D01*
X18964Y12007D01*
X18994Y11947D01*
X19019Y11884D01*
X19039Y11823D01*
X19057Y11762D01*
X19071Y11704D01*
X19081Y11647D01*
X19089Y11596D01*
X19094Y11551D01*
X19097Y11529D01*
X19099Y11509D01*
Y11493D01*
X19100Y11478D01*
Y11463D01*
X19102Y11453D01*
Y11443D01*
Y11436D01*
Y11433D01*
Y11431D01*
X19100Y11385D01*
X19097Y11338D01*
X19092Y11293D01*
X19085Y11250D01*
X19077Y11210D01*
X19067Y11171D01*
X19057Y11134D01*
X19047Y11099D01*
X19037Y11068D01*
X19027Y11039D01*
X19017Y11015D01*
X19009Y10995D01*
X19003Y10978D01*
X18997Y10965D01*
X18994Y10958D01*
X18993Y10955D01*
X18971Y10913D01*
X18948Y10875D01*
X18923Y10839D01*
X18896Y10804D01*
X18870Y10772D01*
X18843Y10742D01*
X18817Y10716D01*
X18790Y10693D01*
X18767Y10671D01*
X18744Y10651D01*
X18724Y10636D01*
X18705Y10623D01*
X18690Y10611D01*
X18680Y10605D01*
X18672Y10600D01*
X18670Y10598D01*
X18631Y10575D01*
X18589Y10555D01*
X18548Y10538D01*
X18505Y10523D01*
X18465Y10510D01*
X18425Y10500D01*
X18385Y10492D01*
X18349Y10485D01*
X18315Y10480D01*
X18284Y10475D01*
X18257Y10472D01*
X18232Y10470D01*
X18214D01*
X18199Y10469D01*
X18187D01*
X18141Y10470D01*
X18096Y10473D01*
X18051Y10480D01*
X18010Y10487D01*
X17970Y10495D01*
X17930Y10505D01*
X17895Y10517D01*
X17862Y10528D01*
X17831Y10538D01*
X17804Y10550D01*
X17781Y10560D01*
X17761Y10568D01*
X17744Y10575D01*
X17733Y10581D01*
X17724Y10585D01*
X17723Y10586D01*
X17683Y10610D01*
X17646Y10634D01*
X17611Y10663D01*
X17580Y10691D01*
X17550Y10719D01*
X17522Y10747D01*
X17497Y10777D01*
X17475Y10804D01*
X17455Y10830D01*
X17437Y10855D01*
X17422Y10877D01*
X17411Y10895D01*
X17401Y10912D01*
X17394Y10923D01*
X17391Y10930D01*
X17389Y10933D01*
X17367Y10976D01*
X17351Y11021D01*
X17334Y11066D01*
X17321Y11111D01*
X17309Y11156D01*
X17299Y11199D01*
X17293Y11240D01*
X17286Y11280D01*
X17281Y11317D01*
X17278Y11350D01*
X17274Y11380D01*
X17273Y11405D01*
X17271Y11426D01*
Y11441D01*
Y11451D01*
Y11455D01*
X17273Y11508D01*
X17276Y11559D01*
X17281Y11607D01*
X17289Y11655D01*
X17298Y11700D01*
X17306Y11742D01*
X17318Y11782D01*
X17328Y11818D01*
X17337Y11850D01*
X17347Y11880D01*
X17357Y11904D01*
X17366Y11926D01*
X17374Y11942D01*
X17379Y11956D01*
X17382Y11963D01*
X17384Y11966D01*
X17406Y12007D01*
X17431Y12047D01*
X17455Y12084D01*
X17482Y12117D01*
X17508Y12148D01*
X17535Y12178D01*
X17562Y12205D01*
X17588Y12228D01*
X17611Y12250D01*
X17635Y12268D01*
X17655Y12283D01*
X17673Y12296D01*
X17688Y12306D01*
X17698Y12313D01*
X17706Y12318D01*
X17708Y12319D01*
X17748Y12343D01*
X17789Y12361D01*
X17831Y12379D01*
X17872Y12394D01*
X17912Y12406D01*
X17952Y12416D01*
X17990Y12424D01*
X18026Y12431D01*
X18060Y12437D01*
X18091Y12440D01*
X18118Y12444D01*
X18141Y12445D01*
X18159Y12447D01*
X18186D01*
X18260Y12444D01*
D02*
G37*
G36*
X12999Y69767D02*
X13047Y69762D01*
X13092Y69752D01*
X13133Y69742D01*
X13173Y69728D01*
X13210Y69713D01*
X13244Y69699D01*
X13274Y69682D01*
X13303Y69665D01*
X13326Y69650D01*
X13348Y69635D01*
X13364Y69622D01*
X13377Y69612D01*
X13387Y69604D01*
X13394Y69597D01*
X13396Y69596D01*
X13427Y69562D01*
X13454Y69528D01*
X13477Y69493D01*
X13497Y69456D01*
X13513Y69421D01*
X13527Y69386D01*
X13538Y69352D01*
X13548Y69320D01*
X13555Y69288D01*
X13560Y69260D01*
X13565Y69235D01*
X13567Y69214D01*
X13568Y69197D01*
X13570Y69184D01*
Y69176D01*
Y69172D01*
X13568Y69137D01*
X13565Y69103D01*
X13558Y69069D01*
X13552Y69036D01*
X13542Y69005D01*
X13532Y68975D01*
X13520Y68946D01*
X13510Y68920D01*
X13498Y68897D01*
X13487Y68875D01*
X13477Y68857D01*
X13467Y68840D01*
X13460Y68827D01*
X13454Y68819D01*
X13450Y68812D01*
X13449Y68810D01*
X13965Y68913D01*
Y69679D01*
X14189D01*
Y68727D01*
X13206Y68542D01*
X13178Y68762D01*
X13208Y68784D01*
X13233Y68807D01*
X13256Y68830D01*
X13274Y68854D01*
X13291Y68874D01*
X13301Y68890D01*
X13306Y68897D01*
X13309Y68902D01*
X13311Y68903D01*
Y68905D01*
X13328Y68940D01*
X13341Y68975D01*
X13349Y69010D01*
X13356Y69041D01*
X13359Y69069D01*
X13361Y69081D01*
X13362Y69091D01*
Y69098D01*
Y69104D01*
Y69108D01*
Y69109D01*
X13361Y69142D01*
X13357Y69176D01*
X13351Y69205D01*
X13344Y69234D01*
X13336Y69260D01*
X13326Y69283D01*
X13314Y69307D01*
X13304Y69327D01*
X13293Y69345D01*
X13281Y69362D01*
X13271Y69375D01*
X13263Y69386D01*
X13256Y69395D01*
X13250Y69401D01*
X13246Y69405D01*
X13244Y69406D01*
X13221Y69426D01*
X13198Y69443D01*
X13171Y69459D01*
X13147Y69471D01*
X13120Y69483D01*
X13093Y69491D01*
X13042Y69506D01*
X13019Y69509D01*
X12997Y69513D01*
X12977Y69516D01*
X12961Y69518D01*
X12947Y69519D01*
X12927D01*
X12889Y69518D01*
X12853Y69514D01*
X12818Y69508D01*
X12786Y69501D01*
X12755Y69493D01*
X12728Y69483D01*
X12702Y69471D01*
X12678Y69461D01*
X12659Y69450D01*
X12640Y69438D01*
X12625Y69428D01*
X12612Y69420D01*
X12602Y69413D01*
X12596Y69406D01*
X12591Y69403D01*
X12589Y69401D01*
X12566Y69380D01*
X12547Y69357D01*
X12529Y69332D01*
X12516Y69307D01*
X12503Y69283D01*
X12493Y69260D01*
X12484Y69237D01*
X12478Y69214D01*
X12471Y69194D01*
X12468Y69174D01*
X12464Y69157D01*
X12463Y69142D01*
Y69131D01*
X12461Y69122D01*
Y69116D01*
Y69114D01*
X12463Y69088D01*
X12464Y69063D01*
X12474Y69018D01*
X12489Y68976D01*
X12506Y68942D01*
X12514Y68927D01*
X12522Y68912D01*
X12531Y68902D01*
X12537Y68892D01*
X12542Y68884D01*
X12547Y68879D01*
X12549Y68875D01*
X12551Y68874D01*
X12569Y68855D01*
X12589Y68840D01*
X12632Y68812D01*
X12677Y68791D01*
X12722Y68774D01*
X12743Y68767D01*
X12762Y68761D01*
X12780Y68757D01*
X12795Y68752D01*
X12808Y68751D01*
X12816Y68749D01*
X12823Y68747D01*
X12825D01*
X12803Y68500D01*
X12758Y68507D01*
X12717Y68515D01*
X12677Y68527D01*
X12640Y68540D01*
X12605Y68553D01*
X12574Y68570D01*
X12544Y68586D01*
X12517Y68603D01*
X12494Y68620D01*
X12474Y68634D01*
X12456Y68649D01*
X12441Y68661D01*
X12430Y68673D01*
X12421Y68681D01*
X12416Y68686D01*
X12415Y68688D01*
X12390Y68719D01*
X12366Y68754D01*
X12347Y68789D01*
X12330Y68824D01*
X12317Y68860D01*
X12305Y68895D01*
X12295Y68930D01*
X12287Y68963D01*
X12280Y68995D01*
X12277Y69023D01*
X12273Y69050D01*
X12270Y69071D01*
Y69089D01*
X12269Y69103D01*
Y69111D01*
Y69114D01*
X12272Y69172D01*
X12278Y69227D01*
X12290Y69279D01*
X12305Y69327D01*
X12322Y69371D01*
X12342Y69413D01*
X12363Y69451D01*
X12385Y69484D01*
X12405Y69514D01*
X12426Y69541D01*
X12446Y69564D01*
X12463Y69582D01*
X12478Y69597D01*
X12489Y69607D01*
X12496Y69614D01*
X12499Y69616D01*
X12536Y69642D01*
X12574Y69665D01*
X12612Y69687D01*
X12650Y69704D01*
X12688Y69718D01*
X12725Y69732D01*
X12762Y69742D01*
X12796Y69750D01*
X12828Y69755D01*
X12858Y69760D01*
X12883Y69763D01*
X12906Y69767D01*
X12924D01*
X12937Y69768D01*
X12949D01*
X12999Y69767D01*
D02*
G37*
G36*
X14214Y71380D02*
X12823Y70862D01*
X12765Y70841D01*
X12707Y70822D01*
X12654Y70804D01*
X12630Y70796D01*
X12607Y70789D01*
X12585Y70783D01*
X12567Y70776D01*
X12551Y70771D01*
X12536Y70768D01*
X12524Y70764D01*
X12516Y70761D01*
X12511Y70759D01*
X12509D01*
X12564Y70744D01*
X12620Y70726D01*
X12674Y70710D01*
X12697Y70701D01*
X12722Y70695D01*
X12743Y70686D01*
X12762Y70680D01*
X12780Y70673D01*
X12795Y70668D01*
X12806Y70665D01*
X12816Y70661D01*
X12821Y70658D01*
X12823D01*
X14214Y70162D01*
Y69886D01*
X12300Y70628D01*
Y70890D01*
X14214Y71637D01*
Y71380D01*
D02*
G37*
G36*
X22307Y56958D02*
Y56742D01*
X21477D01*
Y56284D01*
X21241D01*
Y56742D01*
X20982D01*
Y56958D01*
X21241D01*
Y58198D01*
X21434D01*
X22307Y56958D01*
D02*
G37*
G36*
X13359Y80652D02*
X13404Y80649D01*
X13445Y80644D01*
X13485Y80637D01*
X13522Y80631D01*
X13557Y80624D01*
X13590Y80617D01*
X13618Y80611D01*
X13645Y80604D01*
X13666Y80598D01*
X13686Y80591D01*
X13701Y80586D01*
X13713Y80583D01*
X13719Y80581D01*
X13721Y80579D01*
X13758Y80564D01*
X13792Y80548D01*
X13826Y80531D01*
X13855Y80513D01*
X13885Y80495D01*
X13912Y80475D01*
X13937Y80456D01*
X13960Y80438D01*
X13980Y80422D01*
X13996Y80405D01*
X14013Y80392D01*
X14025Y80378D01*
X14035Y80368D01*
X14041Y80360D01*
X14046Y80355D01*
X14048Y80353D01*
X14083Y80309D01*
X14111Y80260D01*
X14136Y80214D01*
X14154Y80169D01*
X14163Y80149D01*
X14169Y80131D01*
X14174Y80115D01*
X14179Y80101D01*
X14182Y80090D01*
X14184Y80080D01*
X14186Y80075D01*
Y80073D01*
X14191Y80050D01*
X14196Y80025D01*
X14202Y79970D01*
X14207Y79914D01*
X14211Y79859D01*
X14212Y79832D01*
Y79809D01*
X14214Y79787D01*
Y79769D01*
Y79754D01*
Y79743D01*
Y79736D01*
Y79733D01*
Y79074D01*
X12300D01*
Y79763D01*
X12302Y79826D01*
X12305Y79884D01*
X12307Y79910D01*
X12310Y79937D01*
X12313Y79960D01*
X12317Y79982D01*
X12318Y80002D01*
X12322Y80018D01*
X12325Y80033D01*
X12327Y80046D01*
X12328Y80056D01*
X12330Y80063D01*
X12331Y80068D01*
Y80070D01*
X12345Y80118D01*
X12361Y80163D01*
X12376Y80201D01*
X12393Y80234D01*
X12400Y80249D01*
X12406Y80262D01*
X12413Y80272D01*
X12418Y80282D01*
X12421Y80289D01*
X12425Y80294D01*
X12428Y80297D01*
Y80299D01*
X12453Y80334D01*
X12481Y80365D01*
X12511Y80395D01*
X12537Y80422D01*
X12562Y80443D01*
X12582Y80460D01*
X12591Y80465D01*
X12596Y80470D01*
X12599Y80471D01*
X12600Y80473D01*
X12644Y80501D01*
X12692Y80528D01*
X12738Y80549D01*
X12781Y80569D01*
X12801Y80576D01*
X12821Y80584D01*
X12838Y80589D01*
X12851Y80594D01*
X12863Y80599D01*
X12873Y80603D01*
X12878Y80604D01*
X12879D01*
X12944Y80621D01*
X13011Y80634D01*
X13077Y80642D01*
X13107Y80647D01*
X13137Y80649D01*
X13163Y80651D01*
X13188Y80652D01*
X13211Y80654D01*
X13230Y80656D01*
X13313D01*
X13359Y80652D01*
D02*
G37*
G36*
X56467Y88146D02*
X55888Y87938D01*
Y87133D01*
X56467Y86912D01*
Y86625D01*
X54553Y87407D01*
Y87679D01*
X56467Y88413D01*
Y88146D01*
D02*
G37*
G36*
X14221Y81642D02*
X14197Y81630D01*
X14174Y81615D01*
X14128Y81584D01*
X14085Y81549D01*
X14045Y81514D01*
X14028Y81497D01*
X14011Y81482D01*
X13998Y81469D01*
X13987Y81457D01*
X13977Y81446D01*
X13970Y81439D01*
X13965Y81434D01*
X13963Y81432D01*
X13917Y81376D01*
X13874Y81316D01*
X13836Y81258D01*
X13817Y81232D01*
X13802Y81205D01*
X13787Y81180D01*
X13776Y81159D01*
X13764Y81139D01*
X13756Y81122D01*
X13749Y81109D01*
X13744Y81097D01*
X13741Y81090D01*
X13739Y81089D01*
X13512D01*
X13528Y81130D01*
X13548Y81173D01*
X13568Y81215D01*
X13588Y81253D01*
X13597Y81270D01*
X13606Y81286D01*
X13613Y81300D01*
X13620Y81311D01*
X13625Y81321D01*
X13630Y81328D01*
X13631Y81333D01*
X13633Y81335D01*
X13663Y81384D01*
X13693Y81428D01*
X13721Y81466D01*
X13744Y81499D01*
X13756Y81512D01*
X13766Y81524D01*
X13774Y81534D01*
X13782Y81544D01*
X13787Y81550D01*
X13792Y81555D01*
X13794Y81557D01*
X13796Y81559D01*
X12300D01*
Y81794D01*
X14221D01*
Y81642D01*
D02*
G37*
G36*
X56467Y89271D02*
X56465Y89205D01*
X56463Y89175D01*
X56462Y89145D01*
X56460Y89118D01*
X56457Y89094D01*
X56454Y89070D01*
X56450Y89049D01*
X56449Y89029D01*
X56445Y89012D01*
X56442Y88997D01*
X56440Y88986D01*
X56439Y88976D01*
X56437Y88968D01*
X56435Y88964D01*
Y88963D01*
X56422Y88918D01*
X56407Y88876D01*
X56392Y88841D01*
X56377Y88810D01*
X56364Y88787D01*
X56357Y88777D01*
X56352Y88768D01*
X56349Y88762D01*
X56346Y88757D01*
X56342Y88755D01*
Y88753D01*
X56316Y88723D01*
X56287Y88695D01*
X56258Y88672D01*
X56229Y88650D01*
X56203Y88634D01*
X56191Y88627D01*
X56181Y88622D01*
X56175Y88617D01*
X56168Y88616D01*
X56165Y88612D01*
X56163D01*
X56118Y88592D01*
X56075Y88579D01*
X56032Y88569D01*
X55994Y88561D01*
X55977Y88559D01*
X55961Y88557D01*
X55947Y88556D01*
X55936D01*
X55926Y88554D01*
X55912D01*
X55883Y88556D01*
X55853Y88557D01*
X55824Y88562D01*
X55798Y88569D01*
X55771Y88576D01*
X55748Y88584D01*
X55726Y88592D01*
X55705Y88601D01*
X55687Y88611D01*
X55672Y88619D01*
X55657Y88627D01*
X55645Y88634D01*
X55635Y88640D01*
X55629Y88645D01*
X55625Y88647D01*
X55624Y88649D01*
X55602Y88667D01*
X55580Y88687D01*
X55544Y88730D01*
X55514Y88775D01*
X55491Y88816D01*
X55481Y88838D01*
X55472Y88856D01*
X55464Y88873D01*
X55459Y88888D01*
X55454Y88899D01*
X55451Y88908D01*
X55449Y88914D01*
Y88916D01*
X55423Y88870D01*
X55394Y88828D01*
X55365Y88793D01*
X55336Y88765D01*
X55313Y88743D01*
X55293Y88727D01*
X55285Y88722D01*
X55280Y88718D01*
X55277Y88715D01*
X55275D01*
X55233Y88692D01*
X55194Y88675D01*
X55154Y88664D01*
X55119Y88655D01*
X55104Y88652D01*
X55089Y88650D01*
X55076Y88649D01*
X55066D01*
X55056Y88647D01*
X55019D01*
X54994Y88650D01*
X54948Y88659D01*
X54906Y88672D01*
X54868Y88685D01*
X54852Y88692D01*
X54837Y88699D01*
X54823Y88705D01*
X54812Y88712D01*
X54804Y88717D01*
X54797Y88720D01*
X54794Y88722D01*
X54792Y88723D01*
X54749Y88753D01*
X54712Y88787D01*
X54682Y88821D01*
X54657Y88855D01*
X54637Y88885D01*
X54629Y88898D01*
X54624Y88909D01*
X54619Y88918D01*
X54616Y88924D01*
X54613Y88929D01*
Y88931D01*
X54603Y88958D01*
X54593Y88984D01*
X54578Y89042D01*
X54568Y89100D01*
X54559Y89157D01*
X54558Y89183D01*
X54556Y89206D01*
X54554Y89228D01*
Y89246D01*
X54553Y89261D01*
Y89273D01*
Y89280D01*
Y89283D01*
Y90000D01*
X56467D01*
Y89271D01*
D02*
G37*
G36*
X36357Y50419D02*
X36404Y50414D01*
X36448Y50407D01*
X36490Y50399D01*
X36528Y50387D01*
X36565Y50376D01*
X36598Y50362D01*
X36626Y50349D01*
X36653Y50336D01*
X36676Y50323D01*
X36696Y50311D01*
X36712Y50299D01*
X36726Y50291D01*
X36734Y50284D01*
X36740Y50279D01*
X36742Y50278D01*
X36770Y50250D01*
X36797Y50220D01*
X36819Y50188D01*
X36838Y50153D01*
X36857Y50120D01*
X36872Y50085D01*
X36883Y50052D01*
X36895Y50019D01*
X36903Y49987D01*
X36910Y49959D01*
X36917Y49933D01*
X36920Y49911D01*
X36923Y49893D01*
X36925Y49878D01*
X36926Y49869D01*
Y49866D01*
X36684Y49841D01*
X36682Y49874D01*
X36679Y49904D01*
X36674Y49934D01*
X36667Y49961D01*
X36661Y49986D01*
X36653Y50009D01*
X36643Y50030D01*
X36633Y50050D01*
X36624Y50067D01*
X36614Y50082D01*
X36606Y50094D01*
X36598Y50105D01*
X36593Y50113D01*
X36588Y50118D01*
X36584Y50122D01*
X36583Y50124D01*
X36563Y50142D01*
X36541Y50157D01*
X36520Y50172D01*
X36498Y50183D01*
X36475Y50193D01*
X36453Y50201D01*
X36410Y50213D01*
X36390Y50218D01*
X36370Y50221D01*
X36354Y50223D01*
X36340Y50225D01*
X36329Y50226D01*
X36312D01*
X36282Y50225D01*
X36254Y50223D01*
X36228Y50218D01*
X36204Y50212D01*
X36181Y50205D01*
X36160Y50196D01*
X36140Y50187D01*
X36121Y50178D01*
X36105Y50170D01*
X36092Y50160D01*
X36080Y50152D01*
X36070Y50145D01*
X36062Y50138D01*
X36057Y50135D01*
X36053Y50132D01*
X36052Y50130D01*
X36033Y50112D01*
X36018Y50092D01*
X36005Y50072D01*
X35993Y50052D01*
X35984Y50032D01*
X35977Y50014D01*
X35964Y49976D01*
X35960Y49959D01*
X35957Y49944D01*
X35955Y49929D01*
X35954Y49918D01*
X35952Y49908D01*
Y49901D01*
Y49896D01*
Y49894D01*
X35954Y49869D01*
X35957Y49845D01*
X35962Y49820D01*
X35969Y49795D01*
X35987Y49747D01*
X36007Y49703D01*
X36017Y49684D01*
X36027Y49667D01*
X36037Y49650D01*
X36045Y49637D01*
X36052Y49627D01*
X36057Y49619D01*
X36060Y49614D01*
X36062Y49612D01*
X36085Y49582D01*
X36111Y49552D01*
X36141Y49519D01*
X36173Y49486D01*
X36208Y49451D01*
X36242Y49418D01*
X36279Y49385D01*
X36314Y49353D01*
X36347Y49323D01*
X36379Y49295D01*
X36407Y49270D01*
X36433Y49249D01*
X36453Y49230D01*
X36470Y49217D01*
X36480Y49209D01*
X36482Y49205D01*
X36483D01*
X36520Y49176D01*
X36555Y49146D01*
X36586Y49117D01*
X36616Y49091D01*
X36643Y49066D01*
X36669Y49041D01*
X36691Y49020D01*
X36712Y49000D01*
X36731Y48981D01*
X36746Y48965D01*
X36759Y48950D01*
X36770Y48938D01*
X36779Y48930D01*
X36785Y48922D01*
X36789Y48918D01*
X36790Y48917D01*
X36827Y48870D01*
X36858Y48824D01*
X36887Y48782D01*
X36906Y48742D01*
X36917Y48726D01*
X36923Y48711D01*
X36930Y48696D01*
X36935Y48684D01*
X36940Y48676D01*
X36943Y48669D01*
X36945Y48664D01*
Y48663D01*
X36955Y48633D01*
X36961Y48605D01*
X36966Y48576D01*
X36970Y48551D01*
X36971Y48531D01*
Y48515D01*
Y48508D01*
Y48503D01*
Y48502D01*
Y48500D01*
X35706D01*
Y48726D01*
X36644D01*
X36629Y48749D01*
X36613Y48772D01*
X36596Y48794D01*
X36581Y48812D01*
X36568Y48829D01*
X36556Y48842D01*
X36550Y48849D01*
X36546Y48852D01*
X36533Y48865D01*
X36518Y48880D01*
X36498Y48898D01*
X36478Y48917D01*
X36433Y48957D01*
X36387Y48996D01*
X36365Y49015D01*
X36344Y49033D01*
X36325Y49049D01*
X36309Y49064D01*
X36294Y49076D01*
X36284Y49084D01*
X36276Y49091D01*
X36274Y49093D01*
X36228Y49132D01*
X36186Y49169D01*
X36146Y49204D01*
X36111Y49235D01*
X36078Y49265D01*
X36050Y49294D01*
X36023Y49318D01*
X35998Y49342D01*
X35979Y49362D01*
X35962Y49380D01*
X35947Y49395D01*
X35934Y49406D01*
X35925Y49416D01*
X35919Y49425D01*
X35915Y49428D01*
X35914Y49430D01*
X35876Y49474D01*
X35842Y49518D01*
X35816Y49557D01*
X35794Y49592D01*
X35786Y49607D01*
X35778Y49621D01*
X35771Y49632D01*
X35766Y49644D01*
X35763Y49650D01*
X35759Y49657D01*
X35758Y49660D01*
Y49662D01*
X35741Y49703D01*
X35730Y49745D01*
X35721Y49783D01*
X35716Y49818D01*
X35711Y49846D01*
Y49859D01*
X35710Y49869D01*
Y49878D01*
Y49884D01*
Y49888D01*
Y49889D01*
X35711Y49931D01*
X35716Y49971D01*
X35725Y50009D01*
X35735Y50044D01*
X35746Y50077D01*
X35761Y50108D01*
X35774Y50137D01*
X35789Y50163D01*
X35806Y50187D01*
X35819Y50208D01*
X35833Y50226D01*
X35846Y50241D01*
X35856Y50253D01*
X35864Y50261D01*
X35869Y50266D01*
X35871Y50268D01*
X35902Y50295D01*
X35935Y50318D01*
X35970Y50339D01*
X36007Y50356D01*
X36043Y50371D01*
X36080Y50384D01*
X36115Y50394D01*
X36150Y50402D01*
X36181Y50407D01*
X36211Y50412D01*
X36239Y50416D01*
X36263Y50419D01*
X36281D01*
X36296Y50421D01*
X36307D01*
X36357Y50419D01*
D02*
G37*
G36*
X34111Y122919D02*
X34151Y122916D01*
X34189Y122909D01*
X34226Y122901D01*
X34259Y122891D01*
X34291Y122879D01*
X34319Y122868D01*
X34345Y122856D01*
X34369Y122843D01*
X34390Y122831D01*
X34407Y122819D01*
X34422Y122809D01*
X34435Y122801D01*
X34443Y122794D01*
X34448Y122791D01*
X34450Y122790D01*
X34477Y122765D01*
X34501Y122736D01*
X34525Y122708D01*
X34545Y122678D01*
X34563Y122647D01*
X34578Y122617D01*
X34593Y122587D01*
X34604Y122559D01*
X34614Y122530D01*
X34622Y122506D01*
X34629Y122482D01*
X34636Y122462D01*
X34639Y122448D01*
X34642Y122434D01*
X34644Y122428D01*
Y122424D01*
X34408Y122383D01*
X34403Y122414D01*
X34397Y122444D01*
X34389Y122471D01*
X34380Y122496D01*
X34370Y122519D01*
X34360Y122540D01*
X34350Y122560D01*
X34340Y122577D01*
X34332Y122592D01*
X34322Y122605D01*
X34314Y122617D01*
X34307Y122625D01*
X34301Y122633D01*
X34295Y122638D01*
X34294Y122640D01*
X34292Y122642D01*
X34274Y122657D01*
X34256Y122670D01*
X34237Y122682D01*
X34218Y122692D01*
X34179Y122706D01*
X34144Y122718D01*
X34113Y122723D01*
X34100Y122725D01*
X34088Y122726D01*
X34078Y122728D01*
X34065D01*
X34040Y122726D01*
X34015Y122725D01*
X33972Y122715D01*
X33932Y122702D01*
X33900Y122685D01*
X33885Y122677D01*
X33874Y122668D01*
X33864Y122662D01*
X33856Y122655D01*
X33847Y122650D01*
X33842Y122645D01*
X33841Y122643D01*
X33839Y122642D01*
X33824Y122625D01*
X33809Y122608D01*
X33797Y122590D01*
X33788Y122574D01*
X33773Y122537D01*
X33763Y122504D01*
X33756Y122474D01*
X33754Y122461D01*
X33753Y122451D01*
X33751Y122441D01*
Y122434D01*
Y122431D01*
Y122429D01*
X33753Y122399D01*
X33756Y122371D01*
X33763Y122346D01*
X33769Y122321D01*
X33779Y122300D01*
X33789Y122280D01*
X33799Y122263D01*
X33811Y122247D01*
X33822Y122232D01*
X33832Y122220D01*
X33842Y122210D01*
X33852Y122202D01*
X33859Y122195D01*
X33866Y122190D01*
X33869Y122189D01*
X33871Y122187D01*
X33894Y122174D01*
X33917Y122162D01*
X33964Y122142D01*
X34008Y122129D01*
X34050Y122119D01*
X34068Y122116D01*
X34086Y122114D01*
X34101Y122110D01*
X34115D01*
X34124Y122109D01*
X34151D01*
X34164Y122110D01*
X34174Y122112D01*
X34178D01*
X34204Y121906D01*
X34168Y121915D01*
X34136Y121921D01*
X34108Y121925D01*
X34083Y121928D01*
X34065Y121930D01*
X34050Y121931D01*
X34038D01*
X34008Y121930D01*
X33980Y121926D01*
X33954Y121921D01*
X33927Y121915D01*
X33904Y121906D01*
X33882Y121898D01*
X33861Y121888D01*
X33842Y121880D01*
X33826Y121870D01*
X33811Y121860D01*
X33799Y121852D01*
X33788Y121843D01*
X33781Y121837D01*
X33774Y121832D01*
X33771Y121828D01*
X33769Y121827D01*
X33751Y121807D01*
X33734Y121785D01*
X33720Y121764D01*
X33708Y121740D01*
X33698Y121719D01*
X33690Y121695D01*
X33676Y121654D01*
X33671Y121634D01*
X33668Y121616D01*
X33666Y121601D01*
X33665Y121586D01*
X33663Y121574D01*
Y121566D01*
Y121561D01*
Y121559D01*
X33665Y121528D01*
X33668Y121498D01*
X33673Y121470D01*
X33681Y121443D01*
X33690Y121418D01*
X33700Y121395D01*
X33709Y121373D01*
X33720Y121354D01*
X33731Y121337D01*
X33741Y121320D01*
X33751Y121307D01*
X33759Y121295D01*
X33768Y121287D01*
X33773Y121281D01*
X33776Y121277D01*
X33778Y121276D01*
X33799Y121256D01*
X33822Y121237D01*
X33846Y121222D01*
X33869Y121209D01*
X33894Y121197D01*
X33917Y121189D01*
X33939Y121181D01*
X33960Y121176D01*
X33982Y121171D01*
X34000Y121168D01*
X34017Y121164D01*
X34030Y121163D01*
X34042Y121161D01*
X34058D01*
X34083Y121163D01*
X34108Y121164D01*
X34154Y121174D01*
X34194Y121189D01*
X34229Y121206D01*
X34244Y121212D01*
X34257Y121221D01*
X34269Y121229D01*
X34277Y121236D01*
X34286Y121241D01*
X34291Y121246D01*
X34294Y121247D01*
X34295Y121249D01*
X34312Y121267D01*
X34329Y121287D01*
X34344Y121309D01*
X34357Y121332D01*
X34380Y121379D01*
X34400Y121427D01*
X34407Y121448D01*
X34413Y121470D01*
X34420Y121488D01*
X34423Y121505D01*
X34427Y121520D01*
X34430Y121529D01*
X34432Y121536D01*
Y121538D01*
X34667Y121506D01*
X34661Y121463D01*
X34652Y121422D01*
X34641Y121382D01*
X34628Y121345D01*
X34613Y121310D01*
X34598Y121277D01*
X34581Y121249D01*
X34564Y121222D01*
X34548Y121197D01*
X34531Y121176D01*
X34518Y121159D01*
X34505Y121144D01*
X34493Y121131D01*
X34485Y121123D01*
X34480Y121118D01*
X34478Y121116D01*
X34447Y121090D01*
X34412Y121066D01*
X34378Y121046D01*
X34342Y121030D01*
X34307Y121015D01*
X34272Y121003D01*
X34239Y120993D01*
X34206Y120985D01*
X34176Y120980D01*
X34148Y120975D01*
X34123Y120972D01*
X34101Y120968D01*
X34085D01*
X34071Y120967D01*
X34060D01*
X34008Y120968D01*
X33960Y120975D01*
X33914Y120983D01*
X33871Y120993D01*
X33829Y121007D01*
X33791Y121022D01*
X33756Y121037D01*
X33724Y121053D01*
X33696Y121070D01*
X33671Y121085D01*
X33650Y121100D01*
X33632Y121113D01*
X33617Y121123D01*
X33607Y121133D01*
X33600Y121138D01*
X33598Y121139D01*
X33565Y121173D01*
X33537Y121207D01*
X33514Y121244D01*
X33492Y121279D01*
X33474Y121315D01*
X33459Y121350D01*
X33447Y121385D01*
X33437Y121417D01*
X33429Y121448D01*
X33424Y121476D01*
X33419Y121501D01*
X33417Y121523D01*
X33416Y121539D01*
X33414Y121553D01*
Y121561D01*
Y121564D01*
X33416Y121599D01*
X33417Y121631D01*
X33422Y121662D01*
X33429Y121691D01*
X33436Y121719D01*
X33444Y121744D01*
X33452Y121767D01*
X33461Y121789D01*
X33470Y121808D01*
X33479Y121825D01*
X33487Y121838D01*
X33494Y121852D01*
X33500Y121860D01*
X33505Y121868D01*
X33507Y121871D01*
X33509Y121873D01*
X33527Y121895D01*
X33547Y121915D01*
X33568Y121935D01*
X33590Y121951D01*
X33612Y121966D01*
X33633Y121979D01*
X33676Y122001D01*
X33696Y122009D01*
X33715Y122018D01*
X33731Y122023D01*
X33744Y122028D01*
X33756Y122031D01*
X33764Y122034D01*
X33771Y122036D01*
X33773D01*
X33728Y122061D01*
X33688Y122086D01*
X33653Y122114D01*
X33626Y122139D01*
X33605Y122162D01*
X33588Y122180D01*
X33583Y122187D01*
X33580Y122192D01*
X33577Y122195D01*
Y122197D01*
X33553Y122237D01*
X33537Y122275D01*
X33525Y122313D01*
X33517Y122348D01*
X33512Y122378D01*
X33510Y122391D01*
Y122403D01*
X33509Y122411D01*
Y122418D01*
Y122421D01*
Y122423D01*
Y122448D01*
X33512Y122471D01*
X33520Y122517D01*
X33532Y122559D01*
X33544Y122595D01*
X33550Y122612D01*
X33557Y122627D01*
X33564Y122638D01*
X33568Y122650D01*
X33573Y122658D01*
X33577Y122665D01*
X33578Y122668D01*
X33580Y122670D01*
X33608Y122712D01*
X33641Y122748D01*
X33675Y122780D01*
X33706Y122804D01*
X33736Y122826D01*
X33748Y122834D01*
X33759Y122841D01*
X33768Y122846D01*
X33774Y122849D01*
X33779Y122853D01*
X33781D01*
X33831Y122876D01*
X33880Y122892D01*
X33930Y122904D01*
X33975Y122912D01*
X33995Y122916D01*
X34013Y122917D01*
X34030Y122919D01*
X34043D01*
X34055Y122921D01*
X34070D01*
X34111Y122919D01*
D02*
G37*
G36*
X35863Y62710D02*
Y61900D01*
X35609D01*
Y62710D01*
X34845Y63814D01*
X35141D01*
X35511Y63250D01*
X35556Y63182D01*
X35596Y63118D01*
X35614Y63089D01*
X35631Y63060D01*
X35647Y63035D01*
X35662Y63011D01*
X35675Y62989D01*
X35687Y62969D01*
X35697Y62952D01*
X35705Y62939D01*
X35712Y62928D01*
X35717Y62919D01*
X35719Y62914D01*
X35720Y62913D01*
X35755Y62974D01*
X35788Y63032D01*
X35822Y63087D01*
X35836Y63112D01*
X35851Y63135D01*
X35865Y63157D01*
X35878Y63177D01*
X35888Y63195D01*
X35898Y63208D01*
X35906Y63220D01*
X35911Y63230D01*
X35914Y63235D01*
X35916Y63236D01*
X36293Y63814D01*
X36600D01*
X35863Y62710D01*
D02*
G37*
G36*
X33992Y63797D02*
X34007Y63774D01*
X34039Y63728D01*
X34073Y63684D01*
X34108Y63645D01*
X34125Y63628D01*
X34140Y63612D01*
X34153Y63598D01*
X34165Y63587D01*
X34176Y63577D01*
X34183Y63570D01*
X34188Y63565D01*
X34190Y63563D01*
X34246Y63517D01*
X34306Y63474D01*
X34364Y63436D01*
X34391Y63417D01*
X34417Y63402D01*
X34442Y63387D01*
X34464Y63376D01*
X34484Y63364D01*
X34500Y63356D01*
X34513Y63349D01*
X34525Y63344D01*
X34532Y63341D01*
X34533Y63339D01*
Y63112D01*
X34492Y63128D01*
X34449Y63148D01*
X34407Y63168D01*
X34369Y63188D01*
X34352Y63196D01*
X34336Y63206D01*
X34323Y63213D01*
X34311Y63220D01*
X34301Y63225D01*
X34294Y63230D01*
X34289Y63231D01*
X34288Y63233D01*
X34238Y63263D01*
X34195Y63293D01*
X34157Y63321D01*
X34123Y63344D01*
X34110Y63356D01*
X34098Y63366D01*
X34088Y63374D01*
X34078Y63382D01*
X34072Y63387D01*
X34067Y63392D01*
X34065Y63394D01*
X34064Y63396D01*
Y61900D01*
X33828D01*
Y63821D01*
X33981D01*
X33992Y63797D01*
D02*
G37*
G36*
X36500Y121808D02*
X36498Y121754D01*
X36497Y121701D01*
X36493Y121651D01*
X36488Y121606D01*
X36483Y121563D01*
X36477Y121523D01*
X36470Y121486D01*
X36463Y121455D01*
X36457Y121425D01*
X36450Y121400D01*
X36444Y121379D01*
X36439Y121360D01*
X36434Y121347D01*
X36430Y121337D01*
X36427Y121330D01*
Y121329D01*
X36412Y121297D01*
X36395Y121267D01*
X36377Y121239D01*
X36359Y121212D01*
X36339Y121188D01*
X36317Y121166D01*
X36298Y121146D01*
X36278Y121128D01*
X36259Y121113D01*
X36243Y121098D01*
X36226Y121086D01*
X36213Y121076D01*
X36201Y121070D01*
X36191Y121065D01*
X36186Y121061D01*
X36185Y121060D01*
X36151Y121043D01*
X36116Y121030D01*
X36080Y121018D01*
X36044Y121007D01*
X35971Y120990D01*
X35934Y120985D01*
X35901Y120980D01*
X35868Y120977D01*
X35839Y120973D01*
X35813Y120972D01*
X35789Y120970D01*
X35771Y120968D01*
X35745D01*
X35693Y120970D01*
X35645Y120973D01*
X35600Y120978D01*
X35557Y120985D01*
X35519Y120993D01*
X35481Y121002D01*
X35448Y121012D01*
X35418Y121022D01*
X35390Y121031D01*
X35366Y121042D01*
X35346Y121050D01*
X35330Y121058D01*
X35315Y121065D01*
X35307Y121070D01*
X35300Y121073D01*
X35298Y121075D01*
X35267Y121095D01*
X35238Y121118D01*
X35214Y121139D01*
X35189Y121163D01*
X35167Y121186D01*
X35149Y121209D01*
X35131Y121231D01*
X35116Y121252D01*
X35102Y121272D01*
X35092Y121291D01*
X35082Y121307D01*
X35076Y121322D01*
X35069Y121334D01*
X35066Y121344D01*
X35062Y121349D01*
Y121350D01*
X35051Y121384D01*
X35041Y121418D01*
X35024Y121493D01*
X35013Y121569D01*
X35008Y121608D01*
X35004Y121642D01*
X35001Y121677D01*
X34999Y121709D01*
X34998Y121737D01*
Y121760D01*
X34996Y121780D01*
Y121795D01*
Y121805D01*
Y121808D01*
Y122914D01*
X35250D01*
Y121810D01*
X35252Y121745D01*
X35255Y121686D01*
X35262Y121631D01*
X35268Y121583D01*
X35278Y121538D01*
X35288Y121498D01*
X35298Y121463D01*
X35310Y121432D01*
X35321Y121405D01*
X35331Y121384D01*
X35341Y121363D01*
X35351Y121349D01*
X35358Y121337D01*
X35365Y121330D01*
X35368Y121325D01*
X35370Y121324D01*
X35393Y121302D01*
X35421Y121282D01*
X35449Y121266D01*
X35481Y121251D01*
X35514Y121239D01*
X35547Y121229D01*
X35580Y121221D01*
X35612Y121214D01*
X35643Y121207D01*
X35672Y121204D01*
X35698Y121201D01*
X35721Y121199D01*
X35740D01*
X35755Y121197D01*
X35766D01*
X35824Y121201D01*
X35877Y121207D01*
X35902Y121212D01*
X35926Y121218D01*
X35946Y121222D01*
X35965Y121229D01*
X35982Y121236D01*
X35997Y121241D01*
X36010Y121246D01*
X36022Y121251D01*
X36030Y121256D01*
X36037Y121257D01*
X36040Y121261D01*
X36042D01*
X36082Y121287D01*
X36115Y121317D01*
X36141Y121347D01*
X36163Y121377D01*
X36181Y121403D01*
X36186Y121413D01*
X36193Y121423D01*
X36196Y121432D01*
X36200Y121438D01*
X36201Y121442D01*
Y121443D01*
X36209Y121467D01*
X36216Y121493D01*
X36221Y121521D01*
X36228Y121551D01*
X36234Y121611D01*
X36241Y121671D01*
X36243Y121699D01*
X36244Y121725D01*
Y121749D01*
X36246Y121769D01*
Y121787D01*
Y121799D01*
Y121807D01*
Y121810D01*
Y122914D01*
X36500D01*
Y121808D01*
D02*
G37*
G36*
X35851Y125779D02*
X35815Y125724D01*
X35776Y125674D01*
X35742Y125631D01*
X35725Y125613D01*
X35710Y125594D01*
X35695Y125578D01*
X35682Y125565D01*
X35670Y125553D01*
X35660Y125543D01*
X35654Y125535D01*
X35647Y125530D01*
X35644Y125526D01*
X35642Y125525D01*
X35620Y125506D01*
X35597Y125490D01*
X35571Y125473D01*
X35546Y125458D01*
X35524Y125447D01*
X35506Y125437D01*
X35499Y125434D01*
X35494Y125430D01*
X35491Y125428D01*
X35489D01*
X35539Y125420D01*
X35586Y125410D01*
X35629Y125399D01*
X35669Y125385D01*
X35705Y125372D01*
X35740Y125357D01*
X35770Y125342D01*
X35796Y125327D01*
X35820Y125312D01*
X35840Y125299D01*
X35858Y125286D01*
X35871Y125274D01*
X35883Y125266D01*
X35889Y125259D01*
X35894Y125254D01*
X35896Y125252D01*
X35919Y125226D01*
X35939Y125198D01*
X35958Y125168D01*
X35972Y125140D01*
X35986Y125110D01*
X35997Y125082D01*
X36006Y125053D01*
X36012Y125028D01*
X36017Y125004D01*
X36022Y124980D01*
X36026Y124960D01*
X36027Y124942D01*
X36029Y124929D01*
Y124917D01*
Y124911D01*
Y124909D01*
X36027Y124879D01*
X36026Y124851D01*
X36017Y124798D01*
X36004Y124748D01*
X35997Y124726D01*
X35989Y124706D01*
X35982Y124688D01*
X35974Y124671D01*
X35967Y124657D01*
X35963Y124645D01*
X35956Y124635D01*
X35952Y124628D01*
X35951Y124623D01*
X35949Y124622D01*
X35934Y124599D01*
X35918Y124577D01*
X35899Y124555D01*
X35883Y124537D01*
X35864Y124521D01*
X35846Y124505D01*
X35813Y124481D01*
X35783Y124462D01*
X35770Y124456D01*
X35758Y124449D01*
X35750Y124444D01*
X35743Y124441D01*
X35738Y124439D01*
X35737D01*
X35710Y124429D01*
X35682Y124421D01*
X35652Y124414D01*
X35620Y124408D01*
X35556Y124399D01*
X35493Y124393D01*
X35463Y124391D01*
X35436Y124389D01*
X35411Y124388D01*
X35390Y124386D01*
X34500D01*
Y126300D01*
X34754D01*
Y125450D01*
X35081D01*
X35109Y125452D01*
X35134Y125453D01*
X35154Y125455D01*
X35169Y125457D01*
X35179Y125458D01*
X35186Y125460D01*
X35187D01*
X35209Y125467D01*
X35230Y125475D01*
X35249Y125483D01*
X35267Y125492D01*
X35280Y125500D01*
X35292Y125505D01*
X35300Y125510D01*
X35302Y125512D01*
X35323Y125526D01*
X35347Y125546D01*
X35368Y125568D01*
X35388Y125588D01*
X35406Y125608D01*
X35420Y125624D01*
X35425Y125631D01*
X35428Y125636D01*
X35431Y125638D01*
Y125639D01*
X35445Y125658D01*
X35460Y125678D01*
X35489Y125719D01*
X35521Y125762D01*
X35549Y125805D01*
X35562Y125824D01*
X35576Y125842D01*
X35586Y125858D01*
X35596Y125873D01*
X35604Y125885D01*
X35609Y125893D01*
X35612Y125900D01*
X35614Y125902D01*
X35866Y126300D01*
X36183D01*
X35851Y125779D01*
D02*
G37*
G36*
X40645Y123945D02*
X40692Y123942D01*
X40735Y123937D01*
X40778Y123929D01*
X40818Y123921D01*
X40856Y123911D01*
X40892Y123901D01*
X40924Y123889D01*
X40955Y123879D01*
X40982Y123867D01*
X41005Y123857D01*
X41025Y123849D01*
X41040Y123841D01*
X41052Y123836D01*
X41060Y123833D01*
X41062Y123831D01*
X41100Y123808D01*
X41137Y123783D01*
X41170Y123756D01*
X41201Y123730D01*
X41231Y123702D01*
X41258Y123673D01*
X41281Y123645D01*
X41304Y123618D01*
X41322Y123592D01*
X41339Y123569D01*
X41354Y123547D01*
X41366Y123529D01*
X41375Y123514D01*
X41382Y123502D01*
X41385Y123496D01*
X41387Y123492D01*
X41407Y123449D01*
X41424Y123406D01*
X41439Y123361D01*
X41452Y123316D01*
X41464Y123273D01*
X41472Y123230D01*
X41480Y123189D01*
X41485Y123149D01*
X41490Y123110D01*
X41493Y123077D01*
X41497Y123047D01*
X41498Y123021D01*
X41500Y123001D01*
Y122984D01*
Y122974D01*
Y122973D01*
Y122971D01*
X41498Y122920D01*
X41495Y122870D01*
X41490Y122822D01*
X41485Y122775D01*
X41477Y122730D01*
X41469Y122689D01*
X41460Y122649D01*
X41450Y122613D01*
X41440Y122578D01*
X41432Y122548D01*
X41424Y122521D01*
X41415Y122500D01*
X41410Y122481D01*
X41405Y122470D01*
X41402Y122461D01*
X41400Y122458D01*
X41381Y122415D01*
X41359Y122373D01*
X41336Y122335D01*
X41311Y122301D01*
X41287Y122267D01*
X41263Y122237D01*
X41238Y122211D01*
X41214Y122186D01*
X41193Y122164D01*
X41171Y122146D01*
X41153Y122129D01*
X41137Y122116D01*
X41123Y122106D01*
X41113Y122100D01*
X41107Y122095D01*
X41105Y122093D01*
X41067Y122071D01*
X41027Y122052D01*
X40987Y122035D01*
X40944Y122022D01*
X40902Y122008D01*
X40861Y121998D01*
X40819Y121990D01*
X40781Y121983D01*
X40743Y121978D01*
X40710Y121975D01*
X40680Y121972D01*
X40653Y121970D01*
X40632D01*
X40615Y121968D01*
X40602D01*
X40547Y121970D01*
X40494Y121975D01*
X40444Y121983D01*
X40396Y121993D01*
X40351Y122007D01*
X40310Y122020D01*
X40272Y122035D01*
X40237Y122050D01*
X40205Y122065D01*
X40177Y122080D01*
X40152Y122093D01*
X40132Y122106D01*
X40117Y122116D01*
X40106Y122125D01*
X40097Y122129D01*
X40096Y122131D01*
X40058Y122164D01*
X40024Y122199D01*
X39993Y122236D01*
X39963Y122276D01*
X39936Y122314D01*
X39913Y122354D01*
X39893Y122393D01*
X39875Y122432D01*
X39858Y122467D01*
X39845Y122500D01*
X39833Y122529D01*
X39823Y122556D01*
X39817Y122578D01*
X39812Y122594D01*
X39810Y122599D01*
Y122604D01*
X39808Y122606D01*
Y122608D01*
X40062Y122671D01*
X40074Y122627D01*
X40086Y122586D01*
X40101Y122548D01*
X40116Y122513D01*
X40132Y122480D01*
X40149Y122450D01*
X40165Y122423D01*
X40182Y122398D01*
X40199Y122377D01*
X40214Y122359D01*
X40227Y122344D01*
X40240Y122330D01*
X40250Y122320D01*
X40257Y122312D01*
X40262Y122309D01*
X40263Y122307D01*
X40292Y122285D01*
X40321Y122267D01*
X40351Y122251D01*
X40381Y122237D01*
X40413Y122226D01*
X40443Y122216D01*
X40471Y122207D01*
X40499Y122201D01*
X40524Y122196D01*
X40549Y122193D01*
X40570Y122189D01*
X40589Y122188D01*
X40604D01*
X40614Y122186D01*
X40624D01*
X40655Y122188D01*
X40688Y122189D01*
X40748Y122199D01*
X40776Y122207D01*
X40803Y122214D01*
X40828Y122222D01*
X40851Y122231D01*
X40872Y122239D01*
X40892Y122247D01*
X40909Y122256D01*
X40922Y122262D01*
X40934Y122267D01*
X40942Y122272D01*
X40947Y122274D01*
X40949Y122276D01*
X40975Y122294D01*
X41002Y122314D01*
X41025Y122334D01*
X41047Y122355D01*
X41067Y122379D01*
X41085Y122400D01*
X41100Y122423D01*
X41115Y122445D01*
X41128Y122465D01*
X41140Y122485D01*
X41148Y122501D01*
X41156Y122516D01*
X41161Y122529D01*
X41166Y122538D01*
X41168Y122545D01*
X41170Y122546D01*
X41193Y122617D01*
X41210Y122691D01*
X41223Y122762D01*
X41226Y122795D01*
X41231Y122828D01*
X41233Y122858D01*
X41236Y122886D01*
X41238Y122911D01*
Y122931D01*
X41239Y122950D01*
Y122963D01*
Y122969D01*
Y122973D01*
X41236Y123043D01*
X41229Y123110D01*
X41226Y123142D01*
X41221Y123172D01*
X41214Y123200D01*
X41210Y123227D01*
X41205Y123252D01*
X41198Y123273D01*
X41193Y123293D01*
X41190Y123310D01*
X41185Y123321D01*
X41183Y123331D01*
X41180Y123338D01*
Y123340D01*
X41168Y123373D01*
X41153Y123403D01*
X41138Y123433D01*
X41122Y123459D01*
X41105Y123484D01*
X41088Y123507D01*
X41070Y123529D01*
X41054Y123549D01*
X41037Y123565D01*
X41022Y123580D01*
X41009Y123594D01*
X40995Y123604D01*
X40985Y123612D01*
X40979Y123618D01*
X40974Y123622D01*
X40972Y123624D01*
X40944Y123642D01*
X40914Y123658D01*
X40883Y123673D01*
X40853Y123685D01*
X40821Y123695D01*
X40791Y123703D01*
X40761Y123712D01*
X40733Y123716D01*
X40707Y123721D01*
X40682Y123725D01*
X40660Y123726D01*
X40640Y123728D01*
X40625Y123730D01*
X40604D01*
X40569Y123728D01*
X40534Y123726D01*
X40502Y123721D01*
X40472Y123715D01*
X40444Y123708D01*
X40418Y123700D01*
X40394Y123690D01*
X40371Y123682D01*
X40353Y123673D01*
X40335Y123663D01*
X40320Y123655D01*
X40308Y123648D01*
X40298Y123642D01*
X40290Y123638D01*
X40286Y123635D01*
X40285Y123633D01*
X40262Y123615D01*
X40240Y123594D01*
X40220Y123570D01*
X40202Y123546D01*
X40169Y123496D01*
X40141Y123446D01*
X40129Y123423D01*
X40119Y123401D01*
X40111Y123381D01*
X40104Y123364D01*
X40097Y123350D01*
X40094Y123340D01*
X40091Y123331D01*
Y123330D01*
X39842Y123388D01*
X39858Y123436D01*
X39876Y123482D01*
X39896Y123524D01*
X39918Y123564D01*
X39940Y123600D01*
X39963Y123635D01*
X39986Y123665D01*
X40008Y123693D01*
X40029Y123718D01*
X40049Y123740D01*
X40067Y123758D01*
X40084Y123773D01*
X40097Y123784D01*
X40107Y123793D01*
X40114Y123798D01*
X40116Y123799D01*
X40154Y123826D01*
X40192Y123848D01*
X40233Y123867D01*
X40273Y123884D01*
X40315Y123899D01*
X40355Y123911D01*
X40393Y123921D01*
X40431Y123929D01*
X40466Y123936D01*
X40497Y123939D01*
X40526Y123942D01*
X40551Y123945D01*
X40570D01*
X40585Y123947D01*
X40599D01*
X40645Y123945D01*
D02*
G37*
G36*
X39033Y123919D02*
X39073Y123916D01*
X39111Y123909D01*
X39148Y123901D01*
X39181Y123891D01*
X39213Y123879D01*
X39241Y123867D01*
X39267Y123856D01*
X39290Y123843D01*
X39312Y123831D01*
X39329Y123819D01*
X39344Y123809D01*
X39357Y123801D01*
X39365Y123794D01*
X39370Y123791D01*
X39372Y123790D01*
X39398Y123765D01*
X39423Y123736D01*
X39447Y123708D01*
X39467Y123678D01*
X39485Y123647D01*
X39500Y123617D01*
X39515Y123587D01*
X39526Y123559D01*
X39536Y123530D01*
X39544Y123506D01*
X39551Y123482D01*
X39558Y123462D01*
X39561Y123448D01*
X39564Y123434D01*
X39566Y123428D01*
Y123424D01*
X39330Y123383D01*
X39325Y123414D01*
X39319Y123444D01*
X39311Y123471D01*
X39302Y123496D01*
X39292Y123519D01*
X39282Y123540D01*
X39272Y123560D01*
X39262Y123577D01*
X39254Y123592D01*
X39244Y123605D01*
X39236Y123617D01*
X39229Y123625D01*
X39222Y123633D01*
X39217Y123638D01*
X39216Y123640D01*
X39214Y123642D01*
X39196Y123657D01*
X39178Y123670D01*
X39159Y123682D01*
X39140Y123691D01*
X39101Y123706D01*
X39066Y123718D01*
X39035Y123723D01*
X39022Y123725D01*
X39010Y123726D01*
X39000Y123728D01*
X38987D01*
X38962Y123726D01*
X38937Y123725D01*
X38894Y123715D01*
X38854Y123702D01*
X38822Y123685D01*
X38807Y123677D01*
X38796Y123668D01*
X38786Y123662D01*
X38778Y123655D01*
X38769Y123650D01*
X38764Y123645D01*
X38763Y123643D01*
X38761Y123642D01*
X38746Y123625D01*
X38731Y123609D01*
X38719Y123590D01*
X38710Y123574D01*
X38695Y123537D01*
X38685Y123504D01*
X38678Y123474D01*
X38676Y123461D01*
X38675Y123451D01*
X38673Y123441D01*
Y123434D01*
Y123431D01*
Y123429D01*
X38675Y123399D01*
X38678Y123371D01*
X38685Y123346D01*
X38691Y123321D01*
X38701Y123300D01*
X38711Y123280D01*
X38721Y123263D01*
X38733Y123247D01*
X38744Y123232D01*
X38754Y123220D01*
X38764Y123210D01*
X38774Y123202D01*
X38781Y123195D01*
X38788Y123190D01*
X38791Y123189D01*
X38792Y123187D01*
X38816Y123174D01*
X38839Y123162D01*
X38886Y123142D01*
X38930Y123129D01*
X38972Y123119D01*
X38990Y123116D01*
X39008Y123114D01*
X39023Y123110D01*
X39037D01*
X39046Y123109D01*
X39073D01*
X39086Y123110D01*
X39096Y123112D01*
X39100D01*
X39126Y122906D01*
X39090Y122915D01*
X39058Y122921D01*
X39030Y122925D01*
X39005Y122928D01*
X38987Y122930D01*
X38972Y122931D01*
X38960D01*
X38930Y122930D01*
X38902Y122926D01*
X38875Y122921D01*
X38849Y122915D01*
X38826Y122906D01*
X38804Y122898D01*
X38783Y122888D01*
X38764Y122880D01*
X38748Y122870D01*
X38733Y122860D01*
X38721Y122852D01*
X38710Y122843D01*
X38703Y122837D01*
X38696Y122832D01*
X38693Y122828D01*
X38691Y122827D01*
X38673Y122807D01*
X38656Y122785D01*
X38642Y122764D01*
X38630Y122740D01*
X38620Y122719D01*
X38612Y122696D01*
X38598Y122654D01*
X38593Y122634D01*
X38590Y122616D01*
X38588Y122601D01*
X38587Y122586D01*
X38585Y122574D01*
Y122566D01*
Y122561D01*
Y122559D01*
X38587Y122528D01*
X38590Y122498D01*
X38595Y122470D01*
X38603Y122443D01*
X38612Y122418D01*
X38622Y122395D01*
X38631Y122373D01*
X38642Y122354D01*
X38653Y122337D01*
X38663Y122320D01*
X38673Y122307D01*
X38681Y122295D01*
X38690Y122287D01*
X38695Y122281D01*
X38698Y122277D01*
X38700Y122276D01*
X38721Y122256D01*
X38744Y122237D01*
X38768Y122222D01*
X38791Y122209D01*
X38816Y122197D01*
X38839Y122189D01*
X38861Y122181D01*
X38882Y122176D01*
X38904Y122171D01*
X38922Y122168D01*
X38939Y122164D01*
X38952Y122163D01*
X38963Y122161D01*
X38980D01*
X39005Y122163D01*
X39030Y122164D01*
X39076Y122174D01*
X39116Y122189D01*
X39151Y122206D01*
X39166Y122213D01*
X39179Y122221D01*
X39191Y122229D01*
X39199Y122236D01*
X39208Y122241D01*
X39213Y122246D01*
X39216Y122247D01*
X39217Y122249D01*
X39234Y122267D01*
X39251Y122287D01*
X39266Y122309D01*
X39279Y122332D01*
X39302Y122379D01*
X39322Y122427D01*
X39329Y122448D01*
X39335Y122470D01*
X39342Y122488D01*
X39345Y122505D01*
X39349Y122520D01*
X39352Y122529D01*
X39354Y122536D01*
Y122538D01*
X39589Y122506D01*
X39583Y122463D01*
X39574Y122422D01*
X39563Y122382D01*
X39549Y122345D01*
X39535Y122310D01*
X39520Y122277D01*
X39503Y122249D01*
X39486Y122222D01*
X39470Y122197D01*
X39453Y122176D01*
X39440Y122159D01*
X39427Y122144D01*
X39415Y122131D01*
X39407Y122123D01*
X39402Y122118D01*
X39400Y122116D01*
X39369Y122090D01*
X39334Y122066D01*
X39301Y122046D01*
X39264Y122030D01*
X39229Y122015D01*
X39194Y122003D01*
X39161Y121993D01*
X39128Y121985D01*
X39098Y121980D01*
X39070Y121975D01*
X39045Y121972D01*
X39023Y121968D01*
X39007D01*
X38993Y121967D01*
X38982D01*
X38930Y121968D01*
X38882Y121975D01*
X38836Y121983D01*
X38792Y121993D01*
X38751Y122007D01*
X38713Y122022D01*
X38678Y122037D01*
X38647Y122053D01*
X38618Y122070D01*
X38593Y122085D01*
X38572Y122100D01*
X38554Y122113D01*
X38539Y122123D01*
X38529Y122133D01*
X38522Y122138D01*
X38520Y122139D01*
X38487Y122173D01*
X38459Y122207D01*
X38436Y122244D01*
X38414Y122279D01*
X38396Y122315D01*
X38381Y122350D01*
X38369Y122385D01*
X38359Y122417D01*
X38351Y122448D01*
X38346Y122476D01*
X38341Y122501D01*
X38339Y122523D01*
X38338Y122539D01*
X38336Y122553D01*
Y122561D01*
Y122564D01*
X38338Y122599D01*
X38339Y122631D01*
X38344Y122662D01*
X38351Y122691D01*
X38358Y122719D01*
X38366Y122744D01*
X38374Y122767D01*
X38383Y122789D01*
X38392Y122808D01*
X38401Y122825D01*
X38409Y122838D01*
X38416Y122852D01*
X38422Y122860D01*
X38427Y122868D01*
X38429Y122871D01*
X38431Y122873D01*
X38449Y122895D01*
X38469Y122915D01*
X38490Y122935D01*
X38512Y122951D01*
X38534Y122966D01*
X38555Y122979D01*
X38598Y123001D01*
X38618Y123009D01*
X38636Y123018D01*
X38653Y123023D01*
X38666Y123028D01*
X38678Y123031D01*
X38686Y123034D01*
X38693Y123036D01*
X38695D01*
X38650Y123061D01*
X38610Y123086D01*
X38575Y123114D01*
X38548Y123139D01*
X38527Y123162D01*
X38510Y123180D01*
X38505Y123187D01*
X38502Y123192D01*
X38499Y123195D01*
Y123197D01*
X38475Y123237D01*
X38459Y123275D01*
X38447Y123313D01*
X38439Y123348D01*
X38434Y123378D01*
X38432Y123391D01*
Y123403D01*
X38431Y123411D01*
Y123418D01*
Y123421D01*
Y123423D01*
Y123448D01*
X38434Y123471D01*
X38442Y123517D01*
X38454Y123559D01*
X38465Y123595D01*
X38472Y123612D01*
X38479Y123627D01*
X38485Y123638D01*
X38490Y123650D01*
X38495Y123658D01*
X38499Y123665D01*
X38500Y123668D01*
X38502Y123670D01*
X38530Y123712D01*
X38563Y123748D01*
X38597Y123779D01*
X38628Y123804D01*
X38658Y123826D01*
X38670Y123834D01*
X38681Y123841D01*
X38690Y123846D01*
X38696Y123849D01*
X38701Y123853D01*
X38703D01*
X38753Y123876D01*
X38802Y123892D01*
X38852Y123904D01*
X38897Y123912D01*
X38917Y123916D01*
X38935Y123917D01*
X38952Y123919D01*
X38965D01*
X38977Y123921D01*
X38992D01*
X39033Y123919D01*
D02*
G37*
G36*
X39400Y10400D02*
X39146D01*
Y11250D01*
X38819D01*
X38791Y11248D01*
X38766Y11247D01*
X38746Y11245D01*
X38731Y11243D01*
X38721Y11242D01*
X38714Y11240D01*
X38713D01*
X38691Y11233D01*
X38670Y11225D01*
X38651Y11217D01*
X38633Y11208D01*
X38620Y11200D01*
X38608Y11195D01*
X38600Y11190D01*
X38598Y11188D01*
X38577Y11174D01*
X38553Y11154D01*
X38532Y11132D01*
X38512Y11112D01*
X38494Y11092D01*
X38480Y11076D01*
X38475Y11069D01*
X38472Y11064D01*
X38469Y11062D01*
Y11061D01*
X38456Y11042D01*
X38440Y11022D01*
X38411Y10981D01*
X38379Y10938D01*
X38351Y10895D01*
X38338Y10876D01*
X38324Y10858D01*
X38314Y10842D01*
X38304Y10827D01*
X38296Y10815D01*
X38291Y10807D01*
X38288Y10800D01*
X38286Y10798D01*
X38034Y10400D01*
X37717D01*
X38049Y10921D01*
X38085Y10976D01*
X38124Y11026D01*
X38158Y11069D01*
X38175Y11087D01*
X38190Y11106D01*
X38205Y11122D01*
X38218Y11135D01*
X38230Y11147D01*
X38240Y11157D01*
X38246Y11165D01*
X38253Y11170D01*
X38256Y11174D01*
X38258Y11175D01*
X38280Y11193D01*
X38303Y11210D01*
X38329Y11227D01*
X38354Y11242D01*
X38376Y11253D01*
X38394Y11263D01*
X38401Y11266D01*
X38406Y11270D01*
X38409Y11271D01*
X38411D01*
X38361Y11280D01*
X38314Y11290D01*
X38271Y11301D01*
X38231Y11315D01*
X38195Y11328D01*
X38160Y11343D01*
X38130Y11358D01*
X38104Y11373D01*
X38080Y11388D01*
X38060Y11401D01*
X38042Y11414D01*
X38029Y11426D01*
X38017Y11434D01*
X38011Y11441D01*
X38006Y11446D01*
X38004Y11447D01*
X37981Y11474D01*
X37961Y11502D01*
X37942Y11532D01*
X37928Y11560D01*
X37914Y11590D01*
X37903Y11618D01*
X37894Y11647D01*
X37888Y11672D01*
X37883Y11697D01*
X37878Y11720D01*
X37874Y11740D01*
X37873Y11758D01*
X37871Y11771D01*
Y11783D01*
Y11789D01*
Y11791D01*
X37873Y11821D01*
X37874Y11849D01*
X37883Y11902D01*
X37896Y11952D01*
X37903Y11974D01*
X37911Y11994D01*
X37918Y12012D01*
X37926Y12028D01*
X37933Y12043D01*
X37938Y12055D01*
X37944Y12065D01*
X37947Y12072D01*
X37949Y12077D01*
X37951Y12078D01*
X37966Y12101D01*
X37982Y12123D01*
X38001Y12145D01*
X38017Y12163D01*
X38036Y12179D01*
X38054Y12195D01*
X38087Y12219D01*
X38117Y12238D01*
X38130Y12244D01*
X38142Y12251D01*
X38150Y12256D01*
X38157Y12259D01*
X38162Y12261D01*
X38163D01*
X38190Y12271D01*
X38218Y12279D01*
X38248Y12286D01*
X38280Y12292D01*
X38344Y12301D01*
X38407Y12307D01*
X38437Y12309D01*
X38464Y12311D01*
X38489Y12312D01*
X38510Y12314D01*
X39400D01*
Y10400D01*
D02*
G37*
G36*
X61471Y32584D02*
X61519Y32579D01*
X61564Y32571D01*
X61607Y32559D01*
X61647Y32548D01*
X61683Y32533D01*
X61716Y32518D01*
X61746Y32503D01*
X61774Y32488D01*
X61798Y32473D01*
X61819Y32458D01*
X61836Y32447D01*
X61849Y32435D01*
X61859Y32427D01*
X61866Y32422D01*
X61867Y32420D01*
X61899Y32388D01*
X61926Y32355D01*
X61949Y32322D01*
X61969Y32287D01*
X61985Y32254D01*
X61998Y32221D01*
X62010Y32188D01*
X62020Y32158D01*
X62027Y32129D01*
X62032Y32103D01*
X62037Y32080D01*
X62038Y32060D01*
X62040Y32043D01*
X62042Y32030D01*
Y32023D01*
Y32020D01*
X62038Y31970D01*
X62032Y31924D01*
X62022Y31879D01*
X62010Y31841D01*
X62003Y31824D01*
X61998Y31809D01*
X61993Y31796D01*
X61989Y31784D01*
X61985Y31774D01*
X61982Y31768D01*
X61979Y31764D01*
Y31763D01*
X61952Y31718D01*
X61922Y31678D01*
X61891Y31643D01*
X61859Y31613D01*
X61831Y31588D01*
X61818Y31578D01*
X61808Y31570D01*
X61798Y31563D01*
X61791Y31558D01*
X61788Y31557D01*
X61786Y31555D01*
X61839Y31557D01*
X61887Y31558D01*
X61934Y31562D01*
X61977Y31567D01*
X62015Y31572D01*
X62052Y31577D01*
X62085Y31582D01*
X62115Y31588D01*
X62141Y31593D01*
X62163Y31600D01*
X62183Y31605D01*
X62199Y31610D01*
X62211Y31615D01*
X62221Y31617D01*
X62226Y31620D01*
X62228D01*
X62256Y31633D01*
X62282Y31646D01*
X62307Y31660D01*
X62331Y31675D01*
X62352Y31690D01*
X62372Y31705D01*
X62389Y31718D01*
X62405Y31733D01*
X62419Y31746D01*
X62432Y31758D01*
X62442Y31768D01*
X62450Y31778D01*
X62457Y31786D01*
X62462Y31791D01*
X62463Y31794D01*
X62465Y31796D01*
X62487Y31829D01*
X62502Y31862D01*
X62513Y31895D01*
X62520Y31927D01*
X62525Y31953D01*
X62526Y31965D01*
Y31975D01*
X62528Y31982D01*
Y31988D01*
Y31992D01*
Y31993D01*
X62526Y32018D01*
X62523Y32043D01*
X62518Y32066D01*
X62513Y32090D01*
X62497Y32129D01*
X62478Y32164D01*
X62468Y32178D01*
X62458Y32191D01*
X62450Y32203D01*
X62443Y32212D01*
X62437Y32219D01*
X62432Y32224D01*
X62428Y32227D01*
X62427Y32229D01*
X62414Y32239D01*
X62400Y32249D01*
X62369Y32267D01*
X62335Y32282D01*
X62302Y32295D01*
X62272Y32305D01*
X62259Y32310D01*
X62249Y32314D01*
X62239Y32315D01*
X62233Y32317D01*
X62228Y32319D01*
X62226D01*
X62244Y32553D01*
X62284Y32546D01*
X62324Y32536D01*
X62359Y32526D01*
X62392Y32513D01*
X62423Y32500D01*
X62452Y32485D01*
X62478Y32470D01*
X62502Y32455D01*
X62523Y32440D01*
X62541Y32427D01*
X62556Y32413D01*
X62570Y32402D01*
X62580Y32392D01*
X62588Y32385D01*
X62591Y32380D01*
X62593Y32378D01*
X62616Y32350D01*
X62634Y32320D01*
X62653Y32291D01*
X62668Y32259D01*
X62679Y32229D01*
X62689Y32197D01*
X62697Y32168D01*
X62704Y32139D01*
X62711Y32113D01*
X62714Y32088D01*
X62717Y32065D01*
X62719Y32046D01*
X62721Y32030D01*
Y32018D01*
Y32012D01*
Y32008D01*
X62719Y31953D01*
X62711Y31900D01*
X62701Y31851D01*
X62686Y31804D01*
X62669Y31761D01*
X62651Y31723D01*
X62631Y31686D01*
X62611Y31653D01*
X62591Y31623D01*
X62571Y31598D01*
X62553Y31577D01*
X62536Y31558D01*
X62521Y31543D01*
X62511Y31534D01*
X62505Y31527D01*
X62502Y31525D01*
X62477Y31507D01*
X62452Y31489D01*
X62395Y31457D01*
X62334Y31431D01*
X62269Y31407D01*
X62203Y31387D01*
X62135Y31371D01*
X62068Y31357D01*
X62003Y31346D01*
X61942Y31338D01*
X61884Y31333D01*
X61856Y31329D01*
X61831Y31328D01*
X61808Y31326D01*
X61786Y31324D01*
X61766Y31323D01*
X61733D01*
X61720Y31321D01*
X61695D01*
X61605Y31323D01*
X61522Y31329D01*
X61446Y31338D01*
X61374Y31349D01*
X61311Y31364D01*
X61253Y31379D01*
X61200Y31396D01*
X61154Y31414D01*
X61114Y31431D01*
X61079Y31447D01*
X61049Y31462D01*
X61026Y31477D01*
X61007Y31489D01*
X60994Y31497D01*
X60988Y31504D01*
X60984Y31505D01*
X60946Y31542D01*
X60913Y31580D01*
X60885Y31618D01*
X60860Y31658D01*
X60838Y31699D01*
X60822Y31739D01*
X60807Y31778D01*
X60795Y31816D01*
X60787Y31851D01*
X60780Y31882D01*
X60775Y31912D01*
X60772Y31937D01*
X60770Y31957D01*
X60769Y31972D01*
Y31982D01*
Y31985D01*
X60770Y32017D01*
X60772Y32048D01*
X60782Y32106D01*
X60787Y32133D01*
X60795Y32159D01*
X60802Y32183D01*
X60810Y32204D01*
X60817Y32224D01*
X60825Y32242D01*
X60831Y32257D01*
X60836Y32271D01*
X60843Y32280D01*
X60847Y32287D01*
X60848Y32292D01*
X60850Y32294D01*
X60866Y32319D01*
X60885Y32342D01*
X60921Y32385D01*
X60961Y32422D01*
X60999Y32452D01*
X61034Y32476D01*
X61049Y32486D01*
X61062Y32493D01*
X61072Y32500D01*
X61080Y32505D01*
X61085Y32506D01*
X61087Y32508D01*
X61117Y32521D01*
X61145Y32535D01*
X61205Y32553D01*
X61260Y32568D01*
X61286Y32573D01*
X61311Y32576D01*
X61335Y32579D01*
X61356Y32583D01*
X61374Y32584D01*
X61391D01*
X61403Y32586D01*
X61421D01*
X61471Y32584D01*
D02*
G37*
G36*
X62714Y30750D02*
X61610D01*
X61545Y30748D01*
X61486Y30745D01*
X61431Y30738D01*
X61383Y30732D01*
X61338Y30722D01*
X61298Y30712D01*
X61263Y30702D01*
X61232Y30690D01*
X61205Y30679D01*
X61184Y30669D01*
X61164Y30659D01*
X61149Y30649D01*
X61137Y30642D01*
X61130Y30635D01*
X61125Y30632D01*
X61124Y30630D01*
X61102Y30607D01*
X61082Y30579D01*
X61066Y30551D01*
X61051Y30519D01*
X61039Y30486D01*
X61029Y30453D01*
X61021Y30420D01*
X61014Y30388D01*
X61007Y30357D01*
X61004Y30328D01*
X61001Y30302D01*
X60999Y30279D01*
Y30260D01*
X60997Y30245D01*
Y30237D01*
Y30234D01*
X61001Y30176D01*
X61007Y30123D01*
X61013Y30098D01*
X61018Y30074D01*
X61022Y30054D01*
X61029Y30035D01*
X61036Y30018D01*
X61041Y30003D01*
X61046Y29990D01*
X61051Y29978D01*
X61056Y29970D01*
X61057Y29963D01*
X61061Y29960D01*
Y29958D01*
X61087Y29918D01*
X61117Y29885D01*
X61147Y29859D01*
X61177Y29837D01*
X61203Y29819D01*
X61213Y29814D01*
X61223Y29807D01*
X61232Y29804D01*
X61238Y29801D01*
X61242Y29799D01*
X61243D01*
X61266Y29790D01*
X61293Y29784D01*
X61321Y29779D01*
X61351Y29772D01*
X61411Y29766D01*
X61471Y29759D01*
X61499Y29757D01*
X61525Y29756D01*
X61549D01*
X61569Y29754D01*
X62714D01*
Y29500D01*
X61608D01*
X61554Y29502D01*
X61501Y29503D01*
X61451Y29507D01*
X61406Y29512D01*
X61363Y29517D01*
X61323Y29523D01*
X61286Y29530D01*
X61255Y29537D01*
X61225Y29543D01*
X61200Y29550D01*
X61178Y29556D01*
X61160Y29561D01*
X61147Y29566D01*
X61137Y29570D01*
X61130Y29573D01*
X61129D01*
X61097Y29588D01*
X61067Y29605D01*
X61039Y29623D01*
X61013Y29641D01*
X60988Y29661D01*
X60966Y29683D01*
X60946Y29702D01*
X60928Y29722D01*
X60913Y29741D01*
X60898Y29757D01*
X60886Y29774D01*
X60876Y29787D01*
X60870Y29799D01*
X60865Y29809D01*
X60861Y29814D01*
X60860Y29815D01*
X60843Y29849D01*
X60830Y29884D01*
X60818Y29920D01*
X60807Y29956D01*
X60790Y30029D01*
X60785Y30066D01*
X60780Y30099D01*
X60777Y30132D01*
X60773Y30161D01*
X60772Y30187D01*
X60770Y30211D01*
X60769Y30229D01*
Y30244D01*
Y30252D01*
Y30255D01*
X60770Y30307D01*
X60773Y30355D01*
X60778Y30400D01*
X60785Y30443D01*
X60793Y30481D01*
X60802Y30519D01*
X60812Y30552D01*
X60822Y30582D01*
X60831Y30610D01*
X60842Y30634D01*
X60850Y30654D01*
X60858Y30670D01*
X60865Y30685D01*
X60870Y30694D01*
X60873Y30700D01*
X60875Y30702D01*
X60895Y30733D01*
X60918Y30762D01*
X60939Y30786D01*
X60963Y30811D01*
X60986Y30833D01*
X61009Y30851D01*
X61031Y30869D01*
X61052Y30884D01*
X61072Y30898D01*
X61090Y30908D01*
X61107Y30918D01*
X61122Y30924D01*
X61134Y30931D01*
X61144Y30934D01*
X61149Y30938D01*
X61150D01*
X61184Y30949D01*
X61218Y30959D01*
X61293Y30976D01*
X61369Y30987D01*
X61408Y30992D01*
X61442Y30996D01*
X61477Y30999D01*
X61509Y31001D01*
X61537Y31002D01*
X61560D01*
X61580Y31004D01*
X62714D01*
Y30750D01*
D02*
G37*
G36*
X36991Y12319D02*
X37034Y12314D01*
X37076Y12307D01*
X37114Y12299D01*
X37149Y12287D01*
X37182Y12276D01*
X37212Y12263D01*
X37240Y12249D01*
X37264Y12236D01*
X37285Y12223D01*
X37303Y12211D01*
X37318Y12199D01*
X37332Y12191D01*
X37340Y12184D01*
X37345Y12179D01*
X37347Y12178D01*
X37373Y12150D01*
X37396Y12121D01*
X37416Y12093D01*
X37433Y12063D01*
X37448Y12033D01*
X37459Y12004D01*
X37469Y11975D01*
X37478Y11949D01*
X37483Y11924D01*
X37488Y11901D01*
X37491Y11881D01*
X37494Y11863D01*
Y11847D01*
X37496Y11838D01*
Y11829D01*
Y11828D01*
X37493Y11778D01*
X37484Y11733D01*
X37474Y11692D01*
X37461Y11657D01*
X37455Y11642D01*
X37448Y11628D01*
X37443Y11617D01*
X37438Y11609D01*
X37433Y11600D01*
X37430Y11595D01*
X37426Y11592D01*
Y11590D01*
X37411Y11572D01*
X37396Y11555D01*
X37361Y11524D01*
X37325Y11499D01*
X37290Y11477D01*
X37257Y11459D01*
X37244Y11452D01*
X37232Y11447D01*
X37220Y11443D01*
X37214Y11441D01*
X37209Y11438D01*
X37207D01*
X37239Y11428D01*
X37269Y11418D01*
X37297Y11404D01*
X37323Y11393D01*
X37348Y11378D01*
X37370Y11365D01*
X37390Y11349D01*
X37408Y11335D01*
X37425Y11321D01*
X37438Y11310D01*
X37451Y11296D01*
X37459Y11286D01*
X37468Y11278D01*
X37473Y11271D01*
X37476Y11268D01*
X37478Y11266D01*
X37494Y11242D01*
X37509Y11217D01*
X37521Y11190D01*
X37532Y11164D01*
X37541Y11139D01*
X37549Y11112D01*
X37561Y11062D01*
X37564Y11039D01*
X37567Y11019D01*
X37569Y11001D01*
X37571Y10984D01*
X37572Y10971D01*
Y10961D01*
Y10954D01*
Y10953D01*
X37571Y10906D01*
X37564Y10863D01*
X37556Y10822D01*
X37546Y10784D01*
X37532Y10745D01*
X37518Y10712D01*
X37503Y10680D01*
X37486Y10651D01*
X37469Y10626D01*
X37455Y10603D01*
X37440Y10583D01*
X37426Y10566D01*
X37416Y10553D01*
X37406Y10544D01*
X37401Y10538D01*
X37400Y10536D01*
X37367Y10506D01*
X37330Y10481D01*
X37293Y10458D01*
X37255Y10440D01*
X37215Y10423D01*
X37177Y10410D01*
X37141Y10398D01*
X37106Y10390D01*
X37071Y10382D01*
X37041Y10377D01*
X37013Y10373D01*
X36988Y10372D01*
X36968Y10370D01*
X36955Y10368D01*
X36941D01*
X36890Y10370D01*
X36840Y10375D01*
X36794Y10383D01*
X36751Y10395D01*
X36711Y10407D01*
X36673Y10422D01*
X36639Y10436D01*
X36608Y10452D01*
X36580Y10466D01*
X36555Y10481D01*
X36535Y10496D01*
X36517Y10508D01*
X36503Y10520D01*
X36493Y10528D01*
X36487Y10533D01*
X36485Y10535D01*
X36454Y10566D01*
X36427Y10601D01*
X36404Y10636D01*
X36384Y10671D01*
X36367Y10705D01*
X36354Y10739D01*
X36342Y10772D01*
X36332Y10803D01*
X36326Y10833D01*
X36321Y10862D01*
X36316Y10886D01*
X36314Y10906D01*
X36312Y10925D01*
X36311Y10936D01*
Y10944D01*
Y10948D01*
X36312Y10981D01*
X36314Y11011D01*
X36326Y11069D01*
X36332Y11095D01*
X36341Y11122D01*
X36349Y11144D01*
X36357Y11165D01*
X36366Y11185D01*
X36374Y11202D01*
X36382Y11217D01*
X36389Y11228D01*
X36395Y11238D01*
X36400Y11247D01*
X36402Y11250D01*
X36404Y11252D01*
X36422Y11275D01*
X36442Y11296D01*
X36485Y11335D01*
X36530Y11366D01*
X36573Y11393D01*
X36593Y11403D01*
X36611Y11413D01*
X36630Y11421D01*
X36644Y11426D01*
X36656Y11431D01*
X36664Y11434D01*
X36671Y11438D01*
X36673D01*
X36646Y11447D01*
X36623Y11459D01*
X36600Y11471D01*
X36580Y11484D01*
X36560Y11496D01*
X36543Y11509D01*
X36527Y11520D01*
X36513Y11534D01*
X36500Y11544D01*
X36490Y11555D01*
X36480Y11564D01*
X36473Y11572D01*
X36467Y11579D01*
X36463Y11584D01*
X36460Y11587D01*
Y11589D01*
X36447Y11607D01*
X36437Y11627D01*
X36419Y11667D01*
X36405Y11706D01*
X36397Y11743D01*
X36392Y11774D01*
X36390Y11788D01*
Y11799D01*
X36389Y11808D01*
Y11814D01*
Y11819D01*
Y11821D01*
X36390Y11859D01*
X36395Y11896D01*
X36404Y11930D01*
X36412Y11964D01*
X36425Y11995D01*
X36437Y12024D01*
X36452Y12052D01*
X36465Y12075D01*
X36480Y12098D01*
X36495Y12118D01*
X36507Y12135D01*
X36518Y12148D01*
X36528Y12160D01*
X36536Y12168D01*
X36542Y12173D01*
X36543Y12174D01*
X36573Y12201D01*
X36605Y12223D01*
X36638Y12243D01*
X36671Y12259D01*
X36704Y12273D01*
X36737Y12286D01*
X36771Y12294D01*
X36802Y12302D01*
X36832Y12309D01*
X36858Y12312D01*
X36883Y12316D01*
X36905Y12319D01*
X36922D01*
X36935Y12321D01*
X36946D01*
X36991Y12319D01*
D02*
G37*
G36*
X62300Y117000D02*
X62046D01*
Y117779D01*
X61556D01*
X61483Y117780D01*
X61415Y117785D01*
X61354Y117794D01*
X61297Y117805D01*
X61246Y117817D01*
X61199Y117832D01*
X61158Y117847D01*
X61123Y117863D01*
X61092Y117878D01*
X61065Y117893D01*
X61042Y117908D01*
X61023Y117920D01*
X61010Y117931D01*
X61000Y117940D01*
X60995Y117945D01*
X60994Y117946D01*
X60965Y117979D01*
X60942Y118013D01*
X60921Y118047D01*
X60904Y118082D01*
X60889Y118117D01*
X60876Y118152D01*
X60866Y118185D01*
X60857Y118217D01*
X60851Y118247D01*
X60846Y118273D01*
X60843Y118298D01*
X60839Y118318D01*
Y118336D01*
X60838Y118350D01*
Y118356D01*
Y118359D01*
X60841Y118411D01*
X60848Y118461D01*
X60856Y118506D01*
X60862Y118526D01*
X60867Y118544D01*
X60872Y118560D01*
X60879Y118575D01*
X60884Y118589D01*
X60887Y118600D01*
X60892Y118608D01*
X60894Y118615D01*
X60897Y118619D01*
Y118620D01*
X60921Y118662D01*
X60945Y118700D01*
X60972Y118731D01*
X60997Y118758D01*
X61019Y118778D01*
X61035Y118793D01*
X61042Y118798D01*
X61047Y118801D01*
X61050Y118804D01*
X61052D01*
X61088Y118828D01*
X61128Y118848D01*
X61168Y118862D01*
X61204Y118876D01*
X61238Y118884D01*
X61252Y118887D01*
X61264Y118891D01*
X61274Y118892D01*
X61281Y118894D01*
X61286Y118896D01*
X61287D01*
X61307Y118899D01*
X61329Y118902D01*
X61375Y118906D01*
X61423Y118909D01*
X61470Y118912D01*
X61511D01*
X61530Y118914D01*
X62300D01*
Y117000D01*
D02*
G37*
G36*
X45747Y99674D02*
Y99458D01*
X44917D01*
Y99000D01*
X44681D01*
Y99458D01*
X44422D01*
Y99674D01*
X44681D01*
Y100914D01*
X44874D01*
X45747Y99674D01*
D02*
G37*
G36*
X60026Y118919D02*
X60072Y118914D01*
X60117Y118907D01*
X60159Y118899D01*
X60197Y118887D01*
X60233Y118876D01*
X60267Y118862D01*
X60295Y118849D01*
X60321Y118836D01*
X60344Y118823D01*
X60364Y118811D01*
X60381Y118799D01*
X60394Y118791D01*
X60403Y118784D01*
X60409Y118780D01*
X60411Y118778D01*
X60439Y118750D01*
X60466Y118720D01*
X60487Y118688D01*
X60507Y118653D01*
X60526Y118620D01*
X60540Y118585D01*
X60552Y118552D01*
X60564Y118519D01*
X60572Y118487D01*
X60579Y118459D01*
X60585Y118433D01*
X60589Y118411D01*
X60592Y118393D01*
X60593Y118378D01*
X60595Y118369D01*
Y118366D01*
X60353Y118341D01*
X60351Y118375D01*
X60348Y118404D01*
X60343Y118434D01*
X60336Y118461D01*
X60330Y118486D01*
X60321Y118509D01*
X60311Y118530D01*
X60301Y118550D01*
X60293Y118567D01*
X60283Y118582D01*
X60275Y118594D01*
X60267Y118605D01*
X60261Y118614D01*
X60256Y118619D01*
X60253Y118622D01*
X60252Y118623D01*
X60232Y118642D01*
X60210Y118657D01*
X60189Y118672D01*
X60167Y118683D01*
X60144Y118693D01*
X60122Y118702D01*
X60079Y118713D01*
X60059Y118718D01*
X60039Y118721D01*
X60022Y118723D01*
X60009Y118725D01*
X59998Y118726D01*
X59981D01*
X59951Y118725D01*
X59923Y118723D01*
X59896Y118718D01*
X59873Y118711D01*
X59850Y118705D01*
X59828Y118696D01*
X59808Y118687D01*
X59790Y118678D01*
X59773Y118670D01*
X59760Y118660D01*
X59749Y118652D01*
X59739Y118645D01*
X59730Y118638D01*
X59725Y118635D01*
X59722Y118632D01*
X59720Y118630D01*
X59702Y118612D01*
X59687Y118592D01*
X59674Y118572D01*
X59662Y118552D01*
X59652Y118532D01*
X59646Y118514D01*
X59632Y118476D01*
X59629Y118459D01*
X59626Y118444D01*
X59624Y118429D01*
X59622Y118418D01*
X59621Y118408D01*
Y118401D01*
Y118396D01*
Y118394D01*
X59622Y118369D01*
X59626Y118345D01*
X59631Y118320D01*
X59637Y118295D01*
X59656Y118247D01*
X59676Y118203D01*
X59685Y118184D01*
X59696Y118167D01*
X59705Y118150D01*
X59714Y118137D01*
X59720Y118127D01*
X59725Y118119D01*
X59729Y118114D01*
X59730Y118112D01*
X59754Y118082D01*
X59780Y118052D01*
X59810Y118019D01*
X59842Y117986D01*
X59876Y117951D01*
X59911Y117918D01*
X59948Y117885D01*
X59983Y117853D01*
X60016Y117823D01*
X60047Y117795D01*
X60076Y117770D01*
X60102Y117749D01*
X60122Y117730D01*
X60139Y117717D01*
X60149Y117709D01*
X60150Y117706D01*
X60152D01*
X60189Y117676D01*
X60223Y117646D01*
X60255Y117617D01*
X60285Y117591D01*
X60311Y117566D01*
X60338Y117541D01*
X60360Y117520D01*
X60381Y117500D01*
X60399Y117481D01*
X60414Y117465D01*
X60427Y117450D01*
X60439Y117438D01*
X60447Y117430D01*
X60454Y117422D01*
X60457Y117418D01*
X60459Y117417D01*
X60496Y117370D01*
X60527Y117324D01*
X60555Y117282D01*
X60575Y117242D01*
X60585Y117226D01*
X60592Y117211D01*
X60598Y117196D01*
X60603Y117184D01*
X60609Y117176D01*
X60612Y117169D01*
X60613Y117164D01*
Y117163D01*
X60623Y117133D01*
X60630Y117105D01*
X60635Y117076D01*
X60638Y117051D01*
X60640Y117032D01*
Y117015D01*
Y117008D01*
Y117003D01*
Y117002D01*
Y117000D01*
X59375D01*
Y117226D01*
X60313D01*
X60298Y117249D01*
X60281Y117272D01*
X60265Y117294D01*
X60250Y117312D01*
X60237Y117329D01*
X60225Y117342D01*
X60218Y117349D01*
X60215Y117352D01*
X60202Y117365D01*
X60187Y117380D01*
X60167Y117398D01*
X60147Y117417D01*
X60102Y117456D01*
X60056Y117496D01*
X60034Y117515D01*
X60013Y117533D01*
X59994Y117550D01*
X59978Y117564D01*
X59963Y117576D01*
X59953Y117584D01*
X59944Y117591D01*
X59943Y117593D01*
X59896Y117632D01*
X59855Y117669D01*
X59815Y117704D01*
X59780Y117735D01*
X59747Y117765D01*
X59719Y117794D01*
X59692Y117818D01*
X59667Y117842D01*
X59647Y117861D01*
X59631Y117880D01*
X59616Y117895D01*
X59602Y117906D01*
X59594Y117916D01*
X59588Y117925D01*
X59584Y117928D01*
X59583Y117930D01*
X59544Y117974D01*
X59511Y118018D01*
X59485Y118057D01*
X59463Y118092D01*
X59455Y118107D01*
X59447Y118121D01*
X59440Y118132D01*
X59435Y118144D01*
X59431Y118150D01*
X59428Y118157D01*
X59426Y118160D01*
Y118162D01*
X59410Y118203D01*
X59398Y118245D01*
X59390Y118283D01*
X59385Y118318D01*
X59380Y118346D01*
Y118359D01*
X59378Y118369D01*
Y118378D01*
Y118384D01*
Y118388D01*
Y118389D01*
X59380Y118431D01*
X59385Y118471D01*
X59393Y118509D01*
X59403Y118544D01*
X59415Y118577D01*
X59430Y118608D01*
X59443Y118637D01*
X59458Y118663D01*
X59475Y118687D01*
X59488Y118708D01*
X59501Y118726D01*
X59514Y118741D01*
X59525Y118753D01*
X59533Y118761D01*
X59538Y118766D01*
X59539Y118768D01*
X59571Y118795D01*
X59604Y118818D01*
X59639Y118839D01*
X59676Y118856D01*
X59712Y118871D01*
X59749Y118884D01*
X59783Y118894D01*
X59818Y118902D01*
X59850Y118907D01*
X59880Y118912D01*
X59908Y118916D01*
X59931Y118919D01*
X59949D01*
X59964Y118921D01*
X59976D01*
X60026Y118919D01*
D02*
G37*
G36*
X37003Y126328D02*
X37058Y126322D01*
X37110Y126310D01*
X37158Y126295D01*
X37203Y126278D01*
X37244Y126259D01*
X37282Y126237D01*
X37315Y126215D01*
X37345Y126195D01*
X37372Y126174D01*
X37395Y126154D01*
X37413Y126137D01*
X37428Y126122D01*
X37438Y126111D01*
X37445Y126104D01*
X37446Y126101D01*
X37473Y126064D01*
X37496Y126026D01*
X37518Y125988D01*
X37534Y125950D01*
X37549Y125912D01*
X37563Y125875D01*
X37573Y125838D01*
X37581Y125804D01*
X37586Y125772D01*
X37591Y125742D01*
X37594Y125717D01*
X37598Y125694D01*
Y125676D01*
X37599Y125663D01*
Y125654D01*
Y125651D01*
X37598Y125601D01*
X37593Y125553D01*
X37583Y125508D01*
X37573Y125467D01*
X37559Y125427D01*
X37544Y125390D01*
X37530Y125356D01*
X37513Y125326D01*
X37496Y125297D01*
X37481Y125274D01*
X37466Y125252D01*
X37453Y125236D01*
X37443Y125223D01*
X37435Y125213D01*
X37428Y125206D01*
X37427Y125204D01*
X37393Y125173D01*
X37358Y125146D01*
X37324Y125123D01*
X37287Y125103D01*
X37252Y125086D01*
X37217Y125073D01*
X37183Y125062D01*
X37151Y125052D01*
X37119Y125045D01*
X37091Y125040D01*
X37066Y125035D01*
X37045Y125033D01*
X37028Y125032D01*
X37015Y125030D01*
X37003D01*
X36968Y125032D01*
X36934Y125035D01*
X36900Y125042D01*
X36867Y125048D01*
X36836Y125058D01*
X36806Y125068D01*
X36777Y125080D01*
X36751Y125090D01*
X36728Y125101D01*
X36706Y125113D01*
X36688Y125123D01*
X36671Y125133D01*
X36658Y125140D01*
X36650Y125146D01*
X36643Y125150D01*
X36641Y125151D01*
X36744Y124635D01*
X37510D01*
Y124411D01*
X36558D01*
X36373Y125394D01*
X36593Y125422D01*
X36615Y125392D01*
X36638Y125367D01*
X36661Y125344D01*
X36685Y125326D01*
X36704Y125309D01*
X36721Y125299D01*
X36728Y125294D01*
X36733Y125291D01*
X36734Y125289D01*
X36736D01*
X36771Y125273D01*
X36806Y125259D01*
X36841Y125251D01*
X36872Y125244D01*
X36900Y125241D01*
X36912Y125239D01*
X36922Y125238D01*
X36940D01*
X36973Y125239D01*
X37007Y125243D01*
X37036Y125249D01*
X37065Y125256D01*
X37091Y125264D01*
X37115Y125274D01*
X37138Y125286D01*
X37158Y125296D01*
X37176Y125307D01*
X37192Y125319D01*
X37206Y125329D01*
X37217Y125337D01*
X37226Y125344D01*
X37232Y125350D01*
X37236Y125354D01*
X37237Y125356D01*
X37257Y125379D01*
X37274Y125402D01*
X37290Y125428D01*
X37302Y125453D01*
X37314Y125480D01*
X37322Y125506D01*
X37337Y125558D01*
X37340Y125581D01*
X37344Y125603D01*
X37347Y125623D01*
X37349Y125639D01*
X37350Y125653D01*
Y125664D01*
Y125671D01*
Y125672D01*
X37349Y125711D01*
X37345Y125747D01*
X37339Y125782D01*
X37332Y125814D01*
X37324Y125845D01*
X37314Y125872D01*
X37302Y125898D01*
X37292Y125921D01*
X37280Y125941D01*
X37269Y125960D01*
X37259Y125975D01*
X37251Y125988D01*
X37244Y125998D01*
X37237Y126005D01*
X37234Y126010D01*
X37232Y126011D01*
X37211Y126034D01*
X37187Y126053D01*
X37163Y126071D01*
X37138Y126084D01*
X37115Y126098D01*
X37091Y126107D01*
X37068Y126116D01*
X37045Y126122D01*
X37025Y126129D01*
X37005Y126132D01*
X36988Y126136D01*
X36973Y126137D01*
X36962D01*
X36953Y126139D01*
X36945D01*
X36919Y126137D01*
X36894Y126136D01*
X36849Y126126D01*
X36807Y126111D01*
X36773Y126094D01*
X36758Y126086D01*
X36743Y126078D01*
X36733Y126069D01*
X36723Y126063D01*
X36714Y126058D01*
X36709Y126053D01*
X36706Y126051D01*
X36704Y126049D01*
X36686Y126031D01*
X36671Y126011D01*
X36643Y125968D01*
X36621Y125923D01*
X36605Y125878D01*
X36598Y125857D01*
X36592Y125838D01*
X36588Y125820D01*
X36583Y125805D01*
X36582Y125792D01*
X36580Y125784D01*
X36578Y125777D01*
Y125775D01*
X36331Y125797D01*
X36338Y125842D01*
X36346Y125883D01*
X36358Y125923D01*
X36371Y125960D01*
X36384Y125995D01*
X36401Y126026D01*
X36417Y126056D01*
X36434Y126083D01*
X36450Y126106D01*
X36465Y126126D01*
X36480Y126144D01*
X36492Y126159D01*
X36504Y126171D01*
X36512Y126179D01*
X36517Y126184D01*
X36519Y126186D01*
X36550Y126210D01*
X36585Y126234D01*
X36620Y126253D01*
X36655Y126270D01*
X36691Y126283D01*
X36726Y126295D01*
X36761Y126305D01*
X36794Y126313D01*
X36826Y126320D01*
X36854Y126323D01*
X36880Y126327D01*
X36902Y126330D01*
X36920D01*
X36934Y126331D01*
X36945D01*
X37003Y126328D01*
D02*
G37*
G36*
X9214Y46486D02*
X7881Y46027D01*
X7845Y46014D01*
X7810Y46003D01*
X7778Y45993D01*
X7748Y45983D01*
X7720Y45973D01*
X7695Y45965D01*
X7672Y45956D01*
X7652Y45950D01*
X7634Y45944D01*
X7617Y45940D01*
X7604Y45935D01*
X7594Y45931D01*
X7586Y45928D01*
X7579Y45926D01*
X7576Y45925D01*
X7574D01*
X7592Y45920D01*
X7614Y45913D01*
X7659Y45898D01*
X7705Y45883D01*
X7751Y45868D01*
X7773Y45862D01*
X7793Y45855D01*
X7811Y45848D01*
X7826Y45843D01*
X7840Y45840D01*
X7850Y45837D01*
X7856Y45833D01*
X7858D01*
X9214Y45380D01*
Y45000D01*
X7300D01*
Y45244D01*
X8930D01*
X7300Y45797D01*
Y46024D01*
X8902Y46584D01*
X7300D01*
Y46828D01*
X9214D01*
Y46486D01*
D02*
G37*
G36*
X7526Y47437D02*
X7549Y47452D01*
X7572Y47468D01*
X7594Y47485D01*
X7612Y47500D01*
X7629Y47513D01*
X7642Y47525D01*
X7649Y47532D01*
X7652Y47535D01*
X7665Y47548D01*
X7680Y47563D01*
X7698Y47583D01*
X7717Y47603D01*
X7756Y47648D01*
X7796Y47694D01*
X7815Y47716D01*
X7833Y47737D01*
X7850Y47756D01*
X7864Y47772D01*
X7876Y47787D01*
X7884Y47797D01*
X7891Y47805D01*
X7893Y47807D01*
X7932Y47853D01*
X7969Y47895D01*
X8004Y47935D01*
X8035Y47970D01*
X8065Y48003D01*
X8094Y48031D01*
X8118Y48058D01*
X8142Y48083D01*
X8162Y48103D01*
X8180Y48119D01*
X8195Y48134D01*
X8206Y48147D01*
X8216Y48156D01*
X8225Y48162D01*
X8228Y48166D01*
X8230Y48167D01*
X8274Y48206D01*
X8318Y48239D01*
X8357Y48265D01*
X8392Y48287D01*
X8407Y48295D01*
X8421Y48303D01*
X8432Y48310D01*
X8444Y48315D01*
X8450Y48318D01*
X8457Y48322D01*
X8460Y48323D01*
X8462D01*
X8504Y48340D01*
X8545Y48351D01*
X8583Y48360D01*
X8618Y48365D01*
X8646Y48370D01*
X8659D01*
X8670Y48371D01*
X8689D01*
X8731Y48370D01*
X8771Y48365D01*
X8809Y48357D01*
X8844Y48347D01*
X8877Y48335D01*
X8908Y48320D01*
X8937Y48307D01*
X8963Y48292D01*
X8987Y48275D01*
X9008Y48262D01*
X9026Y48249D01*
X9041Y48235D01*
X9053Y48225D01*
X9061Y48217D01*
X9066Y48212D01*
X9068Y48210D01*
X9094Y48179D01*
X9118Y48146D01*
X9139Y48111D01*
X9156Y48074D01*
X9171Y48038D01*
X9184Y48001D01*
X9194Y47966D01*
X9202Y47932D01*
X9207Y47900D01*
X9212Y47870D01*
X9216Y47842D01*
X9219Y47819D01*
Y47800D01*
X9221Y47785D01*
Y47777D01*
Y47774D01*
X9219Y47724D01*
X9214Y47678D01*
X9207Y47633D01*
X9199Y47591D01*
X9187Y47553D01*
X9176Y47517D01*
X9162Y47483D01*
X9149Y47455D01*
X9136Y47429D01*
X9123Y47405D01*
X9111Y47385D01*
X9099Y47369D01*
X9091Y47355D01*
X9085Y47347D01*
X9080Y47341D01*
X9078Y47339D01*
X9050Y47311D01*
X9020Y47284D01*
X8988Y47263D01*
X8953Y47243D01*
X8920Y47224D01*
X8885Y47210D01*
X8852Y47198D01*
X8819Y47186D01*
X8787Y47178D01*
X8759Y47171D01*
X8733Y47165D01*
X8711Y47161D01*
X8693Y47158D01*
X8678Y47156D01*
X8670Y47155D01*
X8666D01*
X8641Y47397D01*
X8675Y47399D01*
X8704Y47402D01*
X8734Y47407D01*
X8761Y47414D01*
X8786Y47420D01*
X8809Y47429D01*
X8830Y47438D01*
X8850Y47449D01*
X8867Y47457D01*
X8882Y47467D01*
X8894Y47475D01*
X8905Y47483D01*
X8913Y47488D01*
X8918Y47493D01*
X8922Y47497D01*
X8924Y47498D01*
X8942Y47518D01*
X8957Y47540D01*
X8972Y47561D01*
X8983Y47583D01*
X8993Y47606D01*
X9002Y47628D01*
X9013Y47671D01*
X9018Y47691D01*
X9021Y47711D01*
X9023Y47727D01*
X9025Y47741D01*
X9026Y47752D01*
Y47762D01*
Y47767D01*
Y47769D01*
X9025Y47799D01*
X9023Y47827D01*
X9018Y47853D01*
X9012Y47877D01*
X9005Y47900D01*
X8997Y47922D01*
X8987Y47941D01*
X8978Y47960D01*
X8970Y47976D01*
X8960Y47990D01*
X8952Y48001D01*
X8945Y48011D01*
X8938Y48019D01*
X8935Y48024D01*
X8932Y48028D01*
X8930Y48030D01*
X8912Y48048D01*
X8892Y48063D01*
X8872Y48076D01*
X8852Y48088D01*
X8832Y48098D01*
X8814Y48104D01*
X8776Y48118D01*
X8759Y48121D01*
X8744Y48124D01*
X8729Y48126D01*
X8718Y48127D01*
X8708Y48129D01*
X8694D01*
X8670Y48127D01*
X8645Y48124D01*
X8620Y48119D01*
X8595Y48112D01*
X8547Y48094D01*
X8504Y48074D01*
X8484Y48064D01*
X8467Y48054D01*
X8450Y48044D01*
X8437Y48036D01*
X8427Y48030D01*
X8419Y48024D01*
X8414Y48021D01*
X8412Y48019D01*
X8382Y47996D01*
X8352Y47970D01*
X8319Y47940D01*
X8286Y47908D01*
X8251Y47873D01*
X8218Y47839D01*
X8185Y47802D01*
X8153Y47767D01*
X8123Y47734D01*
X8095Y47703D01*
X8070Y47674D01*
X8049Y47648D01*
X8030Y47628D01*
X8017Y47611D01*
X8009Y47601D01*
X8005Y47600D01*
Y47598D01*
X7976Y47561D01*
X7946Y47526D01*
X7918Y47495D01*
X7891Y47465D01*
X7866Y47438D01*
X7841Y47412D01*
X7820Y47390D01*
X7800Y47369D01*
X7781Y47351D01*
X7765Y47336D01*
X7750Y47322D01*
X7738Y47311D01*
X7730Y47302D01*
X7722Y47296D01*
X7718Y47293D01*
X7717Y47291D01*
X7670Y47254D01*
X7624Y47223D01*
X7582Y47194D01*
X7542Y47175D01*
X7526Y47165D01*
X7511Y47158D01*
X7496Y47151D01*
X7484Y47146D01*
X7476Y47141D01*
X7469Y47138D01*
X7464Y47136D01*
X7463D01*
X7433Y47126D01*
X7405Y47120D01*
X7376Y47115D01*
X7351Y47111D01*
X7332Y47110D01*
X7300D01*
Y48375D01*
X7526D01*
Y47437D01*
D02*
G37*
G36*
X40500Y98500D02*
X40246D01*
Y99350D01*
X39919D01*
X39891Y99348D01*
X39866Y99347D01*
X39846Y99345D01*
X39831Y99343D01*
X39821Y99342D01*
X39814Y99340D01*
X39813D01*
X39791Y99333D01*
X39770Y99325D01*
X39751Y99317D01*
X39733Y99308D01*
X39720Y99300D01*
X39708Y99295D01*
X39700Y99290D01*
X39698Y99288D01*
X39677Y99274D01*
X39653Y99254D01*
X39632Y99232D01*
X39612Y99212D01*
X39594Y99192D01*
X39580Y99176D01*
X39575Y99169D01*
X39572Y99164D01*
X39569Y99162D01*
Y99161D01*
X39555Y99142D01*
X39540Y99123D01*
X39511Y99081D01*
X39479Y99038D01*
X39451Y98995D01*
X39438Y98976D01*
X39424Y98958D01*
X39414Y98942D01*
X39404Y98927D01*
X39396Y98915D01*
X39391Y98907D01*
X39388Y98900D01*
X39386Y98898D01*
X39134Y98500D01*
X38817D01*
X39149Y99021D01*
X39185Y99076D01*
X39224Y99126D01*
X39258Y99169D01*
X39275Y99187D01*
X39290Y99205D01*
X39305Y99222D01*
X39318Y99235D01*
X39330Y99247D01*
X39340Y99257D01*
X39346Y99265D01*
X39353Y99270D01*
X39356Y99274D01*
X39358Y99275D01*
X39380Y99294D01*
X39403Y99310D01*
X39429Y99327D01*
X39454Y99342D01*
X39476Y99353D01*
X39494Y99363D01*
X39501Y99366D01*
X39506Y99370D01*
X39509Y99371D01*
X39511D01*
X39461Y99380D01*
X39414Y99390D01*
X39371Y99401D01*
X39331Y99415D01*
X39295Y99428D01*
X39260Y99443D01*
X39230Y99458D01*
X39204Y99473D01*
X39180Y99488D01*
X39160Y99501D01*
X39142Y99514D01*
X39129Y99526D01*
X39117Y99534D01*
X39111Y99541D01*
X39106Y99546D01*
X39104Y99547D01*
X39081Y99574D01*
X39061Y99602D01*
X39042Y99632D01*
X39028Y99660D01*
X39014Y99690D01*
X39003Y99718D01*
X38994Y99747D01*
X38988Y99772D01*
X38983Y99796D01*
X38978Y99820D01*
X38974Y99840D01*
X38973Y99858D01*
X38971Y99871D01*
Y99883D01*
Y99889D01*
Y99891D01*
X38973Y99921D01*
X38974Y99949D01*
X38983Y100002D01*
X38996Y100052D01*
X39003Y100074D01*
X39011Y100094D01*
X39018Y100112D01*
X39026Y100128D01*
X39033Y100143D01*
X39037Y100155D01*
X39044Y100165D01*
X39048Y100172D01*
X39049Y100177D01*
X39051Y100178D01*
X39066Y100201D01*
X39082Y100223D01*
X39101Y100245D01*
X39117Y100263D01*
X39136Y100279D01*
X39154Y100294D01*
X39187Y100319D01*
X39217Y100338D01*
X39230Y100344D01*
X39242Y100351D01*
X39250Y100356D01*
X39257Y100359D01*
X39262Y100361D01*
X39263D01*
X39290Y100371D01*
X39318Y100379D01*
X39348Y100386D01*
X39380Y100392D01*
X39444Y100401D01*
X39507Y100407D01*
X39537Y100409D01*
X39564Y100411D01*
X39589Y100412D01*
X39610Y100414D01*
X40500D01*
Y98500D01*
D02*
G37*
G36*
X9221Y36272D02*
X9197Y36260D01*
X9174Y36245D01*
X9128Y36214D01*
X9085Y36179D01*
X9045Y36144D01*
X9028Y36127D01*
X9012Y36112D01*
X8998Y36099D01*
X8987Y36088D01*
X8977Y36076D01*
X8970Y36069D01*
X8965Y36064D01*
X8963Y36063D01*
X8917Y36006D01*
X8874Y35946D01*
X8835Y35888D01*
X8817Y35862D01*
X8802Y35835D01*
X8787Y35810D01*
X8776Y35789D01*
X8764Y35769D01*
X8756Y35752D01*
X8749Y35739D01*
X8744Y35727D01*
X8741Y35721D01*
X8739Y35719D01*
X8512D01*
X8528Y35761D01*
X8548Y35804D01*
X8568Y35845D01*
X8588Y35883D01*
X8597Y35900D01*
X8606Y35917D01*
X8613Y35930D01*
X8620Y35941D01*
X8625Y35951D01*
X8630Y35958D01*
X8631Y35963D01*
X8633Y35965D01*
X8663Y36015D01*
X8693Y36058D01*
X8721Y36096D01*
X8744Y36129D01*
X8756Y36142D01*
X8766Y36154D01*
X8774Y36164D01*
X8782Y36174D01*
X8787Y36180D01*
X8792Y36186D01*
X8794Y36187D01*
X8796Y36189D01*
X7300D01*
Y36424D01*
X9221D01*
Y36272D01*
D02*
G37*
G36*
X39895Y83346D02*
X39941Y83342D01*
X39984Y83337D01*
X40027Y83329D01*
X40067Y83321D01*
X40106Y83311D01*
X40142Y83301D01*
X40174Y83289D01*
X40205Y83279D01*
X40232Y83267D01*
X40255Y83258D01*
X40275Y83249D01*
X40290Y83241D01*
X40301Y83236D01*
X40310Y83233D01*
X40311Y83231D01*
X40350Y83208D01*
X40386Y83183D01*
X40419Y83156D01*
X40451Y83130D01*
X40481Y83101D01*
X40507Y83073D01*
X40530Y83045D01*
X40554Y83018D01*
X40572Y82992D01*
X40589Y82969D01*
X40604Y82947D01*
X40615Y82929D01*
X40625Y82914D01*
X40632Y82902D01*
X40635Y82896D01*
X40637Y82892D01*
X40657Y82849D01*
X40673Y82806D01*
X40688Y82761D01*
X40701Y82716D01*
X40713Y82673D01*
X40721Y82630D01*
X40730Y82589D01*
X40735Y82549D01*
X40740Y82511D01*
X40743Y82477D01*
X40746Y82447D01*
X40748Y82421D01*
X40750Y82401D01*
Y82384D01*
Y82374D01*
Y82373D01*
Y82371D01*
X40748Y82320D01*
X40745Y82270D01*
X40740Y82222D01*
X40735Y82175D01*
X40726Y82130D01*
X40718Y82089D01*
X40710Y82049D01*
X40700Y82012D01*
X40690Y81978D01*
X40681Y81948D01*
X40673Y81921D01*
X40665Y81900D01*
X40660Y81881D01*
X40655Y81870D01*
X40652Y81862D01*
X40650Y81858D01*
X40630Y81815D01*
X40609Y81774D01*
X40585Y81735D01*
X40560Y81700D01*
X40537Y81667D01*
X40512Y81637D01*
X40487Y81611D01*
X40464Y81586D01*
X40442Y81564D01*
X40421Y81546D01*
X40403Y81529D01*
X40386Y81516D01*
X40373Y81506D01*
X40363Y81500D01*
X40356Y81495D01*
X40354Y81493D01*
X40316Y81471D01*
X40277Y81451D01*
X40237Y81435D01*
X40194Y81422D01*
X40152Y81408D01*
X40110Y81398D01*
X40069Y81390D01*
X40031Y81383D01*
X39993Y81378D01*
X39959Y81375D01*
X39930Y81372D01*
X39903Y81370D01*
X39881D01*
X39865Y81368D01*
X39851D01*
X39797Y81370D01*
X39744Y81375D01*
X39694Y81383D01*
X39646Y81393D01*
X39601Y81407D01*
X39559Y81420D01*
X39521Y81435D01*
X39486Y81450D01*
X39455Y81465D01*
X39427Y81480D01*
X39402Y81493D01*
X39382Y81506D01*
X39367Y81516D01*
X39355Y81524D01*
X39347Y81529D01*
X39345Y81531D01*
X39307Y81564D01*
X39274Y81599D01*
X39242Y81636D01*
X39213Y81676D01*
X39186Y81714D01*
X39163Y81754D01*
X39143Y81793D01*
X39125Y81832D01*
X39108Y81867D01*
X39095Y81900D01*
X39083Y81929D01*
X39073Y81956D01*
X39066Y81978D01*
X39061Y81994D01*
X39060Y81999D01*
Y82004D01*
X39058Y82006D01*
Y82008D01*
X39312Y82071D01*
X39324Y82028D01*
X39335Y81986D01*
X39350Y81948D01*
X39365Y81913D01*
X39382Y81880D01*
X39398Y81850D01*
X39415Y81823D01*
X39432Y81798D01*
X39448Y81777D01*
X39463Y81759D01*
X39476Y81744D01*
X39490Y81730D01*
X39500Y81720D01*
X39506Y81712D01*
X39511Y81709D01*
X39513Y81707D01*
X39541Y81686D01*
X39571Y81667D01*
X39601Y81651D01*
X39631Y81637D01*
X39662Y81626D01*
X39692Y81616D01*
X39720Y81608D01*
X39749Y81601D01*
X39773Y81596D01*
X39798Y81593D01*
X39820Y81589D01*
X39838Y81588D01*
X39853D01*
X39863Y81586D01*
X39873D01*
X39905Y81588D01*
X39938Y81589D01*
X39998Y81599D01*
X40026Y81608D01*
X40052Y81614D01*
X40077Y81622D01*
X40100Y81631D01*
X40122Y81639D01*
X40142Y81647D01*
X40159Y81656D01*
X40172Y81662D01*
X40184Y81667D01*
X40192Y81672D01*
X40197Y81674D01*
X40198Y81676D01*
X40225Y81694D01*
X40252Y81714D01*
X40275Y81734D01*
X40296Y81755D01*
X40316Y81779D01*
X40335Y81800D01*
X40350Y81823D01*
X40365Y81845D01*
X40378Y81865D01*
X40389Y81885D01*
X40398Y81901D01*
X40406Y81916D01*
X40411Y81929D01*
X40416Y81938D01*
X40418Y81945D01*
X40419Y81946D01*
X40442Y82017D01*
X40459Y82091D01*
X40472Y82162D01*
X40476Y82195D01*
X40481Y82228D01*
X40482Y82258D01*
X40486Y82286D01*
X40487Y82311D01*
Y82331D01*
X40489Y82349D01*
Y82363D01*
Y82369D01*
Y82373D01*
X40486Y82442D01*
X40479Y82511D01*
X40476Y82542D01*
X40471Y82572D01*
X40464Y82600D01*
X40459Y82627D01*
X40454Y82652D01*
X40448Y82673D01*
X40442Y82693D01*
X40439Y82710D01*
X40434Y82721D01*
X40433Y82731D01*
X40429Y82738D01*
Y82740D01*
X40418Y82773D01*
X40403Y82803D01*
X40388Y82833D01*
X40371Y82859D01*
X40354Y82884D01*
X40338Y82907D01*
X40320Y82929D01*
X40303Y82949D01*
X40286Y82965D01*
X40271Y82980D01*
X40258Y82994D01*
X40245Y83004D01*
X40235Y83012D01*
X40228Y83018D01*
X40223Y83022D01*
X40222Y83024D01*
X40194Y83042D01*
X40164Y83058D01*
X40132Y83073D01*
X40102Y83085D01*
X40071Y83095D01*
X40041Y83103D01*
X40011Y83112D01*
X39983Y83116D01*
X39956Y83121D01*
X39931Y83125D01*
X39910Y83126D01*
X39890Y83128D01*
X39875Y83130D01*
X39853D01*
X39818Y83128D01*
X39783Y83126D01*
X39752Y83121D01*
X39722Y83115D01*
X39694Y83108D01*
X39667Y83100D01*
X39644Y83090D01*
X39621Y83082D01*
X39603Y83073D01*
X39584Y83063D01*
X39569Y83055D01*
X39558Y83048D01*
X39548Y83042D01*
X39540Y83038D01*
X39536Y83035D01*
X39535Y83033D01*
X39511Y83015D01*
X39490Y82994D01*
X39470Y82970D01*
X39452Y82946D01*
X39418Y82896D01*
X39390Y82846D01*
X39378Y82823D01*
X39369Y82801D01*
X39360Y82781D01*
X39354Y82765D01*
X39347Y82750D01*
X39344Y82740D01*
X39340Y82731D01*
Y82730D01*
X39091Y82788D01*
X39108Y82836D01*
X39126Y82882D01*
X39146Y82924D01*
X39168Y82964D01*
X39189Y83000D01*
X39213Y83035D01*
X39236Y83065D01*
X39257Y83093D01*
X39279Y83118D01*
X39299Y83140D01*
X39317Y83158D01*
X39334Y83173D01*
X39347Y83184D01*
X39357Y83193D01*
X39364Y83198D01*
X39365Y83199D01*
X39403Y83226D01*
X39441Y83248D01*
X39483Y83267D01*
X39523Y83284D01*
X39564Y83299D01*
X39604Y83311D01*
X39642Y83321D01*
X39681Y83329D01*
X39715Y83336D01*
X39747Y83339D01*
X39775Y83342D01*
X39800Y83346D01*
X39820D01*
X39835Y83347D01*
X39848D01*
X39895Y83346D01*
D02*
G37*
G36*
X38120Y83297D02*
X38135Y83274D01*
X38167Y83228D01*
X38201Y83184D01*
X38236Y83145D01*
X38253Y83128D01*
X38268Y83112D01*
X38281Y83098D01*
X38293Y83087D01*
X38304Y83077D01*
X38311Y83070D01*
X38316Y83065D01*
X38318Y83063D01*
X38374Y83017D01*
X38434Y82974D01*
X38492Y82936D01*
X38519Y82917D01*
X38545Y82902D01*
X38570Y82887D01*
X38592Y82876D01*
X38612Y82864D01*
X38628Y82856D01*
X38641Y82849D01*
X38653Y82844D01*
X38660Y82841D01*
X38661Y82839D01*
Y82612D01*
X38620Y82628D01*
X38577Y82648D01*
X38535Y82668D01*
X38497Y82688D01*
X38480Y82696D01*
X38464Y82706D01*
X38451Y82713D01*
X38439Y82720D01*
X38429Y82725D01*
X38422Y82730D01*
X38417Y82731D01*
X38416Y82733D01*
X38366Y82763D01*
X38323Y82793D01*
X38285Y82821D01*
X38251Y82844D01*
X38238Y82856D01*
X38226Y82866D01*
X38216Y82874D01*
X38206Y82882D01*
X38200Y82887D01*
X38195Y82892D01*
X38193Y82894D01*
X38192Y82896D01*
Y81400D01*
X37956D01*
Y83321D01*
X38109D01*
X38120Y83297D01*
D02*
G37*
G36*
X9214Y34886D02*
X7881Y34427D01*
X7845Y34414D01*
X7810Y34403D01*
X7778Y34393D01*
X7748Y34383D01*
X7720Y34373D01*
X7695Y34365D01*
X7672Y34356D01*
X7652Y34350D01*
X7634Y34345D01*
X7617Y34340D01*
X7604Y34335D01*
X7594Y34331D01*
X7586Y34328D01*
X7579Y34326D01*
X7576Y34325D01*
X7574D01*
X7592Y34320D01*
X7614Y34313D01*
X7659Y34298D01*
X7705Y34283D01*
X7751Y34268D01*
X7773Y34262D01*
X7793Y34255D01*
X7811Y34248D01*
X7826Y34243D01*
X7840Y34240D01*
X7850Y34237D01*
X7856Y34233D01*
X7858D01*
X9214Y33780D01*
Y33400D01*
X7300D01*
Y33644D01*
X8930D01*
X7300Y34197D01*
Y34424D01*
X8902Y34984D01*
X7300D01*
Y35228D01*
X9214D01*
Y34886D01*
D02*
G37*
G36*
X15969Y129174D02*
Y128958D01*
X15139D01*
Y128500D01*
X14903D01*
Y128958D01*
X14644D01*
Y129174D01*
X14903D01*
Y130414D01*
X15096D01*
X15969Y129174D01*
D02*
G37*
G36*
X16945Y130446D02*
X16992Y130442D01*
X17035Y130437D01*
X17078Y130429D01*
X17118Y130421D01*
X17156Y130411D01*
X17192Y130401D01*
X17224Y130389D01*
X17255Y130379D01*
X17282Y130368D01*
X17305Y130358D01*
X17325Y130349D01*
X17340Y130341D01*
X17352Y130336D01*
X17360Y130333D01*
X17362Y130331D01*
X17400Y130308D01*
X17436Y130283D01*
X17470Y130256D01*
X17501Y130230D01*
X17531Y130201D01*
X17558Y130173D01*
X17581Y130145D01*
X17604Y130119D01*
X17622Y130092D01*
X17639Y130069D01*
X17654Y130047D01*
X17665Y130029D01*
X17675Y130014D01*
X17682Y130002D01*
X17685Y129996D01*
X17687Y129992D01*
X17707Y129949D01*
X17724Y129906D01*
X17739Y129861D01*
X17752Y129816D01*
X17763Y129773D01*
X17772Y129730D01*
X17780Y129689D01*
X17785Y129649D01*
X17790Y129611D01*
X17793Y129577D01*
X17797Y129548D01*
X17798Y129521D01*
X17800Y129501D01*
Y129484D01*
Y129474D01*
Y129473D01*
Y129471D01*
X17798Y129420D01*
X17795Y129370D01*
X17790Y129322D01*
X17785Y129275D01*
X17777Y129230D01*
X17768Y129189D01*
X17760Y129149D01*
X17750Y129113D01*
X17740Y129078D01*
X17732Y129048D01*
X17724Y129021D01*
X17715Y129000D01*
X17710Y128981D01*
X17705Y128970D01*
X17702Y128962D01*
X17700Y128958D01*
X17681Y128915D01*
X17659Y128874D01*
X17636Y128835D01*
X17611Y128800D01*
X17587Y128767D01*
X17563Y128737D01*
X17538Y128711D01*
X17515Y128686D01*
X17493Y128664D01*
X17471Y128646D01*
X17453Y128630D01*
X17436Y128616D01*
X17423Y128606D01*
X17413Y128600D01*
X17407Y128595D01*
X17405Y128593D01*
X17367Y128571D01*
X17327Y128551D01*
X17287Y128535D01*
X17244Y128522D01*
X17202Y128508D01*
X17161Y128498D01*
X17119Y128490D01*
X17081Y128483D01*
X17043Y128478D01*
X17010Y128475D01*
X16980Y128472D01*
X16953Y128470D01*
X16932D01*
X16915Y128469D01*
X16902D01*
X16847Y128470D01*
X16794Y128475D01*
X16744Y128483D01*
X16696Y128493D01*
X16651Y128507D01*
X16610Y128520D01*
X16572Y128535D01*
X16537Y128550D01*
X16505Y128565D01*
X16477Y128580D01*
X16452Y128593D01*
X16432Y128606D01*
X16417Y128616D01*
X16406Y128624D01*
X16397Y128630D01*
X16396Y128631D01*
X16357Y128664D01*
X16324Y128699D01*
X16293Y128736D01*
X16263Y128776D01*
X16236Y128814D01*
X16213Y128854D01*
X16193Y128893D01*
X16175Y128932D01*
X16158Y128966D01*
X16145Y129000D01*
X16133Y129030D01*
X16123Y129056D01*
X16117Y129078D01*
X16112Y129094D01*
X16110Y129099D01*
Y129104D01*
X16108Y129106D01*
Y129108D01*
X16362Y129171D01*
X16374Y129128D01*
X16386Y129086D01*
X16401Y129048D01*
X16416Y129013D01*
X16432Y128980D01*
X16449Y128950D01*
X16465Y128923D01*
X16482Y128898D01*
X16499Y128877D01*
X16513Y128859D01*
X16527Y128844D01*
X16540Y128830D01*
X16550Y128820D01*
X16557Y128812D01*
X16562Y128809D01*
X16563Y128807D01*
X16591Y128786D01*
X16621Y128767D01*
X16651Y128751D01*
X16681Y128737D01*
X16713Y128726D01*
X16743Y128716D01*
X16771Y128708D01*
X16799Y128701D01*
X16824Y128696D01*
X16849Y128693D01*
X16870Y128689D01*
X16889Y128688D01*
X16904D01*
X16914Y128686D01*
X16924D01*
X16955Y128688D01*
X16988Y128689D01*
X17048Y128699D01*
X17076Y128708D01*
X17103Y128714D01*
X17128Y128722D01*
X17151Y128731D01*
X17173Y128739D01*
X17192Y128747D01*
X17209Y128756D01*
X17222Y128762D01*
X17234Y128767D01*
X17242Y128772D01*
X17247Y128774D01*
X17249Y128776D01*
X17275Y128794D01*
X17302Y128814D01*
X17325Y128834D01*
X17347Y128855D01*
X17367Y128878D01*
X17385Y128900D01*
X17400Y128923D01*
X17415Y128945D01*
X17428Y128965D01*
X17440Y128985D01*
X17448Y129001D01*
X17456Y129016D01*
X17461Y129030D01*
X17466Y129038D01*
X17468Y129044D01*
X17470Y129046D01*
X17493Y129118D01*
X17510Y129191D01*
X17523Y129262D01*
X17526Y129295D01*
X17531Y129328D01*
X17533Y129358D01*
X17536Y129386D01*
X17538Y129411D01*
Y129431D01*
X17539Y129449D01*
Y129463D01*
Y129469D01*
Y129473D01*
X17536Y129543D01*
X17529Y129611D01*
X17526Y129642D01*
X17521Y129672D01*
X17515Y129700D01*
X17510Y129727D01*
X17504Y129752D01*
X17498Y129773D01*
X17493Y129793D01*
X17490Y129810D01*
X17485Y129821D01*
X17483Y129831D01*
X17480Y129838D01*
Y129840D01*
X17468Y129873D01*
X17453Y129903D01*
X17438Y129933D01*
X17422Y129959D01*
X17405Y129984D01*
X17388Y130007D01*
X17370Y130029D01*
X17354Y130049D01*
X17337Y130065D01*
X17322Y130080D01*
X17309Y130094D01*
X17295Y130104D01*
X17285Y130112D01*
X17279Y130119D01*
X17274Y130122D01*
X17272Y130123D01*
X17244Y130142D01*
X17214Y130158D01*
X17183Y130173D01*
X17153Y130185D01*
X17121Y130195D01*
X17091Y130203D01*
X17061Y130211D01*
X17033Y130216D01*
X17007Y130221D01*
X16982Y130225D01*
X16960Y130226D01*
X16940Y130228D01*
X16925Y130230D01*
X16904D01*
X16869Y130228D01*
X16834Y130226D01*
X16802Y130221D01*
X16772Y130215D01*
X16744Y130208D01*
X16718Y130200D01*
X16694Y130190D01*
X16671Y130182D01*
X16653Y130173D01*
X16635Y130163D01*
X16620Y130155D01*
X16608Y130148D01*
X16598Y130142D01*
X16590Y130138D01*
X16587Y130135D01*
X16585Y130133D01*
X16562Y130115D01*
X16540Y130094D01*
X16520Y130070D01*
X16502Y130045D01*
X16469Y129996D01*
X16441Y129946D01*
X16429Y129923D01*
X16419Y129901D01*
X16411Y129881D01*
X16404Y129865D01*
X16397Y129850D01*
X16394Y129840D01*
X16391Y129831D01*
Y129830D01*
X16142Y129888D01*
X16158Y129936D01*
X16176Y129982D01*
X16196Y130024D01*
X16218Y130064D01*
X16240Y130100D01*
X16263Y130135D01*
X16286Y130165D01*
X16308Y130193D01*
X16329Y130218D01*
X16349Y130240D01*
X16367Y130258D01*
X16384Y130273D01*
X16397Y130285D01*
X16407Y130293D01*
X16414Y130298D01*
X16416Y130299D01*
X16454Y130326D01*
X16492Y130348D01*
X16533Y130368D01*
X16573Y130384D01*
X16615Y130399D01*
X16655Y130411D01*
X16693Y130421D01*
X16731Y130429D01*
X16766Y130436D01*
X16797Y130439D01*
X16826Y130442D01*
X16850Y130446D01*
X16870D01*
X16885Y130447D01*
X16899D01*
X16945Y130446D01*
D02*
G37*
G36*
X47500Y99000D02*
X47246D01*
Y99850D01*
X46919D01*
X46891Y99848D01*
X46866Y99847D01*
X46846Y99845D01*
X46831Y99843D01*
X46821Y99842D01*
X46814Y99840D01*
X46813D01*
X46791Y99833D01*
X46770Y99825D01*
X46751Y99817D01*
X46733Y99808D01*
X46720Y99800D01*
X46708Y99795D01*
X46700Y99790D01*
X46698Y99788D01*
X46677Y99774D01*
X46653Y99754D01*
X46632Y99732D01*
X46612Y99712D01*
X46594Y99692D01*
X46580Y99676D01*
X46575Y99669D01*
X46572Y99664D01*
X46569Y99662D01*
Y99661D01*
X46556Y99642D01*
X46540Y99622D01*
X46511Y99581D01*
X46479Y99538D01*
X46451Y99495D01*
X46438Y99476D01*
X46424Y99458D01*
X46414Y99442D01*
X46404Y99427D01*
X46396Y99415D01*
X46391Y99407D01*
X46388Y99400D01*
X46386Y99398D01*
X46134Y99000D01*
X45817D01*
X46149Y99521D01*
X46185Y99576D01*
X46224Y99626D01*
X46258Y99669D01*
X46275Y99687D01*
X46290Y99705D01*
X46305Y99722D01*
X46318Y99735D01*
X46330Y99747D01*
X46340Y99757D01*
X46346Y99765D01*
X46353Y99770D01*
X46356Y99774D01*
X46358Y99775D01*
X46380Y99793D01*
X46403Y99810D01*
X46429Y99827D01*
X46454Y99842D01*
X46476Y99853D01*
X46494Y99863D01*
X46501Y99866D01*
X46506Y99870D01*
X46509Y99871D01*
X46511D01*
X46461Y99880D01*
X46414Y99890D01*
X46371Y99901D01*
X46331Y99915D01*
X46295Y99928D01*
X46260Y99943D01*
X46230Y99958D01*
X46204Y99973D01*
X46180Y99988D01*
X46160Y100001D01*
X46142Y100014D01*
X46129Y100026D01*
X46117Y100034D01*
X46111Y100041D01*
X46106Y100046D01*
X46104Y100048D01*
X46081Y100074D01*
X46061Y100102D01*
X46042Y100132D01*
X46028Y100160D01*
X46014Y100190D01*
X46003Y100218D01*
X45994Y100247D01*
X45988Y100272D01*
X45983Y100296D01*
X45978Y100320D01*
X45974Y100340D01*
X45973Y100358D01*
X45971Y100371D01*
Y100383D01*
Y100389D01*
Y100391D01*
X45973Y100421D01*
X45974Y100449D01*
X45983Y100502D01*
X45996Y100552D01*
X46003Y100574D01*
X46011Y100594D01*
X46018Y100612D01*
X46026Y100628D01*
X46033Y100643D01*
X46038Y100655D01*
X46044Y100665D01*
X46047Y100672D01*
X46049Y100677D01*
X46051Y100678D01*
X46066Y100701D01*
X46082Y100723D01*
X46101Y100745D01*
X46117Y100763D01*
X46136Y100779D01*
X46154Y100794D01*
X46187Y100819D01*
X46217Y100838D01*
X46230Y100844D01*
X46242Y100851D01*
X46250Y100856D01*
X46257Y100859D01*
X46262Y100861D01*
X46263D01*
X46290Y100871D01*
X46318Y100879D01*
X46348Y100886D01*
X46380Y100892D01*
X46444Y100901D01*
X46507Y100907D01*
X46537Y100909D01*
X46564Y100911D01*
X46589Y100912D01*
X46610Y100914D01*
X47500D01*
Y99000D01*
D02*
G37*
G36*
X37949Y100397D02*
X37964Y100374D01*
X37995Y100328D01*
X38030Y100285D01*
X38065Y100245D01*
X38081Y100228D01*
X38096Y100212D01*
X38110Y100198D01*
X38121Y100187D01*
X38133Y100177D01*
X38140Y100170D01*
X38144Y100165D01*
X38146Y100163D01*
X38203Y100117D01*
X38262Y100074D01*
X38320Y100036D01*
X38347Y100017D01*
X38374Y100002D01*
X38398Y99987D01*
X38420Y99976D01*
X38440Y99964D01*
X38456Y99956D01*
X38470Y99949D01*
X38481Y99944D01*
X38488Y99941D01*
X38490Y99939D01*
Y99712D01*
X38448Y99728D01*
X38405Y99748D01*
X38364Y99768D01*
X38325Y99788D01*
X38309Y99796D01*
X38292Y99806D01*
X38279Y99813D01*
X38267Y99820D01*
X38257Y99825D01*
X38251Y99830D01*
X38246Y99831D01*
X38244Y99833D01*
X38194Y99863D01*
X38151Y99893D01*
X38113Y99921D01*
X38080Y99944D01*
X38066Y99956D01*
X38055Y99966D01*
X38045Y99974D01*
X38035Y99982D01*
X38028Y99987D01*
X38023Y99992D01*
X38022Y99994D01*
X38020Y99996D01*
Y98500D01*
X37784D01*
Y100421D01*
X37937D01*
X37949Y100397D01*
D02*
G37*
%LPC*%
G36*
X28896Y91619D02*
X28291D01*
X28253Y91617D01*
X28217Y91616D01*
X28183Y91611D01*
X28154Y91606D01*
X28125Y91599D01*
X28100Y91591D01*
X28077Y91582D01*
X28056Y91576D01*
X28039Y91567D01*
X28023Y91559D01*
X28011Y91551D01*
X27999Y91544D01*
X27991Y91539D01*
X27986Y91534D01*
X27983Y91533D01*
X27981Y91531D01*
X27963Y91514D01*
X27948Y91496D01*
X27935Y91478D01*
X27923Y91460D01*
X27913Y91440D01*
X27906Y91421D01*
X27893Y91386D01*
X27886Y91355D01*
X27885Y91342D01*
X27883Y91330D01*
X27881Y91320D01*
Y91313D01*
Y91308D01*
Y91307D01*
X27883Y91272D01*
X27890Y91240D01*
X27898Y91212D01*
X27906Y91186D01*
X27916Y91164D01*
X27924Y91148D01*
X27928Y91142D01*
X27931Y91137D01*
X27933Y91136D01*
Y91134D01*
X27954Y91108D01*
X27978Y91083D01*
X28003Y91065D01*
X28027Y91048D01*
X28049Y91035D01*
X28066Y91026D01*
X28072Y91023D01*
X28077Y91021D01*
X28081Y91020D01*
X28082D01*
X28102Y91013D01*
X28122Y91008D01*
X28165Y91000D01*
X28210Y90993D01*
X28255Y90990D01*
X28275Y90988D01*
X28293Y90987D01*
X28310D01*
X28325Y90985D01*
X28896D01*
Y91619D01*
D02*
G37*
G36*
X26693Y90950D02*
X26678D01*
X26648Y90948D01*
X26620Y90945D01*
X26593Y90940D01*
X26568Y90932D01*
X26545Y90923D01*
X26524Y90913D01*
X26504Y90903D01*
X26485Y90894D01*
X26469Y90882D01*
X26454Y90872D01*
X26442Y90862D01*
X26430Y90854D01*
X26422Y90845D01*
X26417Y90840D01*
X26414Y90837D01*
X26412Y90835D01*
X26394Y90814D01*
X26377Y90789D01*
X26362Y90764D01*
X26351Y90737D01*
X26341Y90712D01*
X26333Y90686D01*
X26319Y90636D01*
X26314Y90613D01*
X26311Y90591D01*
X26309Y90571D01*
X26308Y90555D01*
X26306Y90542D01*
Y90530D01*
Y90523D01*
Y90522D01*
X26308Y90483D01*
X26311Y90449D01*
X26316Y90415D01*
X26323Y90384D01*
X26331Y90356D01*
X26341Y90329D01*
X26349Y90304D01*
X26359Y90283D01*
X26371Y90263D01*
X26379Y90244D01*
X26389Y90231D01*
X26397Y90218D01*
X26404Y90208D01*
X26409Y90201D01*
X26412Y90198D01*
X26414Y90196D01*
X26434Y90175D01*
X26455Y90156D01*
X26477Y90141D01*
X26499Y90127D01*
X26520Y90115D01*
X26542Y90107D01*
X26562Y90098D01*
X26582Y90092D01*
X26600Y90087D01*
X26616Y90083D01*
X26631Y90080D01*
X26645Y90078D01*
X26655D01*
X26663Y90077D01*
X26670D01*
X26708Y90078D01*
X26743Y90085D01*
X26776Y90095D01*
X26804Y90105D01*
X26829Y90115D01*
X26839Y90120D01*
X26847Y90125D01*
X26854Y90128D01*
X26859Y90132D01*
X26862Y90133D01*
X26864D01*
X26895Y90156D01*
X26925Y90185D01*
X26948Y90213D01*
X26970Y90239D01*
X26985Y90264D01*
X26997Y90284D01*
X27002Y90293D01*
X27005Y90298D01*
X27007Y90301D01*
Y90302D01*
X27023Y90344D01*
X27036Y90386D01*
X27045Y90425D01*
X27051Y90460D01*
X27053Y90477D01*
X27055Y90490D01*
X27056Y90503D01*
Y90515D01*
X27058Y90523D01*
Y90530D01*
Y90533D01*
Y90535D01*
X27056Y90570D01*
X27053Y90601D01*
X27048Y90631D01*
X27041Y90661D01*
X27033Y90688D01*
X27023Y90712D01*
X27013Y90734D01*
X27003Y90756D01*
X26993Y90774D01*
X26983Y90789D01*
X26973Y90804D01*
X26965Y90816D01*
X26958Y90824D01*
X26953Y90830D01*
X26950Y90834D01*
X26948Y90835D01*
X26927Y90855D01*
X26905Y90874D01*
X26882Y90889D01*
X26859Y90902D01*
X26836Y90913D01*
X26814Y90922D01*
X26792Y90930D01*
X26771Y90935D01*
X26753Y90940D01*
X26734Y90943D01*
X26718Y90947D01*
X26704Y90948D01*
X26693Y90950D01*
D02*
G37*
G36*
X28246Y100703D02*
X27642D01*
X27604Y100701D01*
X27567Y100700D01*
X27534Y100695D01*
X27504Y100690D01*
X27476Y100683D01*
X27451Y100675D01*
X27428Y100667D01*
X27406Y100660D01*
X27389Y100652D01*
X27373Y100643D01*
X27361Y100635D01*
X27350Y100628D01*
X27341Y100624D01*
X27336Y100619D01*
X27333Y100617D01*
X27331Y100615D01*
X27313Y100599D01*
X27298Y100580D01*
X27285Y100562D01*
X27273Y100544D01*
X27263Y100524D01*
X27257Y100506D01*
X27243Y100471D01*
X27237Y100439D01*
X27235Y100426D01*
X27233Y100414D01*
X27232Y100404D01*
Y100398D01*
Y100393D01*
Y100391D01*
X27233Y100356D01*
X27240Y100325D01*
X27248Y100296D01*
X27257Y100270D01*
X27267Y100248D01*
X27275Y100232D01*
X27278Y100227D01*
X27282Y100222D01*
X27283Y100220D01*
Y100218D01*
X27305Y100192D01*
X27328Y100167D01*
X27353Y100149D01*
X27378Y100132D01*
X27399Y100119D01*
X27416Y100110D01*
X27423Y100107D01*
X27428Y100106D01*
X27431Y100104D01*
X27433D01*
X27452Y100097D01*
X27472Y100092D01*
X27516Y100084D01*
X27560Y100077D01*
X27605Y100074D01*
X27625Y100072D01*
X27643Y100071D01*
X27660D01*
X27675Y100069D01*
X28246D01*
Y100703D01*
D02*
G37*
G36*
X56274Y94672D02*
X54812D01*
Y94271D01*
Y94229D01*
X54813Y94191D01*
X54815Y94156D01*
X54818Y94125D01*
X54822Y94095D01*
X54825Y94068D01*
X54828Y94043D01*
X54832Y94022D01*
X54835Y94003D01*
X54838Y93987D01*
X54842Y93973D01*
X54845Y93964D01*
X54848Y93954D01*
X54850Y93949D01*
X54852Y93945D01*
Y93944D01*
X54863Y93917D01*
X54877Y93892D01*
X54892Y93869D01*
X54908Y93847D01*
X54945Y93806D01*
X54979Y93771D01*
X54998Y93756D01*
X55014Y93743D01*
X55028Y93731D01*
X55041Y93723D01*
X55053Y93715D01*
X55061Y93710D01*
X55066Y93706D01*
X55067Y93705D01*
X55099Y93686D01*
X55134Y93671D01*
X55170Y93658D01*
X55207Y93647D01*
X55245Y93637D01*
X55285Y93630D01*
X55321Y93623D01*
X55358Y93617D01*
X55393Y93613D01*
X55426Y93610D01*
X55454Y93608D01*
X55479Y93607D01*
X55501Y93605D01*
X55569D01*
X55607Y93607D01*
X55643Y93610D01*
X55678Y93613D01*
X55712Y93617D01*
X55741Y93622D01*
X55770Y93627D01*
X55796Y93630D01*
X55819Y93635D01*
X55839Y93640D01*
X55858Y93645D01*
X55872Y93648D01*
X55884Y93651D01*
X55892Y93655D01*
X55897Y93656D01*
X55899D01*
X55952Y93676D01*
X56000Y93700D01*
X56022Y93711D01*
X56042Y93723D01*
X56060Y93735D01*
X56077Y93744D01*
X56090Y93754D01*
X56103Y93764D01*
X56115Y93774D01*
X56123Y93781D01*
X56130Y93788D01*
X56135Y93793D01*
X56138Y93794D01*
X56140Y93796D01*
X56163Y93822D01*
X56183Y93851D01*
X56200Y93879D01*
X56214Y93907D01*
X56224Y93930D01*
X56233Y93950D01*
X56236Y93959D01*
X56238Y93964D01*
X56239Y93967D01*
Y93968D01*
X56246Y93990D01*
X56251Y94012D01*
X56259Y94060D01*
X56266Y94108D01*
X56269Y94156D01*
X56271Y94178D01*
X56273Y94199D01*
Y94217D01*
X56274Y94232D01*
Y94246D01*
Y94256D01*
Y94262D01*
Y94264D01*
Y94672D01*
D02*
G37*
G36*
X14796Y91604D02*
X14352D01*
X14314Y91602D01*
X14279Y91601D01*
X14248Y91597D01*
X14218Y91594D01*
X14191Y91591D01*
X14166Y91587D01*
X14145Y91584D01*
X14127Y91581D01*
X14110Y91577D01*
X14097Y91574D01*
X14087Y91571D01*
X14077Y91567D01*
X14072Y91566D01*
X14069Y91564D01*
X14067D01*
X14040Y91553D01*
X14015Y91539D01*
X13992Y91524D01*
X13971Y91508D01*
X13929Y91471D01*
X13894Y91436D01*
X13879Y91418D01*
X13866Y91401D01*
X13854Y91388D01*
X13846Y91375D01*
X13838Y91363D01*
X13833Y91355D01*
X13829Y91350D01*
X13828Y91348D01*
X13810Y91317D01*
X13795Y91282D01*
X13781Y91245D01*
X13770Y91209D01*
X13760Y91171D01*
X13753Y91131D01*
X13747Y91094D01*
X13740Y91058D01*
X13736Y91023D01*
X13733Y90990D01*
X13732Y90961D01*
X13730Y90937D01*
X13728Y90915D01*
Y90900D01*
Y90890D01*
Y90889D01*
Y90887D01*
Y90847D01*
X13730Y90809D01*
X13733Y90772D01*
X13736Y90737D01*
X13740Y90704D01*
X13745Y90674D01*
X13750Y90646D01*
X13753Y90620D01*
X13758Y90596D01*
X13763Y90576D01*
X13768Y90558D01*
X13771Y90543D01*
X13775Y90532D01*
X13778Y90523D01*
X13780Y90518D01*
Y90517D01*
X13800Y90464D01*
X13823Y90415D01*
X13835Y90394D01*
X13846Y90374D01*
X13858Y90356D01*
X13868Y90339D01*
X13878Y90326D01*
X13888Y90312D01*
X13898Y90301D01*
X13904Y90293D01*
X13911Y90286D01*
X13916Y90281D01*
X13917Y90278D01*
X13919Y90276D01*
X13946Y90253D01*
X13974Y90233D01*
X14002Y90216D01*
X14030Y90201D01*
X14054Y90191D01*
X14074Y90183D01*
X14082Y90180D01*
X14087Y90178D01*
X14090Y90176D01*
X14092D01*
X14113Y90170D01*
X14135Y90165D01*
X14183Y90156D01*
X14231Y90150D01*
X14279Y90146D01*
X14301Y90145D01*
X14322Y90143D01*
X14341D01*
X14356Y90141D01*
X14796D01*
Y91604D01*
D02*
G37*
G36*
Y100588D02*
X14352D01*
X14314Y100587D01*
X14279Y100585D01*
X14248Y100582D01*
X14218Y100578D01*
X14191Y100575D01*
X14166Y100572D01*
X14145Y100568D01*
X14127Y100565D01*
X14110Y100562D01*
X14097Y100558D01*
X14087Y100555D01*
X14077Y100552D01*
X14072Y100550D01*
X14069Y100548D01*
X14067D01*
X14040Y100537D01*
X14015Y100523D01*
X13992Y100508D01*
X13971Y100492D01*
X13929Y100455D01*
X13894Y100421D01*
X13879Y100402D01*
X13866Y100386D01*
X13854Y100372D01*
X13846Y100359D01*
X13838Y100347D01*
X13833Y100339D01*
X13829Y100334D01*
X13828Y100333D01*
X13810Y100301D01*
X13795Y100266D01*
X13781Y100230D01*
X13770Y100193D01*
X13760Y100155D01*
X13753Y100115D01*
X13747Y100079D01*
X13740Y100042D01*
X13736Y100007D01*
X13733Y99974D01*
X13732Y99946D01*
X13730Y99921D01*
X13728Y99899D01*
Y99884D01*
Y99874D01*
Y99873D01*
Y99871D01*
Y99831D01*
X13730Y99793D01*
X13733Y99757D01*
X13736Y99722D01*
X13740Y99689D01*
X13745Y99659D01*
X13750Y99630D01*
X13753Y99604D01*
X13758Y99581D01*
X13763Y99561D01*
X13768Y99542D01*
X13771Y99528D01*
X13775Y99516D01*
X13778Y99508D01*
X13780Y99503D01*
Y99501D01*
X13800Y99448D01*
X13823Y99400D01*
X13835Y99378D01*
X13846Y99358D01*
X13858Y99340D01*
X13868Y99323D01*
X13878Y99310D01*
X13888Y99297D01*
X13898Y99285D01*
X13904Y99277D01*
X13911Y99270D01*
X13916Y99265D01*
X13917Y99262D01*
X13919Y99260D01*
X13946Y99237D01*
X13974Y99217D01*
X14002Y99200D01*
X14030Y99186D01*
X14054Y99176D01*
X14074Y99167D01*
X14082Y99164D01*
X14087Y99162D01*
X14090Y99161D01*
X14092D01*
X14113Y99154D01*
X14135Y99149D01*
X14183Y99141D01*
X14231Y99134D01*
X14279Y99131D01*
X14301Y99129D01*
X14322Y99127D01*
X14341D01*
X14356Y99126D01*
X14796D01*
Y100588D01*
D02*
G37*
G36*
X21446Y12188D02*
X21003D01*
X20965Y12187D01*
X20930Y12185D01*
X20898Y12182D01*
X20868Y12178D01*
X20842Y12175D01*
X20817Y12172D01*
X20795Y12168D01*
X20777Y12165D01*
X20760Y12162D01*
X20747Y12158D01*
X20737Y12155D01*
X20727Y12152D01*
X20722Y12150D01*
X20719Y12148D01*
X20717D01*
X20691Y12137D01*
X20666Y12123D01*
X20643Y12109D01*
X20621Y12092D01*
X20580Y12055D01*
X20545Y12021D01*
X20530Y12002D01*
X20516Y11986D01*
X20505Y11972D01*
X20496Y11959D01*
X20488Y11947D01*
X20483Y11939D01*
X20480Y11934D01*
X20478Y11933D01*
X20460Y11901D01*
X20445Y11866D01*
X20432Y11830D01*
X20420Y11793D01*
X20410Y11755D01*
X20403Y11715D01*
X20397Y11679D01*
X20390Y11642D01*
X20387Y11607D01*
X20384Y11574D01*
X20382Y11546D01*
X20380Y11521D01*
X20379Y11499D01*
Y11484D01*
Y11474D01*
Y11473D01*
Y11471D01*
Y11431D01*
X20380Y11393D01*
X20384Y11357D01*
X20387Y11322D01*
X20390Y11288D01*
X20395Y11259D01*
X20400Y11230D01*
X20403Y11204D01*
X20409Y11181D01*
X20414Y11161D01*
X20418Y11142D01*
X20422Y11128D01*
X20425Y11116D01*
X20428Y11108D01*
X20430Y11103D01*
Y11101D01*
X20450Y11048D01*
X20473Y11000D01*
X20485Y10978D01*
X20496Y10958D01*
X20508Y10940D01*
X20518Y10923D01*
X20528Y10910D01*
X20538Y10897D01*
X20548Y10885D01*
X20555Y10877D01*
X20561Y10870D01*
X20566Y10865D01*
X20568Y10862D01*
X20570Y10860D01*
X20596Y10837D01*
X20624Y10817D01*
X20652Y10801D01*
X20681Y10785D01*
X20704Y10776D01*
X20724Y10767D01*
X20732Y10764D01*
X20737Y10762D01*
X20741Y10761D01*
X20742D01*
X20764Y10754D01*
X20785Y10749D01*
X20833Y10741D01*
X20882Y10734D01*
X20930Y10731D01*
X20951Y10729D01*
X20973Y10727D01*
X20991D01*
X21006Y10726D01*
X21446D01*
Y12188D01*
D02*
G37*
G36*
X18196Y12230D02*
X18184D01*
X18149Y12228D01*
X18114Y12226D01*
X18083Y12221D01*
X18051Y12215D01*
X18021Y12208D01*
X17993Y12200D01*
X17967Y12190D01*
X17943Y12182D01*
X17922Y12173D01*
X17902Y12163D01*
X17885Y12155D01*
X17870Y12148D01*
X17859Y12142D01*
X17851Y12138D01*
X17845Y12135D01*
X17844Y12133D01*
X17816Y12115D01*
X17791Y12094D01*
X17766Y12072D01*
X17743Y12050D01*
X17723Y12029D01*
X17703Y12006D01*
X17686Y11984D01*
X17670Y11963D01*
X17656Y11942D01*
X17645Y11923D01*
X17635Y11906D01*
X17626Y11891D01*
X17620Y11880D01*
X17615Y11871D01*
X17613Y11864D01*
X17611Y11863D01*
X17598Y11830D01*
X17585Y11795D01*
X17565Y11725D01*
X17552Y11657D01*
X17547Y11626D01*
X17542Y11594D01*
X17538Y11566D01*
X17535Y11539D01*
X17533Y11516D01*
Y11496D01*
X17532Y11479D01*
Y11466D01*
Y11460D01*
Y11456D01*
X17533Y11388D01*
X17540Y11325D01*
X17548Y11265D01*
X17560Y11210D01*
X17575Y11159D01*
X17590Y11112D01*
X17608Y11071D01*
X17625Y11031D01*
X17641Y10998D01*
X17660Y10968D01*
X17674Y10943D01*
X17688Y10922D01*
X17701Y10907D01*
X17709Y10895D01*
X17716Y10887D01*
X17718Y10885D01*
X17752Y10850D01*
X17791Y10819D01*
X17829Y10792D01*
X17869Y10771D01*
X17909Y10751D01*
X17948Y10734D01*
X17987Y10721D01*
X18023Y10711D01*
X18056Y10702D01*
X18088Y10696D01*
X18116Y10693D01*
X18141Y10689D01*
X18161Y10688D01*
X18176Y10686D01*
X18189D01*
X18241Y10688D01*
X18290Y10694D01*
X18337Y10704D01*
X18380Y10718D01*
X18421Y10732D01*
X18460Y10749D01*
X18495Y10766D01*
X18528Y10785D01*
X18556Y10804D01*
X18583Y10820D01*
X18604Y10837D01*
X18622Y10852D01*
X18637Y10865D01*
X18647Y10875D01*
X18654Y10882D01*
X18656Y10883D01*
X18689Y10922D01*
X18717Y10965D01*
X18742Y11008D01*
X18764Y11053D01*
X18782Y11098D01*
X18797Y11144D01*
X18808Y11187D01*
X18818Y11230D01*
X18826Y11270D01*
X18832Y11308D01*
X18836Y11342D01*
X18838Y11372D01*
X18840Y11395D01*
X18842Y11405D01*
Y11413D01*
Y11420D01*
Y11425D01*
Y11426D01*
Y11428D01*
X18840Y11506D01*
X18833Y11579D01*
X18823Y11645D01*
X18812Y11707D01*
X18797Y11762D01*
X18780Y11813D01*
X18764Y11858D01*
X18745Y11898D01*
X18727Y11933D01*
X18710Y11963D01*
X18694Y11987D01*
X18679Y12009D01*
X18667Y12024D01*
X18657Y12036D01*
X18651Y12042D01*
X18649Y12044D01*
X18612Y12077D01*
X18573Y12105D01*
X18534Y12130D01*
X18495Y12152D01*
X18455Y12170D01*
X18417Y12185D01*
X18378Y12196D01*
X18343Y12207D01*
X18310Y12215D01*
X18280Y12220D01*
X18252Y12225D01*
X18229Y12226D01*
X18211Y12228D01*
X18196Y12230D01*
D02*
G37*
G36*
X21477Y57820D02*
Y56958D01*
X22076D01*
X21477Y57820D01*
D02*
G37*
G36*
X13299Y80395D02*
X13231D01*
X13193Y80393D01*
X13157Y80390D01*
X13122Y80387D01*
X13089Y80383D01*
X13059Y80378D01*
X13030Y80373D01*
X13004Y80370D01*
X12981Y80365D01*
X12961Y80360D01*
X12942Y80355D01*
X12927Y80352D01*
X12916Y80348D01*
X12908Y80345D01*
X12903Y80344D01*
X12901D01*
X12848Y80324D01*
X12800Y80300D01*
X12778Y80289D01*
X12758Y80277D01*
X12740Y80265D01*
X12723Y80256D01*
X12710Y80246D01*
X12697Y80236D01*
X12685Y80226D01*
X12677Y80219D01*
X12670Y80212D01*
X12665Y80207D01*
X12662Y80206D01*
X12660Y80204D01*
X12637Y80177D01*
X12617Y80149D01*
X12600Y80121D01*
X12585Y80093D01*
X12576Y80070D01*
X12567Y80050D01*
X12564Y80041D01*
X12562Y80036D01*
X12561Y80033D01*
Y80032D01*
X12554Y80010D01*
X12549Y79988D01*
X12541Y79940D01*
X12534Y79892D01*
X12531Y79844D01*
X12529Y79822D01*
X12527Y79801D01*
Y79782D01*
X12526Y79768D01*
Y79754D01*
Y79744D01*
Y79738D01*
Y79736D01*
Y79328D01*
X13988D01*
Y79729D01*
Y79771D01*
X13987Y79809D01*
X13985Y79844D01*
X13982Y79875D01*
X13978Y79905D01*
X13975Y79932D01*
X13972Y79957D01*
X13968Y79978D01*
X13965Y79997D01*
X13962Y80013D01*
X13958Y80027D01*
X13955Y80036D01*
X13952Y80046D01*
X13950Y80051D01*
X13948Y80055D01*
Y80056D01*
X13937Y80083D01*
X13924Y80108D01*
X13908Y80131D01*
X13892Y80153D01*
X13855Y80194D01*
X13821Y80229D01*
X13802Y80244D01*
X13786Y80257D01*
X13772Y80269D01*
X13759Y80277D01*
X13747Y80285D01*
X13739Y80290D01*
X13734Y80294D01*
X13733Y80295D01*
X13701Y80314D01*
X13666Y80329D01*
X13630Y80342D01*
X13593Y80353D01*
X13555Y80364D01*
X13515Y80370D01*
X13479Y80377D01*
X13442Y80383D01*
X13407Y80387D01*
X13374Y80390D01*
X13346Y80392D01*
X13321Y80393D01*
X13299Y80395D01*
D02*
G37*
G36*
X55682Y87864D02*
X55120Y87653D01*
X55053Y87629D01*
X54986Y87610D01*
X54925Y87591D01*
X54895Y87585D01*
X54868Y87576D01*
X54843Y87571D01*
X54822Y87565D01*
X54802Y87560D01*
X54785Y87556D01*
X54772Y87553D01*
X54762Y87551D01*
X54755Y87550D01*
X54754D01*
X54784Y87542D01*
X54815Y87532D01*
X54882Y87510D01*
X54948Y87487D01*
X54981Y87477D01*
X55011Y87465D01*
X55041Y87455D01*
X55067Y87445D01*
X55091Y87437D01*
X55112Y87430D01*
X55129Y87424D01*
X55142Y87419D01*
X55149Y87417D01*
X55152Y87415D01*
X55682Y87214D01*
Y87864D01*
D02*
G37*
G36*
X56241Y89746D02*
X55584D01*
Y89305D01*
Y89271D01*
X55585Y89240D01*
X55587Y89211D01*
X55589Y89183D01*
X55592Y89158D01*
X55594Y89135D01*
X55597Y89115D01*
X55600Y89097D01*
X55604Y89080D01*
X55607Y89065D01*
X55609Y89054D01*
X55612Y89044D01*
X55614Y89035D01*
X55615Y89031D01*
X55617Y89027D01*
Y89026D01*
X55630Y88991D01*
X55647Y88961D01*
X55667Y88934D01*
X55685Y88911D01*
X55702Y88894D01*
X55715Y88881D01*
X55725Y88875D01*
X55726Y88871D01*
X55728D01*
X55758Y88853D01*
X55790Y88838D01*
X55821Y88828D01*
X55849Y88821D01*
X55874Y88818D01*
X55886Y88816D01*
X55894Y88815D01*
X55912D01*
X55946Y88816D01*
X55975Y88821D01*
X56004Y88826D01*
X56029Y88833D01*
X56047Y88841D01*
X56062Y88846D01*
X56072Y88851D01*
X56073Y88853D01*
X56075D01*
X56100Y88868D01*
X56121Y88885D01*
X56140Y88901D01*
X56155Y88916D01*
X56166Y88929D01*
X56175Y88941D01*
X56180Y88948D01*
X56181Y88951D01*
X56195Y88974D01*
X56204Y88997D01*
X56213Y89022D01*
X56221Y89046D01*
X56226Y89065D01*
X56229Y89082D01*
X56231Y89089D01*
X56233Y89094D01*
Y89095D01*
Y89097D01*
X56234Y89107D01*
X56236Y89118D01*
X56238Y89145D01*
X56239Y89173D01*
Y89201D01*
X56241Y89228D01*
Y89240D01*
Y89250D01*
Y89258D01*
Y89265D01*
Y89268D01*
Y89270D01*
Y89746D01*
D02*
G37*
G36*
X55358D02*
X54779D01*
Y89364D01*
Y89328D01*
X54780Y89293D01*
X54782Y89261D01*
X54784Y89231D01*
X54785Y89205D01*
X54787Y89182D01*
X54790Y89160D01*
X54792Y89142D01*
X54795Y89125D01*
X54799Y89112D01*
X54800Y89100D01*
X54802Y89090D01*
X54804Y89082D01*
X54805Y89077D01*
X54807Y89075D01*
Y89074D01*
X54818Y89044D01*
X54833Y89017D01*
X54850Y88996D01*
X54867Y88976D01*
X54882Y88963D01*
X54895Y88951D01*
X54903Y88944D01*
X54905Y88943D01*
X54906D01*
X54935Y88928D01*
X54963Y88916D01*
X54991Y88908D01*
X55018Y88901D01*
X55039Y88898D01*
X55058Y88896D01*
X55074D01*
X55111Y88898D01*
X55142Y88904D01*
X55170Y88911D01*
X55195Y88921D01*
X55215Y88929D01*
X55230Y88938D01*
X55238Y88944D01*
X55242Y88946D01*
X55265Y88966D01*
X55285Y88989D01*
X55301Y89014D01*
X55313Y89037D01*
X55323Y89059D01*
X55331Y89075D01*
X55333Y89082D01*
X55335Y89087D01*
X55336Y89090D01*
Y89092D01*
X55340Y89107D01*
X55343Y89123D01*
X55348Y89160D01*
X55353Y89200D01*
X55355Y89240D01*
X55356Y89276D01*
X55358Y89291D01*
Y89305D01*
Y89316D01*
Y89326D01*
Y89331D01*
Y89333D01*
Y89746D01*
D02*
G37*
G36*
X35325Y125231D02*
X34754D01*
Y124597D01*
X35358D01*
X35396Y124599D01*
X35433Y124600D01*
X35466Y124605D01*
X35496Y124610D01*
X35524Y124617D01*
X35549Y124625D01*
X35572Y124633D01*
X35594Y124640D01*
X35610Y124648D01*
X35627Y124657D01*
X35639Y124665D01*
X35650Y124671D01*
X35659Y124677D01*
X35664Y124681D01*
X35667Y124683D01*
X35669Y124685D01*
X35687Y124701D01*
X35702Y124720D01*
X35715Y124738D01*
X35727Y124756D01*
X35737Y124776D01*
X35743Y124794D01*
X35757Y124829D01*
X35763Y124861D01*
X35765Y124874D01*
X35767Y124886D01*
X35768Y124896D01*
Y124902D01*
Y124907D01*
Y124909D01*
X35767Y124944D01*
X35760Y124975D01*
X35752Y125004D01*
X35743Y125030D01*
X35733Y125052D01*
X35725Y125068D01*
X35722Y125073D01*
X35718Y125078D01*
X35717Y125080D01*
Y125082D01*
X35695Y125108D01*
X35672Y125133D01*
X35647Y125151D01*
X35622Y125168D01*
X35601Y125181D01*
X35584Y125189D01*
X35577Y125193D01*
X35572Y125194D01*
X35569Y125196D01*
X35567D01*
X35548Y125203D01*
X35528Y125208D01*
X35484Y125216D01*
X35440Y125223D01*
X35395Y125226D01*
X35375Y125228D01*
X35357Y125229D01*
X35340D01*
X35325Y125231D01*
D02*
G37*
G36*
X39146Y12103D02*
X38542D01*
X38504Y12101D01*
X38467Y12100D01*
X38434Y12095D01*
X38404Y12090D01*
X38376Y12083D01*
X38351Y12075D01*
X38328Y12067D01*
X38306Y12060D01*
X38289Y12052D01*
X38273Y12043D01*
X38261Y12035D01*
X38250Y12028D01*
X38241Y12024D01*
X38236Y12019D01*
X38233Y12017D01*
X38231Y12015D01*
X38213Y11999D01*
X38198Y11980D01*
X38185Y11962D01*
X38173Y11944D01*
X38163Y11924D01*
X38157Y11906D01*
X38143Y11871D01*
X38137Y11839D01*
X38135Y11826D01*
X38133Y11814D01*
X38132Y11804D01*
Y11798D01*
Y11793D01*
Y11791D01*
X38133Y11756D01*
X38140Y11725D01*
X38148Y11697D01*
X38157Y11670D01*
X38167Y11648D01*
X38175Y11632D01*
X38178Y11627D01*
X38182Y11622D01*
X38183Y11620D01*
Y11618D01*
X38205Y11592D01*
X38228Y11567D01*
X38253Y11549D01*
X38278Y11532D01*
X38299Y11519D01*
X38316Y11511D01*
X38323Y11507D01*
X38328Y11506D01*
X38331Y11504D01*
X38333D01*
X38353Y11497D01*
X38372Y11492D01*
X38416Y11484D01*
X38460Y11477D01*
X38505Y11474D01*
X38525Y11472D01*
X38543Y11471D01*
X38560D01*
X38575Y11469D01*
X39146D01*
Y12103D01*
D02*
G37*
G36*
X61426Y32344D02*
X61406D01*
X61368Y32342D01*
X61333Y32339D01*
X61300Y32334D01*
X61268Y32327D01*
X61240Y32319D01*
X61213Y32309D01*
X61188Y32300D01*
X61167Y32291D01*
X61147Y32279D01*
X61129Y32271D01*
X61115Y32261D01*
X61102Y32252D01*
X61092Y32246D01*
X61085Y32241D01*
X61082Y32237D01*
X61080Y32236D01*
X61059Y32216D01*
X61041Y32194D01*
X61026Y32173D01*
X61011Y32151D01*
X60999Y32129D01*
X60991Y32108D01*
X60983Y32088D01*
X60976Y32068D01*
X60971Y32050D01*
X60968Y32033D01*
X60964Y32018D01*
X60963Y32005D01*
Y31995D01*
X60961Y31987D01*
Y31982D01*
Y31980D01*
X60963Y31942D01*
X60969Y31907D01*
X60979Y31874D01*
X60989Y31846D01*
X60999Y31821D01*
X61004Y31811D01*
X61009Y31802D01*
X61013Y31796D01*
X61016Y31791D01*
X61018Y31787D01*
Y31786D01*
X61041Y31754D01*
X61069Y31724D01*
X61097Y31701D01*
X61124Y31680D01*
X61149Y31665D01*
X61168Y31653D01*
X61177Y31648D01*
X61182Y31645D01*
X61185Y31643D01*
X61187D01*
X61228Y31626D01*
X61270Y31613D01*
X61310Y31605D01*
X61344Y31598D01*
X61361Y31597D01*
X61374Y31595D01*
X61388Y31593D01*
X61399D01*
X61408Y31592D01*
X61419D01*
X61454Y31593D01*
X61486Y31597D01*
X61515Y31602D01*
X61545Y31608D01*
X61572Y31617D01*
X61597Y31626D01*
X61618Y31636D01*
X61640Y31646D01*
X61658Y31656D01*
X61673Y31666D01*
X61688Y31676D01*
X61700Y31685D01*
X61708Y31691D01*
X61715Y31696D01*
X61718Y31699D01*
X61720Y31701D01*
X61740Y31723D01*
X61758Y31744D01*
X61773Y31768D01*
X61786Y31791D01*
X61798Y31814D01*
X61806Y31836D01*
X61814Y31857D01*
X61819Y31879D01*
X61824Y31897D01*
X61827Y31915D01*
X61831Y31932D01*
X61832Y31945D01*
X61834Y31957D01*
Y31965D01*
Y31970D01*
Y31972D01*
X61832Y32002D01*
X61829Y32030D01*
X61824Y32056D01*
X61816Y32081D01*
X61808Y32105D01*
X61798Y32126D01*
X61788Y32146D01*
X61778Y32164D01*
X61766Y32181D01*
X61756Y32196D01*
X61746Y32208D01*
X61738Y32219D01*
X61730Y32227D01*
X61725Y32232D01*
X61721Y32236D01*
X61720Y32237D01*
X61698Y32256D01*
X61673Y32272D01*
X61648Y32287D01*
X61622Y32299D01*
X61597Y32309D01*
X61570Y32317D01*
X61520Y32330D01*
X61497Y32335D01*
X61476Y32339D01*
X61456Y32340D01*
X61439Y32342D01*
X61426Y32344D01*
D02*
G37*
G36*
X36957Y12128D02*
X36943D01*
X36918Y12126D01*
X36895Y12125D01*
X36852Y12115D01*
X36814Y12100D01*
X36782Y12085D01*
X36767Y12077D01*
X36756Y12068D01*
X36746Y12060D01*
X36737Y12053D01*
X36729Y12048D01*
X36724Y12043D01*
X36722Y12042D01*
X36721Y12040D01*
X36704Y12024D01*
X36691Y12005D01*
X36679Y11987D01*
X36669Y11969D01*
X36653Y11932D01*
X36643Y11899D01*
X36636Y11869D01*
X36634Y11856D01*
X36633Y11844D01*
X36631Y11836D01*
Y11828D01*
Y11824D01*
Y11823D01*
X36633Y11799D01*
X36634Y11778D01*
X36644Y11738D01*
X36658Y11701D01*
X36674Y11672D01*
X36691Y11647D01*
X36698Y11637D01*
X36704Y11628D01*
X36709Y11622D01*
X36714Y11617D01*
X36716Y11615D01*
X36717Y11614D01*
X36734Y11598D01*
X36752Y11585D01*
X36771Y11574D01*
X36789Y11565D01*
X36825Y11549D01*
X36860Y11539D01*
X36892Y11534D01*
X36905Y11532D01*
X36917Y11530D01*
X36927Y11529D01*
X36940D01*
X36966Y11530D01*
X36990Y11532D01*
X37034Y11542D01*
X37074Y11555D01*
X37106Y11572D01*
X37121Y11579D01*
X37132Y11587D01*
X37142Y11593D01*
X37152Y11600D01*
X37159Y11605D01*
X37164Y11610D01*
X37166Y11612D01*
X37167Y11614D01*
X37182Y11630D01*
X37196Y11648D01*
X37207Y11667D01*
X37217Y11685D01*
X37232Y11721D01*
X37242Y11758D01*
X37249Y11788D01*
X37250Y11801D01*
X37252Y11813D01*
X37254Y11823D01*
Y11829D01*
Y11834D01*
Y11836D01*
X37252Y11857D01*
X37250Y11879D01*
X37240Y11919D01*
X37225Y11954D01*
X37209Y11984D01*
X37194Y12009D01*
X37186Y12019D01*
X37179Y12027D01*
X37174Y12033D01*
X37169Y12038D01*
X37167Y12040D01*
X37166Y12042D01*
X37149Y12057D01*
X37131Y12070D01*
X37113Y12082D01*
X37094Y12092D01*
X37056Y12106D01*
X37021Y12118D01*
X36990Y12123D01*
X36976Y12125D01*
X36965Y12126D01*
X36957Y12128D01*
D02*
G37*
G36*
X36965Y11336D02*
X36948D01*
X36917Y11335D01*
X36887Y11331D01*
X36858Y11326D01*
X36832Y11320D01*
X36807Y11310D01*
X36784Y11301D01*
X36762Y11291D01*
X36744Y11282D01*
X36726Y11270D01*
X36711Y11260D01*
X36698Y11252D01*
X36686Y11243D01*
X36678Y11235D01*
X36671Y11230D01*
X36668Y11227D01*
X36666Y11225D01*
X36646Y11203D01*
X36630Y11182D01*
X36613Y11159D01*
X36601Y11134D01*
X36590Y11111D01*
X36581Y11087D01*
X36566Y11042D01*
X36563Y11022D01*
X36560Y11004D01*
X36556Y10988D01*
X36555Y10973D01*
X36553Y10961D01*
Y10953D01*
Y10946D01*
Y10944D01*
X36555Y10915D01*
X36558Y10885D01*
X36563Y10857D01*
X36570Y10830D01*
X36578Y10807D01*
X36588Y10784D01*
X36598Y10763D01*
X36608Y10744D01*
X36618Y10727D01*
X36628Y10712D01*
X36638Y10699D01*
X36646Y10689D01*
X36653Y10680D01*
X36658Y10674D01*
X36661Y10671D01*
X36663Y10669D01*
X36684Y10651D01*
X36706Y10634D01*
X36729Y10619D01*
X36752Y10606D01*
X36775Y10596D01*
X36799Y10588D01*
X36842Y10574D01*
X36862Y10569D01*
X36882Y10566D01*
X36898Y10564D01*
X36912Y10563D01*
X36923Y10561D01*
X36940D01*
X36980Y10563D01*
X37016Y10569D01*
X37051Y10578D01*
X37081Y10588D01*
X37108Y10596D01*
X37117Y10601D01*
X37126Y10604D01*
X37132Y10607D01*
X37137Y10611D01*
X37141Y10612D01*
X37142D01*
X37176Y10634D01*
X37204Y10657D01*
X37229Y10680D01*
X37249Y10704D01*
X37264Y10725D01*
X37275Y10742D01*
X37279Y10749D01*
X37282Y10754D01*
X37284Y10755D01*
Y10757D01*
X37298Y10792D01*
X37310Y10827D01*
X37318Y10860D01*
X37323Y10890D01*
X37327Y10915D01*
X37328Y10925D01*
X37330Y10934D01*
Y10941D01*
Y10946D01*
Y10949D01*
Y10951D01*
X37328Y10981D01*
X37325Y11011D01*
X37320Y11037D01*
X37313Y11064D01*
X37305Y11087D01*
X37295Y11111D01*
X37287Y11130D01*
X37275Y11150D01*
X37265Y11167D01*
X37257Y11182D01*
X37247Y11195D01*
X37239Y11205D01*
X37232Y11213D01*
X37227Y11220D01*
X37224Y11223D01*
X37222Y11225D01*
X37200Y11245D01*
X37179Y11261D01*
X37157Y11276D01*
X37134Y11290D01*
X37111Y11300D01*
X37088Y11310D01*
X37045Y11323D01*
X37025Y11326D01*
X37006Y11330D01*
X36990Y11333D01*
X36976Y11335D01*
X36965Y11336D01*
D02*
G37*
G36*
X62046Y118688D02*
X61497D01*
X61470Y118687D01*
X61447Y118685D01*
X61425Y118683D01*
X61405D01*
X61389Y118682D01*
X61374Y118680D01*
X61360Y118678D01*
X61349Y118677D01*
X61340Y118675D01*
X61334Y118673D01*
X61327Y118672D01*
X61324D01*
X61321Y118670D01*
X61286Y118658D01*
X61252Y118642D01*
X61226Y118622D01*
X61203Y118604D01*
X61185Y118585D01*
X61171Y118570D01*
X61163Y118560D01*
X61160Y118559D01*
Y118557D01*
X61140Y118524D01*
X61125Y118489D01*
X61113Y118454D01*
X61106Y118423D01*
X61102Y118394D01*
X61100Y118383D01*
Y118371D01*
X61098Y118363D01*
Y118356D01*
Y118353D01*
Y118351D01*
X61100Y118321D01*
X61103Y118293D01*
X61108Y118267D01*
X61115Y118242D01*
X61123Y118218D01*
X61131Y118199D01*
X61141Y118179D01*
X61150Y118162D01*
X61160Y118147D01*
X61169Y118134D01*
X61178Y118122D01*
X61186Y118112D01*
X61193Y118106D01*
X61198Y118101D01*
X61201Y118097D01*
X61203Y118096D01*
X61224Y118079D01*
X61248Y118066D01*
X61273Y118054D01*
X61301Y118043D01*
X61359Y118026D01*
X61415Y118016D01*
X61443Y118013D01*
X61468Y118009D01*
X61492Y118008D01*
X61511Y118006D01*
X61528Y118004D01*
X62046D01*
Y118688D01*
D02*
G37*
G36*
X44917Y100536D02*
Y99674D01*
X45516D01*
X44917Y100536D01*
D02*
G37*
G36*
X40246Y100203D02*
X39642D01*
X39604Y100201D01*
X39567Y100200D01*
X39534Y100195D01*
X39504Y100190D01*
X39476Y100183D01*
X39451Y100175D01*
X39428Y100167D01*
X39406Y100160D01*
X39390Y100152D01*
X39373Y100143D01*
X39361Y100135D01*
X39350Y100128D01*
X39341Y100124D01*
X39336Y100119D01*
X39333Y100117D01*
X39331Y100115D01*
X39313Y100099D01*
X39298Y100080D01*
X39285Y100062D01*
X39273Y100044D01*
X39263Y100024D01*
X39257Y100006D01*
X39243Y99971D01*
X39237Y99939D01*
X39235Y99926D01*
X39233Y99914D01*
X39232Y99904D01*
Y99898D01*
Y99893D01*
Y99891D01*
X39233Y99856D01*
X39240Y99825D01*
X39248Y99796D01*
X39257Y99770D01*
X39267Y99748D01*
X39275Y99732D01*
X39278Y99727D01*
X39282Y99722D01*
X39283Y99720D01*
Y99718D01*
X39305Y99692D01*
X39328Y99667D01*
X39353Y99649D01*
X39378Y99632D01*
X39399Y99619D01*
X39416Y99611D01*
X39423Y99607D01*
X39428Y99606D01*
X39431Y99604D01*
X39433D01*
X39452Y99597D01*
X39472Y99592D01*
X39516Y99584D01*
X39560Y99577D01*
X39605Y99574D01*
X39625Y99572D01*
X39643Y99571D01*
X39660D01*
X39675Y99569D01*
X40246D01*
Y100203D01*
D02*
G37*
G36*
X15139Y130035D02*
Y129174D01*
X15738D01*
X15139Y130035D01*
D02*
G37*
G36*
X47246Y100703D02*
X46642D01*
X46604Y100701D01*
X46567Y100700D01*
X46534Y100695D01*
X46504Y100690D01*
X46476Y100683D01*
X46451Y100675D01*
X46428Y100667D01*
X46406Y100660D01*
X46389Y100652D01*
X46373Y100643D01*
X46361Y100635D01*
X46350Y100628D01*
X46341Y100624D01*
X46336Y100619D01*
X46333Y100617D01*
X46331Y100615D01*
X46313Y100599D01*
X46298Y100580D01*
X46285Y100562D01*
X46273Y100544D01*
X46263Y100524D01*
X46257Y100506D01*
X46243Y100471D01*
X46237Y100439D01*
X46235Y100426D01*
X46233Y100414D01*
X46232Y100404D01*
Y100398D01*
Y100393D01*
Y100391D01*
X46233Y100356D01*
X46240Y100325D01*
X46248Y100296D01*
X46257Y100270D01*
X46267Y100248D01*
X46275Y100232D01*
X46278Y100227D01*
X46282Y100222D01*
X46283Y100220D01*
Y100218D01*
X46305Y100192D01*
X46328Y100167D01*
X46353Y100149D01*
X46378Y100132D01*
X46399Y100119D01*
X46416Y100110D01*
X46423Y100107D01*
X46428Y100106D01*
X46431Y100104D01*
X46433D01*
X46453Y100097D01*
X46472Y100092D01*
X46516Y100084D01*
X46560Y100077D01*
X46605Y100074D01*
X46625Y100072D01*
X46643Y100071D01*
X46660D01*
X46675Y100069D01*
X47246D01*
Y100703D01*
D02*
G37*
%LPD*%
D15*
X8016Y93532D02*
Y97469D01*
Y95500D02*
X9984Y97469D01*
X8016Y95500D02*
X9984Y93532D01*
Y97469D01*
X8016Y84547D02*
Y88484D01*
Y86516D02*
X9984Y88484D01*
X8016Y86516D02*
X9984Y84547D01*
Y88484D01*
D16*
X28789Y36159D02*
X28208Y35304D01*
X27905Y34317D01*
Y33283D01*
X28208Y32296D01*
X28789Y31441D01*
X39461Y31496D02*
X40017Y32349D01*
X40301Y33327D01*
X40291Y34346D01*
X39985Y35317D01*
X39412Y36159D01*
X38494Y75585D02*
X37706D01*
X38494D01*
X17200Y121500D02*
X17390Y120543D01*
X17932Y119732D01*
X18743Y119190D01*
X19700Y119000D01*
X20657Y119190D01*
X21468Y119732D01*
X22010Y120543D01*
X22200Y121500D01*
X36641Y109188D02*
X37496Y108608D01*
X38483Y108305D01*
X39517D01*
X40504Y108608D01*
X41359Y109188D01*
X41304Y119861D02*
X40451Y120417D01*
X39473Y120702D01*
X38454Y120691D01*
X37483Y120385D01*
X36641Y119811D01*
X17612Y122641D02*
X18192Y123496D01*
X18495Y124483D01*
Y125517D01*
X18192Y126504D01*
X17612Y127359D01*
X6939Y127304D02*
X6383Y126451D01*
X6098Y125473D01*
X6109Y124454D01*
X6415Y123483D01*
X6989Y122641D01*
X28039Y47859D02*
X27459Y47004D01*
X27155Y46017D01*
Y44983D01*
X27459Y43996D01*
X28039Y43141D01*
X38711Y43196D02*
X39267Y44049D01*
X39552Y45027D01*
X39541Y46046D01*
X39236Y47017D01*
X38662Y47859D01*
X28688Y78859D02*
X28108Y78004D01*
X27805Y77017D01*
Y75983D01*
X28108Y74996D01*
X28688Y74141D01*
X39361Y74196D02*
X39917Y75049D01*
X40202Y76027D01*
X40191Y77046D01*
X39885Y78017D01*
X39312Y78859D01*
X19141Y30689D02*
X19996Y30108D01*
X20983Y29805D01*
X22017D01*
X23004Y30108D01*
X23859Y30689D01*
X23804Y41361D02*
X22951Y41917D01*
X21973Y42202D01*
X20954Y42191D01*
X19983Y41885D01*
X19141Y41311D01*
X17099Y41264D02*
X16244Y41844D01*
X15257Y42148D01*
X14224D01*
X13236Y41844D01*
X12381Y41264D01*
X12436Y30592D02*
X13289Y30036D01*
X14267Y29751D01*
X15286Y29762D01*
X16258Y30068D01*
X17099Y30641D01*
X48838Y61359D02*
X48258Y60504D01*
X47954Y59517D01*
Y58483D01*
X48258Y57496D01*
X48838Y56641D01*
X59510Y56696D02*
X60066Y57549D01*
X60351Y58527D01*
X60340Y59546D01*
X60035Y60517D01*
X59461Y61359D01*
X48838Y67859D02*
X48258Y67004D01*
X47954Y66017D01*
Y64983D01*
X48258Y63996D01*
X48838Y63141D01*
X59510Y63196D02*
X60066Y64049D01*
X60351Y65027D01*
X60340Y66046D01*
X60035Y67017D01*
X59461Y67859D01*
X48838Y74359D02*
X48258Y73504D01*
X47954Y72517D01*
Y71483D01*
X48258Y70496D01*
X48838Y69641D01*
X59510Y69696D02*
X60066Y70549D01*
X60351Y71527D01*
X60340Y72546D01*
X60035Y73517D01*
X59461Y74359D01*
X48838Y80859D02*
X48258Y80004D01*
X47954Y79017D01*
Y77983D01*
X48258Y76996D01*
X48838Y76141D01*
X59510Y76196D02*
X60066Y77049D01*
X60351Y78027D01*
X60340Y79046D01*
X60035Y80017D01*
X59461Y80859D01*
X28785Y31438D02*
X32525D01*
X28785Y36162D02*
X32525D01*
X35675Y31438D02*
X39415D01*
X35675Y36162D02*
X39415D01*
X40012Y4638D02*
Y9362D01*
X28988Y4638D02*
Y9362D01*
Y4638D02*
X32925D01*
X28988Y9362D02*
X32925D01*
X36075D02*
X40012D01*
X36075Y4638D02*
X40012D01*
X69134Y132720D02*
X71653Y134295D01*
X69134Y104374D02*
X71653Y102799D01*
X69291Y104276D02*
Y132819D01*
X49606D02*
X69134D01*
X49606Y104276D02*
Y132819D01*
Y104276D02*
X69134Y104275D01*
X27076Y53538D02*
Y73223D01*
Y53538D02*
X39675D01*
Y73223D01*
X27076D02*
X39675D01*
X24700Y101500D02*
Y121500D01*
X14700Y101500D02*
X24700D01*
X14700D02*
Y121500D01*
X17200D01*
X22200D02*
X24700D01*
X41362Y109185D02*
Y112925D01*
X36638Y109185D02*
Y112925D01*
X41362Y116075D02*
Y119815D01*
X36638Y116075D02*
Y119815D01*
X32412Y122638D02*
Y127362D01*
X21388Y122638D02*
Y127362D01*
Y122638D02*
X25325D01*
X21388Y127362D02*
X25325D01*
X28475D02*
X32412D01*
X28475Y122638D02*
X32412D01*
X13875Y127362D02*
X17615D01*
X13875Y122638D02*
X17615D01*
X6985Y127362D02*
X10725D01*
X6985Y122638D02*
X10725D01*
X35638Y86488D02*
X40362D01*
X35638Y97512D02*
X40362D01*
X35638Y93575D02*
Y97512D01*
X40362Y93575D02*
Y97512D01*
Y86488D02*
Y90425D01*
X35638Y86488D02*
Y90425D01*
X28035Y43138D02*
X31776D01*
X28035Y47862D02*
X31776D01*
X34925Y43138D02*
X38665D01*
X34925Y47862D02*
X38665D01*
X28685Y74138D02*
X32425D01*
X28685Y78862D02*
X32425D01*
X35575Y74138D02*
X39315D01*
X35575Y78862D02*
X39315D01*
X10969Y93138D02*
X14512D01*
X10969Y97862D02*
X14512D01*
Y93138D02*
Y97862D01*
X3488D02*
X7032D01*
X3488Y93138D02*
X7032D01*
X3488D02*
Y97862D01*
X10969Y84154D02*
X14512D01*
X10969Y88878D02*
X14512D01*
Y84154D02*
Y88878D01*
X3488D02*
X7032D01*
X3488Y84154D02*
X7032D01*
X3488D02*
Y88878D01*
X28661Y93138D02*
Y97862D01*
X17638Y93138D02*
Y97862D01*
Y93138D02*
X21575D01*
X17638Y97862D02*
X21575D01*
X24724D02*
X28661D01*
X24724Y93138D02*
X28661D01*
Y84154D02*
Y88878D01*
X17638Y84154D02*
Y88878D01*
Y84154D02*
X21575D01*
X17638Y88878D02*
X21575D01*
X24724D02*
X28661D01*
X24724Y84154D02*
X28661D01*
X23862Y30685D02*
Y34425D01*
X19138Y30685D02*
Y34425D01*
X23862Y37575D02*
Y41315D01*
X19138Y37575D02*
Y41315D01*
X12378Y37528D02*
Y41268D01*
X17102Y37528D02*
Y41268D01*
X12378Y30638D02*
Y34378D01*
X17102Y30638D02*
Y34378D01*
X48835Y56638D02*
X52575D01*
X48835Y61362D02*
X52575D01*
X55724Y56638D02*
X59465D01*
X55724Y61362D02*
X59465D01*
X48835Y63138D02*
X52575D01*
X48835Y67862D02*
X52575D01*
X55724Y63138D02*
X59465D01*
X55724Y67862D02*
X59465D01*
X48835Y69638D02*
X52575D01*
X48835Y74362D02*
X52575D01*
X55724Y69638D02*
X59465D01*
X55724Y74362D02*
X59465D01*
X27788Y38438D02*
X27788Y43162D01*
X38812D02*
X38812Y38438D01*
X34875Y43162D02*
X38812D01*
X34875Y38438D02*
X38812D01*
X27788D02*
X31725D01*
X27788Y43162D02*
X31725D01*
X48835Y76138D02*
X52575D01*
X48835Y80862D02*
X52575D01*
X55724Y76138D02*
X59465D01*
X55724Y80862D02*
X59465D01*
X62300Y34500D02*
Y37500D01*
Y47500D02*
Y50500D01*
X49300Y34500D02*
X62300D01*
X49300Y50500D02*
X62300D01*
X42638Y86488D02*
X47362D01*
X42638Y97512D02*
X47362D01*
X42638Y93575D02*
Y97512D01*
X47362Y93575D02*
Y97512D01*
Y86488D02*
Y90425D01*
X42638Y86488D02*
Y90425D01*
D37*
X23320Y45737D02*
Y55737D01*
X10820D02*
X23320D01*
X10820Y47237D02*
Y55737D01*
Y47237D02*
X12320Y45737D01*
X23320D01*
M02*
