G04 Layer_Color=16711935*
%FSLAX25Y25*%
%MOIN*%
G70*
G01*
G75*
%ADD85R,0.03950X0.03950*%
%ADD86R,0.03950X0.03950*%
%ADD87R,0.07099X0.06312*%
%ADD98O,0.08800X0.03200*%
%ADD99R,0.07000X0.07000*%
%ADD100C,0.07800*%
%ADD101C,0.06706*%
%ADD102C,0.01981*%
%ADD103C,0.08674*%
%ADD104O,0.08674X0.05524*%
%ADD105R,0.06706X0.03950*%
%ADD106R,0.07000X0.07000*%
%ADD107C,0.11824*%
%ADD108R,0.05524X0.05524*%
%ADD109C,0.03200*%
%ADD110P,0.05586X4X180.0*%
%ADD111P,0.05586X4X90.0*%
G04:AMPARAMS|DCode=112|XSize=27.68mil|YSize=17.84mil|CornerRadius=0mil|HoleSize=0mil|Usage=FLASHONLY|Rotation=135.000|XOffset=0mil|YOffset=0mil|HoleType=Round|Shape=Rectangle|*
%AMROTATEDRECTD112*
4,1,4,0.01610,-0.00348,0.00348,-0.01610,-0.01610,0.00348,-0.00348,0.01610,0.01610,-0.00348,0.0*
%
%ADD112ROTATEDRECTD112*%

G04:AMPARAMS|DCode=113|XSize=43.43mil|YSize=70.99mil|CornerRadius=0mil|HoleSize=0mil|Usage=FLASHONLY|Rotation=135.000|XOffset=0mil|YOffset=0mil|HoleType=Round|Shape=Rectangle|*
%AMROTATEDRECTD113*
4,1,4,0.04046,0.00974,-0.00974,-0.04046,-0.04046,-0.00974,0.00974,0.04046,0.04046,0.00974,0.0*
%
%ADD113ROTATEDRECTD113*%

%ADD114R,0.01981X0.03950*%
%ADD115R,0.03950X0.01981*%
%ADD116R,0.11036X0.11036*%
%ADD117R,0.06900X0.03200*%
%ADD118O,0.06900X0.03200*%
D85*
X944700Y413650D02*
D03*
Y419950D02*
D03*
X834600Y414300D02*
D03*
Y408001D02*
D03*
X896100Y421450D02*
D03*
Y415150D02*
D03*
X887700Y421450D02*
D03*
Y415150D02*
D03*
D86*
X849950Y401200D02*
D03*
X843650D02*
D03*
X844299Y432400D02*
D03*
X838000D02*
D03*
X874650Y258500D02*
D03*
X868350D02*
D03*
X874650Y248000D02*
D03*
X868350D02*
D03*
X874650Y237000D02*
D03*
X868350D02*
D03*
X874650Y226000D02*
D03*
X868350D02*
D03*
X919732Y257643D02*
D03*
X926031D02*
D03*
X919732Y247429D02*
D03*
X926031D02*
D03*
X919732Y237214D02*
D03*
X926031D02*
D03*
X919732Y227000D02*
D03*
X926031D02*
D03*
X814500Y235786D02*
D03*
X820799D02*
D03*
X814500Y257929D02*
D03*
X820799D02*
D03*
X814500Y246857D02*
D03*
X820799D02*
D03*
X814500Y224714D02*
D03*
X820799D02*
D03*
X771299Y257500D02*
D03*
X765000D02*
D03*
X771299Y246500D02*
D03*
X765000D02*
D03*
X771299Y235500D02*
D03*
X765000D02*
D03*
X771299Y225000D02*
D03*
X765000D02*
D03*
D87*
X936400Y422906D02*
D03*
Y411094D02*
D03*
D98*
X886000Y225000D02*
D03*
Y230000D02*
D03*
Y235000D02*
D03*
Y240000D02*
D03*
X908000Y225000D02*
D03*
Y235000D02*
D03*
Y240000D02*
D03*
Y230000D02*
D03*
X886000Y245000D02*
D03*
Y250000D02*
D03*
Y255000D02*
D03*
Y260000D02*
D03*
X908000Y245000D02*
D03*
Y255000D02*
D03*
Y260000D02*
D03*
Y250000D02*
D03*
X781500Y223500D02*
D03*
Y228500D02*
D03*
Y233500D02*
D03*
Y238500D02*
D03*
X803500Y223500D02*
D03*
Y233500D02*
D03*
Y238500D02*
D03*
Y228500D02*
D03*
X781500Y243500D02*
D03*
Y248500D02*
D03*
Y253500D02*
D03*
Y258500D02*
D03*
X803500Y243500D02*
D03*
Y253500D02*
D03*
Y258500D02*
D03*
Y248500D02*
D03*
D99*
X985800Y158509D02*
D03*
Y184100D02*
D03*
X1005800Y158509D02*
D03*
Y184100D02*
D03*
X958900Y200409D02*
D03*
Y226000D02*
D03*
X978900Y200409D02*
D03*
Y226000D02*
D03*
X1011000Y200409D02*
D03*
Y226000D02*
D03*
X1031000Y200409D02*
D03*
Y226000D02*
D03*
D100*
X945000Y387500D02*
D03*
X935000D02*
D03*
X925000D02*
D03*
X755000Y447500D02*
D03*
X765000D02*
D03*
X775000D02*
D03*
X915000Y387500D02*
D03*
X905000D02*
D03*
X895000D02*
D03*
X885000D02*
D03*
X875000D02*
D03*
X865000D02*
D03*
X855000D02*
D03*
X845000D02*
D03*
X835000D02*
D03*
X825000D02*
D03*
X815000D02*
D03*
X805000D02*
D03*
X795000D02*
D03*
X785000D02*
D03*
X775000D02*
D03*
X765000D02*
D03*
X755000D02*
D03*
X785000Y447500D02*
D03*
X795000D02*
D03*
X805000D02*
D03*
X815000D02*
D03*
X825000D02*
D03*
X835000D02*
D03*
X845000D02*
D03*
X855000D02*
D03*
X865000D02*
D03*
X875000D02*
D03*
X885000D02*
D03*
X895000D02*
D03*
X905000D02*
D03*
X915000D02*
D03*
X925000D02*
D03*
X935000D02*
D03*
X945000D02*
D03*
D101*
X837000Y474500D02*
D03*
Y484500D02*
D03*
X847000Y474500D02*
D03*
Y484500D02*
D03*
X857000Y474500D02*
D03*
Y484500D02*
D03*
X867000Y474500D02*
D03*
Y484500D02*
D03*
D102*
X863000Y252000D02*
D03*
Y249000D02*
D03*
X865000Y253500D02*
D03*
X861000D02*
D03*
Y250500D02*
D03*
X865000D02*
D03*
X861000Y244500D02*
D03*
X865000D02*
D03*
X863000Y246000D02*
D03*
X861000Y247500D02*
D03*
X865000D02*
D03*
D103*
X917055Y174353D02*
D03*
X924409Y181707D02*
D03*
X813500Y321000D02*
D03*
Y304500D02*
D03*
X691139Y419139D02*
D03*
X684000Y412000D02*
D03*
X676997Y404997D02*
D03*
X662855Y419139D02*
D03*
X676997Y433281D02*
D03*
X712429Y473284D02*
D03*
X698287Y459142D02*
D03*
X712429Y445000D02*
D03*
X719432Y452003D02*
D03*
X726571Y459142D02*
D03*
X985000Y445000D02*
D03*
X977861Y452139D02*
D03*
X970858Y459142D02*
D03*
X985000Y473284D02*
D03*
X999142Y459142D02*
D03*
X1016870Y305500D02*
D03*
Y315343D02*
D03*
Y295657D02*
D03*
X987343Y266130D02*
D03*
X967657D02*
D03*
X977500D02*
D03*
X929200Y318400D02*
D03*
X946917D02*
D03*
X947100Y292609D02*
D03*
X929383D02*
D03*
X755000Y305500D02*
D03*
Y315343D02*
D03*
Y295657D02*
D03*
X725472Y266130D02*
D03*
X705787D02*
D03*
X715630D02*
D03*
X667330Y318400D02*
D03*
X685046D02*
D03*
X685230Y292609D02*
D03*
X667513D02*
D03*
X1030781Y419571D02*
D03*
X1016639Y433713D02*
D03*
X1002497Y419571D02*
D03*
X1009500Y412568D02*
D03*
X1016639Y405429D02*
D03*
D104*
X1030827Y173772D02*
D03*
Y145228D02*
D03*
D105*
X1020394Y169047D02*
D03*
Y149953D02*
D03*
D106*
X693000Y179500D02*
D03*
X667409D02*
D03*
X693000Y199500D02*
D03*
X667409D02*
D03*
X732591Y214000D02*
D03*
X707000D02*
D03*
X732591Y234000D02*
D03*
X707000D02*
D03*
X771500Y179500D02*
D03*
X745909D02*
D03*
X771500Y199500D02*
D03*
X745909D02*
D03*
X732591Y139000D02*
D03*
X707000D02*
D03*
X732591Y159000D02*
D03*
X707000D02*
D03*
D107*
X951000Y336024D02*
D03*
X1004500D02*
D03*
X951000Y275000D02*
D03*
X1004500D02*
D03*
X689130Y336024D02*
D03*
X742630D02*
D03*
X689130Y275000D02*
D03*
X742630D02*
D03*
D108*
X706500Y386500D02*
D03*
X726500D02*
D03*
D109*
X746280Y235840D02*
D03*
X920300Y259200D02*
D03*
X774900Y238500D02*
D03*
X823000Y278300D02*
D03*
X791900Y247600D02*
D03*
X823000Y276000D02*
D03*
X973500Y260700D02*
D03*
X916400Y276400D02*
D03*
X914000Y326300D02*
D03*
X909500Y458500D02*
D03*
X997000Y432500D02*
D03*
X840000Y374500D02*
D03*
X848000Y340100D02*
D03*
X934000Y439200D02*
D03*
X805000Y405800D02*
D03*
X858300Y353200D02*
D03*
X875800Y379300D02*
D03*
X816600Y266500D02*
D03*
X793500Y251500D02*
D03*
X1038100Y246700D02*
D03*
X923500Y351100D02*
D03*
X718260Y413700D02*
D03*
X728300Y203800D02*
D03*
X902600Y236600D02*
D03*
X837900Y243800D02*
D03*
X788000Y258500D02*
D03*
X797000Y253500D02*
D03*
X734200Y260800D02*
D03*
X902000Y243100D02*
D03*
X902300Y229900D02*
D03*
X661500Y192000D02*
D03*
D110*
X905427Y205973D02*
D03*
X900973Y210427D02*
D03*
D111*
X894322Y200410D02*
D03*
X898776Y204864D02*
D03*
D112*
X909625Y193878D02*
D03*
X908233Y192486D02*
D03*
X906841Y191094D02*
D03*
X905449Y189702D02*
D03*
X900160Y194991D02*
D03*
X901552Y196383D02*
D03*
X902944Y197775D02*
D03*
X904336Y199167D02*
D03*
D113*
X904893Y194435D02*
D03*
D114*
X845753Y424295D02*
D03*
X847721D02*
D03*
X853627D02*
D03*
X855595D02*
D03*
X853627Y408547D02*
D03*
X855595D02*
D03*
X851658D02*
D03*
Y424295D02*
D03*
X849690Y408547D02*
D03*
Y424295D02*
D03*
X845753Y408547D02*
D03*
X847721D02*
D03*
D115*
X858548Y413469D02*
D03*
X842800Y411500D02*
D03*
Y413469D02*
D03*
Y415437D02*
D03*
X858548Y421343D02*
D03*
Y419374D02*
D03*
Y417406D02*
D03*
Y415437D02*
D03*
X842800Y419374D02*
D03*
X858548Y411500D02*
D03*
X842800Y417406D02*
D03*
Y421343D02*
D03*
D116*
X850656Y416421D02*
D03*
D117*
X926560Y425100D02*
D03*
D118*
Y420100D02*
D03*
Y415100D02*
D03*
Y410100D02*
D03*
X905300Y425100D02*
D03*
Y420100D02*
D03*
Y415100D02*
D03*
Y410100D02*
D03*
M02*
