G04 Layer_Color=128*
%FSLAX25Y25*%
%MOIN*%
G70*
G01*
G75*
%ADD10R,0.03150X0.03150*%
%ADD11R,0.03150X0.03150*%
%ADD12R,0.06299X0.05512*%
%ADD23O,0.08000X0.02400*%
%ADD51C,0.07874*%
%ADD58P,0.04454X4X180.0*%
%ADD59P,0.04454X4X90.0*%
G04:AMPARAMS|DCode=60|XSize=19.68mil|YSize=9.84mil|CornerRadius=0mil|HoleSize=0mil|Usage=FLASHONLY|Rotation=135.000|XOffset=0mil|YOffset=0mil|HoleType=Round|Shape=Rectangle|*
%AMROTATEDRECTD60*
4,1,4,0.01044,-0.00348,0.00348,-0.01044,-0.01044,0.00348,-0.00348,0.01044,0.01044,-0.00348,0.0*
%
%ADD60ROTATEDRECTD60*%

G04:AMPARAMS|DCode=61|XSize=35.43mil|YSize=62.99mil|CornerRadius=0mil|HoleSize=0mil|Usage=FLASHONLY|Rotation=135.000|XOffset=0mil|YOffset=0mil|HoleType=Round|Shape=Rectangle|*
%AMROTATEDRECTD61*
4,1,4,0.03480,0.00974,-0.00974,-0.03480,-0.03480,-0.00974,0.00974,0.03480,0.03480,0.00974,0.0*
%
%ADD61ROTATEDRECTD61*%

%ADD62R,0.01181X0.03150*%
%ADD63R,0.03150X0.01181*%
%ADD64R,0.10236X0.10236*%
%ADD65R,0.06100X0.02400*%
%ADD66O,0.06100X0.02400*%
D10*
X944700Y413650D02*
D03*
Y419950D02*
D03*
X834600Y414300D02*
D03*
Y408001D02*
D03*
X896100Y421450D02*
D03*
Y415150D02*
D03*
X887700Y421450D02*
D03*
Y415150D02*
D03*
D11*
X849950Y401200D02*
D03*
X843650D02*
D03*
X844299Y432400D02*
D03*
X838000D02*
D03*
X874650Y258500D02*
D03*
X868350D02*
D03*
X874650Y248000D02*
D03*
X868350D02*
D03*
X874650Y237000D02*
D03*
X868350D02*
D03*
X874650Y226000D02*
D03*
X868350D02*
D03*
X919732Y257643D02*
D03*
X926031D02*
D03*
X919732Y247429D02*
D03*
X926031D02*
D03*
X919732Y237214D02*
D03*
X926031D02*
D03*
X919732Y227000D02*
D03*
X926031D02*
D03*
X814500Y235786D02*
D03*
X820799D02*
D03*
X814500Y257929D02*
D03*
X820799D02*
D03*
X814500Y246857D02*
D03*
X820799D02*
D03*
X814500Y224714D02*
D03*
X820799D02*
D03*
X771299Y257500D02*
D03*
X765000D02*
D03*
X771299Y246500D02*
D03*
X765000D02*
D03*
X771299Y235500D02*
D03*
X765000D02*
D03*
X771299Y225000D02*
D03*
X765000D02*
D03*
D12*
X936400Y422906D02*
D03*
Y411094D02*
D03*
D23*
X886000Y225000D02*
D03*
Y230000D02*
D03*
Y235000D02*
D03*
Y240000D02*
D03*
X908000Y225000D02*
D03*
Y235000D02*
D03*
Y240000D02*
D03*
Y230000D02*
D03*
X886000Y245000D02*
D03*
Y250000D02*
D03*
Y255000D02*
D03*
Y260000D02*
D03*
X908000Y245000D02*
D03*
Y255000D02*
D03*
Y260000D02*
D03*
Y250000D02*
D03*
X781500Y223500D02*
D03*
Y228500D02*
D03*
Y233500D02*
D03*
Y238500D02*
D03*
X803500Y223500D02*
D03*
Y233500D02*
D03*
Y238500D02*
D03*
Y228500D02*
D03*
X781500Y243500D02*
D03*
Y248500D02*
D03*
Y253500D02*
D03*
Y258500D02*
D03*
X803500Y243500D02*
D03*
Y253500D02*
D03*
Y258500D02*
D03*
Y248500D02*
D03*
D51*
X917055Y174353D02*
D03*
X924409Y181707D02*
D03*
X813500Y321000D02*
D03*
Y304500D02*
D03*
D58*
X905427Y205973D02*
D03*
X900973Y210427D02*
D03*
D59*
X894322Y200410D02*
D03*
X898776Y204864D02*
D03*
D60*
X909625Y193878D02*
D03*
X908233Y192486D02*
D03*
X906841Y191094D02*
D03*
X905449Y189702D02*
D03*
X900160Y194991D02*
D03*
X901552Y196383D02*
D03*
X902944Y197775D02*
D03*
X904336Y199167D02*
D03*
D61*
X904893Y194435D02*
D03*
D62*
X845753Y424295D02*
D03*
X847721D02*
D03*
X853627D02*
D03*
X855595D02*
D03*
X853627Y408547D02*
D03*
X855595D02*
D03*
X851658D02*
D03*
Y424295D02*
D03*
X849690Y408547D02*
D03*
Y424295D02*
D03*
X845753Y408547D02*
D03*
X847721D02*
D03*
D63*
X858548Y413469D02*
D03*
X842800Y411500D02*
D03*
Y413469D02*
D03*
Y415437D02*
D03*
X858548Y421343D02*
D03*
Y419374D02*
D03*
Y417406D02*
D03*
Y415437D02*
D03*
X842800Y419374D02*
D03*
X858548Y411500D02*
D03*
X842800Y417406D02*
D03*
Y421343D02*
D03*
D64*
X850656Y416421D02*
D03*
D65*
X926560Y425100D02*
D03*
D66*
Y420100D02*
D03*
Y415100D02*
D03*
Y410100D02*
D03*
X905300Y425100D02*
D03*
Y420100D02*
D03*
Y415100D02*
D03*
Y410100D02*
D03*
M02*
