G04 Layer_Color=8421504*
%FSLAX25Y25*%
%MOIN*%
G70*
G01*
G75*
%ADD10R,0.03150X0.03150*%
%ADD11R,0.03150X0.03150*%
%ADD12R,0.06299X0.05512*%
%ADD13R,0.01260X0.03937*%
%ADD14R,0.09055X0.01378*%
%ADD15R,0.00787X0.05000*%
%ADD16R,0.06220X0.11500*%
%ADD17O,0.03000X0.01000*%
%ADD18R,0.03543X0.03740*%
%ADD19R,0.03543X0.03740*%
%ADD20R,0.05905X0.01575*%
%ADD21R,0.05512X0.07874*%
G04:AMPARAMS|DCode=22|XSize=86.61mil|YSize=165.35mil|CornerRadius=4.33mil|HoleSize=0mil|Usage=FLASHONLY|Rotation=180.000|XOffset=0mil|YOffset=0mil|HoleType=Round|Shape=RoundedRectangle|*
%AMROUNDEDRECTD22*
21,1,0.08661,0.15669,0,0,180.0*
21,1,0.07795,0.16535,0,0,180.0*
1,1,0.00866,-0.03898,0.07835*
1,1,0.00866,0.03898,0.07835*
1,1,0.00866,0.03898,-0.07835*
1,1,0.00866,-0.03898,-0.07835*
%
%ADD22ROUNDEDRECTD22*%
%ADD23O,0.08000X0.02400*%
%ADD84R,0.02362X0.02362*%
D10*
X904600Y198650D02*
D03*
Y204950D02*
D03*
X972000Y410150D02*
D03*
Y403850D02*
D03*
X736500Y424650D02*
D03*
Y418350D02*
D03*
X848000Y362650D02*
D03*
Y356350D02*
D03*
X860000Y362650D02*
D03*
Y356350D02*
D03*
X872000Y362650D02*
D03*
Y356350D02*
D03*
X827000Y226150D02*
D03*
Y219850D02*
D03*
X817500Y226150D02*
D03*
Y219850D02*
D03*
X972000Y382350D02*
D03*
Y388650D02*
D03*
X944400Y151450D02*
D03*
Y157750D02*
D03*
X834000Y356850D02*
D03*
Y363150D02*
D03*
X848703Y248051D02*
D03*
Y254350D02*
D03*
X840728Y248051D02*
D03*
Y254350D02*
D03*
X893400Y260101D02*
D03*
Y266400D02*
D03*
X887000Y260101D02*
D03*
Y266400D02*
D03*
X880400Y260101D02*
D03*
Y266400D02*
D03*
D11*
X888800Y237700D02*
D03*
X882501D02*
D03*
X888800Y231200D02*
D03*
X882501D02*
D03*
Y217100D02*
D03*
X888800D02*
D03*
X882501Y244200D02*
D03*
X888800D02*
D03*
X1030500Y258000D02*
D03*
X1024201D02*
D03*
X1023850Y244500D02*
D03*
X1030150D02*
D03*
X943350Y245000D02*
D03*
X949650D02*
D03*
X841350Y268000D02*
D03*
X847650D02*
D03*
X782000Y251500D02*
D03*
X788299D02*
D03*
X781350Y265000D02*
D03*
X787650D02*
D03*
X746350Y245000D02*
D03*
X752650D02*
D03*
X920250Y179600D02*
D03*
X913950D02*
D03*
X935750D02*
D03*
X929450D02*
D03*
X989850Y126500D02*
D03*
X996150D02*
D03*
X989850Y112500D02*
D03*
X996150D02*
D03*
D12*
X832000Y256668D02*
D03*
Y244857D02*
D03*
X819025Y256668D02*
D03*
Y244857D02*
D03*
X815700Y468594D02*
D03*
Y480406D02*
D03*
D13*
X953600Y164398D02*
D03*
X955569D02*
D03*
X957537D02*
D03*
X959506D02*
D03*
X961474D02*
D03*
Y145500D02*
D03*
X959506D02*
D03*
X957537D02*
D03*
X955569D02*
D03*
X953600D02*
D03*
D14*
X838500Y308744D02*
D03*
Y330791D02*
D03*
Y305988D02*
D03*
Y303232D02*
D03*
Y311500D02*
D03*
Y314256D02*
D03*
Y317012D02*
D03*
Y319768D02*
D03*
Y322524D02*
D03*
Y328035D02*
D03*
Y325280D02*
D03*
Y300476D02*
D03*
Y297720D02*
D03*
D15*
X860283Y256000D02*
D03*
X862094D02*
D03*
X863906D02*
D03*
X865717D02*
D03*
X863906Y242000D02*
D03*
X862094D02*
D03*
X860283D02*
D03*
X865717D02*
D03*
D16*
X863000Y249000D02*
D03*
D17*
X857000Y251000D02*
D03*
Y253000D02*
D03*
Y255000D02*
D03*
Y249000D02*
D03*
Y247000D02*
D03*
Y245000D02*
D03*
Y243000D02*
D03*
X869000D02*
D03*
Y245000D02*
D03*
Y247000D02*
D03*
Y249000D02*
D03*
Y255000D02*
D03*
Y253000D02*
D03*
Y251000D02*
D03*
D18*
X718260Y417374D02*
D03*
X722000Y426626D02*
D03*
X882760Y354874D02*
D03*
X886500Y364126D02*
D03*
D19*
X725740Y417374D02*
D03*
X890240Y354874D02*
D03*
D20*
X1019409Y154382D02*
D03*
Y156941D02*
D03*
Y159500D02*
D03*
Y162059D02*
D03*
Y164618D02*
D03*
D21*
X851513Y220300D02*
D03*
X865687D02*
D03*
D22*
X925100Y202600D02*
D03*
D23*
X936100Y195000D02*
D03*
Y200000D02*
D03*
Y205000D02*
D03*
Y210000D02*
D03*
X914100Y195000D02*
D03*
Y205000D02*
D03*
Y210000D02*
D03*
Y200000D02*
D03*
D84*
X882501Y224500D02*
D03*
X888800D02*
D03*
X888900Y251300D02*
D03*
X882601D02*
D03*
X974850Y126500D02*
D03*
X981150D02*
D03*
X974850Y113000D02*
D03*
X981150D02*
D03*
M02*
