M48
;Layer_Color=9474304
;FILE_FORMAT=2:5
INCH,LZ
;TYPE=PLATED
T1F00S00C0.01181
T2F00S00C0.01200
T4F00S00C0.01968
T5F00S00C0.02756
T6F00S00C0.03000
T7F00S00C0.03500
T8F00S00C0.03800
T9F00S00C0.03937
T10F00S00C0.04331
T11F00S00C0.04921
T12F00S00C0.07087
%
T01
X0861Y02445
Y02475
Y02505
Y02535
X0863Y0252
Y0249
Y0246
X0865Y02445
Y02475
Y02505
Y02535
T02
X0996Y01164
X09984
X10008
X10032
X10056
Y0119
X10032
X10008
X09984
X099595
X0996Y01215
X09984
X10008
X10032
X10056
X10381Y02467
X09735Y02607
X09203Y02592
X09164Y02764
X0902Y02431
X09026Y02366
X09023Y02299
X09043Y02205
X08999Y0205988
X0899235Y01987
X08961Y01925
X088779Y020705
X0885404
X0883018Y0207059
X08814Y02325
X08791Y0248
X0873Y02516
X08379Y02438
X08212Y02443
X08166Y02665
X0823Y0276
Y02783
X08253
X08275
Y0276
X08253
X0797Y02535
X07935Y02515
X07919Y02476
X07894
X0788Y02585
X0926Y02256
X09275Y02076
Y02036
Y02001
Y01959
X09226Y0196
Y02001
Y02036
Y02076
X0932Y01864
Y01842
X09344
Y01864
X09125Y01804
X07749Y02385
X074628Y023584
X07342Y02608
X07283Y02038
X06615Y0192
X06834Y017
X071826Y04137
X0805Y04058
X08633Y04113
X08656Y04336
X08758Y03793
X084Y03745
X08583Y03532
X0848Y03401
X09099Y03257
X0914Y03263
X09235Y03511
X0934Y04392
X09095Y04585
X0997Y04325
T04
X1020394Y0149953
Y0169047
T05
X07065Y03865
X07265
T06
X0755Y03875
X0765
X0775
Y04475
X0765
X0755
X0785
X0795
X0805
X0815
X0825
X0835
X0845
X0855
X0865
X0875
X0885
X0895
X0905
X0915
X0925
Y03875
X0935
X0915
X0905
X0895
X0885
X0875
X0865
X0855
X0845
X0835
X0825
X0815
X0805
X0795
X0785
X0945
T07
X0935Y04475
X0945
T08
X0707Y0139
X0732591
X09858Y0158509
X10058
Y01841
X09858
X09789Y0200409
X09589
Y0226
X09789
X1011
X1031
Y0200409
X1011
X07715Y01995
Y01795
X0745909
Y01995
X0732591Y0214
Y0234
X0707
Y0214
X0693Y01995
Y01795
X0667409
Y01995
X0707Y0159
X0732591
T09
X0837Y04745
Y04845
X0847
Y04745
X0857
Y04845
X0867
Y04745
T10
X09471Y0292609
X0929383
X068523
X0667513
X066733Y03184
X0685046
X09292
X0946917
T11
X0967657Y026613
X09775
X0987343
X101687Y0295657
Y03055
X0755
Y0295657
X0725472Y026613
X071563
X0705787
X0755Y0315343
X0691139Y0419139
X0684Y0412
X0676997Y0404997
X0662855Y0419139
X0676997Y0433281
X0698287Y0459142
X0719432Y0452003
X0712429Y0445
X0726571Y0459142
X0970858
X0977861Y0452139
X0985Y0445
X0999142Y0459142
X1016639Y0433713
X10095Y0412568
X1002497Y0419571
X1016639Y0405429
X1030781Y0419571
X101687Y0315343
X0985Y0473284
X0712429
T12
X0951Y0275
X10045
X074263
X068913
Y0336024
X074263
X0951
X10045
M30
