G04 Layer_Physical_Order=1*
G04 Layer_Color=255*
%FSLAX25Y25*%
%MOIN*%
G70*
G01*
G75*
%ADD10R,0.04724X0.07087*%
%ADD11R,0.02362X0.06102*%
%ADD12R,0.02362X0.06102*%
%ADD13R,0.03150X0.03150*%
%ADD14R,0.01181X0.01181*%
%ADD15R,0.01968X0.01181*%
%ADD16R,0.01181X0.01968*%
%ADD17C,0.07874*%
%ADD18R,0.06299X0.05512*%
%ADD19C,0.01000*%
%ADD20C,0.02000*%
%ADD21R,0.06294X0.03019*%
%ADD22R,0.36011X0.03947*%
%ADD23R,0.07500X0.07050*%
%ADD24R,0.01180X0.09550*%
%ADD25R,0.09170X0.05430*%
%ADD26R,0.05000X0.02500*%
%ADD27R,0.22025X0.04710*%
%ADD28R,0.03510X0.14840*%
%ADD29R,0.02360X0.10732*%
%ADD30R,0.25730X0.08687*%
%ADD31C,0.02400*%
G36*
X58509Y32479D02*
X57491D01*
X57493Y32484D01*
X57494Y32500D01*
X57497Y32562D01*
X57500Y33000D01*
X58500D01*
X58509Y32479D01*
D02*
G37*
G36*
X51504Y33094D02*
X50913Y32504D01*
X49535D01*
Y32533D01*
X49508Y32545D01*
X49458Y32557D01*
X49388Y32567D01*
X49188Y32582D01*
X48548Y32594D01*
Y33595D01*
X48738Y33595D01*
X49508Y33644D01*
X49535Y33656D01*
Y33685D01*
X51504D01*
Y33094D01*
D02*
G37*
G36*
X69661Y35051D02*
X69750Y34976D01*
X69840Y34911D01*
X69930Y34854D01*
X70021Y34806D01*
X70113Y34767D01*
X70206Y34737D01*
X70299Y34716D01*
X70393Y34703D01*
X70488Y34700D01*
X69300Y33512D01*
X69297Y33607D01*
X69284Y33701D01*
X69263Y33794D01*
X69233Y33887D01*
X69194Y33979D01*
X69146Y34070D01*
X69089Y34160D01*
X69024Y34250D01*
X68949Y34339D01*
X68866Y34427D01*
X69573Y35134D01*
X69661Y35051D01*
D02*
G37*
G36*
X52685Y30535D02*
X51504D01*
Y30601D01*
X51477Y30639D01*
X51427Y30677D01*
X51357Y30709D01*
X51267Y30737D01*
X51157Y30760D01*
X51027Y30777D01*
X50707Y30797D01*
X50517Y30800D01*
Y31800D01*
X50707Y31799D01*
X51427Y31753D01*
X51477Y31738D01*
X51504Y31723D01*
Y31913D01*
X52095Y32504D01*
X52685D01*
Y30535D01*
D02*
G37*
G36*
X64496Y31913D02*
Y30535D01*
X64467D01*
X64455Y30508D01*
X64443Y30458D01*
X64433Y30388D01*
X64418Y30188D01*
X64406Y29548D01*
X63406D01*
X63405Y29738D01*
X63356Y30508D01*
X63344Y30535D01*
X63315D01*
Y32504D01*
X63906D01*
X64496Y31913D01*
D02*
G37*
G36*
X60531Y30538D02*
X60518Y30508D01*
X60506Y30458D01*
X60496Y30388D01*
X60481Y30188D01*
X60469Y29548D01*
X59469D01*
X59468Y29738D01*
X59419Y30508D01*
X59406Y30538D01*
X59391Y30548D01*
X60546D01*
X60531Y30538D01*
D02*
G37*
G36*
X66465Y32504D02*
X66435D01*
X66424Y32477D01*
X66412Y32427D01*
X66402Y32357D01*
X66386Y32157D01*
X66374Y31517D01*
X65374D01*
X65373Y31707D01*
X65324Y32477D01*
X65312Y32504D01*
X65087D01*
X64496Y33094D01*
Y33685D01*
X66465D01*
Y32504D01*
D02*
G37*
G36*
X69643Y37660D02*
X69573Y37725D01*
X69498Y37782D01*
X69417Y37833D01*
X69330Y37878D01*
X69238Y37915D01*
X69140Y37946D01*
X69036Y37969D01*
X68926Y37986D01*
X68810Y37997D01*
X68689Y38000D01*
Y39000D01*
X68810Y39003D01*
X68926Y39014D01*
X69036Y39031D01*
X69140Y39054D01*
X69238Y39085D01*
X69330Y39122D01*
X69417Y39167D01*
X69498Y39218D01*
X69573Y39275D01*
X69643Y39340D01*
Y37660D01*
D02*
G37*
G36*
X66462Y39563D02*
X66492Y39550D01*
X66542Y39538D01*
X66612Y39528D01*
X66812Y39512D01*
X67452Y39500D01*
Y38500D01*
X67262Y38499D01*
X66492Y38450D01*
X66462Y38437D01*
X66452Y38422D01*
Y39578D01*
X66462Y39563D01*
D02*
G37*
G36*
Y41531D02*
X66492Y41518D01*
X66542Y41506D01*
X66612Y41496D01*
X66812Y41481D01*
X67452Y41469D01*
Y40468D01*
X67262Y40468D01*
X66492Y40419D01*
X66462Y40406D01*
X66452Y40391D01*
Y41546D01*
X66462Y41531D01*
D02*
G37*
G36*
X66445Y37545D02*
X66461Y37542D01*
X66487Y37540D01*
X66630Y37534D01*
X66969Y37532D01*
Y36531D01*
X66440Y36515D01*
Y37548D01*
X66445Y37545D01*
D02*
G37*
G36*
X59775Y35074D02*
X59718Y34998D01*
X59667Y34917D01*
X59622Y34830D01*
X59585Y34738D01*
X59554Y34640D01*
X59531Y34536D01*
X59514Y34426D01*
X59503Y34310D01*
X59500Y34189D01*
X58500D01*
X58497Y34310D01*
X58486Y34426D01*
X58469Y34536D01*
X58446Y34640D01*
X58415Y34738D01*
X58378Y34830D01*
X58333Y34917D01*
X58282Y34998D01*
X58225Y35074D01*
X58160Y35143D01*
X59840D01*
X59775Y35074D01*
D02*
G37*
G36*
X49548Y34485D02*
X49538Y34500D01*
X49508Y34513D01*
X49458Y34525D01*
X49388Y34535D01*
X49188Y34551D01*
X48548Y34563D01*
Y35563D01*
X48738Y35564D01*
X49508Y35613D01*
X49538Y35626D01*
X49548Y35641D01*
Y34485D01*
D02*
G37*
G36*
Y36454D02*
X49538Y36458D01*
X49508Y36462D01*
X49458Y36465D01*
X48548Y36476D01*
Y37476D01*
X48738Y37477D01*
X49388Y37524D01*
X49458Y37541D01*
X49508Y37561D01*
X49538Y37584D01*
X49548Y37609D01*
Y36454D01*
D02*
G37*
G36*
X29139Y24102D02*
X29154Y23930D01*
X29179Y23778D01*
X29214Y23646D01*
X29259Y23535D01*
X29314Y23444D01*
X29379Y23373D01*
X29454Y23323D01*
X29539Y23292D01*
X29634Y23282D01*
X27634D01*
X27729Y23292D01*
X27814Y23323D01*
X27889Y23373D01*
X27954Y23444D01*
X28009Y23535D01*
X28054Y23646D01*
X28089Y23778D01*
X28114Y23930D01*
X28129Y24102D01*
X28134Y24294D01*
X29134D01*
X29139Y24102D01*
D02*
G37*
G36*
X37013D02*
X37028Y23930D01*
X37053Y23778D01*
X37088Y23646D01*
X37133Y23535D01*
X37188Y23444D01*
X37253Y23373D01*
X37328Y23323D01*
X37413Y23292D01*
X37508Y23282D01*
X35508D01*
X35603Y23292D01*
X35688Y23323D01*
X35763Y23373D01*
X35828Y23444D01*
X35883Y23535D01*
X35928Y23646D01*
X35963Y23778D01*
X35988Y23930D01*
X36003Y24102D01*
X36008Y24294D01*
X37008D01*
X37013Y24102D01*
D02*
G37*
G36*
X21264Y24102D02*
X21279Y23930D01*
X21304Y23778D01*
X21339Y23646D01*
X21384Y23535D01*
X21439Y23444D01*
X21504Y23373D01*
X21579Y23323D01*
X21664Y23292D01*
X21759Y23282D01*
X19759D01*
X19854Y23292D01*
X19939Y23323D01*
X20014Y23373D01*
X20079Y23444D01*
X20134Y23535D01*
X20179Y23646D01*
X20214Y23778D01*
X20239Y23930D01*
X20254Y24102D01*
X20259Y24294D01*
X21259D01*
X21264Y24102D01*
D02*
G37*
G36*
X25202Y24102D02*
X25217Y23930D01*
X25242Y23778D01*
X25277Y23646D01*
X25322Y23535D01*
X25377Y23444D01*
X25442Y23373D01*
X25517Y23323D01*
X25602Y23292D01*
X25697Y23282D01*
X23697D01*
X23792Y23292D01*
X23877Y23323D01*
X23952Y23373D01*
X24017Y23444D01*
X24072Y23535D01*
X24117Y23646D01*
X24152Y23778D01*
X24177Y23930D01*
X24192Y24102D01*
X24197Y24294D01*
X25197D01*
X25202Y24102D01*
D02*
G37*
G36*
X69684Y13311D02*
X69814Y13203D01*
X69939Y13113D01*
X70059Y13043D01*
X70174Y12991D01*
X70284Y12958D01*
X70390Y12944D01*
X70491Y12949D01*
X70588Y12973D01*
X70679Y13016D01*
X69265Y11602D01*
X69308Y11693D01*
X69332Y11789D01*
X69337Y11891D01*
X69323Y11997D01*
X69290Y12107D01*
X69238Y12222D01*
X69168Y12342D01*
X69078Y12467D01*
X68970Y12597D01*
X68843Y12731D01*
X69550Y13438D01*
X69684Y13311D01*
D02*
G37*
G36*
X69056Y23665D02*
X69183Y23559D01*
X69304Y23474D01*
X69419Y23409D01*
X69527Y23365D01*
X69629Y23341D01*
X69725Y23338D01*
X69814Y23356D01*
X69898Y23393D01*
X69974Y23452D01*
X68909Y21759D01*
X68931Y21857D01*
X68936Y21959D01*
X68925Y22066D01*
X68897Y22176D01*
X68852Y22290D01*
X68790Y22409D01*
X68712Y22531D01*
X68617Y22657D01*
X68506Y22788D01*
X68378Y22922D01*
X68922Y23792D01*
X69056Y23665D01*
D02*
G37*
G36*
X17328Y24102D02*
X17343Y23930D01*
X17368Y23778D01*
X17403Y23646D01*
X17448Y23535D01*
X17503Y23444D01*
X17568Y23373D01*
X17643Y23323D01*
X17728Y23292D01*
X17823Y23282D01*
X15823D01*
X15918Y23292D01*
X16003Y23323D01*
X16078Y23373D01*
X16143Y23444D01*
X16198Y23535D01*
X16243Y23646D01*
X16278Y23778D01*
X16303Y23930D01*
X16318Y24102D01*
X16323Y24294D01*
X17323D01*
X17328Y24102D01*
D02*
G37*
G36*
X60472Y28203D02*
X60482Y28088D01*
X60500Y27979D01*
X60524Y27875D01*
X60556Y27777D01*
X60594Y27686D01*
X60639Y27600D01*
X60692Y27520D01*
X60751Y27447D01*
X60817Y27379D01*
X59138Y27335D01*
X59201Y27406D01*
X59257Y27482D01*
X59306Y27565D01*
X59350Y27652D01*
X59386Y27746D01*
X59416Y27845D01*
X59439Y27949D01*
X59455Y28059D01*
X59465Y28175D01*
X59469Y28296D01*
X60469Y28325D01*
X60472Y28203D01*
D02*
G37*
G36*
X69661Y30051D02*
X69750Y29976D01*
X69840Y29911D01*
X69930Y29854D01*
X70021Y29806D01*
X70113Y29767D01*
X70206Y29737D01*
X70299Y29716D01*
X70393Y29703D01*
X70488Y29700D01*
X69300Y28512D01*
X69297Y28607D01*
X69284Y28701D01*
X69263Y28794D01*
X69233Y28887D01*
X69194Y28979D01*
X69146Y29070D01*
X69089Y29160D01*
X69024Y29250D01*
X68949Y29339D01*
X68866Y29427D01*
X69573Y30134D01*
X69661Y30051D01*
D02*
G37*
G36*
X9143Y28660D02*
X9074Y28725D01*
X8998Y28782D01*
X8917Y28833D01*
X8830Y28878D01*
X8738Y28915D01*
X8640Y28946D01*
X8536Y28969D01*
X8426Y28986D01*
X8310Y28997D01*
X8189Y29000D01*
Y30000D01*
X8310Y30003D01*
X8426Y30014D01*
X8536Y30031D01*
X8640Y30054D01*
X8738Y30085D01*
X8830Y30122D01*
X8917Y30167D01*
X8998Y30218D01*
X9074Y30275D01*
X9143Y30340D01*
Y28660D01*
D02*
G37*
G36*
X41643Y27160D02*
X41574Y27225D01*
X41498Y27282D01*
X41417Y27333D01*
X41330Y27378D01*
X41238Y27415D01*
X41140Y27446D01*
X41036Y27469D01*
X40926Y27486D01*
X40810Y27497D01*
X40689Y27500D01*
Y28500D01*
X40810Y28503D01*
X40926Y28514D01*
X41036Y28531D01*
X41140Y28554D01*
X41238Y28585D01*
X41330Y28622D01*
X41417Y28667D01*
X41498Y28718D01*
X41574Y28775D01*
X41643Y28840D01*
Y27160D01*
D02*
G37*
G36*
X9453Y24104D02*
X9468Y23932D01*
X9493Y23780D01*
X9528Y23649D01*
X9573Y23537D01*
X9628Y23446D01*
X9693Y23375D01*
X9768Y23325D01*
X9853Y23294D01*
X9948Y23284D01*
X7948D01*
X8043Y23294D01*
X8128Y23325D01*
X8203Y23375D01*
X8268Y23446D01*
X8323Y23537D01*
X8368Y23649D01*
X8403Y23780D01*
X8428Y23932D01*
X8443Y24104D01*
X8448Y24296D01*
X9448D01*
X9453Y24104D01*
D02*
G37*
G36*
X13390Y24104D02*
X13405Y23932D01*
X13430Y23780D01*
X13465Y23649D01*
X13510Y23537D01*
X13565Y23446D01*
X13630Y23375D01*
X13705Y23325D01*
X13790Y23294D01*
X13885Y23284D01*
X11885D01*
X11980Y23294D01*
X12065Y23325D01*
X12140Y23375D01*
X12205Y23446D01*
X12260Y23537D01*
X12305Y23649D01*
X12340Y23780D01*
X12365Y23932D01*
X12380Y24104D01*
X12385Y24296D01*
X13385D01*
X13390Y24104D01*
D02*
G37*
G36*
X49643Y26660D02*
X49573Y26725D01*
X49498Y26782D01*
X49417Y26833D01*
X49330Y26878D01*
X49238Y26915D01*
X49140Y26946D01*
X49036Y26969D01*
X48926Y26986D01*
X48810Y26997D01*
X48689Y27000D01*
Y28000D01*
X48810Y28003D01*
X48926Y28014D01*
X49036Y28031D01*
X49140Y28054D01*
X49238Y28085D01*
X49330Y28122D01*
X49417Y28167D01*
X49498Y28218D01*
X49573Y28275D01*
X49643Y28340D01*
Y26660D01*
D02*
G37*
G36*
X58955Y56271D02*
X58860Y56217D01*
X58775Y56128D01*
X58702Y56002D01*
X58640Y55841D01*
X58590Y55645D01*
X58551Y55412D01*
X58522Y55144D01*
X58500Y54500D01*
X56500D01*
X56494Y54840D01*
X56449Y55412D01*
X56410Y55645D01*
X56360Y55841D01*
X56298Y56002D01*
X56225Y56128D01*
X56140Y56217D01*
X56045Y56271D01*
X55938Y56289D01*
X59062D01*
X58955Y56271D01*
D02*
G37*
G36*
X28754Y56672D02*
X28765Y56556D01*
X28782Y56446D01*
X28805Y56342D01*
X28822Y56289D01*
X29062D01*
X29003Y56279D01*
X28950Y56249D01*
X28903Y56199D01*
X28875Y56149D01*
X28918Y56065D01*
X28969Y55984D01*
X29026Y55909D01*
X29091Y55839D01*
X28786D01*
X28779Y55799D01*
X28763Y55649D01*
X28751Y55289D01*
X27751D01*
X27746Y55479D01*
X27731Y55649D01*
X27706Y55799D01*
X27695Y55839D01*
X27411D01*
X27476Y55909D01*
X27533Y55984D01*
X27584Y56065D01*
X27596Y56088D01*
X27571Y56129D01*
X27506Y56199D01*
X27431Y56249D01*
X27346Y56279D01*
X27251Y56289D01*
X27680D01*
X27697Y56342D01*
X27720Y56446D01*
X27737Y56556D01*
X27748Y56672D01*
X27751Y56793D01*
X28751D01*
X28754Y56672D01*
D02*
G37*
G36*
X34034Y56289D02*
X35062D01*
X35042Y56282D01*
X35039Y56260D01*
X35052Y56225D01*
X35083Y56175D01*
X35131Y56112D01*
X35278Y55942D01*
X35626Y55581D01*
X34211D01*
X34200Y55593D01*
X34251Y55512D01*
X34308Y55436D01*
X34373Y55367D01*
X34035D01*
X34033Y55289D01*
X33033D01*
X33031Y55367D01*
X32693D01*
X32758Y55436D01*
X32815Y55512D01*
X32866Y55593D01*
X32911Y55680D01*
X32948Y55772D01*
X32973Y55853D01*
X32953Y55929D01*
X32908Y56039D01*
X32853Y56129D01*
X32788Y56199D01*
X32713Y56249D01*
X32628Y56279D01*
X32533Y56289D01*
X33032D01*
X33033Y56321D01*
X34033D01*
X34034Y56289D01*
D02*
G37*
G36*
X52955Y56271D02*
X52860Y56217D01*
X52775Y56128D01*
X52702Y56002D01*
X52640Y55841D01*
X52590Y55645D01*
X52551Y55412D01*
X52522Y55144D01*
X52500Y54500D01*
X50500D01*
X50494Y54840D01*
X50449Y55412D01*
X50410Y55645D01*
X50360Y55841D01*
X50298Y56002D01*
X50225Y56128D01*
X50140Y56217D01*
X50045Y56271D01*
X49938Y56289D01*
X53062D01*
X52955Y56271D01*
D02*
G37*
G36*
X64681Y49678D02*
X64623Y49603D01*
X64572Y49522D01*
X64528Y49435D01*
X64490Y49342D01*
X64460Y49244D01*
X64436Y49140D01*
X64419Y49030D01*
X64409Y48915D01*
X64406Y48794D01*
X63406D01*
X63402Y48915D01*
X63392Y49030D01*
X63375Y49140D01*
X63351Y49244D01*
X63320Y49342D01*
X63283Y49435D01*
X63239Y49522D01*
X63188Y49603D01*
X63130Y49678D01*
X63065Y49747D01*
X64745D01*
X64681Y49678D01*
D02*
G37*
G36*
X69643Y52660D02*
X69573Y52725D01*
X69498Y52782D01*
X69417Y52833D01*
X69330Y52878D01*
X69238Y52915D01*
X69140Y52946D01*
X69036Y52969D01*
X68926Y52986D01*
X68810Y52997D01*
X68689Y53000D01*
Y54000D01*
X68810Y54003D01*
X68926Y54014D01*
X69036Y54031D01*
X69140Y54054D01*
X69238Y54085D01*
X69330Y54122D01*
X69417Y54167D01*
X69498Y54218D01*
X69573Y54275D01*
X69643Y54340D01*
Y52660D01*
D02*
G37*
G36*
X58243Y53816D02*
X58192Y53726D01*
X58147Y53630D01*
X58108Y53526D01*
X58093Y53477D01*
X58127D01*
X58103Y53456D01*
X58081Y53423D01*
X58072Y53401D01*
X58048Y53299D01*
X58027Y53175D01*
X58012Y53044D01*
X58000Y52763D01*
X57000D01*
X56997Y52907D01*
X56973Y53175D01*
X56952Y53299D01*
X56928Y53401D01*
X56919Y53423D01*
X56897Y53456D01*
X56873Y53477D01*
X56907D01*
X56892Y53526D01*
X56853Y53630D01*
X56808Y53726D01*
X56757Y53816D01*
X56700Y53900D01*
X58300D01*
X58243Y53816D01*
D02*
G37*
G36*
X81664Y67047D02*
Y1013D01*
X1013D01*
Y9823D01*
X1481Y10001D01*
X1940Y9811D01*
X15251D01*
Y6513D01*
X15441Y6054D01*
X15900Y5864D01*
X41630D01*
X42089Y6054D01*
X42279Y6513D01*
Y15200D01*
Y17250D01*
X42276Y17258D01*
Y23307D01*
X42086Y23766D01*
X41627Y23956D01*
X39264D01*
X38805Y23766D01*
X38748Y23627D01*
X38206D01*
X38149Y23766D01*
X38018Y23821D01*
X37955Y24132D01*
X38343Y24578D01*
X45700D01*
X45700Y24578D01*
X46129Y24664D01*
X46493Y24907D01*
X47965Y26378D01*
X48609D01*
X48671Y26351D01*
X48773Y26348D01*
X48847Y26341D01*
X48913Y26331D01*
X48970Y26318D01*
X49019Y26303D01*
X49061Y26286D01*
X49096Y26268D01*
X49127Y26249D01*
X49154Y26228D01*
X49201Y26184D01*
X49265Y26160D01*
X49798Y25804D01*
X50500Y25665D01*
X51202Y25804D01*
X51798Y26202D01*
X52196Y26798D01*
X52335Y27500D01*
X52196Y28202D01*
X51798Y28798D01*
X51202Y29196D01*
X50500Y29335D01*
X49798Y29196D01*
X49265Y28839D01*
X49201Y28816D01*
X49154Y28772D01*
X49127Y28751D01*
X49096Y28732D01*
X49061Y28714D01*
X49019Y28697D01*
X48970Y28682D01*
X48913Y28669D01*
X48847Y28659D01*
X48773Y28652D01*
X48671Y28649D01*
X48609Y28622D01*
X47500D01*
X47071Y28536D01*
X46707Y28293D01*
X46707Y28293D01*
X45235Y26822D01*
X44453D01*
X44195Y27233D01*
X44200Y27322D01*
X44335Y28000D01*
X44196Y28702D01*
X43798Y29298D01*
X43228Y29678D01*
X43222Y29715D01*
X43427Y30178D01*
X50444D01*
X50508Y30151D01*
X50682Y30148D01*
X50963Y30131D01*
X51026Y30122D01*
X51045Y30076D01*
X51140Y30037D01*
X51161Y30005D01*
X51263Y29986D01*
X51504Y29886D01*
X52685D01*
X53144Y30076D01*
X53334Y30535D01*
Y32504D01*
X53144Y32963D01*
X52685Y33153D01*
X52153D01*
Y33685D01*
X51990Y34079D01*
X52153Y34472D01*
Y35653D01*
X51990Y36047D01*
X52153Y36441D01*
Y37622D01*
X51990Y38016D01*
X52153Y38409D01*
Y39591D01*
X51990Y39984D01*
X52153Y40378D01*
Y41559D01*
X51990Y41953D01*
X52153Y42347D01*
Y43528D01*
X51990Y43923D01*
X52153Y44319D01*
X52153Y44493D01*
X52506Y44847D01*
X52685D01*
X53079Y45010D01*
X53472Y44847D01*
X54654D01*
X55047Y45010D01*
X55441Y44847D01*
X56622D01*
X57016Y45010D01*
X57410Y44847D01*
X58591D01*
X58984Y45010D01*
X59378Y44847D01*
X60559D01*
X61018Y45037D01*
X61208Y45496D01*
Y47465D01*
X61018Y47924D01*
X60559Y48114D01*
X59378D01*
X59149Y48454D01*
X59122Y48521D01*
Y50535D01*
X63672Y55086D01*
X63736Y55111D01*
X63864Y55233D01*
X63977Y55328D01*
X64085Y55409D01*
X64188Y55476D01*
X64286Y55530D01*
X64378Y55572D01*
X64465Y55602D01*
X64547Y55623D01*
X64570Y55626D01*
X65075D01*
X65330Y55732D01*
X65429Y55753D01*
X65447Y55780D01*
X65534Y55816D01*
X65628Y56044D01*
X65639Y56050D01*
X65741Y56085D01*
X65903Y56122D01*
X66113Y56154D01*
X66521Y56182D01*
X66618Y56179D01*
X66879Y56155D01*
X67097Y56122D01*
X67259Y56085D01*
X67361Y56050D01*
X67372Y56044D01*
X67466Y55816D01*
X67554Y55780D01*
X67571Y55753D01*
X67670Y55732D01*
X67925Y55626D01*
X69595D01*
X69694Y55126D01*
X69265Y54839D01*
X69201Y54816D01*
X69154Y54772D01*
X69127Y54751D01*
X69096Y54732D01*
X69061Y54714D01*
X69019Y54697D01*
X68970Y54682D01*
X68913Y54669D01*
X68848Y54659D01*
X68773Y54652D01*
X68671Y54649D01*
X68609Y54622D01*
X68500D01*
X68500Y54622D01*
X68071Y54536D01*
X67707Y54293D01*
X66207Y52793D01*
X65964Y52429D01*
X65878Y52000D01*
X65878Y52000D01*
Y51792D01*
X65378Y51640D01*
X65203Y51902D01*
X64608Y52300D01*
X63906Y52440D01*
X63203Y52300D01*
X62608Y51902D01*
X62210Y51307D01*
X62070Y50604D01*
X62210Y49902D01*
X62566Y49369D01*
X62590Y49305D01*
X62634Y49258D01*
X62654Y49231D01*
X62674Y49201D01*
X62692Y49165D01*
X62708Y49124D01*
X62724Y49075D01*
X62737Y49018D01*
X62747Y48952D01*
X62753Y48877D01*
X62756Y48775D01*
X62784Y48714D01*
Y48567D01*
X62756Y48504D01*
X62744Y47882D01*
X62732Y47722D01*
X62729Y47701D01*
X62723Y47678D01*
X62725Y47667D01*
X62690Y47613D01*
X62697Y47580D01*
X62665Y47504D01*
Y45496D01*
X62856Y45037D01*
X63315Y44847D01*
X63847D01*
Y44315D01*
X64010Y43921D01*
X63847Y43528D01*
Y42347D01*
X64010Y41953D01*
X63847Y41559D01*
Y40378D01*
X64010Y39984D01*
X63847Y39591D01*
Y38409D01*
X64010Y38016D01*
X63847Y37622D01*
Y36441D01*
X64010Y36047D01*
X63847Y35653D01*
Y34472D01*
X64010Y34079D01*
X63847Y33685D01*
Y33153D01*
X63315D01*
X62921Y32990D01*
X62528Y33153D01*
X61347D01*
X60953Y32990D01*
X60559Y33153D01*
X60359D01*
X60205Y33353D01*
X60053Y33653D01*
X60122Y34000D01*
Y34109D01*
X60149Y34171D01*
X60152Y34273D01*
X60159Y34348D01*
X60169Y34413D01*
X60182Y34470D01*
X60197Y34519D01*
X60214Y34561D01*
X60232Y34596D01*
X60251Y34627D01*
X60272Y34654D01*
X60316Y34701D01*
X60339Y34765D01*
X60696Y35298D01*
X60835Y36000D01*
X60696Y36702D01*
X60298Y37298D01*
X59702Y37696D01*
X59000Y37835D01*
X58298Y37696D01*
X57702Y37298D01*
X57304Y36702D01*
X57165Y36000D01*
X57304Y35298D01*
X57661Y34765D01*
X57684Y34701D01*
X57728Y34654D01*
X57749Y34627D01*
X57768Y34596D01*
X57786Y34561D01*
X57803Y34519D01*
X57818Y34470D01*
X57830Y34416D01*
X57207Y33793D01*
X56964Y33429D01*
X56622Y33153D01*
X55441D01*
X54982Y32963D01*
X54791Y32504D01*
Y30702D01*
X54791Y30700D01*
Y22379D01*
X53400D01*
X52941Y22189D01*
X52751Y21730D01*
Y16300D01*
X52941Y15841D01*
X53400Y15651D01*
X62570D01*
X63029Y15841D01*
X63219Y16300D01*
Y16822D01*
X63681Y17014D01*
X68347Y12348D01*
X68371Y12284D01*
X68485Y12165D01*
X68565Y12069D01*
X68623Y11988D01*
X68660Y11924D01*
X68679Y11882D01*
X68677Y11876D01*
X68675Y11839D01*
X68245Y10800D01*
X68089Y9616D01*
X68245Y8432D01*
X68702Y7328D01*
X69429Y6380D01*
X70377Y5653D01*
X71481Y5196D01*
X72665Y5040D01*
X73849Y5196D01*
X74953Y5653D01*
X75901Y6380D01*
X76628Y7328D01*
X77085Y8432D01*
X77241Y9616D01*
X77085Y10800D01*
X76628Y11904D01*
X75901Y12852D01*
X74953Y13579D01*
X73849Y14036D01*
X72665Y14192D01*
X71481Y14036D01*
X70442Y13606D01*
X70405Y13604D01*
X70399Y13602D01*
X70357Y13621D01*
X70293Y13658D01*
X70212Y13716D01*
X70116Y13796D01*
X69997Y13909D01*
X69933Y13934D01*
X65027Y18840D01*
Y24687D01*
X65527Y24894D01*
X67883Y22538D01*
X67907Y22474D01*
X68024Y22352D01*
X68110Y22251D01*
X68178Y22161D01*
X68227Y22083D01*
X68260Y22021D01*
X68278Y21976D01*
X68284Y21950D01*
X68285Y21943D01*
X68275Y21901D01*
X68283Y21856D01*
X68245Y21762D01*
X68089Y20578D01*
X68245Y19394D01*
X68702Y18290D01*
X69429Y17342D01*
X70377Y16615D01*
X71481Y16158D01*
X72665Y16002D01*
X73849Y16158D01*
X74953Y16615D01*
X75901Y17342D01*
X76628Y18290D01*
X76951Y19069D01*
X77036Y19197D01*
X77066Y19348D01*
X77085Y19394D01*
X77105Y19541D01*
X77122Y19626D01*
X77118Y19643D01*
X77241Y20578D01*
X77085Y21762D01*
X76628Y22866D01*
X75901Y23814D01*
X74953Y24541D01*
X73849Y24998D01*
X72665Y25154D01*
X71481Y24998D01*
X70377Y24541D01*
X69681Y24007D01*
X69652Y24023D01*
X69579Y24075D01*
X69487Y24151D01*
X69369Y24264D01*
X69306Y24288D01*
X69267Y24342D01*
X69248Y24346D01*
X66996Y26598D01*
Y29711D01*
X67496Y29918D01*
X68370Y29044D01*
X68394Y28981D01*
X68464Y28907D01*
X68512Y28849D01*
X68552Y28795D01*
X68583Y28746D01*
X68607Y28701D01*
X68624Y28659D01*
X68636Y28622D01*
X68644Y28586D01*
X68649Y28552D01*
X68651Y28488D01*
X68679Y28426D01*
X68804Y27798D01*
X69202Y27202D01*
X69798Y26804D01*
X70500Y26665D01*
X71202Y26804D01*
X71798Y27202D01*
X72196Y27798D01*
X72335Y28500D01*
X72196Y29202D01*
X71798Y29798D01*
X71202Y30196D01*
X70574Y30321D01*
X70512Y30349D01*
X70447Y30351D01*
X70414Y30356D01*
X70379Y30364D01*
X70341Y30376D01*
X70300Y30393D01*
X70254Y30417D01*
X70205Y30448D01*
X70151Y30488D01*
X70093Y30536D01*
X70019Y30606D01*
X69956Y30630D01*
X69367Y31219D01*
X69400Y31469D01*
X69513Y31564D01*
X69940Y31776D01*
X70500Y31665D01*
X71202Y31804D01*
X71798Y32202D01*
X72196Y32798D01*
X72335Y33500D01*
X72196Y34202D01*
X71798Y34798D01*
X71202Y35196D01*
X70574Y35321D01*
X70512Y35349D01*
X70447Y35351D01*
X70414Y35356D01*
X70379Y35364D01*
X70341Y35376D01*
X70300Y35394D01*
X70254Y35417D01*
X70205Y35448D01*
X70151Y35488D01*
X70093Y35536D01*
X70019Y35606D01*
X69956Y35630D01*
X69032Y36554D01*
X69114Y37024D01*
X69344Y37108D01*
X69798Y36804D01*
X70500Y36665D01*
X71202Y36804D01*
X71798Y37202D01*
X72196Y37798D01*
X72335Y38500D01*
X72196Y39202D01*
X71798Y39798D01*
X71202Y40196D01*
X70500Y40335D01*
X69798Y40196D01*
X69364Y39906D01*
X69251Y39916D01*
X69125Y40060D01*
X69098Y40132D01*
X69068Y40482D01*
X69956Y41370D01*
X70019Y41394D01*
X70093Y41464D01*
X70151Y41512D01*
X70205Y41552D01*
X70254Y41583D01*
X70300Y41607D01*
X70341Y41624D01*
X70379Y41636D01*
X70414Y41644D01*
X70447Y41649D01*
X70512Y41651D01*
X70574Y41679D01*
X71202Y41804D01*
X71798Y42202D01*
X72196Y42798D01*
X72335Y43500D01*
X72196Y44202D01*
X71798Y44798D01*
X71202Y45196D01*
X70500Y45335D01*
X70122Y45769D01*
Y46488D01*
X70151Y46512D01*
X70205Y46552D01*
X70254Y46583D01*
X70300Y46606D01*
X70341Y46624D01*
X70379Y46636D01*
X70414Y46644D01*
X70447Y46649D01*
X70512Y46651D01*
X70574Y46679D01*
X71202Y46804D01*
X71798Y47202D01*
X72196Y47798D01*
X72335Y48500D01*
X72196Y49202D01*
X71798Y49798D01*
X71202Y50196D01*
X70500Y50335D01*
X69798Y50196D01*
X69202Y49798D01*
X68804Y49202D01*
X68713Y48743D01*
X68573Y48672D01*
X68122Y48894D01*
Y51535D01*
X68916Y52330D01*
X68970Y52318D01*
X69019Y52303D01*
X69061Y52286D01*
X69096Y52268D01*
X69127Y52249D01*
X69154Y52228D01*
X69201Y52184D01*
X69265Y52161D01*
X69798Y51804D01*
X70500Y51665D01*
X71202Y51804D01*
X71798Y52202D01*
X72196Y52798D01*
X72335Y53500D01*
X72196Y54202D01*
X71798Y54798D01*
X71249Y55164D01*
X71219Y55391D01*
X71245Y55697D01*
X71534Y55816D01*
X71724Y56276D01*
Y59425D01*
X71974Y59799D01*
X74014D01*
X74015Y59798D01*
X74444Y59884D01*
X74808Y60127D01*
X75181Y60500D01*
X80150D01*
X80609Y60690D01*
X80799Y61150D01*
Y66633D01*
X80808Y66656D01*
Y66776D01*
X81164Y67308D01*
X81201Y67313D01*
X81664Y67047D01*
D02*
G37*
G36*
X40705Y62578D02*
X40631Y62550D01*
X40565Y62503D01*
X40508Y62438D01*
X40460Y62353D01*
X40420Y62250D01*
X40390Y62128D01*
X40368Y61987D01*
X40355Y61828D01*
X40350Y61650D01*
X39350D01*
X39346Y61828D01*
X39333Y61987D01*
X39311Y62128D01*
X39280Y62250D01*
X39241Y62353D01*
X39193Y62438D01*
X39136Y62503D01*
X39070Y62550D01*
X38996Y62578D01*
X38912Y62588D01*
X40789D01*
X40705Y62578D01*
D02*
G37*
G36*
X73216Y69675D02*
Y68674D01*
X73077Y67976D01*
X73216Y67278D01*
Y66697D01*
X73201Y66661D01*
Y62041D01*
X66045D01*
X65711Y62542D01*
X65724Y62575D01*
Y65724D01*
X65534Y66184D01*
X65075Y66374D01*
X61925D01*
X61466Y66184D01*
X61276Y65724D01*
Y62575D01*
X61291Y62537D01*
X61014Y62122D01*
X53000D01*
X53000Y62122D01*
X52571Y62036D01*
X52207Y61793D01*
X50707Y60293D01*
X50561Y60075D01*
X49925D01*
X49466Y59884D01*
X49276Y59425D01*
Y56276D01*
X49388Y56005D01*
X49409Y55912D01*
X49433Y55897D01*
X49466Y55816D01*
X49713Y55714D01*
X49740Y55644D01*
X49774Y55510D01*
X49804Y55332D01*
X49813Y55216D01*
X49804Y55202D01*
X49665Y54500D01*
X49748Y54082D01*
X49653Y53905D01*
X49367Y53622D01*
X43465D01*
X41490Y55596D01*
X41534Y55816D01*
X41724Y56276D01*
Y59425D01*
X41709Y59463D01*
X41987Y59878D01*
X42922D01*
X43276Y59425D01*
Y56276D01*
X43466Y55816D01*
X43925Y55626D01*
X47075D01*
X47534Y55816D01*
X47724Y56276D01*
Y59425D01*
X47534Y59884D01*
X47075Y60075D01*
X46719D01*
X46641Y60101D01*
X46529Y60152D01*
X46399Y60224D01*
X46254Y60320D01*
X46100Y60433D01*
X45733Y60749D01*
X45536Y60940D01*
X45471Y60965D01*
X44644Y61793D01*
X44280Y62036D01*
X43850Y62122D01*
X43850Y62122D01*
X41987D01*
X41709Y62537D01*
X41724Y62575D01*
Y65724D01*
X41534Y66184D01*
X41075Y66374D01*
X37925D01*
X37466Y66184D01*
X37276Y65724D01*
Y62575D01*
X37466Y62116D01*
X37925Y61925D01*
X38685D01*
X38688Y61911D01*
X38697Y61793D01*
X38701Y61634D01*
X38757Y61507D01*
X38814Y61220D01*
X39057Y60857D01*
X39339Y60575D01*
X39132Y60075D01*
X37925D01*
X37466Y59884D01*
X37276Y59425D01*
Y56276D01*
X37466Y55816D01*
X37925Y55626D01*
X38453D01*
X38464Y55571D01*
X38707Y55207D01*
X39830Y54084D01*
X39639Y53622D01*
X38465D01*
X36119Y55967D01*
X36093Y56032D01*
X35757Y56380D01*
X35724Y56419D01*
Y59425D01*
X35534Y59884D01*
X35075Y60075D01*
X31925D01*
X31466Y59884D01*
X31276Y59425D01*
Y56276D01*
X31466Y55816D01*
X31602Y55760D01*
X31837Y55212D01*
X31698Y54510D01*
X31837Y53808D01*
X32235Y53212D01*
X32831Y52814D01*
X33533Y52675D01*
X34235Y52814D01*
X34831Y53212D01*
X34961Y53407D01*
X35458Y53456D01*
X36578Y52336D01*
X36387Y51874D01*
X34925D01*
X34466Y51684D01*
X34276Y51224D01*
Y48075D01*
X34466Y47616D01*
X34925Y47425D01*
X38075D01*
X38294Y47516D01*
X38397Y47532D01*
X38426Y47571D01*
X38534Y47616D01*
X38584Y47736D01*
X38684Y47762D01*
X38838Y47789D01*
X39275Y47820D01*
X39298Y47804D01*
X40000Y47665D01*
X40702Y47804D01*
X41298Y48202D01*
X41696Y48798D01*
X41779Y49216D01*
X42307Y49463D01*
X42314Y49463D01*
X42737Y49378D01*
X42737Y49378D01*
X48535D01*
X50250Y47664D01*
X50252Y47650D01*
X50298Y47616D01*
X50312Y47602D01*
X50335Y47540D01*
X50704Y47145D01*
X50823Y46997D01*
X50854Y46953D01*
Y46148D01*
X49532Y46145D01*
X49458Y46114D01*
X49426Y46121D01*
X49392Y46099D01*
X48716Y46056D01*
X48546Y46055D01*
X48479Y46027D01*
X47143D01*
X47143Y46027D01*
X46714Y45942D01*
X46350Y45699D01*
X46350Y45698D01*
X42036Y41385D01*
X41614Y41410D01*
X41415Y41877D01*
X41696Y42298D01*
X41835Y43000D01*
X41696Y43702D01*
X41298Y44298D01*
X40702Y44696D01*
X40000Y44835D01*
X39298Y44696D01*
X39296Y44695D01*
X39142Y44719D01*
X38957Y44766D01*
X38827Y44816D01*
X38751Y44859D01*
X38724Y44883D01*
Y44925D01*
X38710Y44960D01*
X38707Y44984D01*
X38677Y45039D01*
X38534Y45384D01*
X38473Y45410D01*
X38467Y45420D01*
X38407Y45437D01*
X38075Y45575D01*
X34925D01*
X34466Y45384D01*
X34276Y44925D01*
Y41776D01*
X33984Y41212D01*
X33620Y40969D01*
X33620Y40969D01*
X28773Y36122D01*
X25103D01*
Y55526D01*
X25603Y55760D01*
X25925Y55626D01*
X26150D01*
X26467Y55240D01*
X26416Y54982D01*
X26555Y54280D01*
X26953Y53684D01*
X27549Y53286D01*
X28251Y53147D01*
X28953Y53286D01*
X29549Y53684D01*
X29947Y54280D01*
X30086Y54982D01*
X29947Y55684D01*
X29658Y56116D01*
X29724Y56276D01*
Y59425D01*
X29534Y59884D01*
X29262Y59997D01*
X29053Y60466D01*
X29046Y60575D01*
X29196Y60798D01*
X29335Y61500D01*
X29237Y61993D01*
X29534Y62116D01*
X29724Y62575D01*
Y65724D01*
X29534Y66184D01*
X29075Y66374D01*
X25925D01*
X25603Y66240D01*
X25103Y66474D01*
Y69853D01*
X73097D01*
X73216Y69675D01*
D02*
G37*
G36*
X45295Y60269D02*
X45694Y59926D01*
X45882Y59786D01*
X46063Y59668D01*
X46236Y59572D01*
X46401Y59497D01*
X46559Y59443D01*
X46710Y59411D01*
X46852Y59400D01*
X44024D01*
X44153Y59407D01*
X44254Y59429D01*
X44326Y59465D01*
X44369Y59515D01*
X44383Y59580D01*
X44369Y59659D01*
X44326Y59753D01*
X44254Y59860D01*
X44153Y59983D01*
X44024Y60119D01*
X45085Y60473D01*
X45295Y60269D01*
D02*
G37*
G36*
X64561Y56282D02*
X64420Y56260D01*
X64279Y56225D01*
X64137Y56176D01*
X63996Y56112D01*
X63854Y56034D01*
X63713Y55942D01*
X63571Y55836D01*
X63430Y55716D01*
X63289Y55581D01*
X61874D01*
X62002Y55716D01*
X62103Y55836D01*
X62177Y55942D01*
X62224Y56034D01*
X62244Y56112D01*
X62237Y56176D01*
X62203Y56225D01*
X62142Y56260D01*
X62053Y56282D01*
X61938Y56289D01*
X64703D01*
X64561Y56282D01*
D02*
G37*
G36*
X65082Y59306D02*
X65142Y59210D01*
X65242Y59126D01*
X65382Y59053D01*
X65562Y58991D01*
X65782Y58940D01*
X66042Y58901D01*
X66342Y58873D01*
X66492Y58868D01*
X66958Y58901D01*
X67218Y58940D01*
X67438Y58991D01*
X67618Y59053D01*
X67758Y59126D01*
X67858Y59210D01*
X67918Y59306D01*
X67938Y59412D01*
Y56289D01*
X67918Y56395D01*
X67858Y56491D01*
X67758Y56575D01*
X67618Y56648D01*
X67438Y56710D01*
X67218Y56761D01*
X66958Y56800D01*
X66658Y56828D01*
X66508Y56833D01*
X66042Y56800D01*
X65782Y56761D01*
X65562Y56710D01*
X65382Y56648D01*
X65242Y56575D01*
X65142Y56491D01*
X65082Y56395D01*
X65062Y56289D01*
Y59412D01*
X65082Y59306D01*
D02*
G37*
G36*
X52003Y59373D02*
X52027Y59133D01*
X52048Y59020D01*
X52075Y58913D01*
X52108Y58810D01*
X52147Y58713D01*
X52192Y58620D01*
X52243Y58533D01*
X52300Y58450D01*
X50700D01*
X50757Y58533D01*
X50808Y58620D01*
X50853Y58713D01*
X50892Y58810D01*
X50925Y58913D01*
X50952Y59020D01*
X50973Y59133D01*
X50988Y59250D01*
X50997Y59373D01*
X51000Y59500D01*
X52000D01*
X52003Y59373D01*
D02*
G37*
G36*
X51503Y44909D02*
X51504Y44318D01*
X49535Y44315D01*
X49535Y44344D01*
X49508Y44356D01*
X49458Y44368D01*
X49388Y44378D01*
X49188Y44393D01*
X48548Y44405D01*
Y45406D01*
X48738Y45406D01*
X49508Y45455D01*
X49533Y45466D01*
X49533Y45496D01*
X50911Y45498D01*
X51503Y44909D01*
D02*
G37*
G36*
X66465Y44315D02*
X64496D01*
Y44905D01*
X65087Y45496D01*
X66465D01*
Y44315D01*
D02*
G37*
G36*
X52660Y47465D02*
X52685D01*
Y45496D01*
X52095D01*
X51504Y46087D01*
Y47145D01*
X51458Y47223D01*
X51341Y47389D01*
X51194Y47571D01*
X50810Y47983D01*
X51695Y48512D01*
X52660Y47465D01*
D02*
G37*
G36*
X38081Y44739D02*
X38139Y44584D01*
X38236Y44447D01*
X38372Y44328D01*
X38546Y44228D01*
X38760Y44146D01*
X39011Y44082D01*
X39302Y44036D01*
X39632Y44009D01*
X40000Y44000D01*
Y42000D01*
X39632Y41998D01*
X38372Y41924D01*
X38236Y41896D01*
X38139Y41865D01*
X38081Y41829D01*
X38062Y41789D01*
Y44912D01*
X38081Y44739D01*
D02*
G37*
G36*
X70488Y42300D02*
X70393Y42297D01*
X70299Y42284D01*
X70206Y42263D01*
X70113Y42233D01*
X70021Y42194D01*
X69930Y42146D01*
X69840Y42089D01*
X69750Y42024D01*
X69661Y41949D01*
X69573Y41866D01*
X68866Y42573D01*
X68949Y42661D01*
X69024Y42750D01*
X69089Y42840D01*
X69146Y42930D01*
X69194Y43021D01*
X69233Y43113D01*
X69263Y43206D01*
X69284Y43299D01*
X69297Y43393D01*
X69300Y43488D01*
X70488Y42300D01*
D02*
G37*
G36*
X49548Y42359D02*
X49538Y42374D01*
X49508Y42387D01*
X49458Y42399D01*
X49388Y42409D01*
X49188Y42425D01*
X48548Y42437D01*
Y43437D01*
X48738Y43438D01*
X49508Y43487D01*
X49538Y43500D01*
X49548Y43515D01*
Y42359D01*
D02*
G37*
G36*
X64496Y46087D02*
X63906Y45496D01*
X63315D01*
Y47465D01*
X64496D01*
Y46087D01*
D02*
G37*
G36*
X58501Y48262D02*
X58550Y47492D01*
X58563Y47462D01*
X58578Y47452D01*
X57422D01*
X57437Y47462D01*
X57450Y47492D01*
X57462Y47542D01*
X57472Y47612D01*
X57488Y47812D01*
X57500Y48452D01*
X58500D01*
X58501Y48262D01*
D02*
G37*
G36*
X64406Y48301D02*
X64455Y47531D01*
X64468Y47501D01*
X64483Y47491D01*
X63328D01*
X63343Y47501D01*
X63356Y47531D01*
X63367Y47581D01*
X63378Y47651D01*
X63393Y47851D01*
X63406Y48491D01*
X64406D01*
X64406Y48301D01*
D02*
G37*
G36*
X38081Y51076D02*
X38139Y50955D01*
X38236Y50849D01*
X38372Y50756D01*
X38546Y50678D01*
X38760Y50614D01*
X39011Y50564D01*
X39302Y50529D01*
X39632Y50507D01*
X40000Y50500D01*
Y48500D01*
X39632Y48496D01*
X38760Y48434D01*
X38546Y48397D01*
X38372Y48352D01*
X38236Y48298D01*
X38139Y48236D01*
X38081Y48166D01*
X38062Y48088D01*
Y51211D01*
X38081Y51076D01*
D02*
G37*
G36*
X56532Y48262D02*
X56581Y47492D01*
X56594Y47462D01*
X56609Y47452D01*
X55454D01*
X55469Y47462D01*
X55482Y47492D01*
X55493Y47542D01*
X55504Y47612D01*
X55519Y47812D01*
X55532Y48452D01*
X56532D01*
X56532Y48262D01*
D02*
G37*
G36*
X70488Y47300D02*
X70393Y47297D01*
X70299Y47284D01*
X70206Y47263D01*
X70113Y47233D01*
X70021Y47194D01*
X69930Y47146D01*
X69840Y47089D01*
X69750Y47024D01*
X69661Y46949D01*
X69573Y46866D01*
X68866Y47573D01*
X68949Y47661D01*
X69024Y47750D01*
X69089Y47840D01*
X69146Y47930D01*
X69194Y48021D01*
X69233Y48113D01*
X69263Y48206D01*
X69284Y48299D01*
X69297Y48393D01*
X69300Y48488D01*
X70488Y47300D01*
D02*
G37*
%LPC*%
G36*
X31575Y51874D02*
X28425D01*
X27966Y51684D01*
X27776Y51224D01*
Y48075D01*
X27966Y47616D01*
X28312Y47472D01*
X28324Y47432D01*
X28185Y46730D01*
X28324Y46028D01*
X28722Y45432D01*
X29318Y45034D01*
X30020Y44895D01*
X30722Y45034D01*
X31318Y45432D01*
X31716Y46028D01*
X31855Y46730D01*
X31716Y47432D01*
X31733Y47491D01*
X32034Y47616D01*
X32224Y48075D01*
Y51224D01*
X32034Y51684D01*
X31575Y51874D01*
D02*
G37*
%LPD*%
G36*
X30503Y48428D02*
X30514Y48313D01*
X30531Y48204D01*
X30555Y48100D01*
X30559Y48088D01*
X31000D01*
X30905Y48078D01*
X30820Y48048D01*
X30745Y47998D01*
X30680Y47928D01*
X30645Y47870D01*
X30669Y47824D01*
X30721Y47744D01*
X30780Y47669D01*
X30846Y47601D01*
X30545Y47596D01*
X30520Y47448D01*
X30505Y47278D01*
X30500Y47088D01*
X29500D01*
X29495Y47278D01*
X29480Y47448D01*
X29458Y47578D01*
X29166Y47573D01*
X29229Y47643D01*
X29286Y47720D01*
X29336Y47801D01*
X29364Y47856D01*
X29320Y47928D01*
X29255Y47998D01*
X29180Y48048D01*
X29095Y48078D01*
X29000Y48088D01*
X29448D01*
X29470Y48185D01*
X29487Y48295D01*
X29497Y48410D01*
X29500Y48531D01*
X30500Y48550D01*
X30503Y48428D01*
D02*
G37*
G54D10*
X49500Y5000D02*
D03*
X3829D02*
D03*
G54D11*
X16823Y20256D02*
D03*
X24697Y20256D02*
D03*
X40445D02*
D03*
G54D12*
X20759Y20256D02*
D03*
X28634Y20256D02*
D03*
X32571D02*
D03*
X36508D02*
D03*
X44382D02*
D03*
X8948Y20258D02*
D03*
X12885Y20258D02*
D03*
G54D13*
X55000Y20150D02*
D03*
Y13850D02*
D03*
X36500Y49650D02*
D03*
Y43350D02*
D03*
X30000Y43350D02*
D03*
Y49650D02*
D03*
X57500Y57850D02*
D03*
Y64150D02*
D03*
X39500Y57850D02*
D03*
Y64150D02*
D03*
X33500Y64150D02*
D03*
Y57850D02*
D03*
X27500Y57850D02*
D03*
Y64150D02*
D03*
X63500Y57850D02*
D03*
Y64150D02*
D03*
X45500Y57850D02*
D03*
Y64150D02*
D03*
X51500Y57850D02*
D03*
Y64150D02*
D03*
X61000Y20150D02*
D03*
Y13850D02*
D03*
X69500Y57850D02*
D03*
Y64150D02*
D03*
G54D14*
X65874Y44905D02*
D03*
Y33094D02*
D03*
X63906Y31126D02*
D03*
X52095D02*
D03*
X50126Y33094D02*
D03*
Y44905D02*
D03*
X52095Y46874D02*
D03*
X63906Y46913D02*
D03*
G54D15*
X65480Y42937D02*
D03*
Y40968D02*
D03*
Y39000D02*
D03*
Y37031D02*
D03*
Y35063D02*
D03*
X50520D02*
D03*
Y37031D02*
D03*
Y39000D02*
D03*
Y40968D02*
D03*
Y42937D02*
D03*
G54D16*
X61937Y31520D02*
D03*
X59969D02*
D03*
X58000D02*
D03*
X56032D02*
D03*
X54063D02*
D03*
Y46480D02*
D03*
X56032D02*
D03*
X58000D02*
D03*
X59969D02*
D03*
X61937D02*
D03*
G54D17*
X72665Y9616D02*
D03*
Y20578D02*
D03*
G54D18*
X77000Y63906D02*
D03*
Y52095D02*
D03*
G54D19*
X71300Y10981D02*
X75025D01*
X72381Y19626D02*
X76000D01*
X65874Y26133D02*
X72381Y19626D01*
X39850Y61650D02*
Y64150D01*
X64500Y57500D02*
Y57850D01*
X58000Y51000D02*
X64500Y57500D01*
X16823Y20256D02*
Y26823D01*
X20759Y20256D02*
Y27259D01*
X24697Y20256D02*
Y26197D01*
X28634Y20256D02*
Y25134D01*
X36508Y20256D02*
Y25008D01*
X32571Y20256D02*
Y23571D01*
X8948Y20258D02*
Y24948D01*
X12885Y20258D02*
Y25885D01*
X11930Y14240D02*
X12050Y14360D01*
X65874Y26133D02*
Y33094D01*
X63906Y18375D02*
X71300Y10981D01*
X63906Y18375D02*
Y31126D01*
X65140Y60920D02*
X74015D01*
X63500Y62560D02*
X65140Y60920D01*
X63500Y62560D02*
Y64150D01*
X74015Y60920D02*
X77000Y63906D01*
X5000Y29500D02*
X10000D01*
X57500Y52763D02*
Y54500D01*
X36500Y43350D02*
X36850Y43000D01*
X34413Y40176D02*
X42413D01*
X29237Y35000D02*
X34413Y40176D01*
X35076Y38576D02*
X43076D01*
X29500Y33000D02*
X35076Y38576D01*
X35738Y36976D02*
X50464D01*
X29763Y31000D02*
X35738Y36976D01*
X37063Y35063D02*
X50520D01*
X31400Y29400D02*
X37063Y35063D01*
X37357Y33094D02*
X50126D01*
X32063Y27800D02*
X37357Y33094D01*
X37826Y31300D02*
X51920D01*
X32726Y26200D02*
X37826Y31300D01*
X56032Y51294D02*
X57500Y52763D01*
X56032Y46480D02*
Y51294D01*
X53000Y61000D02*
X62000D01*
X51500Y59500D02*
X53000Y61000D01*
X51500Y57850D02*
Y59500D01*
X63150Y62150D02*
Y63150D01*
X62000Y61000D02*
X63150Y62150D01*
X49000Y50500D02*
X52095Y47405D01*
X42737Y50500D02*
X49000D01*
X40737Y52500D02*
X42737Y50500D01*
X38000Y52500D02*
X40737D01*
X43076Y38576D02*
X47437Y42937D01*
X47143Y44905D02*
X50126D01*
X42413Y40176D02*
X47143Y44905D01*
X50464Y36976D02*
X50520Y37031D01*
X19000Y35000D02*
X29237D01*
X47437Y42937D02*
X50520D01*
X20000Y33000D02*
X29500D01*
X63500Y57850D02*
X64500D01*
X40500Y61000D02*
X43850D01*
X39850Y61650D02*
X40500Y61000D01*
X45500Y57850D02*
Y59350D01*
X43850Y61000D02*
X45500Y59350D01*
X39500Y56000D02*
Y57850D01*
Y56000D02*
X43000Y52500D01*
X49500D01*
X59969Y26531D02*
X60000Y26500D01*
X58000Y31520D02*
Y33000D01*
X59000Y34000D01*
Y36000D01*
X59969Y26531D02*
Y31520D01*
X47500Y27500D02*
X50500D01*
X45700Y25700D02*
X47500Y27500D01*
X37200Y25700D02*
X45700D01*
X36508Y25008D02*
X37200Y25700D01*
X51920Y31300D02*
X52095Y31126D01*
X29700Y26200D02*
X32726D01*
X26300Y27800D02*
X32063D01*
X22900Y29400D02*
X31400D01*
X21000Y31000D02*
X29763D01*
X37000Y28000D02*
X42500D01*
X28634Y25134D02*
X29700Y26200D01*
X24697Y26197D02*
X26300Y27800D01*
X20759Y27259D02*
X22900Y29400D01*
X16823Y26823D02*
X21000Y31000D01*
X12885Y25885D02*
X20000Y33000D01*
X32571Y23571D02*
X37000Y28000D01*
X49500Y52500D02*
X54063Y47937D01*
X52095Y46874D02*
Y47405D01*
X54063Y46480D02*
Y47937D01*
X58000Y46480D02*
Y51000D01*
X65480Y35063D02*
X66674D01*
X68000Y33737D01*
Y31000D02*
Y33737D01*
Y31000D02*
X70500Y28500D01*
X65480Y37031D02*
X66969D01*
X70500Y33500D01*
X65480Y39000D02*
X68000D01*
X68500Y38500D01*
X70500D01*
X65480Y40968D02*
X67968D01*
X70500Y43500D01*
X65480Y42937D02*
X66937D01*
X67565Y43565D01*
Y44333D01*
X69000Y45769D01*
Y47000D01*
X70500Y48500D01*
X68500Y53500D02*
X70500D01*
X67000Y52000D02*
X68500Y53500D01*
X67000Y46031D02*
Y52000D01*
X65874Y44905D02*
X67000Y46031D01*
X8948Y24948D02*
X19000Y35000D01*
X63906Y46913D02*
Y50604D01*
X30000Y46750D02*
Y49650D01*
Y46750D02*
X30020Y46730D01*
X32650Y57850D02*
X33500D01*
X30148Y40189D02*
Y43202D01*
X30000Y43350D02*
X30148Y43202D01*
X33533Y56967D02*
X38000Y52500D01*
X33500Y57850D02*
X33533Y57817D01*
Y54510D02*
Y56967D01*
Y57817D01*
X28251Y54982D02*
Y57099D01*
X27500Y57850D02*
X28251Y57099D01*
X30825Y61475D02*
X33500Y64150D01*
X30825Y53965D02*
Y61475D01*
Y53965D02*
X32701Y52089D01*
Y46051D02*
Y52089D01*
X30000Y43350D02*
X32701Y46051D01*
G54D20*
X57500Y54500D02*
Y57850D01*
X36500Y49650D02*
X36650Y49500D01*
X40000D01*
X36850Y43000D02*
X40000D01*
X51500Y54500D02*
Y57850D01*
X64500Y57850D02*
X69500D01*
G54D21*
X77012Y68165D02*
D03*
G54D22*
X29168Y3418D02*
D03*
G54D23*
X9650Y4975D02*
D03*
G54D24*
X56030Y25925D02*
D03*
G54D25*
X57985Y19015D02*
D03*
G54D26*
X58500Y20250D02*
D03*
G54D27*
X12953Y12815D02*
D03*
G54D28*
X3695Y22590D02*
D03*
G54D29*
X40450Y11884D02*
D03*
G54D30*
X28765Y10857D02*
D03*
G54D31*
X74595Y57273D02*
D03*
X74912Y67976D02*
D03*
X79489Y68041D02*
D03*
X77201Y67976D02*
D03*
X7900Y7200D02*
D03*
X11000D02*
D03*
X7900Y3800D02*
D03*
X11000D02*
D03*
X25000Y11000D02*
D03*
Y14000D02*
D03*
X28000Y11000D02*
D03*
Y14000D02*
D03*
X31000Y11000D02*
D03*
Y14000D02*
D03*
X71000Y3400D02*
D03*
X55000Y17500D02*
D03*
X58000D02*
D03*
X61000D02*
D03*
X10000Y29500D02*
D03*
X27500Y61500D02*
D03*
X57500Y54500D02*
D03*
X40000Y43000D02*
D03*
Y49500D02*
D03*
X51500Y54500D02*
D03*
X60000Y26500D02*
D03*
X59000Y36000D02*
D03*
X50500Y27500D02*
D03*
X42500Y28000D02*
D03*
X70500Y28500D02*
D03*
Y33500D02*
D03*
Y38500D02*
D03*
Y43500D02*
D03*
Y48500D02*
D03*
Y53500D02*
D03*
X60480Y10090D02*
D03*
X60500Y2500D02*
D03*
Y5000D02*
D03*
Y7500D02*
D03*
X63906Y50604D02*
D03*
X30020Y46730D02*
D03*
X30148Y40189D02*
D03*
X33533Y54510D02*
D03*
X28251Y54982D02*
D03*
M02*
