G04 Layer_Color=255*
%FSLAX25Y25*%
%MOIN*%
G70*
G01*
G75*
%ADD10R,0.04724X0.07087*%
%ADD11R,0.02362X0.06102*%
%ADD12R,0.02362X0.06102*%
%ADD13R,0.03150X0.03150*%
%ADD14R,0.01181X0.01181*%
%ADD15R,0.01968X0.01181*%
%ADD16R,0.01181X0.01968*%
%ADD17C,0.07874*%
%ADD18R,0.06299X0.05512*%
G54D10*
X49500Y5000D02*
D03*
X3829D02*
D03*
G54D11*
X16823Y20256D02*
D03*
X24697Y20256D02*
D03*
X40445D02*
D03*
G54D12*
X20759Y20256D02*
D03*
X28634Y20256D02*
D03*
X32571D02*
D03*
X36508D02*
D03*
X44382D02*
D03*
X8948Y20258D02*
D03*
X12885Y20258D02*
D03*
G54D13*
X55000Y20150D02*
D03*
Y13850D02*
D03*
X36500Y49650D02*
D03*
Y43350D02*
D03*
X30000Y43350D02*
D03*
Y49650D02*
D03*
X57500Y57850D02*
D03*
Y64150D02*
D03*
X39500Y57850D02*
D03*
Y64150D02*
D03*
X33500Y64150D02*
D03*
Y57850D02*
D03*
X27500Y57850D02*
D03*
Y64150D02*
D03*
X63500Y57850D02*
D03*
Y64150D02*
D03*
X45500Y57850D02*
D03*
Y64150D02*
D03*
X51500Y57850D02*
D03*
Y64150D02*
D03*
X61000Y20150D02*
D03*
Y13850D02*
D03*
X69500Y57850D02*
D03*
Y64150D02*
D03*
G54D14*
X65874Y44905D02*
D03*
Y33094D02*
D03*
X63906Y31126D02*
D03*
X52095D02*
D03*
X50126Y33094D02*
D03*
Y44905D02*
D03*
X52095Y46874D02*
D03*
X63906Y46913D02*
D03*
G54D15*
X65480Y42937D02*
D03*
Y40968D02*
D03*
Y39000D02*
D03*
Y37031D02*
D03*
Y35063D02*
D03*
X50520D02*
D03*
Y37031D02*
D03*
Y39000D02*
D03*
Y40968D02*
D03*
Y42937D02*
D03*
G54D16*
X61937Y31520D02*
D03*
X59969D02*
D03*
X58000D02*
D03*
X56032D02*
D03*
X54063D02*
D03*
Y46480D02*
D03*
X56032D02*
D03*
X58000D02*
D03*
X59969D02*
D03*
X61937D02*
D03*
G54D17*
X72665Y9616D02*
D03*
Y20578D02*
D03*
G54D18*
X77000Y63906D02*
D03*
Y52095D02*
D03*
M02*
