M48
;Layer_Color=9474304
;FILE_FORMAT=2:5
INCH,LZ
;TYPE=PLATED
T1F00S00C0.01200
%
T01
X00079Y00038
X0011
Y00072
X00079
X0025Y0011
Y0014
X0028
Y0011
X0031
Y0014
X00425Y0028
X00505Y00275
X0055Y00175
X004Y0043
Y00495
X0033533Y005451
X0028251Y0054982
X003002Y004673
X0030148Y0040189
X001Y00295
X00515Y00545
X00575
X0063906Y0050604
X00705Y00485
Y00435
Y00385
Y00335
Y00285
X006Y00265
X0061Y00175
X0058
X006048Y001009
X00605Y00075
Y0005
Y00025
X0071Y00034
X0059Y0036
X00705Y00535
X0074595Y0057273
X0074912Y0067976
X0077201
X0079489Y0068041
X00275Y00615
M30
