G04 Layer_Color=2752767*
%FSLAX25Y25*%
%MOIN*%
G70*
G01*
G75*
%ADD66C,0.00200*%
G54D66*
X73795Y56473D02*
Y58073D01*
X75395D01*
Y56473D01*
X73795D01*
X74112Y67176D02*
Y68776D01*
X75712D01*
Y67176D01*
X74112D01*
X78689Y67241D02*
Y68841D01*
X80289D01*
Y67241D01*
X78689D01*
X76401Y67176D02*
Y68776D01*
X78000D01*
Y67176D01*
X76401D01*
X7100Y6400D02*
Y8000D01*
X8700D01*
Y6400D01*
X7100D01*
X10200D02*
Y8000D01*
X11800D01*
Y6400D01*
X10200D01*
X7100Y3000D02*
Y4600D01*
X8700D01*
Y3000D01*
X7100D01*
X10200D02*
Y4600D01*
X11800D01*
Y3000D01*
X10200D01*
X24200Y10200D02*
Y11800D01*
X25800D01*
Y10200D01*
X24200D01*
Y13200D02*
Y14800D01*
X25800D01*
Y13200D01*
X24200D01*
X27200Y10200D02*
Y11800D01*
X28800D01*
Y10200D01*
X27200D01*
Y13200D02*
Y14800D01*
X28800D01*
Y13200D01*
X27200D01*
X30200Y10200D02*
Y11800D01*
X31800D01*
Y10200D01*
X30200D01*
Y13200D02*
Y14800D01*
X31800D01*
Y13200D01*
X30200D01*
X70200Y2600D02*
Y4200D01*
X71800D01*
Y2600D01*
X70200D01*
X54200Y16700D02*
Y18300D01*
X55800D01*
Y16700D01*
X54200D01*
X57200D02*
Y18300D01*
X58800D01*
Y16700D01*
X57200D01*
X60200D02*
Y18300D01*
X61800D01*
Y16700D01*
X60200D01*
X9200Y28700D02*
Y30300D01*
X10800D01*
Y28700D01*
X9200D01*
X26700Y60700D02*
Y62300D01*
X28300D01*
Y60700D01*
X26700D01*
X56700Y53700D02*
Y55300D01*
X58300D01*
Y53700D01*
X56700D01*
X39200Y42200D02*
Y43800D01*
X40800D01*
Y42200D01*
X39200D01*
Y48700D02*
Y50300D01*
X40800D01*
Y48700D01*
X39200D01*
X50700Y53700D02*
Y55300D01*
X52300D01*
Y53700D01*
X50700D01*
X59200Y25700D02*
Y27300D01*
X60800D01*
Y25700D01*
X59200D01*
X58200Y35200D02*
Y36800D01*
X59800D01*
Y35200D01*
X58200D01*
X49700Y26700D02*
Y28300D01*
X51300D01*
Y26700D01*
X49700D01*
X41700Y27200D02*
Y28800D01*
X43300D01*
Y27200D01*
X41700D01*
X69700Y27700D02*
Y29300D01*
X71300D01*
Y27700D01*
X69700D01*
Y32700D02*
Y34300D01*
X71300D01*
Y32700D01*
X69700D01*
Y37700D02*
Y39300D01*
X71300D01*
Y37700D01*
X69700D01*
Y42700D02*
Y44300D01*
X71300D01*
Y42700D01*
X69700D01*
Y47700D02*
Y49300D01*
X71300D01*
Y47700D01*
X69700D01*
Y52700D02*
Y54300D01*
X71300D01*
Y52700D01*
X69700D01*
X59680Y9290D02*
Y10890D01*
X61280D01*
Y9290D01*
X59680D01*
X59700Y1700D02*
Y3300D01*
X61300D01*
Y1700D01*
X59700D01*
Y4200D02*
Y5800D01*
X61300D01*
Y4200D01*
X59700D01*
Y6700D02*
Y8300D01*
X61300D01*
Y6700D01*
X59700D01*
X63105Y49804D02*
Y51405D01*
X64705D01*
Y49804D01*
X63105D01*
X29220Y45930D02*
Y47530D01*
X30820D01*
Y45930D01*
X29220D01*
X29348Y39389D02*
Y40989D01*
X30948D01*
Y39389D01*
X29348D01*
X32733Y53710D02*
Y55310D01*
X34333D01*
Y53710D01*
X32733D01*
X27451Y54182D02*
Y55782D01*
X29051D01*
Y54182D01*
X27451D01*
M02*
