  0
SECTION
  2
HEADER
  9
$EXTMIN
 10
6.500000
 20
0.985000
  9
$EXTMAX
 10
10.447000
 20
4.932000
  9
$LIMMIN
 10
6.500000
 20
0.985000
  9
$LIMMAX
 10
10.447000
 20
4.932000
  9
$FILLMODE
 70
  1
  0
ENDSEC
  0
SECTION
  2
TABLES
  0
TABLE
  2
LTYPE
 70
  1
  0
LTYPE
  2
CONTINUOUS
 70
 64
  3
Solid line
 72
 65
 73
  0
 40
0.0
  0
ENDTAB
  0
TABLE
  2
LAYER
 70
 1
  0
LAYER
  2
0
 70
  0
 62
7
  6
CONTINUOUS
  0
LAYER
  2
gtp
 70
  0
 62
8
  6
CONTINUOUS
  0
LAYER
  2
gko
 70
  0
 62
6
  6
CONTINUOUS
  0
ENDTAB
  0
TABLE
  2
STYLE
 70
  1
  0
STYLE
  2
STANDARD
 70
  0
 40
0.0
 41
1.0
 50
0.0
 71
  0
 42
0.2
  3
txt
  4

  0
ENDTAB
  0
ENDSEC
  0
SECTION
  2
BLOCKS
  0
BLOCK
  8
0
  2
D10
 70
64
 10
0.0
 20
0.0
  3
D10
  0
POLYLINE
  8
0
 66
1
 10
0.0
 20
0.0
 40
0
 41
0
 70
1
  0
VERTEX
  8
0
 10
-0.039000
 20
-0.082700
 42
0
  0
VERTEX
  8
0
 10
0.039000
 20
-0.082700
 42
0
  0
VERTEX
  8
0
 10
0.043300
 20
-0.078300
 42
0
  0
VERTEX
  8
0
 10
0.043300
 20
0.078300
 42
0
  0
VERTEX
  8
0
 10
0.039000
 20
0.082700
 42
0
  0
VERTEX
  8
0
 10
-0.039000
 20
0.082700
 42
0
  0
VERTEX
  8
0
 10
-0.043300
 20
0.078300
 42
0
  0
VERTEX
  8
0
 10
-0.043300
 20
-0.078300
 42
0
  0
SEQEND
  8
0
  0
CIRCLE
  8
0
 10
-0.039000
 20
-0.078300
 40
0.004330
  0
CIRCLE
  8
0
 10
0.039000
 20
-0.078300
 40
0.004330
  0
CIRCLE
  8
0
 10
0.039000
 20
0.078300
 40
0.004330
  0
CIRCLE
  8
0
 10
-0.039000
 20
0.078300
 40
0.004330
 0
ENDBLK
  8
0
  0
BLOCK
  8
0
  2
D11
 70
64
 10
0.0
 20
0.0
  3
D11
  0
POLYLINE
  8
0
 66
1
 10
0.0
 20
0.0
 40
0
 41
0
 70
1
  0
VERTEX
  8
0
 10
0.028000
 20
0.012000
 42
0
  0
VERTEX
  8
0
 10
-0.028000
 20
0.012000
 42
0
  0
VERTEX
  8
0
 10
-0.028000
 20
-0.012000
 42
0
  0
VERTEX
  8
0
 10
0.028000
 20
-0.012000
 42
0
  0
SEQEND
  8
0
  0
CIRCLE
  8
0
 10
-0.028000
 20
0.000000
 40
0.012000
  0
CIRCLE
  8
0
 10
0.028000
 20
0.000000
 40
0.012000
 0
ENDBLK
  8
0
  0
BLOCK
  8
0
  2
D12
 70
64
 10
0.0
 20
0.0
  3
D12
  0
POLYLINE
  8
0
 66
1
 10
0.0
 20
0.0
 70
1
 40
0.0
 41
0.0
  0
VERTEX
  8
0
 10
-0.031495
 20
-0.027560
  0
VERTEX
  8
0
 10
0.031495
 20
-0.027560
  0
VERTEX
  8
0
 10
0.031495
 20
0.027560
  0
VERTEX
  8
0
 10
-0.031495
 20
0.027560
  0
SEQEND
  8
0
 0
ENDBLK
  8
0
  0
BLOCK
  8
0
  2
D13
 70
64
 10
0.0
 20
0.0
  3
D13
  0
POLYLINE
  8
0
 66
1
 10
0.0
 20
0.0
 70
1
 40
0.0
 41
0.0
  0
VERTEX
  8
0
 10
-0.006300
 20
-0.019685
  0
VERTEX
  8
0
 10
0.006300
 20
-0.019685
  0
VERTEX
  8
0
 10
0.006300
 20
0.019685
  0
VERTEX
  8
0
 10
-0.006300
 20
0.019685
  0
SEQEND
  8
0
 0
ENDBLK
  8
0
  0
BLOCK
  8
0
  2
D14
 70
64
 10
0.0
 20
0.0
  3
D14
  0
POLYLINE
  8
0
 66
1
 10
0.0
 20
0.0
 70
1
 40
0.0
 41
0.0
  0
VERTEX
  8
0
 10
-0.003935
 20
-0.025000
  0
VERTEX
  8
0
 10
0.003935
 20
-0.025000
  0
VERTEX
  8
0
 10
0.003935
 20
0.025000
  0
VERTEX
  8
0
 10
-0.003935
 20
0.025000
  0
SEQEND
  8
0
 0
ENDBLK
  8
0
  0
BLOCK
  8
0
  2
D15
 70
64
 10
0.0
 20
0.0
  3
D15
  0
POLYLINE
  8
0
 66
1
 10
0.0
 20
0.0
 70
1
 40
0.0
 41
0.0
  0
VERTEX
  8
0
 10
-0.031100
 20
-0.057500
  0
VERTEX
  8
0
 10
0.031100
 20
-0.057500
  0
VERTEX
  8
0
 10
0.031100
 20
0.057500
  0
VERTEX
  8
0
 10
-0.031100
 20
0.057500
  0
SEQEND
  8
0
 0
ENDBLK
  8
0
  0
BLOCK
  8
0
  2
D16
 70
64
 10
0.0
 20
0.0
  3
D16
  0
POLYLINE
  8
0
 66
1
 10
0.0
 20
0.0
 40
0
 41
0
 70
1
  0
VERTEX
  8
0
 10
0.010000
 20
0.005000
 42
0
  0
VERTEX
  8
0
 10
-0.010000
 20
0.005000
 42
0
  0
VERTEX
  8
0
 10
-0.010000
 20
-0.005000
 42
0
  0
VERTEX
  8
0
 10
0.010000
 20
-0.005000
 42
0
  0
SEQEND
  8
0
  0
CIRCLE
  8
0
 10
-0.010000
 20
0.000000
 40
0.005000
  0
CIRCLE
  8
0
 10
0.010000
 20
0.000000
 40
0.005000
 0
ENDBLK
  8
0
  0
BLOCK
  8
0
  2
D17
 70
64
 10
0.0
 20
0.0
  3
D17
  0
POLYLINE
  8
0
 66
1
 10
0.0
 20
0.0
 70
1
 40
0.0
 41
0.0
  0
VERTEX
  8
0
 10
-0.015750
 20
-0.015750
  0
VERTEX
  8
0
 10
0.015750
 20
-0.015750
  0
VERTEX
  8
0
 10
0.015750
 20
0.015750
  0
VERTEX
  8
0
 10
-0.015750
 20
0.015750
  0
SEQEND
  8
0
 0
ENDBLK
  8
0
  0
BLOCK
  8
0
  2
D18
 70
64
 10
0.0
 20
0.0
  3
D18
  0
POLYLINE
  8
0
 66
1
 10
0.0
 20
0.0
 70
1
 40
0.0
 41
0.0
  0
VERTEX
  8
0
 10
-0.017715
 20
-0.018700
  0
VERTEX
  8
0
 10
0.017715
 20
-0.018700
  0
VERTEX
  8
0
 10
0.017715
 20
0.018700
  0
VERTEX
  8
0
 10
-0.017715
 20
0.018700
  0
SEQEND
  8
0
 0
ENDBLK
  8
0
  0
BLOCK
  8
0
  2
D19
 70
64
 10
0.0
 20
0.0
  3
D19
  0
POLYLINE
  8
0
 66
1
 10
0.0
 20
0.0
 70
1
 40
0.0
 41
0.0
  0
VERTEX
  8
0
 10
-0.017715
 20
-0.018700
  0
VERTEX
  8
0
 10
0.017715
 20
-0.018700
  0
VERTEX
  8
0
 10
0.017715
 20
0.018700
  0
VERTEX
  8
0
 10
-0.017715
 20
0.018700
  0
SEQEND
  8
0
 0
ENDBLK
  8
0
  0
BLOCK
  8
0
  2
D20
 70
64
 10
0.0
 20
0.0
  3
D20
  0
POLYLINE
  8
0
 66
1
 10
0.0
 20
0.0
 70
1
 40
0.0
 41
0.0
  0
VERTEX
  8
0
 10
-0.029525
 20
-0.007875
  0
VERTEX
  8
0
 10
0.029525
 20
-0.007875
  0
VERTEX
  8
0
 10
0.029525
 20
0.007875
  0
VERTEX
  8
0
 10
-0.029525
 20
0.007875
  0
SEQEND
  8
0
 0
ENDBLK
  8
0
  0
BLOCK
  8
0
  2
D21
 70
64
 10
0.0
 20
0.0
  3
D21
  0
POLYLINE
  8
0
 66
1
 10
0.0
 20
0.0
 70
1
 40
0.0
 41
0.0
  0
VERTEX
  8
0
 10
-0.027560
 20
-0.039370
  0
VERTEX
  8
0
 10
0.027560
 20
-0.039370
  0
VERTEX
  8
0
 10
0.027560
 20
0.039370
  0
VERTEX
  8
0
 10
-0.027560
 20
0.039370
  0
SEQEND
  8
0
 0
ENDBLK
  8
0
  0
BLOCK
  8
0
  2
D22
 70
64
 10
0.0
 20
0.0
  3
D22
  0
POLYLINE
  8
0
 66
1
 10
0.0
 20
0.0
 70
1
 40
0.0
 41
0.0
  0
VERTEX
  8
0
 10
-0.011810
 20
-0.011810
  0
VERTEX
  8
0
 10
0.011810
 20
-0.011810
  0
VERTEX
  8
0
 10
0.011810
 20
0.011810
  0
VERTEX
  8
0
 10
-0.011810
 20
0.011810
  0
SEQEND
  8
0
 0
ENDBLK
  8
0
  0
BLOCK
  8
0
  2
D23
 70
64
 10
0.0
 20
0.0
  3
D23
  0
POLYLINE
  8
0
 66
1
 10
0.0
 20
0.0
 70
1
 40
0.0
 41
0.0
  0
VERTEX
  8
0
 10
-0.015750
 20
-0.015750
  0
VERTEX
  8
0
 10
0.015750
 20
-0.015750
  0
VERTEX
  8
0
 10
0.015750
 20
0.015750
  0
VERTEX
  8
0
 10
-0.015750
 20
0.015750
  0
SEQEND
  8
0
 0
ENDBLK
  8
0
  0
BLOCK
  8
0
  2
D24
 70
64
 10
0.0
 20
0.0
  3
D24
  0
POLYLINE
  8
0
 66
1
 10
0.0
 20
0.0
 70
1
 40
0.0
 41
0.0
  0
VERTEX
  8
0
 10
-0.027560
 20
-0.031495
  0
VERTEX
  8
0
 10
0.027560
 20
-0.031495
  0
VERTEX
  8
0
 10
0.027560
 20
0.031495
  0
VERTEX
  8
0
 10
-0.027560
 20
0.031495
  0
SEQEND
  8
0
 0
ENDBLK
  8
0
  0
BLOCK
  8
0
  2
D25
 70
64
 10
0.0
 20
0.0
  3
D25
  0
POLYLINE
  8
0
 66
1
 10
0.0
 20
0.0
 70
1
 40
0.0
 41
0.0
  0
VERTEX
  8
0
 10
-0.045275
 20
-0.006890
  0
VERTEX
  8
0
 10
0.045275
 20
-0.006890
  0
VERTEX
  8
0
 10
0.045275
 20
0.006890
  0
VERTEX
  8
0
 10
-0.045275
 20
0.006890
  0
SEQEND
  8
0
 0
ENDBLK
  8
0
  0
BLOCK
  8
0
  2
D26
 70
64
 10
0.0
 20
0.0
  3
D26
  0
CIRCLE
  8
0
 10
0.000000
 20
0.000000
 40
0.005000
 0
ENDBLK
  8
0
  0
ENDSEC
  0
SECTION
  2
ENTITIES
  0
INSERT
  8
gtp
  2
D10
 10
9.470000
 20
1.760000
 41
1.0
 42
1.0
 43
1.0
 50
0.0
  0
INSERT
  8
gtp
  2
D11
 10
9.580000
 20
1.684000
 41
1.0
 42
1.0
 43
1.0
 50
0.0
  0
INSERT
  8
gtp
  2
D11
 10
9.580000
 20
1.734000
 41
1.0
 42
1.0
 43
1.0
 50
0.0
  0
INSERT
  8
gtp
  2
D11
 10
9.580000
 20
1.784000
 41
1.0
 42
1.0
 43
1.0
 50
0.0
  0
INSERT
  8
gtp
  2
D11
 10
9.580000
 20
1.834000
 41
1.0
 42
1.0
 43
1.0
 50
0.0
  0
INSERT
  8
gtp
  2
D11
 10
9.360000
 20
1.684000
 41
1.0
 42
1.0
 43
1.0
 50
0.0
  0
INSERT
  8
gtp
  2
D11
 10
9.360000
 20
1.784000
 41
1.0
 42
1.0
 43
1.0
 50
0.0
  0
INSERT
  8
gtp
  2
D11
 10
9.360000
 20
1.834000
 41
1.0
 42
1.0
 43
1.0
 50
0.0
  0
INSERT
  8
gtp
  2
D11
 10
9.360000
 20
1.734000
 41
1.0
 42
1.0
 43
1.0
 50
0.0
  0
INSERT
  8
gtp
  2
D12
 10
8.320000
 20
2.566680
 41
1.0
 42
1.0
 43
1.0
 50
0.0
  0
INSERT
  8
gtp
  2
D12
 10
8.320000
 20
2.448570
 41
1.0
 42
1.0
 43
1.0
 50
0.0
  0
INSERT
  8
gtp
  2
D12
 10
8.190250
 20
2.566680
 41
1.0
 42
1.0
 43
1.0
 50
0.0
  0
INSERT
  8
gtp
  2
D12
 10
8.190250
 20
2.448570
 41
1.0
 42
1.0
 43
1.0
 50
0.0
  0
INSERT
  8
gtp
  2
D13
 10
9.785000
 20
1.678980
 41
1.0
 42
1.0
 43
1.0
 50
0.0
  0
INSERT
  8
gtp
  2
D13
 10
9.804690
 20
1.678980
 41
1.0
 42
1.0
 43
1.0
 50
0.0
  0
INSERT
  8
gtp
  2
D13
 10
9.824370
 20
1.678980
 41
1.0
 42
1.0
 43
1.0
 50
0.0
  0
INSERT
  8
gtp
  2
D13
 10
9.844060
 20
1.678980
 41
1.0
 42
1.0
 43
1.0
 50
0.0
  0
INSERT
  8
gtp
  2
D13
 10
9.863740
 20
1.678980
 41
1.0
 42
1.0
 43
1.0
 50
0.0
  0
INSERT
  8
gtp
  2
D13
 10
9.863740
 20
1.490000
 41
1.0
 42
1.0
 43
1.0
 50
0.0
  0
INSERT
  8
gtp
  2
D13
 10
9.844060
 20
1.490000
 41
1.0
 42
1.0
 43
1.0
 50
0.0
  0
INSERT
  8
gtp
  2
D13
 10
9.824370
 20
1.490000
 41
1.0
 42
1.0
 43
1.0
 50
0.0
  0
INSERT
  8
gtp
  2
D13
 10
9.804690
 20
1.490000
 41
1.0
 42
1.0
 43
1.0
 50
0.0
  0
INSERT
  8
gtp
  2
D13
 10
9.785000
 20
1.490000
 41
1.0
 42
1.0
 43
1.0
 50
0.0
  0
INSERT
  8
gtp
  2
D14
 10
8.602830
 20
2.560000
 41
1.0
 42
1.0
 43
1.0
 50
0.0
  0
INSERT
  8
gtp
  2
D14
 10
8.620940
 20
2.560000
 41
1.0
 42
1.0
 43
1.0
 50
0.0
  0
INSERT
  8
gtp
  2
D14
 10
8.639060
 20
2.560000
 41
1.0
 42
1.0
 43
1.0
 50
0.0
  0
INSERT
  8
gtp
  2
D14
 10
8.657170
 20
2.560000
 41
1.0
 42
1.0
 43
1.0
 50
0.0
  0
INSERT
  8
gtp
  2
D14
 10
8.639060
 20
2.420000
 41
1.0
 42
1.0
 43
1.0
 50
0.0
  0
INSERT
  8
gtp
  2
D14
 10
8.620940
 20
2.420000
 41
1.0
 42
1.0
 43
1.0
 50
0.0
  0
INSERT
  8
gtp
  2
D14
 10
8.602830
 20
2.420000
 41
1.0
 42
1.0
 43
1.0
 50
0.0
  0
INSERT
  8
gtp
  2
D14
 10
8.657170
 20
2.420000
 41
1.0
 42
1.0
 43
1.0
 50
0.0
  0
INSERT
  8
gtp
  2
D15
 10
8.630000
 20
2.490000
 41
1.0
 42
1.0
 43
1.0
 50
0.0
  0
INSERT
  8
gtp
  2
D16
 10
8.570000
 20
2.510000
 41
1.0
 42
1.0
 43
1.0
 50
0.0
  0
INSERT
  8
gtp
  2
D16
 10
8.570000
 20
2.530000
 41
1.0
 42
1.0
 43
1.0
 50
0.0
  0
INSERT
  8
gtp
  2
D16
 10
8.570000
 20
2.550000
 41
1.0
 42
1.0
 43
1.0
 50
0.0
  0
INSERT
  8
gtp
  2
D16
 10
8.570000
 20
2.490000
 41
1.0
 42
1.0
 43
1.0
 50
0.0
  0
INSERT
  8
gtp
  2
D16
 10
8.570000
 20
2.470000
 41
1.0
 42
1.0
 43
1.0
 50
0.0
  0
INSERT
  8
gtp
  2
D16
 10
8.570000
 20
2.450000
 41
1.0
 42
1.0
 43
1.0
 50
0.0
  0
INSERT
  8
gtp
  2
D16
 10
8.570000
 20
2.430000
 41
1.0
 42
1.0
 43
1.0
 50
0.0
  0
INSERT
  8
gtp
  2
D16
 10
8.690000
 20
2.430000
 41
1.0
 42
1.0
 43
1.0
 50
0.0
  0
INSERT
  8
gtp
  2
D16
 10
8.690000
 20
2.450000
 41
1.0
 42
1.0
 43
1.0
 50
0.0
  0
INSERT
  8
gtp
  2
D16
 10
8.690000
 20
2.470000
 41
1.0
 42
1.0
 43
1.0
 50
0.0
  0
INSERT
  8
gtp
  2
D16
 10
8.690000
 20
2.490000
 41
1.0
 42
1.0
 43
1.0
 50
0.0
  0
INSERT
  8
gtp
  2
D16
 10
8.690000
 20
2.550000
 41
1.0
 42
1.0
 43
1.0
 50
0.0
  0
INSERT
  8
gtp
  2
D16
 10
8.690000
 20
2.530000
 41
1.0
 42
1.0
 43
1.0
 50
0.0
  0
INSERT
  8
gtp
  2
D16
 10
8.690000
 20
2.510000
 41
1.0
 42
1.0
 43
1.0
 50
0.0
  0
INSERT
  8
gtp
  2
D17
 10
9.720000
 20
4.101500
 41
1.0
 42
1.0
 43
1.0
 50
0.0
  0
INSERT
  8
gtp
  2
D17
 10
9.720000
 20
4.038500
 41
1.0
 42
1.0
 43
1.0
 50
0.0
  0
INSERT
  8
gtp
  2
D17
 10
7.365000
 20
4.246500
 41
1.0
 42
1.0
 43
1.0
 50
0.0
  0
INSERT
  8
gtp
  2
D17
 10
7.365000
 20
4.183500
 41
1.0
 42
1.0
 43
1.0
 50
0.0
  0
INSERT
  8
gtp
  2
D17
 10
8.270000
 20
2.261500
 41
1.0
 42
1.0
 43
1.0
 50
0.0
  0
INSERT
  8
gtp
  2
D17
 10
8.270000
 20
2.198500
 41
1.0
 42
1.0
 43
1.0
 50
0.0
  0
INSERT
  8
gtp
  2
D17
 10
8.175000
 20
2.261500
 41
1.0
 42
1.0
 43
1.0
 50
0.0
  0
INSERT
  8
gtp
  2
D17
 10
8.175000
 20
2.198500
 41
1.0
 42
1.0
 43
1.0
 50
0.0
  0
INSERT
  8
gtp
  2
D17
 10
9.720000
 20
3.823500
 41
1.0
 42
1.0
 43
1.0
 50
0.0
  0
INSERT
  8
gtp
  2
D17
 10
9.720000
 20
3.886500
 41
1.0
 42
1.0
 43
1.0
 50
0.0
  0
INSERT
  8
gtp
  2
D17
 10
9.995000
 20
1.553500
 41
1.0
 42
1.0
 43
1.0
 50
0.0
  0
INSERT
  8
gtp
  2
D17
 10
9.995000
 20
1.616500
 41
1.0
 42
1.0
 43
1.0
 50
0.0
  0
INSERT
  8
gtp
  2
D17
 10
8.484750
 20
2.468500
 41
1.0
 42
1.0
 43
1.0
 50
0.0
  0
INSERT
  8
gtp
  2
D17
 10
8.484750
 20
2.531500
 41
1.0
 42
1.0
 43
1.0
 50
0.0
  0
INSERT
  8
gtp
  2
D17
 10
8.405000
 20
2.468500
 41
1.0
 42
1.0
 43
1.0
 50
0.0
  0
INSERT
  8
gtp
  2
D17
 10
8.405000
 20
2.531500
 41
1.0
 42
1.0
 43
1.0
 50
0.0
  0
INSERT
  8
gtp
  2
D17
 10
8.960000
 20
2.490010
 41
1.0
 42
1.0
 43
1.0
 50
0.0
  0
INSERT
  8
gtp
  2
D17
 10
8.960000
 20
2.553000
 41
1.0
 42
1.0
 43
1.0
 50
0.0
  0
INSERT
  8
gtp
  2
D17
 10
8.896000
 20
2.490010
 41
1.0
 42
1.0
 43
1.0
 50
0.0
  0
INSERT
  8
gtp
  2
D17
 10
8.896000
 20
2.553000
 41
1.0
 42
1.0
 43
1.0
 50
0.0
  0
INSERT
  8
gtp
  2
D17
 10
8.830000
 20
2.490010
 41
1.0
 42
1.0
 43
1.0
 50
0.0
  0
INSERT
  8
gtp
  2
D17
 10
8.830000
 20
2.553000
 41
1.0
 42
1.0
 43
1.0
 50
0.0
  0
INSERT
  8
gtp
  2
D17
 10
8.480000
 20
3.626500
 41
1.0
 42
1.0
 43
1.0
 50
0.0
  0
INSERT
  8
gtp
  2
D17
 10
8.480000
 20
3.563500
 41
1.0
 42
1.0
 43
1.0
 50
0.0
  0
INSERT
  8
gtp
  2
D17
 10
8.600000
 20
3.626500
 41
1.0
 42
1.0
 43
1.0
 50
0.0
  0
INSERT
  8
gtp
  2
D17
 10
8.600000
 20
3.563500
 41
1.0
 42
1.0
 43
1.0
 50
0.0
  0
INSERT
  8
gtp
  2
D17
 10
8.720000
 20
3.626500
 41
1.0
 42
1.0
 43
1.0
 50
0.0
  0
INSERT
  8
gtp
  2
D17
 10
8.720000
 20
3.563500
 41
1.0
 42
1.0
 43
1.0
 50
0.0
  0
INSERT
  8
gtp
  2
D17
 10
8.340000
 20
3.568500
 41
1.0
 42
1.0
 43
1.0
 50
0.0
  0
INSERT
  8
gtp
  2
D17
 10
8.340000
 20
3.631500
 41
1.0
 42
1.0
 43
1.0
 50
0.0
  0
INSERT
  8
gtp
  2
D17
 10
9.225000
 20
1.718500
 41
1.0
 42
1.0
 43
1.0
 50
0.0
  0
INSERT
  8
gtp
  2
D17
 10
9.225000
 20
1.781500
 41
1.0
 42
1.0
 43
1.0
 50
0.0
  0
INSERT
  8
gtp
  2
D18
 10
7.182600
 20
4.173740
 41
1.0
 42
1.0
 43
1.0
 50
0.0
  0
INSERT
  8
gtp
  2
D18
 10
7.220000
 20
4.266260
 41
1.0
 42
1.0
 43
1.0
 50
0.0
  0
INSERT
  8
gtp
  2
D18
 10
8.827600
 20
3.548740
 41
1.0
 42
1.0
 43
1.0
 50
0.0
  0
INSERT
  8
gtp
  2
D18
 10
8.865000
 20
3.641260
 41
1.0
 42
1.0
 43
1.0
 50
0.0
  0
INSERT
  8
gtp
  2
D19
 10
7.257400
 20
4.173740
 41
1.0
 42
1.0
 43
1.0
 50
0.0
  0
INSERT
  8
gtp
  2
D19
 10
8.902400
 20
3.548740
 41
1.0
 42
1.0
 43
1.0
 50
0.0
  0
INSERT
  8
gtp
  2
D20
 10
10.194090
 20
1.543820
 41
1.0
 42
1.0
 43
1.0
 50
0.0
  0
INSERT
  8
gtp
  2
D20
 10
10.194090
 20
1.569410
 41
1.0
 42
1.0
 43
1.0
 50
0.0
  0
INSERT
  8
gtp
  2
D20
 10
10.194090
 20
1.595000
 41
1.0
 42
1.0
 43
1.0
 50
0.0
  0
INSERT
  8
gtp
  2
D20
 10
10.194090
 20
1.620590
 41
1.0
 42
1.0
 43
1.0
 50
0.0
  0
INSERT
  8
gtp
  2
D20
 10
10.194090
 20
1.646180
 41
1.0
 42
1.0
 43
1.0
 50
0.0
  0
INSERT
  8
gtp
  2
D21
 10
8.544130
 20
2.205000
 41
1.0
 42
1.0
 43
1.0
 50
0.0
  0
INSERT
  8
gtp
  2
D21
 10
8.685870
 20
2.205000
 41
1.0
 42
1.0
 43
1.0
 50
0.0
  0
INSERT
  8
gtp
  2
D22
 10
8.841500
 20
2.335000
 41
1.0
 42
1.0
 43
1.0
 50
0.0
  0
INSERT
  8
gtp
  2
D22
 10
8.778500
 20
2.335000
 41
1.0
 42
1.0
 43
1.0
 50
0.0
  0
INSERT
  8
gtp
  2
D22
 10
9.748500
 20
1.130000
 41
1.0
 42
1.0
 43
1.0
 50
0.0
  0
INSERT
  8
gtp
  2
D22
 10
9.811500
 20
1.130000
 41
1.0
 42
1.0
 43
1.0
 50
0.0
  0
INSERT
  8
gtp
  2
D22
 10
9.748500
 20
1.265000
 41
1.0
 42
1.0
 43
1.0
 50
0.0
  0
INSERT
  8
gtp
  2
D22
 10
9.811500
 20
1.265000
 41
1.0
 42
1.0
 43
1.0
 50
0.0
  0
INSERT
  8
gtp
  2
D23
 10
10.305000
 20
2.580000
 41
1.0
 42
1.0
 43
1.0
 50
0.0
  0
INSERT
  8
gtp
  2
D23
 10
10.242010
 20
2.580000
 41
1.0
 42
1.0
 43
1.0
 50
0.0
  0
INSERT
  8
gtp
  2
D23
 10
10.238500
 20
2.445000
 41
1.0
 42
1.0
 43
1.0
 50
0.0
  0
INSERT
  8
gtp
  2
D23
 10
10.301500
 20
2.445000
 41
1.0
 42
1.0
 43
1.0
 50
0.0
  0
INSERT
  8
gtp
  2
D23
 10
9.433500
 20
2.450000
 41
1.0
 42
1.0
 43
1.0
 50
0.0
  0
INSERT
  8
gtp
  2
D23
 10
9.496500
 20
2.450000
 41
1.0
 42
1.0
 43
1.0
 50
0.0
  0
INSERT
  8
gtp
  2
D23
 10
8.413500
 20
2.680000
 41
1.0
 42
1.0
 43
1.0
 50
0.0
  0
INSERT
  8
gtp
  2
D23
 10
8.476500
 20
2.680000
 41
1.0
 42
1.0
 43
1.0
 50
0.0
  0
INSERT
  8
gtp
  2
D23
 10
7.820000
 20
2.515000
 41
1.0
 42
1.0
 43
1.0
 50
0.0
  0
INSERT
  8
gtp
  2
D23
 10
7.882990
 20
2.515000
 41
1.0
 42
1.0
 43
1.0
 50
0.0
  0
INSERT
  8
gtp
  2
D23
 10
7.813500
 20
2.650000
 41
1.0
 42
1.0
 43
1.0
 50
0.0
  0
INSERT
  8
gtp
  2
D23
 10
7.876500
 20
2.650000
 41
1.0
 42
1.0
 43
1.0
 50
0.0
  0
INSERT
  8
gtp
  2
D23
 10
7.463500
 20
2.450000
 41
1.0
 42
1.0
 43
1.0
 50
0.0
  0
INSERT
  8
gtp
  2
D23
 10
7.526500
 20
2.450000
 41
1.0
 42
1.0
 43
1.0
 50
0.0
  0
INSERT
  8
gtp
  2
D23
 10
9.421500
 20
1.530000
 41
1.0
 42
1.0
 43
1.0
 50
0.0
  0
INSERT
  8
gtp
  2
D23
 10
9.358500
 20
1.530000
 41
1.0
 42
1.0
 43
1.0
 50
0.0
  0
INSERT
  8
gtp
  2
D23
 10
9.898500
 20
1.265000
 41
1.0
 42
1.0
 43
1.0
 50
0.0
  0
INSERT
  8
gtp
  2
D23
 10
9.961500
 20
1.265000
 41
1.0
 42
1.0
 43
1.0
 50
0.0
  0
INSERT
  8
gtp
  2
D23
 10
9.898500
 20
1.125000
 41
1.0
 42
1.0
 43
1.0
 50
0.0
  0
INSERT
  8
gtp
  2
D23
 10
9.961500
 20
1.125000
 41
1.0
 42
1.0
 43
1.0
 50
0.0
  0
INSERT
  8
gtp
  2
D23
 10
9.576500
 20
1.530000
 41
1.0
 42
1.0
 43
1.0
 50
0.0
  0
INSERT
  8
gtp
  2
D23
 10
9.513500
 20
1.530000
 41
1.0
 42
1.0
 43
1.0
 50
0.0
  0
INSERT
  8
gtp
  2
D24
 10
7.815940
 20
4.745000
 41
1.0
 42
1.0
 43
1.0
 50
0.0
  0
INSERT
  8
gtp
  2
D24
 10
7.934060
 20
4.745000
 41
1.0
 42
1.0
 43
1.0
 50
0.0
  0
INSERT
  8
gtp
  2
D25
 10
8.385000
 20
3.087440
 41
1.0
 42
1.0
 43
1.0
 50
0.0
  0
INSERT
  8
gtp
  2
D25
 10
8.385000
 20
3.307910
 41
1.0
 42
1.0
 43
1.0
 50
0.0
  0
INSERT
  8
gtp
  2
D25
 10
8.385000
 20
3.059880
 41
1.0
 42
1.0
 43
1.0
 50
0.0
  0
INSERT
  8
gtp
  2
D25
 10
8.385000
 20
3.032320
 41
1.0
 42
1.0
 43
1.0
 50
0.0
  0
INSERT
  8
gtp
  2
D25
 10
8.385000
 20
3.115000
 41
1.0
 42
1.0
 43
1.0
 50
0.0
  0
INSERT
  8
gtp
  2
D25
 10
8.385000
 20
3.142560
 41
1.0
 42
1.0
 43
1.0
 50
0.0
  0
INSERT
  8
gtp
  2
D25
 10
8.385000
 20
3.170120
 41
1.0
 42
1.0
 43
1.0
 50
0.0
  0
INSERT
  8
gtp
  2
D25
 10
8.385000
 20
3.197680
 41
1.0
 42
1.0
 43
1.0
 50
0.0
  0
INSERT
  8
gtp
  2
D25
 10
8.385000
 20
3.225240
 41
1.0
 42
1.0
 43
1.0
 50
0.0
  0
INSERT
  8
gtp
  2
D25
 10
8.385000
 20
3.280350
 41
1.0
 42
1.0
 43
1.0
 50
0.0
  0
INSERT
  8
gtp
  2
D25
 10
8.385000
 20
3.252800
 41
1.0
 42
1.0
 43
1.0
 50
0.0
  0
INSERT
  8
gtp
  2
D25
 10
8.385000
 20
3.004760
 41
1.0
 42
1.0
 43
1.0
 50
0.0
  0
INSERT
  8
gtp
  2
D25
 10
8.385000
 20
2.977200
 41
1.0
 42
1.0
 43
1.0
 50
0.0
  0
POLYLINE
  8
gko
 62
6
 40
0.000000
 41
0.000000
 66
  1
  0
VERTEX
  8
gko
 10
8.866900
 20
1.899500
  0
VERTEX
  8
gko
 10
8.860150
 20
1.906950
  0
VERTEX
  8
gko
 10
8.853270
 20
1.914270
  0
VERTEX
  8
gko
 10
8.846240
 20
1.921460
  0
VERTEX
  8
gko
 10
8.839080
 20
1.928510
  0
VERTEX
  8
gko
 10
8.831790
 20
1.935420
  0
VERTEX
  8
gko
 10
8.824360
 20
1.942200
  0
VERTEX
  8
gko
 10
8.816820
 20
1.948830
  0
VERTEX
  8
gko
 10
8.809140
 20
1.955320
  0
VERTEX
  8
gko
 10
8.801340
 20
1.961670
  0
VERTEX
  8
gko
 10
8.793430
 20
1.967860
  0
VERTEX
  8
gko
 10
8.785400
 20
1.973900
  0
VERTEX
  8
gko
 10
8.777250
 20
1.979790
  0
VERTEX
  8
gko
 10
8.769000
 20
1.985520
  0
VERTEX
  8
gko
 10
8.760640
 20
1.991100
  0
VERTEX
  8
gko
 10
8.752170
 20
1.996520
  0
VERTEX
  8
gko
 10
8.743600
 20
2.001770
  0
VERTEX
  8
gko
 10
8.734930
 20
2.006860
  0
VERTEX
  8
gko
 10
8.726170
 20
2.011790
  0
VERTEX
  8
gko
 10
8.717320
 20
2.016540
  0
VERTEX
  8
gko
 10
8.708380
 20
2.021130
  0
VERTEX
  8
gko
 10
8.699350
 20
2.025550
  0
VERTEX
  8
gko
 10
8.690240
 20
2.029800
  0
VERTEX
  8
gko
 10
8.681060
 20
2.033870
  0
VERTEX
  8
gko
 10
8.671790
 20
2.037770
  0
VERTEX
  8
gko
 10
8.662450
 20
2.041490
  0
VERTEX
  8
gko
 10
8.653050
 20
2.045030
  0
VERTEX
  8
gko
 10
8.643580
 20
2.048400
  0
VERTEX
  8
gko
 10
8.634050
 20
2.051580
  0
VERTEX
  8
gko
 10
8.624460
 20
2.054580
  0
VERTEX
  8
gko
 10
8.614810
 20
2.057400
  0
VERTEX
  8
gko
 10
8.605110
 20
2.060040
  0
VERTEX
  8
gko
 10
8.595360
 20
2.062490
  0
VERTEX
  8
gko
 10
8.585570
 20
2.064760
  0
VERTEX
  8
gko
 10
8.575740
 20
2.066840
  0
VERTEX
  8
gko
 10
8.565870
 20
2.068730
  0
VERTEX
  8
gko
 10
8.555960
 20
2.070440
  0
VERTEX
  8
gko
 10
8.546030
 20
2.071960
  0
VERTEX
  8
gko
 10
8.536070
 20
2.073290
  0
VERTEX
  8
gko
 10
8.526080
 20
2.074420
  0
VERTEX
  8
gko
 10
8.516070
 20
2.075370
  0
VERTEX
  8
gko
 10
8.506050
 20
2.076130
  0
VERTEX
  8
gko
 10
8.496020
 20
2.076700
  0
VERTEX
  8
gko
 10
8.485970
 20
2.077080
  0
VERTEX
  8
gko
 10
8.475930
 20
2.077270
  0
VERTEX
  8
gko
 10
8.465870
 20
2.077270
  0
VERTEX
  8
gko
 10
8.455830
 20
2.077070
  0
VERTEX
  8
gko
 10
8.445780
 20
2.076690
  0
VERTEX
  8
gko
 10
8.435750
 20
2.076110
  0
VERTEX
  8
gko
 10
8.425730
 20
2.075350
  0
VERTEX
  8
gko
 10
8.415720
 20
2.074390
  0
VERTEX
  8
gko
 10
8.405740
 20
2.073250
  0
VERTEX
  8
gko
 10
8.395770
 20
2.071910
  0
VERTEX
  8
gko
 10
8.385840
 20
2.070390
  0
VERTEX
  8
gko
 10
8.375940
 20
2.068680
  0
VERTEX
  8
gko
 10
8.366070
 20
2.066780
  0
VERTEX
  8
gko
 10
8.356240
 20
2.064700
  0
VERTEX
  8
gko
 10
8.346450
 20
2.062420
  0
VERTEX
  8
gko
 10
8.336700
 20
2.059970
  0
VERTEX
  8
gko
 10
8.327000
 20
2.057330
  0
VERTEX
  8
gko
 10
8.317360
 20
2.054500
  0
VERTEX
  8
gko
 10
8.307770
 20
2.051490
  0
VERTEX
  8
gko
 10
8.298240
 20
2.048300
  0
VERTEX
  8
gko
 10
8.288770
 20
2.044930
  0
VERTEX
  8
gko
 10
8.279360
 20
2.041380
  0
VERTEX
  8
gko
 10
8.270030
 20
2.037660
  0
VERTEX
  8
gko
 10
8.260770
 20
2.033760
  0
VERTEX
  8
gko
 10
8.251580
 20
2.029680
  0
VERTEX
  8
gko
 10
8.242470
 20
2.025430
  0
VERTEX
  8
gko
 10
8.233450
 20
2.021000
  0
VERTEX
  8
gko
 10
8.224510
 20
2.016410
  0
VERTEX
  8
gko
 10
8.215660
 20
2.011650
  0
VERTEX
  8
gko
 10
8.206900
 20
2.006720
  0
VERTEX
  8
gko
 10
8.198240
 20
2.001620
  0
VERTEX
  8
gko
 10
8.189680
 20
1.996360
  0
VERTEX
  8
gko
 10
8.181210
 20
1.990940
  0
VERTEX
  8
gko
 10
8.172850
 20
1.985360
  0
VERTEX
  8
gko
 10
8.164600
 20
1.979620
  0
VERTEX
  8
gko
 10
8.156460
 20
1.973730
  0
VERTEX
  8
gko
 10
8.148430
 20
1.967680
  0
VERTEX
  8
gko
 10
8.140520
 20
1.961490
  0
VERTEX
  8
gko
 10
8.132730
 20
1.955140
  0
VERTEX
  8
gko
 10
8.125060
 20
1.948640
  0
VERTEX
  8
gko
 10
8.117510
 20
1.942010
  0
VERTEX
  8
gko
 10
8.110090
 20
1.935230
  0
VERTEX
  8
gko
 10
8.102800
 20
1.928310
  0
VERTEX
  8
gko
 10
8.095640
 20
1.921250
  0
VERTEX
  8
gko
 10
8.088620
 20
1.914060
  0
VERTEX
  8
gko
 10
8.081740
 20
1.906730
  0
SEQEND
  8
gko
  0
POLYLINE
  8
gko
 62
6
 40
0.000000
 41
0.000000
 66
  1
  0
VERTEX
  8
gko
 10
9.929460
 20
0.990000
  0
VERTEX
  8
gko
 10
9.939440
 20
0.989860
  0
VERTEX
  8
gko
 10
9.949410
 20
0.989910
  0
VERTEX
  8
gko
 10
9.959390
 20
0.990170
  0
VERTEX
  8
gko
 10
9.969350
 20
0.990630
  0
VERTEX
  8
gko
 10
9.979310
 20
0.991280
  0
VERTEX
  8
gko
 10
9.989250
 20
0.992130
  0
VERTEX
  8
gko
 10
9.999170
 20
0.993180
  0
VERTEX
  8
gko
 10
10.009070
 20
0.994430
  0
VERTEX
  8
gko
 10
10.018940
 20
0.995870
  0
VERTEX
  8
gko
 10
10.028790
 20
0.997510
  0
VERTEX
  8
gko
 10
10.038590
 20
0.999350
  0
VERTEX
  8
gko
 10
10.048360
 20
1.001380
  0
VERTEX
  8
gko
 10
10.058090
 20
1.003610
  0
VERTEX
  8
gko
 10
10.067770
 20
1.006030
  0
VERTEX
  8
gko
 10
10.077400
 20
1.008640
  0
VERTEX
  8
gko
 10
10.086970
 20
1.011440
  0
VERTEX
  8
gko
 10
10.096490
 20
1.014440
  0
VERTEX
  8
gko
 10
10.105940
 20
1.017620
  0
VERTEX
  8
gko
 10
10.115340
 20
1.020990
  0
VERTEX
  8
gko
 10
10.124660
 20
1.024550
  0
VERTEX
  8
gko
 10
10.133910
 20
1.028290
  0
VERTEX
  8
gko
 10
10.143080
 20
1.032220
  0
VERTEX
  8
gko
 10
10.152170
 20
1.036330
  0
VERTEX
  8
gko
 10
10.161180
 20
1.040620
  0
VERTEX
  8
gko
 10
10.170100
 20
1.045080
  0
VERTEX
  8
gko
 10
10.178930
 20
1.049730
  0
VERTEX
  8
gko
 10
10.187670
 20
1.054550
  0
VERTEX
  8
gko
 10
10.196310
 20
1.059540
  0
VERTEX
  8
gko
 10
10.204840
 20
1.064710
  0
VERTEX
  8
gko
 10
10.213270
 20
1.070040
  0
VERTEX
  8
gko
 10
10.221600
 20
1.075540
  0
VERTEX
  8
gko
 10
10.229810
 20
1.081200
  0
VERTEX
  8
gko
 10
10.237910
 20
1.087030
  0
VERTEX
  8
gko
 10
10.245890
 20
1.093020
  0
VERTEX
  8
gko
 10
10.253750
 20
1.099170
  0
VERTEX
  8
gko
 10
10.261490
 20
1.105470
  0
VERTEX
  8
gko
 10
10.269100
 20
1.111920
  0
VERTEX
  8
gko
 10
10.276570
 20
1.118530
  0
VERTEX
  8
gko
 10
10.283920
 20
1.125280
  0
VERTEX
  8
gko
 10
10.291130
 20
1.132180
  0
VERTEX
  8
gko
 10
10.298200
 20
1.139220
  0
VERTEX
  8
gko
 10
10.305130
 20
1.146400
  0
VERTEX
  8
gko
 10
10.311910
 20
1.153710
  0
VERTEX
  8
gko
 10
10.318550
 20
1.161160
  0
VERTEX
  8
gko
 10
10.325030
 20
1.168750
  0
VERTEX
  8
gko
 10
10.331370
 20
1.176450
  0
VERTEX
  8
gko
 10
10.337550
 20
1.184290
  0
VERTEX
  8
gko
 10
10.343570
 20
1.192240
  0
VERTEX
  8
gko
 10
10.349430
 20
1.200320
  0
VERTEX
  8
gko
 10
10.355130
 20
1.208510
  0
VERTEX
  8
gko
 10
10.360670
 20
1.216810
  0
VERTEX
  8
gko
 10
10.366040
 20
1.225220
  0
VERTEX
  8
gko
 10
10.371240
 20
1.233730
  0
VERTEX
  8
gko
 10
10.376260
 20
1.242350
  0
VERTEX
  8
gko
 10
10.381120
 20
1.251060
  0
VERTEX
  8
gko
 10
10.385800
 20
1.259870
  0
VERTEX
  8
gko
 10
10.390310
 20
1.268780
  0
VERTEX
  8
gko
 10
10.394640
 20
1.277770
  0
VERTEX
  8
gko
 10
10.398780
 20
1.286840
  0
VERTEX
  8
gko
 10
10.402750
 20
1.296000
  0
VERTEX
  8
gko
 10
10.406530
 20
1.305230
  0
VERTEX
  8
gko
 10
10.410130
 20
1.314540
  0
VERTEX
  8
gko
 10
10.413540
 20
1.323910
  0
VERTEX
  8
gko
 10
10.416760
 20
1.333360
  0
VERTEX
  8
gko
 10
10.419800
 20
1.342860
  0
VERTEX
  8
gko
 10
10.422640
 20
1.352420
  0
VERTEX
  8
gko
 10
10.425290
 20
1.362040
  0
VERTEX
  8
gko
 10
10.427760
 20
1.371710
  0
VERTEX
  8
gko
 10
10.430020
 20
1.381430
  0
VERTEX
  8
gko
 10
10.432100
 20
1.391190
  0
VERTEX
  8
gko
 10
10.433970
 20
1.400990
  0
VERTEX
  8
gko
 10
10.435660
 20
1.410820
  0
VERTEX
  8
gko
 10
10.437140
 20
1.420690
  0
VERTEX
  8
gko
 10
10.438430
 20
1.430580
  0
VERTEX
  8
gko
 10
10.439520
 20
1.440500
  0
VERTEX
  8
gko
 10
10.440420
 20
1.450440
  0
VERTEX
  8
gko
 10
10.441110
 20
1.460390
  0
VERTEX
  8
gko
 10
10.441610
 20
1.470350
  0
VERTEX
  8
gko
 10
10.441910
 20
1.480330
  0
VERTEX
  8
gko
 10
10.442010
 20
1.490300
  0
SEQEND
  8
gko
  0
POLYLINE
  8
gko
 62
6
 40
0.000000
 41
0.000000
 66
  1
  0
VERTEX
  8
gko
 10
9.471400
 20
1.161290
  0
VERTEX
  8
gko
 10
9.478090
 20
1.153730
  0
VERTEX
  8
gko
 10
9.484920
 20
1.146310
  0
VERTEX
  8
gko
 10
9.491910
 20
1.139040
  0
VERTEX
  8
gko
 10
9.499040
 20
1.131900
  0
VERTEX
  8
gko
 10
9.506320
 20
1.124910
  0
VERTEX
  8
gko
 10
9.513740
 20
1.118080
  0
VERTEX
  8
gko
 10
9.521290
 20
1.111390
  0
VERTEX
  8
gko
 10
9.528980
 20
1.104860
  0
VERTEX
  8
gko
 10
9.536800
 20
1.098490
  0
VERTEX
  8
gko
 10
9.544750
 20
1.092280
  0
VERTEX
  8
gko
 10
9.552830
 20
1.086230
  0
VERTEX
  8
gko
 10
9.561020
 20
1.080350
  0
VERTEX
  8
gko
 10
9.569340
 20
1.074640
  0
VERTEX
  8
gko
 10
9.577770
 20
1.069090
  0
VERTEX
  8
gko
 10
9.586310
 20
1.063720
  0
VERTEX
  8
gko
 10
9.594960
 20
1.058530
  0
VERTEX
  8
gko
 10
9.603710
 20
1.053510
  0
VERTEX
  8
gko
 10
9.612560
 20
1.048670
  0
VERTEX
  8
gko
 10
9.621510
 20
1.044020
  0
VERTEX
  8
gko
 10
9.630550
 20
1.039540
  0
VERTEX
  8
gko
 10
9.639680
 20
1.035250
  0
VERTEX
  8
gko
 10
9.648900
 20
1.031150
  0
VERTEX
  8
gko
 10
9.658200
 20
1.027240
  0
VERTEX
  8
gko
 10
9.667580
 20
1.023520
  0
VERTEX
  8
gko
 10
9.677030
 20
1.019990
  0
VERTEX
  8
gko
 10
9.686550
 20
1.016650
  0
VERTEX
  8
gko
 10
9.696130
 20
1.013510
  0
VERTEX
  8
gko
 10
9.705780
 20
1.010560
  0
VERTEX
  8
gko
 10
9.715490
 20
1.007810
  0
VERTEX
  8
gko
 10
9.725250
 20
1.005260
  0
VERTEX
  8
gko
 10
9.735060
 20
1.002910
  0
VERTEX
  8
gko
 10
9.744920
 20
1.000760
  0
VERTEX
  8
gko
 10
9.754820
 20
0.998810
  0
VERTEX
  8
gko
 10
9.764750
 20
0.997060
  0
VERTEX
  8
gko
 10
9.774720
 20
0.995510
  0
VERTEX
  8
gko
 10
9.784720
 20
0.994170
  0
VERTEX
  8
gko
 10
9.794740
 20
0.993040
  0
VERTEX
  8
gko
 10
9.804790
 20
0.992100
  0
VERTEX
  8
gko
 10
9.814850
 20
0.991370
  0
VERTEX
  8
gko
 10
9.824930
 20
0.990850
  0
VERTEX
  8
gko
 10
9.835010
 20
0.990530
  0
SEQEND
  8
gko
  0
POLYLINE
  8
gko
 62
6
 40
0.000000
 41
0.000000
 66
  1
  0
VERTEX
  8
gko
 10
8.867070
 20
1.899470
  0
VERTEX
  8
gko
 10
8.872640
 20
1.891230
  0
VERTEX
  8
gko
 10
8.878230
 20
1.883000
  0
VERTEX
  8
gko
 10
8.883840
 20
1.874780
  0
VERTEX
  8
gko
 10
8.889470
 20
1.866560
  0
VERTEX
  8
gko
 10
8.895110
 20
1.858360
  0
VERTEX
  8
gko
 10
8.900760
 20
1.850180
  0
VERTEX
  8
gko
 10
8.906430
 20
1.842000
  0
VERTEX
  8
gko
 10
8.912120
 20
1.833830
  0
VERTEX
  8
gko
 10
8.917820
 20
1.825670
  0
VERTEX
  8
gko
 10
8.923540
 20
1.817530
  0
VERTEX
  8
gko
 10
8.929270
 20
1.809390
  0
VERTEX
  8
gko
 10
8.935020
 20
1.801270
  0
VERTEX
  8
gko
 10
8.940780
 20
1.793160
  0
VERTEX
  8
gko
 10
8.946560
 20
1.785050
  0
VERTEX
  8
gko
 10
8.952360
 20
1.776960
  0
VERTEX
  8
gko
 10
8.958170
 20
1.768890
  0
VERTEX
  8
gko
 10
8.964000
 20
1.760820
  0
VERTEX
  8
gko
 10
8.969840
 20
1.752760
  0
VERTEX
  8
gko
 10
8.975700
 20
1.744710
  0
VERTEX
  8
gko
 10
8.981570
 20
1.736680
  0
VERTEX
  8
gko
 10
8.987460
 20
1.728660
  0
VERTEX
  8
gko
 10
8.993360
 20
1.720650
  0
VERTEX
  8
gko
 10
8.999280
 20
1.712650
  0
VERTEX
  8
gko
 10
9.005220
 20
1.704660
  0
VERTEX
  8
gko
 10
9.011170
 20
1.696680
  0
VERTEX
  8
gko
 10
9.017130
 20
1.688710
  0
VERTEX
  8
gko
 10
9.023120
 20
1.680760
  0
VERTEX
  8
gko
 10
9.029110
 20
1.672810
  0
VERTEX
  8
gko
 10
9.035120
 20
1.664880
  0
VERTEX
  8
gko
 10
9.041150
 20
1.656960
  0
VERTEX
  8
gko
 10
9.047190
 20
1.649060
  0
VERTEX
  8
gko
 10
9.053250
 20
1.641160
  0
VERTEX
  8
gko
 10
9.059320
 20
1.633270
  0
VERTEX
  8
gko
 10
9.065410
 20
1.625400
  0
VERTEX
  8
gko
 10
9.071510
 20
1.617540
  0
VERTEX
  8
gko
 10
9.077630
 20
1.609690
  0
VERTEX
  8
gko
 10
9.083760
 20
1.601850
  0
VERTEX
  8
gko
 10
9.089910
 20
1.594030
  0
VERTEX
  8
gko
 10
9.096070
 20
1.586210
  0
VERTEX
  8
gko
 10
9.102250
 20
1.578410
  0
VERTEX
  8
gko
 10
9.108440
 20
1.570620
  0
VERTEX
  8
gko
 10
9.114650
 20
1.562840
  0
VERTEX
  8
gko
 10
9.120870
 20
1.555070
  0
VERTEX
  8
gko
 10
9.127110
 20
1.547320
  0
VERTEX
  8
gko
 10
9.133360
 20
1.539570
  0
VERTEX
  8
gko
 10
9.139630
 20
1.531840
  0
VERTEX
  8
gko
 10
9.145910
 20
1.524120
  0
VERTEX
  8
gko
 10
9.152210
 20
1.516420
  0
VERTEX
  8
gko
 10
9.158520
 20
1.508720
  0
VERTEX
  8
gko
 10
9.164850
 20
1.501040
  0
VERTEX
  8
gko
 10
9.171190
 20
1.493370
  0
VERTEX
  8
gko
 10
9.177540
 20
1.485710
  0
VERTEX
  8
gko
 10
9.183910
 20
1.478070
  0
VERTEX
  8
gko
 10
9.190300
 20
1.470430
  0
VERTEX
  8
gko
 10
9.196700
 20
1.462810
  0
VERTEX
  8
gko
 10
9.203110
 20
1.455200
  0
VERTEX
  8
gko
 10
9.209540
 20
1.447610
  0
VERTEX
  8
gko
 10
9.215990
 20
1.440020
  0
VERTEX
  8
gko
 10
9.222440
 20
1.432450
  0
VERTEX
  8
gko
 10
9.228920
 20
1.424890
  0
VERTEX
  8
gko
 10
9.235410
 20
1.417340
  0
VERTEX
  8
gko
 10
9.241910
 20
1.409810
  0
VERTEX
  8
gko
 10
9.248420
 20
1.402290
  0
VERTEX
  8
gko
 10
9.254960
 20
1.394780
  0
VERTEX
  8
gko
 10
9.261500
 20
1.387280
  0
VERTEX
  8
gko
 10
9.268060
 20
1.379800
  0
VERTEX
  8
gko
 10
9.274640
 20
1.372330
  0
VERTEX
  8
gko
 10
9.281220
 20
1.364870
  0
VERTEX
  8
gko
 10
9.287830
 20
1.357420
  0
VERTEX
  8
gko
 10
9.294440
 20
1.349990
  0
VERTEX
  8
gko
 10
9.301070
 20
1.342570
  0
VERTEX
  8
gko
 10
9.307720
 20
1.335160
  0
VERTEX
  8
gko
 10
9.314380
 20
1.327760
  0
VERTEX
  8
gko
 10
9.321060
 20
1.320380
  0
VERTEX
  8
gko
 10
9.327740
 20
1.313010
  0
VERTEX
  8
gko
 10
9.334440
 20
1.305650
  0
VERTEX
  8
gko
 10
9.341160
 20
1.298310
  0
VERTEX
  8
gko
 10
9.347890
 20
1.290980
  0
VERTEX
  8
gko
 10
9.354640
 20
1.283660
  0
VERTEX
  8
gko
 10
9.361400
 20
1.276360
  0
VERTEX
  8
gko
 10
9.368170
 20
1.269070
  0
VERTEX
  8
gko
 10
9.374960
 20
1.261790
  0
VERTEX
  8
gko
 10
9.381760
 20
1.254520
  0
VERTEX
  8
gko
 10
9.388570
 20
1.247270
  0
VERTEX
  8
gko
 10
9.395400
 20
1.240030
  0
VERTEX
  8
gko
 10
9.402240
 20
1.232800
  0
VERTEX
  8
gko
 10
9.409100
 20
1.225590
  0
VERTEX
  8
gko
 10
9.415970
 20
1.218390
  0
VERTEX
  8
gko
 10
9.422850
 20
1.211200
  0
VERTEX
  8
gko
 10
9.429750
 20
1.204030
  0
VERTEX
  8
gko
 10
9.436660
 20
1.196870
  0
VERTEX
  8
gko
 10
9.443590
 20
1.189720
  0
VERTEX
  8
gko
 10
9.450530
 20
1.182590
  0
VERTEX
  8
gko
 10
9.457480
 20
1.175460
  0
VERTEX
  8
gko
 10
9.464450
 20
1.168360
  0
VERTEX
  8
gko
 10
9.471410
 20
1.161280
  0
SEQEND
  8
gko
  0
POLYLINE
  8
gko
 62
6
 40
0.000000
 41
0.000000
 66
  1
  0
VERTEX
  8
gko
 10
6.505000
 20
1.495000
  0
VERTEX
  8
gko
 10
6.505100
 20
1.485020
  0
VERTEX
  8
gko
 10
6.505400
 20
1.475050
  0
VERTEX
  8
gko
 10
6.505900
 20
1.465090
  0
VERTEX
  8
gko
 10
6.506590
 20
1.455130
  0
VERTEX
  8
gko
 10
6.507480
 20
1.445190
  0
VERTEX
  8
gko
 10
6.508580
 20
1.435280
  0
VERTEX
  8
gko
 10
6.509870
 20
1.425380
  0
VERTEX
  8
gko
 10
6.511350
 20
1.415520
  0
VERTEX
  8
gko
 10
6.513030
 20
1.405680
  0
VERTEX
  8
gko
 10
6.514910
 20
1.395880
  0
VERTEX
  8
gko
 10
6.516990
 20
1.386120
  0
VERTEX
  8
gko
 10
6.519250
 20
1.376410
  0
VERTEX
  8
gko
 10
6.521720
 20
1.366740
  0
VERTEX
  8
gko
 10
6.524370
 20
1.357120
  0
VERTEX
  8
gko
 10
6.527210
 20
1.347560
  0
VERTEX
  8
gko
 10
6.530250
 20
1.338050
  0
VERTEX
  8
gko
 10
6.533470
 20
1.328610
  0
VERTEX
  8
gko
 10
6.536880
 20
1.319240
  0
VERTEX
  8
gko
 10
6.540480
 20
1.309930
  0
VERTEX
  8
gko
 10
6.544260
 20
1.300700
  0
VERTEX
  8
gko
 10
6.548230
 20
1.291540
  0
VERTEX
  8
gko
 10
6.552370
 20
1.282470
  0
VERTEX
  8
gko
 10
6.556700
 20
1.273480
  0
VERTEX
  8
gko
 10
6.561200
 20
1.264570
  0
VERTEX
  8
gko
 10
6.565890
 20
1.255760
  0
VERTEX
  8
gko
 10
6.570740
 20
1.247050
  0
VERTEX
  8
gko
 10
6.575770
 20
1.238430
  0
VERTEX
  8
gko
 10
6.580970
 20
1.229920
  0
VERTEX
  8
gko
 10
6.586340
 20
1.221510
  0
VERTEX
  8
gko
 10
6.591880
 20
1.213210
  0
VERTEX
  8
gko
 10
6.597580
 20
1.205020
  0
VERTEX
  8
gko
 10
6.603440
 20
1.196940
  0
VERTEX
  8
gko
 10
6.609460
 20
1.188990
  0
VERTEX
  8
gko
 10
6.615640
 20
1.181150
  0
VERTEX
  8
gko
 10
6.621980
 20
1.173450
  0
VERTEX
  8
gko
 10
6.628460
 20
1.165870
  0
VERTEX
  8
gko
 10
6.635100
 20
1.158410
  0
VERTEX
  8
gko
 10
6.641880
 20
1.151100
  0
VERTEX
  8
gko
 10
6.648810
 20
1.143920
  0
VERTEX
  8
gko
 10
6.655880
 20
1.136880
  0
VERTEX
  8
gko
 10
6.663090
 20
1.129980
  0
VERTEX
  8
gko
 10
6.670430
 20
1.123230
  0
VERTEX
  8
gko
 10
6.677910
 20
1.116620
  0
VERTEX
  8
gko
 10
6.685520
 20
1.110170
  0
VERTEX
  8
gko
 10
6.693260
 20
1.103870
  0
VERTEX
  8
gko
 10
6.701120
 20
1.097720
  0
VERTEX
  8
gko
 10
6.709100
 20
1.091730
  0
VERTEX
  8
gko
 10
6.717200
 20
1.085910
  0
VERTEX
  8
gko
 10
6.725410
 20
1.080240
  0
VERTEX
  8
gko
 10
6.733730
 20
1.074740
  0
VERTEX
  8
gko
 10
6.742170
 20
1.069410
  0
VERTEX
  8
gko
 10
6.750700
 20
1.064240
  0
VERTEX
  8
gko
 10
6.759340
 20
1.059250
  0
VERTEX
  8
gko
 10
6.768080
 20
1.054430
  0
VERTEX
  8
gko
 10
6.776910
 20
1.049790
  0
VERTEX
  8
gko
 10
6.785830
 20
1.045320
  0
VERTEX
  8
gko
 10
6.794840
 20
1.041030
  0
VERTEX
  8
gko
 10
6.803930
 20
1.036920
  0
VERTEX
  8
gko
 10
6.813100
 20
1.032990
  0
VERTEX
  8
gko
 10
6.822350
 20
1.029250
  0
VERTEX
  8
gko
 10
6.831670
 20
1.025690
  0
VERTEX
  8
gko
 10
6.841060
 20
1.022320
  0
VERTEX
  8
gko
 10
6.850520
 20
1.019140
  0
VERTEX
  8
gko
 10
6.860030
 20
1.016150
  0
VERTEX
  8
gko
 10
6.869610
 20
1.013340
  0
VERTEX
  8
gko
 10
6.879240
 20
1.010730
  0
VERTEX
  8
gko
 10
6.888920
 20
1.008310
  0
VERTEX
  8
gko
 10
6.898640
 20
1.006080
  0
VERTEX
  8
gko
 10
6.908410
 20
1.004050
  0
VERTEX
  8
gko
 10
6.918220
 20
1.002220
  0
VERTEX
  8
gko
 10
6.928060
 20
1.000570
  0
VERTEX
  8
gko
 10
6.937930
 20
0.999130
  0
VERTEX
  8
gko
 10
6.947830
 20
0.997880
  0
VERTEX
  8
gko
 10
6.957760
 20
0.996830
  0
VERTEX
  8
gko
 10
6.967700
 20
0.995980
  0
VERTEX
  8
gko
 10
6.977650
 20
0.995330
  0
VERTEX
  8
gko
 10
6.987620
 20
0.994870
  0
VERTEX
  8
gko
 10
6.997590
 20
0.994620
  0
VERTEX
  8
gko
 10
7.007570
 20
0.994560
  0
VERTEX
  8
gko
 10
7.017550
 20
0.994700
  0
SEQEND
  8
gko
  0
POLYLINE
  8
gko
 62
6
 40
0.000000
 41
0.000000
 66
  1
  0
VERTEX
  8
gko
 10
7.112000
 20
0.995000
  0
VERTEX
  8
gko
 10
7.122090
 20
0.995320
  0
VERTEX
  8
gko
 10
7.132160
 20
0.995840
  0
VERTEX
  8
gko
 10
7.142220
 20
0.996570
  0
VERTEX
  8
gko
 10
7.152270
 20
0.997500
  0
VERTEX
  8
gko
 10
7.162290
 20
0.998640
  0
VERTEX
  8
gko
 10
7.172290
 20
0.999980
  0
VERTEX
  8
gko
 10
7.182260
 20
1.001530
  0
VERTEX
  8
gko
 10
7.192190
 20
1.003270
  0
VERTEX
  8
gko
 10
7.202090
 20
1.005220
  0
VERTEX
  8
gko
 10
7.211950
 20
1.007370
  0
VERTEX
  8
gko
 10
7.221760
 20
1.009720
  0
VERTEX
  8
gko
 10
7.231520
 20
1.012280
  0
VERTEX
  8
gko
 10
7.241230
 20
1.015030
  0
VERTEX
  8
gko
 10
7.250880
 20
1.017970
  0
VERTEX
  8
gko
 10
7.260460
 20
1.021110
  0
VERTEX
  8
gko
 10
7.269980
 20
1.024450
  0
VERTEX
  8
gko
 10
7.279430
 20
1.027980
  0
VERTEX
  8
gko
 10
7.288810
 20
1.031710
  0
VERTEX
  8
gko
 10
7.298110
 20
1.035620
  0
VERTEX
  8
gko
 10
7.307330
 20
1.039720
  0
VERTEX
  8
gko
 10
7.316460
 20
1.044010
  0
VERTEX
  8
gko
 10
7.325500
 20
1.048480
  0
VERTEX
  8
gko
 10
7.334450
 20
1.053140
  0
VERTEX
  8
gko
 10
7.343300
 20
1.057980
  0
VERTEX
  8
gko
 10
7.352050
 20
1.062990
  0
VERTEX
  8
gko
 10
7.360700
 20
1.068190
  0
VERTEX
  8
gko
 10
7.369240
 20
1.073560
  0
VERTEX
  8
gko
 10
7.377670
 20
1.079100
  0
VERTEX
  8
gko
 10
7.385990
 20
1.084820
  0
VERTEX
  8
gko
 10
7.394180
 20
1.090700
  0
VERTEX
  8
gko
 10
7.402260
 20
1.096750
  0
VERTEX
  8
gko
 10
7.410210
 20
1.102960
  0
VERTEX
  8
gko
 10
7.418030
 20
1.109330
  0
VERTEX
  8
gko
 10
7.425720
 20
1.115860
  0
VERTEX
  8
gko
 10
7.433280
 20
1.122540
  0
VERTEX
  8
gko
 10
7.440690
 20
1.129380
  0
VERTEX
  8
gko
 10
7.447970
 20
1.136370
  0
VERTEX
  8
gko
 10
7.455100
 20
1.143500
  0
VERTEX
  8
gko
 10
7.462090
 20
1.150780
  0
VERTEX
  8
gko
 10
7.468920
 20
1.158200
  0
VERTEX
  8
gko
 10
7.475610
 20
1.165760
  0
SEQEND
  8
gko
  0
POLYLINE
  8
gko
 62
6
 40
0.000000
 41
0.000000
 66
  1
  0
VERTEX
  8
gko
 10
7.474990
 20
1.164990
  0
VERTEX
  8
gko
 10
7.482000
 20
1.172120
  0
VERTEX
  8
gko
 10
7.489000
 20
1.179260
  0
VERTEX
  8
gko
 10
7.495990
 20
1.186410
  0
VERTEX
  8
gko
 10
7.502950
 20
1.193580
  0
VERTEX
  8
gko
 10
7.509910
 20
1.200750
  0
VERTEX
  8
gko
 10
7.516850
 20
1.207950
  0
VERTEX
  8
gko
 10
7.523780
 20
1.215150
  0
VERTEX
  8
gko
 10
7.530690
 20
1.222370
  0
VERTEX
  8
gko
 10
7.537590
 20
1.229600
  0
VERTEX
  8
gko
 10
7.544480
 20
1.236850
  0
VERTEX
  8
gko
 10
7.551350
 20
1.244110
  0
VERTEX
  8
gko
 10
7.558210
 20
1.251380
  0
VERTEX
  8
gko
 10
7.565060
 20
1.258670
  0
VERTEX
  8
gko
 10
7.571890
 20
1.265970
  0
VERTEX
  8
gko
 10
7.578700
 20
1.273280
  0
VERTEX
  8
gko
 10
7.585500
 20
1.280600
  0
VERTEX
  8
gko
 10
7.592290
 20
1.287940
  0
VERTEX
  8
gko
 10
7.599060
 20
1.295290
  0
VERTEX
  8
gko
 10
7.605820
 20
1.302660
  0
VERTEX
  8
gko
 10
7.612570
 20
1.310040
  0
VERTEX
  8
gko
 10
7.619300
 20
1.317430
  0
VERTEX
  8
gko
 10
7.626020
 20
1.324830
  0
VERTEX
  8
gko
 10
7.632720
 20
1.332250
  0
VERTEX
  8
gko
 10
7.639410
 20
1.339680
  0
VERTEX
  8
gko
 10
7.646080
 20
1.347120
  0
VERTEX
  8
gko
 10
7.652740
 20
1.354570
  0
VERTEX
  8
gko
 10
7.659390
 20
1.362040
  0
VERTEX
  8
gko
 10
7.666020
 20
1.369520
  0
VERTEX
  8
gko
 10
7.672630
 20
1.377020
  0
VERTEX
  8
gko
 10
7.679230
 20
1.384520
  0
VERTEX
  8
gko
 10
7.685820
 20
1.392040
  0
VERTEX
  8
gko
 10
7.692390
 20
1.399570
  0
VERTEX
  8
gko
 10
7.698950
 20
1.407120
  0
VERTEX
  8
gko
 10
7.705490
 20
1.414670
  0
VERTEX
  8
gko
 10
7.712020
 20
1.422250
  0
VERTEX
  8
gko
 10
7.718530
 20
1.429830
  0
VERTEX
  8
gko
 10
7.725030
 20
1.437420
  0
VERTEX
  8
gko
 10
7.731520
 20
1.445030
  0
VERTEX
  8
gko
 10
7.737990
 20
1.452650
  0
VERTEX
  8
gko
 10
7.744440
 20
1.460280
  0
VERTEX
  8
gko
 10
7.750890
 20
1.467930
  0
VERTEX
  8
gko
 10
7.757310
 20
1.475580
  0
VERTEX
  8
gko
 10
7.763720
 20
1.483250
  0
VERTEX
  8
gko
 10
7.770120
 20
1.490940
  0
VERTEX
  8
gko
 10
7.776500
 20
1.498630
  0
VERTEX
  8
gko
 10
7.782870
 20
1.506340
  0
VERTEX
  8
gko
 10
7.789220
 20
1.514060
  0
VERTEX
  8
gko
 10
7.795550
 20
1.521790
  0
VERTEX
  8
gko
 10
7.801880
 20
1.529530
  0
VERTEX
  8
gko
 10
7.808180
 20
1.537290
  0
VERTEX
  8
gko
 10
7.814470
 20
1.545050
  0
VERTEX
  8
gko
 10
7.820750
 20
1.552830
  0
VERTEX
  8
gko
 10
7.827010
 20
1.560630
  0
VERTEX
  8
gko
 10
7.833260
 20
1.568430
  0
VERTEX
  8
gko
 10
7.839490
 20
1.576250
  0
VERTEX
  8
gko
 10
7.845710
 20
1.584070
  0
VERTEX
  8
gko
 10
7.851910
 20
1.591920
  0
VERTEX
  8
gko
 10
7.858090
 20
1.599770
  0
VERTEX
  8
gko
 10
7.864260
 20
1.607630
  0
VERTEX
  8
gko
 10
7.870420
 20
1.615510
  0
VERTEX
  8
gko
 10
7.876560
 20
1.623390
  0
VERTEX
  8
gko
 10
7.882690
 20
1.631290
  0
VERTEX
  8
gko
 10
7.888800
 20
1.639210
  0
VERTEX
  8
gko
 10
7.894890
 20
1.647130
  0
VERTEX
  8
gko
 10
7.900970
 20
1.655060
  0
VERTEX
  8
gko
 10
7.907030
 20
1.663010
  0
VERTEX
  8
gko
 10
7.913080
 20
1.670970
  0
VERTEX
  8
gko
 10
7.919120
 20
1.678940
  0
VERTEX
  8
gko
 10
7.925140
 20
1.686920
  0
VERTEX
  8
gko
 10
7.931140
 20
1.694920
  0
VERTEX
  8
gko
 10
7.937120
 20
1.702920
  0
VERTEX
  8
gko
 10
7.943100
 20
1.710940
  0
VERTEX
  8
gko
 10
7.949050
 20
1.718960
  0
VERTEX
  8
gko
 10
7.954990
 20
1.727000
  0
VERTEX
  8
gko
 10
7.960920
 20
1.735050
  0
VERTEX
  8
gko
 10
7.966830
 20
1.743120
  0
VERTEX
  8
gko
 10
7.972720
 20
1.751190
  0
VERTEX
  8
gko
 10
7.978600
 20
1.759280
  0
VERTEX
  8
gko
 10
7.984460
 20
1.767370
  0
VERTEX
  8
gko
 10
7.990310
 20
1.775480
  0
VERTEX
  8
gko
 10
7.996140
 20
1.783600
  0
VERTEX
  8
gko
 10
8.001960
 20
1.791730
  0
VERTEX
  8
gko
 10
8.007760
 20
1.799870
  0
VERTEX
  8
gko
 10
8.013540
 20
1.808020
  0
VERTEX
  8
gko
 10
8.019310
 20
1.816190
  0
VERTEX
  8
gko
 10
8.025060
 20
1.824360
  0
VERTEX
  8
gko
 10
8.030800
 20
1.832550
  0
VERTEX
  8
gko
 10
8.036520
 20
1.840750
  0
VERTEX
  8
gko
 10
8.042230
 20
1.848950
  0
VERTEX
  8
gko
 10
8.047920
 20
1.857170
  0
VERTEX
  8
gko
 10
8.053590
 20
1.865400
  0
VERTEX
  8
gko
 10
8.059250
 20
1.873640
  0
VERTEX
  8
gko
 10
8.064890
 20
1.881900
  0
VERTEX
  8
gko
 10
8.070510
 20
1.890160
  0
VERTEX
  8
gko
 10
8.076120
 20
1.898430
  0
VERTEX
  8
gko
 10
8.081710
 20
1.906710
  0
SEQEND
  8
gko
  0
POLYLINE
  8
gko
 62
6
 40
0.000000
 41
0.000000
 66
  1
  0
VERTEX
  8
gko
 10
10.442040
 20
3.839000
  0
VERTEX
  8
gko
 10
10.441990
 20
3.848990
  0
VERTEX
  8
gko
 10
10.441840
 20
3.858980
  0
VERTEX
  8
gko
 10
10.441590
 20
3.868970
  0
VERTEX
  8
gko
 10
10.441260
 20
3.878950
  0
VERTEX
  8
gko
 10
10.440830
 20
3.888940
  0
VERTEX
  8
gko
 10
10.440320
 20
3.898910
  0
VERTEX
  8
gko
 10
10.439710
 20
3.908890
  0
VERTEX
  8
gko
 10
10.439010
 20
3.918850
  0
VERTEX
  8
gko
 10
10.438220
 20
3.928810
  0
VERTEX
  8
gko
 10
10.437340
 20
3.938770
  0
VERTEX
  8
gko
 10
10.436370
 20
3.948710
  0
VERTEX
  8
gko
 10
10.435300
 20
3.958640
  0
VERTEX
  8
gko
 10
10.434150
 20
3.968570
  0
VERTEX
  8
gko
 10
10.432900
 20
3.978480
  0
VERTEX
  8
gko
 10
10.431560
 20
3.988380
  0
VERTEX
  8
gko
 10
10.430130
 20
3.998270
  0
VERTEX
  8
gko
 10
10.428610
 20
4.008140
  0
VERTEX
  8
gko
 10
10.427010
 20
4.018000
  0
VERTEX
  8
gko
 10
10.425310
 20
4.027850
  0
VERTEX
  8
gko
 10
10.423520
 20
4.037680
  0
VERTEX
  8
gko
 10
10.421640
 20
4.047490
  0
VERTEX
  8
gko
 10
10.419670
 20
4.057290
  0
VERTEX
  8
gko
 10
10.417610
 20
4.067060
  0
VERTEX
  8
gko
 10
10.415460
 20
4.076820
  0
VERTEX
  8
gko
 10
10.413220
 20
4.086560
  0
VERTEX
  8
gko
 10
10.410890
 20
4.096270
  0
VERTEX
  8
gko
 10
10.408470
 20
4.105970
  0
VERTEX
  8
gko
 10
10.405970
 20
4.115640
  0
VERTEX
  8
gko
 10
10.403370
 20
4.125290
  0
VERTEX
  8
gko
 10
10.400690
 20
4.134910
  0
VERTEX
  8
gko
 10
10.397920
 20
4.144510
  0
VERTEX
  8
gko
 10
10.395060
 20
4.154090
  0
VERTEX
  8
gko
 10
10.392120
 20
4.163630
  0
VERTEX
  8
gko
 10
10.389080
 20
4.173150
  0
VERTEX
  8
gko
 10
10.385960
 20
4.182640
  0
VERTEX
  8
gko
 10
10.382760
 20
4.192110
  0
VERTEX
  8
gko
 10
10.379460
 20
4.201540
  0
VERTEX
  8
gko
 10
10.376080
 20
4.210940
  0
VERTEX
  8
gko
 10
10.372610
 20
4.220310
  0
VERTEX
  8
gko
 10
10.369060
 20
4.229650
  0
VERTEX
  8
gko
 10
10.365420
 20
4.238950
  0
VERTEX
  8
gko
 10
10.361700
 20
4.248230
  0
VERTEX
  8
gko
 10
10.357890
 20
4.257460
  0
VERTEX
  8
gko
 10
10.354000
 20
4.266660
  0
VERTEX
  8
gko
 10
10.350020
 20
4.275830
  0
VERTEX
  8
gko
 10
10.345960
 20
4.284960
  0
VERTEX
  8
gko
 10
10.341810
 20
4.294050
  0
VERTEX
  8
gko
 10
10.337590
 20
4.303100
  0
VERTEX
  8
gko
 10
10.333280
 20
4.312110
  0
VERTEX
  8
gko
 10
10.328880
 20
4.321090
  0
VERTEX
  8
gko
 10
10.324410
 20
4.330020
  0
VERTEX
  8
gko
 10
10.319850
 20
4.338910
  0
VERTEX
  8
gko
 10
10.315210
 20
4.347760
  0
VERTEX
  8
gko
 10
10.310500
 20
4.356570
  0
VERTEX
  8
gko
 10
10.305690
 20
4.365330
  0
VERTEX
  8
gko
 10
10.300810
 20
4.374050
  0
VERTEX
  8
gko
 10
10.295860
 20
4.382720
  0
VERTEX
  8
gko
 10
10.290820
 20
4.391350
  0
VERTEX
  8
gko
 10
10.285700
 20
4.399930
  0
VERTEX
  8
gko
 10
10.280500
 20
4.408460
  0
VERTEX
  8
gko
 10
10.275230
 20
4.416950
  0
VERTEX
  8
gko
 10
10.269880
 20
4.425390
  0
VERTEX
  8
gko
 10
10.264450
 20
4.433770
  0
VERTEX
  8
gko
 10
10.258940
 20
4.442110
  0
VERTEX
  8
gko
 10
10.253360
 20
4.450400
  0
VERTEX
  8
gko
 10
10.247700
 20
4.458630
  0
VERTEX
  8
gko
 10
10.241970
 20
4.466810
  0
VERTEX
  8
gko
 10
10.236160
 20
4.474940
  0
VERTEX
  8
gko
 10
10.230280
 20
4.483020
  0
VERTEX
  8
gko
 10
10.224320
 20
4.491040
  0
VERTEX
  8
gko
 10
10.218290
 20
4.499010
  0
VERTEX
  8
gko
 10
10.212190
 20
4.506920
  0
VERTEX
  8
gko
 10
10.206020
 20
4.514770
  0
VERTEX
  8
gko
 10
10.199770
 20
4.522570
  0
VERTEX
  8
gko
 10
10.193450
 20
4.530310
  0
VERTEX
  8
gko
 10
10.187060
 20
4.537990
  0
VERTEX
  8
gko
 10
10.180610
 20
4.545620
  0
VERTEX
  8
gko
 10
10.174080
 20
4.553180
  0
VERTEX
  8
gko
 10
10.167480
 20
4.560680
  0
VERTEX
  8
gko
 10
10.160820
 20
4.568130
  0
VERTEX
  8
gko
 10
10.154080
 20
4.575510
  0
VERTEX
  8
gko
 10
10.147280
 20
4.582830
  0
VERTEX
  8
gko
 10
10.140410
 20
4.590080
  0
VERTEX
  8
gko
 10
10.133480
 20
4.597280
  0
VERTEX
  8
gko
 10
10.126480
 20
4.604400
  0
VERTEX
  8
gko
 10
10.119410
 20
4.611470
  0
VERTEX
  8
gko
 10
10.112280
 20
4.618470
  0
VERTEX
  8
gko
 10
10.105090
 20
4.625400
  0
VERTEX
  8
gko
 10
10.097830
 20
4.632270
  0
VERTEX
  8
gko
 10
10.090520
 20
4.639070
  0
VERTEX
  8
gko
 10
10.083130
 20
4.645800
  0
VERTEX
  8
gko
 10
10.075690
 20
4.652470
  0
VERTEX
  8
gko
 10
10.068190
 20
4.659070
  0
VERTEX
  8
gko
 10
10.060620
 20
4.665600
  0
VERTEX
  8
gko
 10
10.053000
 20
4.672050
  0
VERTEX
  8
gko
 10
10.045320
 20
4.678440
  0
VERTEX
  8
gko
 10
10.037580
 20
4.684760
  0
VERTEX
  8
gko
 10
10.029780
 20
4.691000
  0
VERTEX
  8
gko
 10
10.021920
 20
4.697180
  0
VERTEX
  8
gko
 10
10.014010
 20
4.703280
  0
VERTEX
  8
gko
 10
10.006050
 20
4.709310
  0
VERTEX
  8
gko
 10
9.998020
 20
4.715260
  0
VERTEX
  8
gko
 10
9.989950
 20
4.721150
  0
VERTEX
  8
gko
 10
9.981820
 20
4.726950
  0
VERTEX
  8
gko
 10
9.973630
 20
4.732690
  0
VERTEX
  8
gko
 10
9.965400
 20
4.738350
  0
VERTEX
  8
gko
 10
9.957110
 20
4.743930
  0
VERTEX
  8
gko
 10
9.948780
 20
4.749430
  0
VERTEX
  8
gko
 10
9.940390
 20
4.754860
  0
VERTEX
  8
gko
 10
9.931950
 20
4.760210
  0
VERTEX
  8
gko
 10
9.923470
 20
4.765490
  0
VERTEX
  8
gko
 10
9.914930
 20
4.770680
  0
VERTEX
  8
gko
 10
9.906350
 20
4.775800
  0
VERTEX
  8
gko
 10
9.897720
 20
4.780840
  0
VERTEX
  8
gko
 10
9.889050
 20
4.785800
  0
VERTEX
  8
gko
 10
9.880330
 20
4.790680
  0
VERTEX
  8
gko
 10
9.871570
 20
4.795480
  0
VERTEX
  8
gko
 10
9.862760
 20
4.800200
  0
VERTEX
  8
gko
 10
9.853910
 20
4.804830
  0
VERTEX
  8
gko
 10
9.845020
 20
4.809390
  0
VERTEX
  8
gko
 10
9.836090
 20
4.813870
  0
VERTEX
  8
gko
 10
9.827120
 20
4.818260
  0
VERTEX
  8
gko
 10
9.818100
 20
4.822570
  0
VERTEX
  8
gko
 10
9.809050
 20
4.826800
  0
VERTEX
  8
gko
 10
9.799960
 20
4.830940
  0
VERTEX
  8
gko
 10
9.790830
 20
4.835000
  0
VERTEX
  8
gko
 10
9.781660
 20
4.838980
  0
VERTEX
  8
gko
 10
9.772460
 20
4.842870
  0
VERTEX
  8
gko
 10
9.763220
 20
4.846680
  0
VERTEX
  8
gko
 10
9.753950
 20
4.850400
  0
VERTEX
  8
gko
 10
9.744650
 20
4.854040
  0
VERTEX
  8
gko
 10
9.735310
 20
4.857590
  0
VERTEX
  8
gko
 10
9.725940
 20
4.861060
  0
VERTEX
  8
gko
 10
9.716540
 20
4.864440
  0
VERTEX
  8
gko
 10
9.707100
 20
4.867730
  0
VERTEX
  8
gko
 10
9.697640
 20
4.870940
  0
VERTEX
  8
gko
 10
9.688150
 20
4.874060
  0
VERTEX
  8
gko
 10
9.678630
 20
4.877090
  0
VERTEX
  8
gko
 10
9.669080
 20
4.880040
  0
VERTEX
  8
gko
 10
9.659510
 20
4.882900
  0
VERTEX
  8
gko
 10
9.649910
 20
4.885670
  0
VERTEX
  8
gko
 10
9.640290
 20
4.888350
  0
VERTEX
  8
gko
 10
9.630640
 20
4.890940
  0
VERTEX
  8
gko
 10
9.620970
 20
4.893450
  0
VERTEX
  8
gko
 10
9.611270
 20
4.895860
  0
VERTEX
  8
gko
 10
9.601560
 20
4.898190
  0
VERTEX
  8
gko
 10
9.591820
 20
4.900430
  0
VERTEX
  8
gko
 10
9.582060
 20
4.902580
  0
VERTEX
  8
gko
 10
9.572280
 20
4.904640
  0
VERTEX
  8
gko
 10
9.562490
 20
4.906610
  0
VERTEX
  8
gko
 10
9.552680
 20
4.908490
  0
VERTEX
  8
gko
 10
9.542850
 20
4.910280
  0
VERTEX
  8
gko
 10
9.533000
 20
4.911980
  0
VERTEX
  8
gko
 10
9.523140
 20
4.913590
  0
VERTEX
  8
gko
 10
9.513270
 20
4.915100
  0
VERTEX
  8
gko
 10
9.503380
 20
4.916530
  0
VERTEX
  8
gko
 10
9.493480
 20
4.917870
  0
VERTEX
  8
gko
 10
9.483560
 20
4.919110
  0
VERTEX
  8
gko
 10
9.473640
 20
4.920270
  0
VERTEX
  8
gko
 10
9.463710
 20
4.921330
  0
VERTEX
  8
gko
 10
9.453760
 20
4.922310
  0
VERTEX
  8
gko
 10
9.443810
 20
4.923190
  0
VERTEX
  8
gko
 10
9.433850
 20
4.923980
  0
VERTEX
  8
gko
 10
9.423880
 20
4.924680
  0
VERTEX
  8
gko
 10
9.413910
 20
4.925280
  0
VERTEX
  8
gko
 10
9.403930
 20
4.925800
  0
VERTEX
  8
gko
 10
9.393950
 20
4.926230
  0
VERTEX
  8
gko
 10
9.383960
 20
4.926560
  0
VERTEX
  8
gko
 10
9.373980
 20
4.926800
  0
VERTEX
  8
gko
 10
9.363990
 20
4.926950
  0
VERTEX
  8
gko
 10
9.354000
 20
4.927010
  0
SEQEND
  8
gko
  0
POLYLINE
  8
gko
 62
6
 40
0.000000
 41
0.000000
 66
  1
  0
VERTEX
  8
gko
 10
7.593050
 20
4.927020
  0
VERTEX
  8
gko
 10
7.583030
 20
4.926960
  0
VERTEX
  8
gko
 10
7.573010
 20
4.926810
  0
VERTEX
  8
gko
 10
7.562990
 20
4.926560
  0
VERTEX
  8
gko
 10
7.552970
 20
4.926230
  0
VERTEX
  8
gko
 10
7.542960
 20
4.925800
  0
VERTEX
  8
gko
 10
7.532950
 20
4.925280
  0
VERTEX
  8
gko
 10
7.522950
 20
4.924670
  0
VERTEX
  8
gko
 10
7.512960
 20
4.923970
  0
VERTEX
  8
gko
 10
7.502970
 20
4.923170
  0
VERTEX
  8
gko
 10
7.492990
 20
4.922290
  0
VERTEX
  8
gko
 10
7.483010
 20
4.921310
  0
VERTEX
  8
gko
 10
7.473050
 20
4.920240
  0
VERTEX
  8
gko
 10
7.463100
 20
4.919080
  0
VERTEX
  8
gko
 10
7.453160
 20
4.917820
  0
VERTEX
  8
gko
 10
7.443220
 20
4.916480
  0
VERTEX
  8
gko
 10
7.433310
 20
4.915040
  0
VERTEX
  8
gko
 10
7.423400
 20
4.913510
  0
VERTEX
  8
gko
 10
7.413520
 20
4.911890
  0
VERTEX
  8
gko
 10
7.403640
 20
4.910190
  0
VERTEX
  8
gko
 10
7.393780
 20
4.908390
  0
VERTEX
  8
gko
 10
7.383940
 20
4.906500
  0
VERTEX
  8
gko
 10
7.374120
 20
4.904510
  0
VERTEX
  8
gko
 10
7.364320
 20
4.902440
  0
VERTEX
  8
gko
 10
7.354530
 20
4.900280
  0
VERTEX
  8
gko
 10
7.344770
 20
4.898030
  0
VERTEX
  8
gko
 10
7.335020
 20
4.895690
  0
VERTEX
  8
gko
 10
7.325300
 20
4.893260
  0
VERTEX
  8
gko
 10
7.315600
 20
4.890740
  0
VERTEX
  8
gko
 10
7.305930
 20
4.888130
  0
VERTEX
  8
gko
 10
7.296280
 20
4.885430
  0
VERTEX
  8
gko
 10
7.286650
 20
4.882650
  0
VERTEX
  8
gko
 10
7.277050
 20
4.879770
  0
VERTEX
  8
gko
 10
7.267480
 20
4.876810
  0
VERTEX
  8
gko
 10
7.257930
 20
4.873760
  0
VERTEX
  8
gko
 10
7.248420
 20
4.870620
  0
VERTEX
  8
gko
 10
7.238930
 20
4.867390
  0
VERTEX
  8
gko
 10
7.229470
 20
4.864080
  0
VERTEX
  8
gko
 10
7.220050
 20
4.860680
  0
VERTEX
  8
gko
 10
7.210650
 20
4.857190
  0
VERTEX
  8
gko
 10
7.201290
 20
4.853620
  0
VERTEX
  8
gko
 10
7.191960
 20
4.849960
  0
VERTEX
  8
gko
 10
7.182670
 20
4.846210
  0
VERTEX
  8
gko
 10
7.173410
 20
4.842380
  0
VERTEX
  8
gko
 10
7.164180
 20
4.838470
  0
VERTEX
  8
gko
 10
7.154990
 20
4.834470
  0
VERTEX
  8
gko
 10
7.145840
 20
4.830390
  0
VERTEX
  8
gko
 10
7.136730
 20
4.826220
  0
VERTEX
  8
gko
 10
7.127660
 20
4.821970
  0
VERTEX
  8
gko
 10
7.118620
 20
4.817630
  0
VERTEX
  8
gko
 10
7.109630
 20
4.813210
  0
VERTEX
  8
gko
 10
7.100680
 20
4.808710
  0
VERTEX
  8
gko
 10
7.091760
 20
4.804130
  0
VERTEX
  8
gko
 10
7.082890
 20
4.799470
  0
VERTEX
  8
gko
 10
7.074070
 20
4.794720
  0
VERTEX
  8
gko
 10
7.065290
 20
4.789900
  0
VERTEX
  8
gko
 10
7.056550
 20
4.784990
  0
VERTEX
  8
gko
 10
7.047860
 20
4.780000
  0
VERTEX
  8
gko
 10
7.039210
 20
4.774930
  0
VERTEX
  8
gko
 10
7.030610
 20
4.769790
  0
VERTEX
  8
gko
 10
7.022070
 20
4.764560
  0
VERTEX
  8
gko
 10
7.013560
 20
4.759260
  0
VERTEX
  8
gko
 10
7.005110
 20
4.753880
  0
VERTEX
  8
gko
 10
6.996710
 20
4.748420
  0
VERTEX
  8
gko
 10
6.988350
 20
4.742880
  0
VERTEX
  8
gko
 10
6.980050
 20
4.737270
  0
VERTEX
  8
gko
 10
6.971800
 20
4.731580
  0
VERTEX
  8
gko
 10
6.963610
 20
4.725810
  0
VERTEX
  8
gko
 10
6.955460
 20
4.719970
  0
VERTEX
  8
gko
 10
6.947370
 20
4.714060
  0
VERTEX
  8
gko
 10
6.939340
 20
4.708070
  0
VERTEX
  8
gko
 10
6.931360
 20
4.702010
  0
VERTEX
  8
gko
 10
6.923440
 20
4.695870
  0
VERTEX
  8
gko
 10
6.915570
 20
4.689670
  0
VERTEX
  8
gko
 10
6.907760
 20
4.683390
  0
VERTEX
  8
gko
 10
6.900010
 20
4.677030
  0
VERTEX
  8
gko
 10
6.892320
 20
4.670610
  0
VERTEX
  8
gko
 10
6.884690
 20
4.664120
  0
VERTEX
  8
gko
 10
6.877120
 20
4.657560
  0
VERTEX
  8
gko
 10
6.869610
 20
4.650920
  0
VERTEX
  8
gko
 10
6.862150
 20
4.644220
  0
VERTEX
  8
gko
 10
6.854770
 20
4.637450
  0
VERTEX
  8
gko
 10
6.847440
 20
4.630620
  0
VERTEX
  8
gko
 10
6.840180
 20
4.623710
  0
VERTEX
  8
gko
 10
6.832980
 20
4.616740
  0
VERTEX
  8
gko
 10
6.825850
 20
4.609700
  0
VERTEX
  8
gko
 10
6.818780
 20
4.602600
  0
VERTEX
  8
gko
 10
6.811770
 20
4.595440
  0
VERTEX
  8
gko
 10
6.804830
 20
4.588210
  0
VERTEX
  8
gko
 10
6.797970
 20
4.580910
  0
VERTEX
  8
gko
 10
6.791160
 20
4.573550
  0
VERTEX
  8
gko
 10
6.784430
 20
4.566130
  0
VERTEX
  8
gko
 10
6.777760
 20
4.558650
  0
VERTEX
  8
gko
 10
6.771160
 20
4.551110
  0
VERTEX
  8
gko
 10
6.764630
 20
4.543510
  0
VERTEX
  8
gko
 10
6.758180
 20
4.535850
  0
VERTEX
  8
gko
 10
6.751790
 20
4.528130
  0
VERTEX
  8
gko
 10
6.745470
 20
4.520350
  0
VERTEX
  8
gko
 10
6.739230
 20
4.512510
  0
VERTEX
  8
gko
 10
6.733060
 20
4.504610
  0
VERTEX
  8
gko
 10
6.726960
 20
4.496660
  0
VERTEX
  8
gko
 10
6.720930
 20
4.488660
  0
VERTEX
  8
gko
 10
6.714980
 20
4.480600
  0
VERTEX
  8
gko
 10
6.709110
 20
4.472480
  0
VERTEX
  8
gko
 10
6.703300
 20
4.464310
  0
VERTEX
  8
gko
 10
6.697580
 20
4.456090
  0
VERTEX
  8
gko
 10
6.691930
 20
4.447810
  0
VERTEX
  8
gko
 10
6.686350
 20
4.439480
  0
VERTEX
  8
gko
 10
6.680850
 20
4.431110
  0
VERTEX
  8
gko
 10
6.675430
 20
4.422680
  0
VERTEX
  8
gko
 10
6.670090
 20
4.414200
  0
VERTEX
  8
gko
 10
6.664830
 20
4.405670
  0
VERTEX
  8
gko
 10
6.659640
 20
4.397100
  0
VERTEX
  8
gko
 10
6.654530
 20
4.388480
  0
VERTEX
  8
gko
 10
6.649510
 20
4.379810
  0
VERTEX
  8
gko
 10
6.644560
 20
4.371100
  0
VERTEX
  8
gko
 10
6.639690
 20
4.362340
  0
VERTEX
  8
gko
 10
6.634910
 20
4.353530
  0
VERTEX
  8
gko
 10
6.630200
 20
4.344690
  0
VERTEX
  8
gko
 10
6.625580
 20
4.335790
  0
VERTEX
  8
gko
 10
6.621040
 20
4.326860
  0
VERTEX
  8
gko
 10
6.616580
 20
4.317890
  0
VERTEX
  8
gko
 10
6.612200
 20
4.308870
  0
VERTEX
  8
gko
 10
6.607910
 20
4.299820
  0
VERTEX
  8
gko
 10
6.603700
 20
4.290730
  0
VERTEX
  8
gko
 10
6.599570
 20
4.281600
  0
VERTEX
  8
gko
 10
6.595530
 20
4.272430
  0
VERTEX
  8
gko
 10
6.591580
 20
4.263220
  0
VERTEX
  8
gko
 10
6.587700
 20
4.253980
  0
VERTEX
  8
gko
 10
6.583920
 20
4.244700
  0
VERTEX
  8
gko
 10
6.580210
 20
4.235390
  0
VERTEX
  8
gko
 10
6.576600
 20
4.226040
  0
VERTEX
  8
gko
 10
6.573070
 20
4.216660
  0
VERTEX
  8
gko
 10
6.569620
 20
4.207250
  0
VERTEX
  8
gko
 10
6.566270
 20
4.197810
  0
VERTEX
  8
gko
 10
6.563000
 20
4.188340
  0
VERTEX
  8
gko
 10
6.559820
 20
4.178840
  0
VERTEX
  8
gko
 10
6.556720
 20
4.169310
  0
VERTEX
  8
gko
 10
6.553710
 20
4.159750
  0
VERTEX
  8
gko
 10
6.550800
 20
4.150160
  0
VERTEX
  8
gko
 10
6.547970
 20
4.140550
  0
VERTEX
  8
gko
 10
6.545220
 20
4.130910
  0
VERTEX
  8
gko
 10
6.542570
 20
4.121250
  0
VERTEX
  8
gko
 10
6.540010
 20
4.111560
  0
VERTEX
  8
gko
 10
6.537530
 20
4.101850
  0
VERTEX
  8
gko
 10
6.535140
 20
4.092120
  0
VERTEX
  8
gko
 10
6.532850
 20
4.082370
  0
VERTEX
  8
gko
 10
6.530640
 20
4.072590
  0
VERTEX
  8
gko
 10
6.528520
 20
4.062800
  0
VERTEX
  8
gko
 10
6.526500
 20
4.052980
  0
VERTEX
  8
gko
 10
6.524560
 20
4.043150
  0
VERTEX
  8
gko
 10
6.522720
 20
4.033300
  0
VERTEX
  8
gko
 10
6.520960
 20
4.023440
  0
VERTEX
  8
gko
 10
6.519300
 20
4.013560
  0
VERTEX
  8
gko
 10
6.517730
 20
4.003660
  0
VERTEX
  8
gko
 10
6.516240
 20
3.993750
  0
VERTEX
  8
gko
 10
6.514850
 20
3.983820
  0
VERTEX
  8
gko
 10
6.513560
 20
3.973890
  0
VERTEX
  8
gko
 10
6.512350
 20
3.963940
  0
VERTEX
  8
gko
 10
6.511230
 20
3.953980
  0
VERTEX
  8
gko
 10
6.510210
 20
3.944020
  0
VERTEX
  8
gko
 10
6.509270
 20
3.934040
  0
VERTEX
  8
gko
 10
6.508430
 20
3.924050
  0
VERTEX
  8
gko
 10
6.507680
 20
3.914060
  0
VERTEX
  8
gko
 10
6.507030
 20
3.904060
  0
VERTEX
  8
gko
 10
6.506460
 20
3.894060
  0
VERTEX
  8
gko
 10
6.505990
 20
3.884050
  0
VERTEX
  8
gko
 10
6.505610
 20
3.874030
  0
VERTEX
  8
gko
 10
6.505320
 20
3.864020
  0
VERTEX
  8
gko
 10
6.505120
 20
3.854000
  0
VERTEX
  8
gko
 10
6.505020
 20
3.843980
  0
SEQEND
  8
gko
  0
POLYLINE
  8
gko
 62
6
 40
0.000000
 41
0.000000
 66
  1
  0
VERTEX
  8
gko
 10
10.442010
 20
1.490010
  0
VERTEX
  8
gko
 10
10.442010
 20
3.838990
  0
SEQEND
  8
gko
  0
POLYLINE
  8
gko
 62
6
 40
0.000000
 41
0.000000
 66
  1
  0
VERTEX
  8
gko
 10
7.593050
 20
4.927020
  0
VERTEX
  8
gko
 10
9.353990
 20
4.927010
  0
SEQEND
  8
gko
  0
POLYLINE
  8
gko
 62
6
 40
0.000000
 41
0.000000
 66
  1
  0
VERTEX
  8
gko
 10
6.505000
 20
1.495000
  0
VERTEX
  8
gko
 10
6.505000
 20
3.843980
  0
SEQEND
  8
gko
  0
POLYLINE
  8
gko
 62
6
 40
0.000000
 41
0.000000
 66
  1
  0
VERTEX
  8
gko
 10
9.835010
 20
0.990530
  0
VERTEX
  8
gko
 10
9.928920
 20
0.990530
  0
SEQEND
  8
gko
  0
POLYLINE
  8
gko
 62
6
 40
0.000000
 41
0.000000
 66
  1
  0
VERTEX
  8
gko
 10
7.017500
 20
0.994690
  0
VERTEX
  8
gko
 10
7.112220
 20
0.994230
  0
SEQEND
  8
gko
  0
ENDSEC
  0
EOF
